<?xml version="1.0" encoding="utf-8"?>
<!-- Generator: Adobe Illustrator 23.0.1, SVG Export Plug-In . SVG Version: 6.00 Build 0)  -->
<svg version="1.1" id="레이어_1" xmlns="http://www.w3.org/2000/svg" xmlns:xlink="http://www.w3.org/1999/xlink" x="0px"
	 y="0px" viewBox="0 0 512 512" style="enable-background:new 0 0 512 512;" xml:space="preserve">
<style type="text/css">
	.st0{fill:none;}
	.st1{fill:#CECECE;}
	.st2{fill:#E2E2E2;}
</style>
<g>
	<polygon class="st0" points="359.5,195.9 255.4,135.8 255.3,135.9 151.3,195.9 151.3,196.2 151.3,316.1 151.6,316.3 255.3,376.2 
		255.4,376.1 255.4,376.2 255.4,376.2 255.6,376.1 359.5,316.1 359.5,196.1 359.5,196.1 359.5,196.1 359.5,196.1 	"/>
	<polygon class="st1" points="255.4,135.8 359.5,195.9 359.5,196.1 359.5,196.1 359.5,76.1 359.5,76 359.5,76 255.6,16 151.6,76 
		151.6,76 255.3,135.9 	"/>
	<polygon class="st2" points="151.3,195.9 255.3,135.9 151.6,76 47.7,136.1 47.7,256 151.3,196.2 	"/>
	<polygon class="st1" points="151.6,316.3 151.3,316.1 151.3,196.2 47.7,256 47.7,256.1 47.7,376 48,376.2 151.6,316.7 	"/>
	<polygon class="st2" points="151.5,316.2 151.3,316.3 151.3,316.3 151.3,436.2 151.5,436.3 255.4,376.2 151.5,316.2 	"/>
	<polygon class="st2" points="359.5,76.1 359.5,196.1 359.5,196.1 359.5,196.1 359.5,316.1 359.5,316.1 359.5,316.1 463.5,256.1 
		463.5,136.1 	"/>
	<polygon class="st1" points="359.5,316.1 359.5,316.1 359.5,316.1 255.6,376.1 255.4,376 255.4,376 255.3,376.1 255.3,376.1 
		255.3,496 255.4,496.1 359.4,436.1 359.5,436.2 359.5,436.2 463.5,376.1 463.5,256.2 463.5,256.1 	"/>
</g>
</svg>
