<?xml version="1.0" encoding="utf-8"?>
<!-- Generator: Adobe Illustrator 23.0.1, SVG Export Plug-In . SVG Version: 6.00 Build 0)  -->
<svg version="1.1" id="레이어_1" xmlns="http://www.w3.org/2000/svg" xmlns:xlink="http://www.w3.org/1999/xlink" x="0px"
	 y="0px" viewBox="0 0 1322 1385" style="enable-background:new 0 0 1322 1385;" xml:space="preserve">
<style type="text/css">
	.st0{fill:#FFC34D;}
	.st1{fill:#FFFFFF;}
	.st2{fill:#0BB8F4;}
	.st3{fill:#68CD00;}
	.st4{fill:#FF671F;}
</style>
<g>
	<path class="st0" d="M782.22,301.57l0.74-0.75h-1.48l-84.86-85.95v49.99c-7.25,0-15.49,0-24.83,0
		c-126.25,0-184.64-71.96-197.92-91.07c-0.98-1.55-1.99-3.08-3.01-4.61c0,0,0-0.01,0-0.01v0
		c-42.76-63.93-115.62-106.02-198.3-106.02c-131.67,0-238.41,106.74-238.41,238.41s106.74,238.41,238.41,238.41
		c84.67,0,159.02-44.13,201.32-110.65c13.3-19.13,71.69-91.06,197.92-91.06c9.34,0,17.58,0,24.83,0v49.99l84.86-85.95h1.48
		L782.22,301.57z M272.55,524.75c-123.26,0-223.18-99.92-223.18-223.18S149.29,78.39,272.55,78.39s223.18,99.92,223.18,223.18
		S395.81,524.75,272.55,524.75z"/>
	<circle class="st1" cx="272.55" cy="301.57" r="223.18"/>
</g>
<g>
	<path d="M160.94,319.11v-26.36h5.41v26.36h33.72v4.58h-63.08v-4.58H160.94z M182.41,309.64c0.45-2.3,0.84-4.57,1.16-6.8
		c0.32-2.23,0.6-4.46,0.83-6.68c0.23-2.23,0.4-4.51,0.53-6.83c0.12-2.33,0.19-4.74,0.19-7.25v-6.23h-40.18v-4.66h45.66v8.11
		c0,3.15-0.05,6.1-0.15,8.82c-0.1,2.73-0.26,5.33-0.49,7.81c-0.23,2.48-0.5,4.89-0.83,7.25c-0.33,2.35-0.71,4.73-1.16,7.13
		L182.41,309.64z"/>
	<path d="M206.74,300.48c4.71-2.25,8.47-4.17,11.3-5.74c2.83-1.58,4.97-3.12,6.42-4.62c1.45-1.5,2.4-3.12,2.85-4.84
		c0.45-1.73,0.68-3.87,0.68-6.42v-5.03h-19.45v-4.66h24.56v10.36c0,3.25-0.35,5.96-1.05,8.11c-0.7,2.15-1.95,4.11-3.75,5.86
		c-1.8,1.75-4.26,3.49-7.36,5.22c-3.1,1.73-7.06,3.74-11.87,6.05L206.74,300.48z M218.68,308.97h44.68v24.93h-5.26v-20.28h-39.43
		V308.97z M247.67,281.33h10.51v-16.6h5.18v40.18h-5.18v-18.85h-10.51v18.7h-5.18v-39.13h5.18V281.33z"/>
	<path d="M293.55,287.34c-0.1,0.65-0.69,1.54-1.76,2.67c-1.08,1.13-2.44,2.49-4.09,4.09c-1.3,1.25-2.97,2.74-4.99,4.47
		c-2.03,1.73-4.09,3.42-6.2,5.07l-3.3-3.83c2.05-1.5,4.17-3.17,6.35-4.99c2.18-1.83,4.12-3.59,5.82-5.29
		c1.2-1.2,2.14-2.25,2.82-3.15c0.68-0.9,1.2-1.79,1.58-2.67c0.38-0.88,0.61-1.83,0.71-2.85c0.1-1.03,0.15-2.24,0.15-3.64v-9.39h5.41
		v9.24c0,1.4,0.05,2.59,0.15,3.57c0.1,0.98,0.34,1.89,0.71,2.74c0.38,0.85,0.93,1.72,1.65,2.59c0.73,0.88,1.71,1.87,2.97,2.97
		c1.85,1.6,3.73,3.17,5.63,4.69c1.9,1.53,3.68,2.89,5.33,4.09l-3.15,3.68c-2-1.5-3.82-2.92-5.44-4.24
		c-1.63-1.33-3.09-2.54-4.39-3.64c-3.56-3-5.51-5.06-5.86-6.16H293.55z M307.22,306.64c2.8,0,5.44,0.3,7.92,0.9
		c2.48,0.6,4.64,1.45,6.5,2.55c1.85,1.1,3.32,2.45,4.39,4.06c1.08,1.6,1.61,3.38,1.61,5.33v2.85c0,1.95-0.54,3.73-1.61,5.33
		c-1.08,1.6-2.54,2.95-4.39,4.06c-1.85,1.1-4.02,1.95-6.5,2.55c-2.48,0.6-5.12,0.9-7.92,0.9c-2.8,0-5.44-0.3-7.92-0.9
		s-4.64-1.45-6.5-2.55c-1.85-1.1-3.32-2.45-4.39-4.06c-1.08-1.6-1.61-3.38-1.61-5.33v-2.85c0-2,0.54-3.8,1.61-5.41
		c1.08-1.6,2.54-2.95,4.39-4.06c1.85-1.1,4.02-1.94,6.5-2.52C301.78,306.93,304.42,306.64,307.22,306.64z M307.22,330.67
		c2,0,3.93-0.2,5.78-0.6c1.85-0.4,3.48-0.96,4.88-1.69c1.4-0.73,2.53-1.61,3.38-2.67c0.85-1.05,1.28-2.25,1.28-3.6v-2.4
		c0-1.35-0.43-2.55-1.28-3.6c-0.85-1.05-1.98-1.94-3.38-2.67c-1.4-0.73-3.03-1.29-4.88-1.69c-1.85-0.4-3.78-0.6-5.78-0.6
		c-2,0-3.93,0.2-5.78,0.6c-1.85,0.4-3.48,0.96-4.88,1.69c-1.4,0.73-2.53,1.61-3.38,2.67c-0.85,1.05-1.28,2.25-1.28,3.6v2.4
		c0,1.35,0.42,2.55,1.28,3.6c0.85,1.05,1.98,1.94,3.38,2.67c1.4,0.73,3.03,1.29,4.88,1.69
		C303.29,330.47,305.22,330.67,307.22,330.67z M327.27,282.08h10.51v4.66h-10.51v18.4h-5.26v-40.4h5.26V282.08z"/>
	<path d="M345.6,268.87h31.47v4.66h-26.21v19.75c3.75,0,7.06-0.01,9.91-0.04c2.85-0.02,5.49-0.1,7.92-0.23
		c2.43-0.12,4.78-0.29,7.06-0.49c2.28-0.2,4.77-0.45,7.47-0.75l0.6,4.66c-1.85,0.25-3.6,0.45-5.26,0.6
		c-1.65,0.15-3.3,0.29-4.96,0.41c-1.65,0.13-3.39,0.23-5.22,0.3c-1.83,0.08-3.84,0.13-6.05,0.15c-2.2,0.03-4.67,0.05-7.4,0.07
		c-2.73,0.03-5.85,0.04-9.35,0.04V268.87z M354.68,307.09h41.23v26.13h-41.23V307.09z M359.79,328.49h31.01v-16.67h-31.01V328.49z
		 M395.91,280.88h10.51v4.66h-10.51v17.5h-5.26v-38.3h5.26V280.88z"/>
</g>
<g>
	<path class="st2" d="M1041.56,811.98l0-1.48l85.87-84.93l-49.99,0.04c-0.01-7.25-0.01-15.49-0.02-24.83
		c-0.11-126.25,71.8-184.7,90.9-198c1.55-0.99,3.08-1.99,4.61-3.01c0,0,0.01,0,0.01,0h0c63.89-42.82,105.92-115.71,105.85-198.39
		c-0.11-131.67-106.95-238.32-238.62-238.21S801.84,170.11,801.96,301.78c0.07,82.69,42.24,155.5,106.21,198.21l-0.01,0
		c0,0,0.04,0.02,0.1,0.06c1.5,1,3.01,1.99,4.53,2.96c19.14,13.28,91.12,71.61,91.23,197.84c0.01,9.34,0.02,17.58,0.02,24.83
		l-49.99,0.04l86.02,84.79l0,1.48l0.75-0.74L1041.56,811.98z M817.19,301.77c-0.11-123.26,99.73-223.26,222.99-223.37
		s223.26,99.73,223.37,222.99c0.07,86.31-48.86,161.22-120.52,198.41c-30.68,15.92-65.52,24.93-102.47,24.96
		c-35.87,0.03-69.78-8.41-99.82-23.42c-0.9-0.45-1.79-0.91-2.69-1.37C866.33,462.9,817.27,388.08,817.19,301.77z"/>
	<path class="st1" d="M1040.56,524.76c36.95-0.03,71.79-9.04,102.47-24.96c71.66-37.19,120.6-112.1,120.52-198.41
		c-0.11-123.26-100.11-223.09-223.37-222.99S817.09,178.51,817.19,301.77c0.07,86.31,49.13,161.13,120.86,198.2
		c0.89,0.46,1.79,0.92,2.69,1.37C970.79,516.35,1004.69,524.79,1040.56,524.76z"/>
</g>
<g>
	<path d="M876.08,313.73c5.75-3.31,10.33-6.15,13.74-8.54c3.4-2.38,5.98-4.61,7.73-6.69c1.75-2.08,2.89-4.17,3.41-6.27
		c0.52-2.1,0.78-4.56,0.78-7.36l-0.01-8.64l-24.93,0.02l0-4.81l30.11-0.03l0.01,13.52c0,2.3-0.12,4.38-0.37,6.23
		c-0.25,1.85-0.74,3.61-1.46,5.26c-0.72,1.65-1.74,3.26-3.04,4.81c-1.3,1.55-2.99,3.18-5.06,4.89c-2.08,1.7-4.6,3.52-7.58,5.45
		c-2.98,1.93-6.49,4.07-10.55,6.43L876.08,313.73z M929.04,333.59l-5.33,0l-0.06-68.64l5.33,0L929.04,333.59z"/>
	<path d="M987.67,306.58c-2.25,0.3-4.77,0.57-7.55,0.79c-2.78,0.23-5.96,0.42-9.54,0.57c-3.58,0.15-7.65,0.27-12.2,0.35
		c-4.56,0.08-9.79,0.12-15.7,0.13l0-4.66c3.75,0,7.16-0.01,10.21-0.01c3.05,0,5.91-0.05,8.56-0.16l0-5.18
		c-4.41-0.3-7.66-1.31-9.77-3.03c-2.1-1.73-3.16-3.79-3.16-6.19l0-1.8c0-2.6,1.27-4.81,3.82-6.61c2.55-1.8,6.46-2.71,11.71-2.71
		c5.26,0,9.16,0.91,11.72,2.73c2.55,1.83,3.83,4.01,3.84,6.57l0,1.8c0,2.35-1.06,4.41-3.19,6.16c-2.13,1.76-5.37,2.78-9.72,3.09
		l0,5.11c2.2-0.05,4.24-0.13,6.12-0.23c1.88-0.1,3.64-0.22,5.29-0.34c1.65-0.13,3.22-0.27,4.69-0.42c1.48-0.15,2.94-0.3,4.39-0.45
		L987.67,306.58z M961.43,270.55l-0.01-6.53l5.26,0l0.01,6.53l16.22-0.01l0,4.51l-37.7,0.03l0-4.51L961.43,270.55z M952.38,313.97
		l45.36-0.04l0.02,20.28l-5.18,0l-0.01-15.62l-40.18,0.03L952.38,313.97z M964.07,282.42c-3.56,0-6.2,0.52-7.92,1.55
		c-1.73,1.03-2.59,2.24-2.59,3.64l0,1.35c0,1.4,0.87,2.62,2.59,3.64c1.73,1.03,4.37,1.54,7.92,1.53c3.55,0,6.2-0.52,7.92-1.55
		c1.73-1.03,2.59-2.24,2.59-3.64l0-1.35c0-1.4-0.87-2.61-2.59-3.64C970.26,282.93,967.62,282.41,964.07,282.42z M997.73,309.87
		l-5.26,0l-0.04-44.98l5.26,0L997.73,309.87z"/>
	<path d="M1053.79,266.27l-22.62,66.4l-5.03,0l22.55-66.4L1053.79,266.27z"/>
	<path d="M1129.72,270.03l0.03,34.24l-19.6,0.02l0.01,14.87l28.91-0.02l0,4.58l-63.08,0.05l0-4.58l28.91-0.02l-0.01-14.87
		l-19.6,0.02l-0.03-34.24l5.18,0l0.01,12.32l34.09-0.03l-0.01-12.32L1129.72,270.03z M1124.56,299.85l-0.01-12.92l-34.09,0.03
		l0.01,12.92L1124.56,299.85z"/>
	<path d="M1163.31,302.45c-2.55,0-4.87-0.43-6.95-1.31c-2.08-0.87-3.86-2.02-5.34-3.45c-1.48-1.43-2.61-3.05-3.38-4.88
		c-0.78-1.83-1.17-3.67-1.17-5.52l0-4.36c0-1.85,0.38-3.68,1.16-5.48c0.77-1.8,1.9-3.42,3.37-4.85c1.48-1.43,3.25-2.59,5.33-3.5
		c2.08-0.9,4.39-1.36,6.95-1.36c2.55,0,4.87,0.43,6.95,1.31c2.08,0.87,3.86,2.02,5.33,3.45c1.48,1.43,2.61,3.05,3.38,4.88
		c0.78,1.83,1.17,3.67,1.17,5.52l0,4.36c0,1.85-0.39,3.69-1.16,5.52c-0.78,1.83-1.9,3.46-3.38,4.88c-1.48,1.43-3.25,2.58-5.33,3.46
		C1168.18,302,1165.87,302.44,1163.31,302.45z M1163.29,272.48c-1.75,0-3.34,0.32-4.77,0.94c-1.43,0.63-2.65,1.44-3.68,2.44
		c-1.03,1-1.83,2.17-2.4,3.49c-0.57,1.33-0.86,2.67-0.86,4.02l0,3.45c0,1.4,0.29,2.75,0.87,4.05c0.58,1.3,1.38,2.46,2.41,3.49
		c1.03,1.03,2.25,1.84,3.68,2.44c1.43,0.6,3.02,0.9,4.77,0.9c1.75,0,3.34-0.3,4.77-0.91c1.43-0.6,2.65-1.42,3.68-2.44
		c1.02-1.03,1.82-2.19,2.4-3.49c0.57-1.3,0.86-2.65,0.86-4.06l0-3.45c0-1.4-0.29-2.75-0.87-4.05c-0.58-1.3-1.38-2.46-2.41-3.49
		c-1.03-1.02-2.26-1.84-3.68-2.44C1166.63,272.78,1165.04,272.48,1163.29,272.48z M1162.58,327.91l37.77-0.03l0,4.66l-43.11,0.04
		l-0.02-22.53l5.33,0L1162.58,327.91z M1198.22,285.52l10.51-0.01l0,4.66l-10.51,0.01l0.02,23.66l-5.26,0l-0.04-49.11l5.26,0
		L1198.22,285.52z"/>
</g>
<g>
	<path class="st3" d="M533.16,1066.57l-0.74,0.75h1.48l84.86,85.95v-49.99c7.25,0,15.49,0,24.83,0
		c126.25,0,184.64,71.96,197.92,91.07c0.98,1.55,1.99,3.08,3.01,4.61c0,0,0,0.01,0,0.01v0c42.76,63.93,115.62,106.02,198.3,106.02
		c131.67,0,238.41-106.74,238.41-238.41s-106.74-238.41-238.41-238.41c-82.69,0-155.54,42.1-198.3,106.02l0,0v0
		c-1.02,1.53-2.03,3.07-3.02,4.63c-13.3,19.13-71.69,91.06-197.92,91.06c-9.34,0-17.58,0-24.83,0v-49.99l-84.86,85.95h-1.48
		L533.16,1066.57z M1042.82,843.39c123.26,0,223.18,99.92,223.18,223.18s-99.92,223.18-223.18,223.18s-223.18-99.92-223.18-223.18
		S919.56,843.39,1042.82,843.39z"/>
	<circle class="st1" cx="1042.82" cy="1066.57" r="223.18"/>
</g>
<g>
	<path d="M944.42,1021.44c3.35-2.25,6.23-4.27,8.64-6.05c2.4-1.78,4.42-3.43,6.05-4.96c1.63-1.53,2.92-2.98,3.87-4.36
		c0.95-1.38,1.68-2.8,2.18-4.28c0.5-1.48,0.83-3.08,0.98-4.81c0.15-1.73,0.23-3.69,0.23-5.9v-7.51H945.7v-4.73h25.83v12.54
		c0,2.5-0.11,4.76-0.34,6.76c-0.23,2-0.64,3.87-1.24,5.59c-0.6,1.73-1.45,3.38-2.55,4.96c-1.1,1.58-2.55,3.22-4.36,4.92
		c-1.8,1.7-3.99,3.52-6.57,5.44c-2.58,1.93-5.62,4.09-9.12,6.5L944.42,1021.44z M986.47,996.81h10.36v-24.78h5.26v68.64h-5.26
		v-39.13h-10.36v35.75h-5.26v-63.83h5.26V996.81z"/>
	<path d="M1046.1,1003.79h-30.94v-29.81h5.11v10.59h20.73v-10.59h5.11V1003.79z M1020.27,999.21h20.73v-10.06h-20.73V999.21z
		 M1065.7,1010.78v17.27h-36.2v8.34h38v4.51h-43.18v-17.27h36.2v-8.26h-36.57v-4.58H1065.7z M1065.7,986.67h10.51v4.66h-10.51v15.39
		h-5.26v-34.7h5.26V986.67z"/>
	<path d="M1124.5,973.45l-22.68,66.39h-5.03l22.6-66.39H1124.5z"/>
	<path d="M971.72,1067.88v4.73h-20.73v14.34h16.67v4.66h-16.67v16.07h5.41c1.6,0,3.17-0.01,4.69-0.04c1.53-0.02,3.08-0.09,4.66-0.19
		c1.58-0.1,3.2-0.23,4.88-0.38c1.68-0.15,3.47-0.38,5.37-0.68l0.6,4.66c-3.9,0.6-7.6,0.98-11.08,1.13
		c-3.48,0.15-6.87,0.23-10.18,0.23h-9.69v-44.53H971.72z M982.68,1086.65v-23.36h5.26v63.83h-5.26v-35.67h-10.51v-4.81H982.68z
		 M1001.31,1130.51h-5.26v-68.64h5.26V1130.51z"/>
	<path d="M1073.85,1116.24v4.58h-63.08v-4.58H1073.85z M1042.23,1086.65c-0.3,0.75-1.16,1.76-2.59,3.04
		c-1.43,1.28-3.49,2.82-6.2,4.62c-2.25,1.5-4.82,3.12-7.7,4.84c-2.88,1.73-5.67,3.32-8.37,4.77l-2.85-4.21
		c3.3-1.7,6.33-3.37,9.09-4.99c2.75-1.63,5.01-3.04,6.76-4.24c1.85-1.25,3.38-2.38,4.58-3.38c1.2-1,2.14-2.07,2.82-3.19
		c0.68-1.13,1.14-2.38,1.39-3.76c0.25-1.38,0.38-3.09,0.38-5.14v-8.26h5.48v8.26c0,2.05,0.12,3.77,0.38,5.14
		c0.25,1.38,0.71,2.63,1.39,3.76c0.68,1.13,1.6,2.19,2.78,3.19c1.18,1,2.69,2.13,4.54,3.38c1.75,1.2,3.99,2.6,6.72,4.21
		c2.73,1.6,5.72,3.26,8.97,4.96l-2.78,4.13c-2.7-1.45-5.47-3.03-8.3-4.73c-2.83-1.7-5.37-3.3-7.62-4.81
		c-2.7-1.8-4.76-3.33-6.16-4.58c-1.4-1.25-2.28-2.25-2.63-3H1042.23z"/>
	<path d="M1142.19,1116.24v4.58h-63.08v-4.58H1142.19z M1133.77,1103.1h-45.43v-35.6h44.83v4.51h-39.65v11.04h39.28v4.51h-39.28
		v11.04h40.25V1103.1z"/>
</g>
<g>
	<path class="st4" d="M511.99,1087.62c-1.23-131.67-108.96-237.41-240.63-236.18C139.69,852.67,33.95,960.4,35.18,1092.07
		c1.23,131.67,108.96,237.41,240.63,236.18C407.48,1327.02,513.22,1219.28,511.99,1087.62z M275.67,1313.01
		c-123.25,1.15-224.1-97.83-225.25-221.09c-1.15-123.25,97.83-224.1,221.09-225.25c123.25-1.15,224.1,97.83,225.25,221.09
		C497.9,1211.01,398.92,1311.86,275.67,1313.01z"/>
	
		<ellipse transform="matrix(0.7071 -0.7071 0.7071 0.7071 -690.5029 512.6613)" class="st1" cx="273.59" cy="1089.84" rx="223.18" ry="223.18"/>
</g>
<g>
	<path d="M240.44,1077.44l-30.94,0.29l-0.28-29.81l5.11-0.05l0.1,10.59l20.73-0.19l-0.1-10.59l5.11-0.05L240.44,1077.44z
		 M214.56,1073.1l20.73-0.19l-0.09-10.06l-20.73,0.19L214.56,1073.1z M260.1,1084.24l0.16,17.27l-36.2,0.34l0.08,8.34l38-0.35
		l0.04,4.51l-43.18,0.4l-0.16-17.27l36.2-0.34l-0.08-8.26l-36.57,0.34l-0.04-4.58L260.1,1084.24z M259.88,1060.14l10.51-0.1
		l0.04,4.66l-10.51,0.1l0.14,15.39l-5.26,0.05l-0.32-34.69l5.26-0.05L259.88,1060.14z"/>
	<path d="M288.43,1053.71l-0.08-8.49l5.26-0.05l0.08,8.49l12.84-0.12l0.04,4.58l-32.07,0.3l-0.04-4.58L288.43,1053.71z
		 M291.36,1085.9c-2.1,0.02-4.02-0.25-5.75-0.81c-1.73-0.56-3.22-1.33-4.45-2.32c-1.24-0.99-2.2-2.12-2.89-3.39
		c-0.69-1.27-1.04-2.63-1.05-4.08l-0.03-2.7c-0.01-1.45,0.31-2.83,0.98-4.14c0.66-1.31,1.6-2.46,2.82-3.44
		c1.22-0.99,2.69-1.78,4.41-2.37c1.72-0.59,3.63-0.9,5.74-0.92c2.1-0.02,4.02,0.25,5.75,0.81c1.73,0.56,3.22,1.32,4.45,2.29
		c1.24,0.96,2.2,2.09,2.88,3.39c0.69,1.3,1.04,2.67,1.05,4.12l0.03,2.7c0.01,1.45-0.31,2.82-0.98,4.1c-0.66,1.28-1.6,2.43-2.82,3.44
		c-1.22,1.01-2.69,1.82-4.41,2.41C295.37,1085.58,293.46,1085.88,291.36,1085.9z M291.17,1066.08c-2.8,0.03-5.04,0.71-6.7,2.05
		c-1.67,1.34-2.49,2.91-2.47,4.72l0.02,2.1c0.02,1.8,0.87,3.36,2.56,4.67c1.69,1.31,3.94,1.95,6.74,1.93
		c2.8-0.03,5.04-0.71,6.7-2.05c1.66-1.34,2.49-2.91,2.47-4.72l-0.02-2.1c-0.02-1.8-0.87-3.36-2.56-4.67
		C296.22,1066.7,293.98,1066.05,291.17,1066.08z M311.91,1115.53c-2.75,0.03-5.41-0.17-7.97-0.6c-2.56-0.43-4.83-1.11-6.82-2.04
		c-1.99-0.93-3.58-2.13-4.76-3.6c-1.19-1.47-1.79-3.23-1.81-5.28l-0.03-2.78c-0.02-2.05,0.55-3.82,1.72-5.31
		c1.16-1.49,2.73-2.7,4.7-3.65c1.97-0.94,4.23-1.65,6.78-2.13s5.2-0.72,7.95-0.75c2.75-0.03,5.41,0.17,7.97,0.6
		c2.56,0.43,4.83,1.11,6.82,2.04c1.99,0.93,3.57,2.13,4.76,3.6c1.19,1.47,1.79,3.23,1.81,5.28l0.03,2.7
		c0.02,2.05-0.55,3.82-1.72,5.31c-1.16,1.49-2.73,2.72-4.7,3.69c-1.97,0.97-4.23,1.69-6.78,2.17
		C317.32,1115.25,314.66,1115.5,311.91,1115.53z M311.71,1093.9c-1.9,0.02-3.82,0.17-5.74,0.47c-1.93,0.29-3.66,0.75-5.21,1.36
		c-1.55,0.62-2.79,1.4-3.73,2.36c-0.94,0.96-1.41,2.12-1.39,3.47l0.02,2.1c0.01,1.35,0.5,2.5,1.46,3.44
		c0.96,0.94,2.22,1.71,3.78,2.29c1.56,0.59,3.3,1.01,5.23,1.27c1.93,0.26,3.85,0.38,5.75,0.36c1.9-0.02,3.82-0.17,5.74-0.47
		c1.92-0.29,3.65-0.75,5.17-1.36c1.52-0.62,2.77-1.4,3.73-2.36c0.97-0.96,1.44-2.12,1.43-3.47l-0.02-2.1
		c-0.01-1.35-0.51-2.5-1.5-3.44c-0.99-0.94-2.24-1.71-3.78-2.29c-1.53-0.59-3.26-1.01-5.19-1.27
		C315.53,1094,313.61,1093.88,311.71,1093.9z M332.53,1087.25l-5.18,0.05l-0.18-19.45l-9.76,0.09l0.15,16.52l-5.18,0.05l-0.36-38.6
		l5.18-0.05l0.16,17.35l9.76-0.09l-0.17-18.25l5.18-0.05L332.53,1087.25z"/>
</g>
</svg>
