<?xml version="1.0" encoding="utf-8"?>
<!-- Generator: Adobe Illustrator 23.0.1, SVG Export Plug-In . SVG Version: 6.00 Build 0)  -->
<svg version="1.1" id="레이어_1" xmlns="http://www.w3.org/2000/svg" xmlns:xlink="http://www.w3.org/1999/xlink" x="0px"
	 y="0px" viewBox="0 0 2985 668" style="enable-background:new 0 0 2985 668;" xml:space="preserve">
<style type="text/css">
	.st0{fill:#FFC34D;}
	.st1{fill:#FFFFFF;}
	.st2{fill:#0BB8F4;}
	.st3{fill:#68CD00;}
	.st4{fill:#FF671F;}
</style>
<g>
	<path class="st0" d="M858.22,366.57l0.74-0.75h-1.48l-84.86-85.95v49.99c-7.25,0-15.49,0-24.83,0
		c-126.25,0-184.64-71.96-197.92-91.07c-0.98-1.55-1.99-3.08-3.01-4.61c0,0,0-0.01,0-0.01v0
		c-42.76-63.93-115.62-106.02-198.3-106.02c-131.67,0-238.41,106.74-238.41,238.41s106.74,238.41,238.41,238.41
		c84.67,0,159.02-44.13,201.32-110.65c13.3-19.13,71.69-91.06,197.92-91.06c9.34,0,17.58,0,24.83,0v49.99l84.86-85.95h1.48
		L858.22,366.57z M348.55,589.75c-123.26,0-223.18-99.92-223.18-223.18s99.92-223.18,223.18-223.18s223.18,99.92,223.18,223.18
		S471.81,589.75,348.55,589.75z"/>
	<circle class="st1" cx="348.55" cy="366.57" r="223.18"/>
</g>
<g>
	<path d="M236.94,384.11v-26.36h5.41v26.36h33.72v4.58h-63.08v-4.58H236.94z M258.41,374.64c0.45-2.3,0.84-4.57,1.16-6.8
		c0.32-2.23,0.6-4.46,0.83-6.68c0.23-2.23,0.4-4.51,0.53-6.83c0.12-2.33,0.19-4.74,0.19-7.25v-6.23h-40.18v-4.66h45.66v8.11
		c0,3.15-0.05,6.1-0.15,8.82c-0.1,2.73-0.26,5.33-0.49,7.81c-0.23,2.48-0.5,4.89-0.83,7.25c-0.33,2.35-0.71,4.73-1.16,7.13
		L258.41,374.64z"/>
	<path d="M282.74,365.48c4.71-2.25,8.47-4.17,11.3-5.74c2.83-1.58,4.97-3.12,6.42-4.62c1.45-1.5,2.4-3.12,2.85-4.84
		c0.45-1.73,0.68-3.87,0.68-6.42v-5.03h-19.45v-4.66h24.56v10.36c0,3.25-0.35,5.96-1.05,8.11c-0.7,2.15-1.95,4.11-3.75,5.86
		c-1.8,1.75-4.26,3.49-7.36,5.22c-3.1,1.73-7.06,3.74-11.87,6.05L282.74,365.48z M294.68,373.97h44.68v24.93h-5.26v-20.28h-39.43
		V373.97z M323.67,346.33h10.51v-16.6h5.18v40.18h-5.18v-18.85h-10.51v18.7h-5.18v-39.13h5.18V346.33z"/>
	<path d="M369.55,352.34c-0.1,0.65-0.69,1.54-1.76,2.67c-1.08,1.13-2.44,2.49-4.09,4.09c-1.3,1.25-2.97,2.74-4.99,4.47
		c-2.03,1.73-4.09,3.42-6.2,5.07l-3.3-3.83c2.05-1.5,4.17-3.17,6.35-4.99c2.18-1.83,4.12-3.59,5.82-5.29
		c1.2-1.2,2.14-2.25,2.82-3.15c0.68-0.9,1.2-1.79,1.58-2.67c0.38-0.88,0.61-1.83,0.71-2.85c0.1-1.03,0.15-2.24,0.15-3.64v-9.39h5.41
		v9.24c0,1.4,0.05,2.59,0.15,3.57c0.1,0.98,0.34,1.89,0.71,2.74c0.38,0.85,0.93,1.72,1.65,2.59c0.73,0.88,1.71,1.87,2.97,2.97
		c1.85,1.6,3.73,3.17,5.63,4.69c1.9,1.53,3.68,2.89,5.33,4.09l-3.15,3.68c-2-1.5-3.82-2.92-5.44-4.24
		c-1.63-1.33-3.09-2.54-4.39-3.64c-3.56-3-5.51-5.06-5.86-6.16H369.55z M383.22,371.64c2.8,0,5.44,0.3,7.92,0.9
		c2.48,0.6,4.64,1.45,6.5,2.55c1.85,1.1,3.32,2.45,4.39,4.06c1.08,1.6,1.61,3.38,1.61,5.33v2.85c0,1.95-0.54,3.73-1.61,5.33
		c-1.08,1.6-2.54,2.95-4.39,4.06c-1.85,1.1-4.02,1.95-6.5,2.55c-2.48,0.6-5.12,0.9-7.92,0.9c-2.8,0-5.44-0.3-7.92-0.9
		s-4.64-1.45-6.5-2.55c-1.85-1.1-3.32-2.45-4.39-4.06c-1.08-1.6-1.61-3.38-1.61-5.33v-2.85c0-2,0.54-3.8,1.61-5.41
		c1.08-1.6,2.54-2.95,4.39-4.06c1.85-1.1,4.02-1.94,6.5-2.52C377.78,371.93,380.42,371.64,383.22,371.64z M383.22,395.67
		c2,0,3.93-0.2,5.78-0.6c1.85-0.4,3.48-0.96,4.88-1.69c1.4-0.73,2.53-1.61,3.38-2.67c0.85-1.05,1.28-2.25,1.28-3.6v-2.4
		c0-1.35-0.43-2.55-1.28-3.6c-0.85-1.05-1.98-1.94-3.38-2.67c-1.4-0.73-3.03-1.29-4.88-1.69c-1.85-0.4-3.78-0.6-5.78-0.6
		c-2,0-3.93,0.2-5.78,0.6c-1.85,0.4-3.48,0.96-4.88,1.69c-1.4,0.73-2.53,1.61-3.38,2.67c-0.85,1.05-1.28,2.25-1.28,3.6v2.4
		c0,1.35,0.42,2.55,1.28,3.6c0.85,1.05,1.98,1.94,3.38,2.67c1.4,0.73,3.03,1.29,4.88,1.69
		C379.29,395.47,381.22,395.67,383.22,395.67z M403.27,347.08h10.51v4.66h-10.51v18.4h-5.26v-40.4h5.26V347.08z"/>
	<path d="M421.6,333.87h31.47v4.66h-26.21v19.75c3.75,0,7.06-0.01,9.91-0.04c2.85-0.02,5.49-0.1,7.92-0.23
		c2.43-0.12,4.78-0.29,7.06-0.49c2.28-0.2,4.77-0.45,7.47-0.75l0.6,4.66c-1.85,0.25-3.6,0.45-5.26,0.6
		c-1.65,0.15-3.3,0.29-4.96,0.41c-1.65,0.13-3.39,0.23-5.22,0.3c-1.83,0.08-3.84,0.13-6.05,0.15c-2.2,0.03-4.67,0.05-7.4,0.07
		c-2.73,0.03-5.85,0.04-9.35,0.04V333.87z M430.68,372.09h41.23v26.13h-41.23V372.09z M435.79,393.49h31.01v-16.67h-31.01V393.49z
		 M471.91,345.88h10.51v4.66h-10.51v17.5h-5.26v-38.3h5.26V345.88z"/>
</g>
<g>
	<path class="st2" d="M1627.9,365.82h-1.48l-84.86-85.95v49.99c-7.25,0-15.49,0-24.83,0c-126.25,0-184.64-71.95-197.92-91.07
		c-0.98-1.55-1.99-3.08-3.01-4.61c0,0,0-0.01,0-0.01v0c-42.76-63.93-115.62-106.02-198.3-106.02
		c-131.67,0-238.41,106.74-238.41,238.41s106.74,238.41,238.41,238.41c82.69,0,155.54-42.1,198.3-106.04v0.01
		c0,0,0.02-0.04,0.06-0.1c1-1.5,1.99-3,2.96-4.53c13.3-19.13,71.69-91.06,197.92-91.06c9.34,0,17.58,0,24.83,0v49.99l84.86-85.95
		h1.48l-0.74-0.75L1627.9,365.82z M1117.49,589.75c-123.26,0-223.18-99.92-223.18-223.18s99.92-223.18,223.18-223.18
		c86.31,0,161.17,49,198.3,120.69c15.89,30.69,24.88,65.54,24.88,102.49c0,35.87-8.47,69.77-23.51,99.8
		c-0.45,0.9-0.91,1.79-1.37,2.69C1278.67,540.75,1203.8,589.75,1117.49,589.75z"/>
	<path class="st1" d="M1340.67,366.57c0-36.95-8.98-71.8-24.88-102.49c-37.13-71.69-111.99-120.69-198.3-120.69
		c-123.26,0-223.18,99.92-223.18,223.18s99.92,223.18,223.18,223.18c86.31,0,161.17-49,198.3-120.69c0.46-0.89,0.92-1.79,1.37-2.69
		C1332.2,436.34,1340.67,402.45,1340.67,366.57z"/>
</g>
<g>
	<path d="M952.07,378.47c5.76-3.3,10.34-6.15,13.74-8.52c3.4-2.38,5.98-4.61,7.74-6.68c1.75-2.08,2.89-4.17,3.42-6.27
		c0.53-2.1,0.79-4.56,0.79-7.36V341h-24.93v-4.81h30.11v13.52c0,2.3-0.13,4.38-0.38,6.23c-0.25,1.85-0.74,3.6-1.46,5.26
		c-0.73,1.65-1.74,3.26-3.04,4.81c-1.3,1.55-2.99,3.18-5.07,4.88c-2.08,1.7-4.61,3.52-7.58,5.44c-2.98,1.93-6.5,4.07-10.55,6.42
		L952.07,378.47z M1005.01,398.37h-5.33v-68.64h5.33V398.37z"/>
	<path d="M1063.66,371.41c-2.25,0.3-4.77,0.56-7.55,0.79s-5.96,0.41-9.54,0.56c-3.58,0.15-7.65,0.26-12.2,0.34
		c-4.56,0.07-9.79,0.11-15.7,0.11v-4.66c3.76,0,7.16,0,10.21,0c3.05,0,5.91-0.05,8.56-0.15v-5.18c-4.41-0.3-7.66-1.31-9.76-3.04
		s-3.15-3.79-3.15-6.2v-1.8c0-2.6,1.28-4.81,3.83-6.61c2.55-1.8,6.46-2.7,11.72-2.7c5.26,0,9.16,0.91,11.71,2.74
		c2.55,1.83,3.83,4.02,3.83,6.57v1.8c0,2.35-1.06,4.41-3.19,6.16c-2.13,1.75-5.37,2.78-9.73,3.08v5.11c2.2-0.05,4.24-0.12,6.12-0.23
		c1.88-0.1,3.64-0.21,5.29-0.34c1.65-0.12,3.22-0.26,4.69-0.41c1.48-0.15,2.94-0.3,4.39-0.45L1063.66,371.41z M1037.45,335.37v-6.53
		h5.26v6.53h16.22v4.51h-37.7v-4.51H1037.45z M1028.37,378.77h45.36v20.28h-5.18v-15.62h-40.18V378.77z M1040.08,347.23
		c-3.56,0-6.2,0.51-7.92,1.54c-1.73,1.03-2.59,2.24-2.59,3.64v1.35c0,1.4,0.86,2.62,2.59,3.64c1.73,1.03,4.37,1.54,7.92,1.54
		c3.55,0,6.2-0.51,7.92-1.54c1.73-1.03,2.59-2.24,2.59-3.64v-1.35c0-1.4-0.86-2.62-2.59-3.64
		C1046.28,347.75,1043.64,347.23,1040.08,347.23z M1073.73,374.72h-5.26v-44.98h5.26V374.72z"/>
	<path d="M1129.82,331.16l-22.68,66.39h-5.03l22.6-66.39H1129.82z"/>
	<path d="M1205.74,334.99v34.24h-19.6v14.87h28.91v4.58h-63.08v-4.58h28.91v-14.87h-19.6v-34.24h5.18v12.32h34.09v-12.32H1205.74z
		 M1200.56,364.81v-12.92h-34.09v12.92H1200.56z"/>
	<path d="M1239.31,367.43c-2.55,0-4.87-0.44-6.95-1.31c-2.08-0.88-3.86-2.03-5.33-3.45c-1.48-1.43-2.6-3.05-3.38-4.88
		c-0.78-1.83-1.16-3.67-1.16-5.52v-4.36c0-1.85,0.39-3.68,1.16-5.48c0.78-1.8,1.9-3.42,3.38-4.84c1.48-1.43,3.25-2.59,5.33-3.49
		c2.08-0.9,4.39-1.35,6.95-1.35s4.87,0.44,6.95,1.31c2.08,0.88,3.85,2.03,5.33,3.45c1.48,1.43,2.6,3.05,3.38,4.88
		c0.78,1.83,1.16,3.67,1.16,5.52v4.36c0,1.85-0.39,3.69-1.16,5.52c-0.78,1.83-1.9,3.45-3.38,4.88c-1.48,1.43-3.25,2.58-5.33,3.45
		C1244.18,367,1241.87,367.43,1239.31,367.43z M1239.31,337.47c-1.75,0-3.34,0.31-4.77,0.94c-1.43,0.63-2.65,1.44-3.68,2.44
		c-1.03,1-1.83,2.17-2.4,3.49c-0.58,1.33-0.86,2.67-0.86,4.02v3.45c0,1.4,0.29,2.75,0.86,4.06c0.58,1.3,1.38,2.47,2.4,3.49
		c1.03,1.03,2.25,1.84,3.68,2.44c1.43,0.6,3.02,0.9,4.77,0.9c1.75,0,3.34-0.3,4.77-0.9c1.43-0.6,2.65-1.41,3.68-2.44
		c1.03-1.03,1.83-2.19,2.4-3.49c0.58-1.3,0.86-2.65,0.86-4.06v-3.45c0-1.4-0.29-2.75-0.86-4.06c-0.58-1.3-1.38-2.47-2.4-3.49
		c-1.03-1.03-2.25-1.84-3.68-2.44C1242.65,337.77,1241.06,337.47,1239.31,337.47z M1238.56,392.89h37.77v4.66h-43.11v-22.53h5.33
		V392.89z M1274.23,350.54h10.51v4.66h-10.51v23.66h-5.26v-49.11h5.26V350.54z"/>
</g>
<g>
	<path class="st3" d="M2402.5,366.57l0.74-0.75h-1.48l-84.86-85.95v49.99c-7.25,0-15.49,0-24.83,0
		c-126.25,0-184.64-71.96-197.92-91.07c-0.98-1.55-1.99-3.08-3.01-4.61c0,0,0-0.01,0-0.01v0
		c-42.76-63.93-115.62-106.02-198.3-106.02c-131.67,0-238.41,106.74-238.41,238.41s106.74,238.41,238.41,238.41
		c82.69,0,155.54-42.1,198.3-106.02l0,0v0c1.02-1.53,2.03-3.07,3.02-4.63c13.3-19.13,71.69-91.06,197.92-91.06
		c9.34,0,17.58,0,24.83,0v49.99l84.86-85.95h1.48L2402.5,366.57z M1892.83,589.75c-123.26,0-223.18-99.92-223.18-223.18
		s99.92-223.18,223.18-223.18s223.18,99.92,223.18,223.18S2016.09,589.75,1892.83,589.75z"/>
	<circle class="st1" cx="1892.83" cy="366.57" r="223.18"/>
</g>
<g>
	<path d="M1793.42,333.44c3.35-2.25,6.23-4.27,8.64-6.05c2.4-1.78,4.42-3.43,6.05-4.96c1.63-1.53,2.92-2.98,3.87-4.36
		c0.95-1.38,1.68-2.8,2.18-4.28c0.5-1.48,0.83-3.08,0.98-4.81c0.15-1.73,0.23-3.69,0.23-5.9v-7.51h-20.65v-4.73h25.83v12.54
		c0,2.5-0.11,4.76-0.34,6.76c-0.23,2-0.64,3.87-1.24,5.59c-0.6,1.73-1.45,3.38-2.55,4.96c-1.1,1.58-2.55,3.22-4.36,4.92
		c-1.8,1.7-3.99,3.52-6.57,5.44c-2.58,1.93-5.62,4.09-9.12,6.5L1793.42,333.44z M1835.47,308.81h10.36v-24.78h5.26v68.64h-5.26
		v-39.13h-10.36v35.75h-5.26v-63.83h5.26V308.81z"/>
	<path d="M1895.1,315.79h-30.94v-29.81h5.11v10.59h20.73v-10.59h5.11V315.79z M1869.27,311.21h20.73v-10.06h-20.73V311.21z
		 M1914.7,322.78v17.27h-36.2v8.34h38v4.51h-43.18v-17.27h36.2v-8.26h-36.57v-4.58H1914.7z M1914.7,298.67h10.51v4.66h-10.51v15.39
		h-5.26v-34.69h5.26V298.67z"/>
	<path d="M1973.5,285.45l-22.68,66.39h-5.03l22.6-66.39H1973.5z"/>
	<path d="M1820.72,379.88v4.73h-20.73v14.34h16.67v4.66h-16.67v16.07h5.41c1.6,0,3.17-0.01,4.69-0.04c1.53-0.02,3.08-0.09,4.66-0.19
		c1.58-0.1,3.2-0.23,4.88-0.38c1.68-0.15,3.47-0.38,5.37-0.68l0.6,4.66c-3.9,0.6-7.6,0.98-11.08,1.13
		c-3.48,0.15-6.87,0.23-10.18,0.23h-9.69v-44.53H1820.72z M1831.68,398.65V375.3h5.26v63.83h-5.26v-35.67h-10.51v-4.81H1831.68z
		 M1850.31,442.51h-5.26v-68.64h5.26V442.51z"/>
	<path d="M1922.85,428.24v4.58h-63.08v-4.58H1922.85z M1891.23,398.65c-0.3,0.75-1.16,1.76-2.59,3.04c-1.43,1.28-3.49,2.82-6.2,4.62
		c-2.25,1.5-4.82,3.12-7.7,4.84c-2.88,1.73-5.67,3.32-8.37,4.77l-2.85-4.21c3.3-1.7,6.33-3.37,9.09-4.99
		c2.75-1.63,5.01-3.04,6.76-4.24c1.85-1.25,3.38-2.38,4.58-3.38c1.2-1,2.14-2.07,2.82-3.19c0.68-1.13,1.14-2.38,1.39-3.75
		c0.25-1.38,0.38-3.09,0.38-5.14v-8.26h5.48v8.26c0,2.05,0.12,3.77,0.38,5.14c0.25,1.38,0.71,2.63,1.39,3.75
		c0.68,1.13,1.6,2.19,2.78,3.19c1.18,1,2.69,2.13,4.54,3.38c1.75,1.2,3.99,2.6,6.72,4.21c2.73,1.6,5.72,3.26,8.97,4.96l-2.78,4.13
		c-2.7-1.45-5.47-3.03-8.3-4.73c-2.83-1.7-5.37-3.3-7.62-4.81c-2.7-1.8-4.76-3.33-6.16-4.58c-1.4-1.25-2.28-2.25-2.63-3H1891.23z"/>
	<path d="M1991.19,428.24v4.58h-63.08v-4.58H1991.19z M1982.77,415.1h-45.43v-35.6h44.83v4.51h-39.65v11.04h39.28v4.51h-39.28v11.04
		h40.25V415.1z"/>
</g>
<g>
	<path class="st4" d="M2901.99,365.62c-1.23-131.67-108.96-237.41-240.63-236.18c-131.67,1.23-237.41,108.96-236.18,240.63
		c1.23,131.67,108.96,237.41,240.63,236.18C2797.48,605.02,2903.22,497.28,2901.99,365.62z M2665.67,591.01
		c-123.25,1.15-224.1-97.83-225.25-221.09c-1.15-123.25,97.83-224.1,221.09-225.25c123.25-1.15,224.1,97.83,225.25,221.09
		S2788.92,589.86,2665.67,591.01z"/>
	
		<ellipse transform="matrix(0.7071 -0.7071 0.7071 0.7071 520.043 1991.1776)" class="st1" cx="2663.59" cy="367.84" rx="223.18" ry="223.18"/>
</g>
<g>
	<path d="M2630.44,355.44l-30.94,0.29l-0.28-29.81l5.11-0.05l0.1,10.59l20.73-0.19l-0.1-10.59l5.11-0.05L2630.44,355.44z
		 M2604.56,351.1l20.73-0.19l-0.09-10.06l-20.73,0.19L2604.56,351.1z M2650.1,362.24l0.16,17.27l-36.2,0.34l0.08,8.34l38-0.35
		l0.04,4.51l-43.18,0.4l-0.16-17.27l36.2-0.34l-0.08-8.26l-36.57,0.34l-0.04-4.58L2650.1,362.24z M2649.88,338.14l10.51-0.1
		l0.04,4.66l-10.51,0.1l0.14,15.39l-5.26,0.05l-0.32-34.69l5.26-0.05L2649.88,338.14z"/>
	<path d="M2678.43,331.71l-0.08-8.49l5.26-0.05l0.08,8.49l12.84-0.12l0.04,4.58l-32.07,0.3l-0.04-4.58L2678.43,331.71z
		 M2681.36,363.9c-2.1,0.02-4.02-0.25-5.75-0.81c-1.73-0.56-3.22-1.33-4.45-2.32c-1.24-0.99-2.2-2.12-2.89-3.39
		c-0.69-1.27-1.04-2.63-1.05-4.08l-0.03-2.7c-0.01-1.45,0.31-2.83,0.98-4.14c0.66-1.31,1.6-2.46,2.82-3.44
		c1.22-0.99,2.69-1.78,4.41-2.37c1.72-0.59,3.63-0.9,5.74-0.92c2.1-0.02,4.02,0.25,5.75,0.81c1.73,0.56,3.22,1.32,4.45,2.29
		c1.24,0.96,2.2,2.09,2.88,3.39c0.69,1.3,1.04,2.67,1.05,4.12l0.03,2.7c0.01,1.45-0.31,2.82-0.98,4.1c-0.66,1.28-1.6,2.43-2.82,3.44
		c-1.22,1.01-2.69,1.82-4.41,2.41C2685.37,363.58,2683.46,363.88,2681.36,363.9z M2681.17,344.08c-2.8,0.03-5.04,0.71-6.7,2.05
		c-1.67,1.34-2.49,2.91-2.47,4.72l0.02,2.1c0.02,1.8,0.87,3.36,2.56,4.67c1.69,1.31,3.94,1.95,6.74,1.93
		c2.8-0.03,5.04-0.71,6.7-2.05c1.66-1.34,2.49-2.91,2.47-4.72l-0.02-2.1c-0.02-1.8-0.87-3.36-2.56-4.67
		C2686.22,344.7,2683.98,344.05,2681.17,344.08z M2701.91,393.53c-2.75,0.03-5.41-0.17-7.97-0.6c-2.56-0.43-4.83-1.11-6.82-2.04
		c-1.99-0.93-3.58-2.13-4.76-3.6c-1.19-1.47-1.79-3.23-1.81-5.28l-0.03-2.78c-0.02-2.05,0.55-3.82,1.72-5.31
		c1.16-1.49,2.73-2.7,4.7-3.65c1.97-0.94,4.23-1.65,6.78-2.13c2.55-0.47,5.2-0.72,7.95-0.75c2.75-0.03,5.41,0.17,7.97,0.6
		c2.56,0.43,4.83,1.11,6.82,2.04c1.99,0.93,3.57,2.13,4.77,3.6c1.19,1.47,1.79,3.23,1.81,5.28l0.03,2.7
		c0.02,2.05-0.55,3.82-1.72,5.31c-1.16,1.49-2.73,2.72-4.7,3.69c-1.97,0.97-4.23,1.69-6.78,2.17
		C2707.32,393.25,2704.66,393.5,2701.91,393.53z M2701.71,371.9c-1.9,0.02-3.82,0.17-5.74,0.47c-1.93,0.29-3.66,0.75-5.21,1.36
		c-1.55,0.62-2.79,1.4-3.73,2.36c-0.94,0.96-1.41,2.12-1.39,3.47l0.02,2.1c0.01,1.35,0.5,2.5,1.46,3.44
		c0.96,0.94,2.22,1.71,3.78,2.29c1.56,0.59,3.3,1.01,5.23,1.27c1.93,0.26,3.84,0.38,5.75,0.36c1.9-0.02,3.82-0.17,5.74-0.47
		c1.92-0.29,3.65-0.75,5.17-1.36c1.52-0.62,2.77-1.4,3.73-2.36c0.97-0.96,1.44-2.12,1.43-3.47l-0.02-2.1
		c-0.01-1.35-0.51-2.5-1.5-3.44c-0.99-0.94-2.24-1.71-3.78-2.29c-1.53-0.59-3.26-1.01-5.19-1.27
		C2705.53,372,2703.61,371.88,2701.71,371.9z M2722.53,365.25l-5.18,0.05l-0.18-19.45l-9.76,0.09l0.15,16.52l-5.18,0.05l-0.36-38.6
		l5.18-0.05l0.16,17.35l9.76-0.09l-0.17-18.25l5.18-0.05L2722.53,365.25z"/>
</g>
</svg>
