<?xml version="1.0" encoding="utf-8"?>
<!-- Generator: Adobe Illustrator 23.0.1, SVG Export Plug-In . SVG Version: 6.00 Build 0)  -->
<svg version="1.1" id="레이어_1" xmlns="http://www.w3.org/2000/svg" xmlns:xlink="http://www.w3.org/1999/xlink" x="0px"
	 y="0px" viewBox="0 0 234 76" style="enable-background:new 0 0 234 76;" xml:space="preserve">
<style type="text/css">
	.st0{fill:#FFFFFF;}
</style>
<g>
	<path class="st0" d="M84.58,50.23c-0.57,0.39-1.16,0.58-1.8,0.58h-3.66l5.94-25.74h6.03l-2.59,11.21L98,25.07h6.78L94.05,37.14
		l5.37,13.67h-6.6l-4.74-12.69l-2.45,10.61C85.5,49.35,85.14,49.85,84.58,50.23z"/>
	<path class="st0" d="M122.5,33.51c-0.23,1.41-0.52,2.88-0.87,4.43s-0.76,3.05-1.19,4.52c-0.75,2.58-2.09,4.69-4.01,6.35
		c-1.92,1.65-4.28,2.48-7.1,2.48c-2.52,0-4.45-0.79-5.8-2.36c-1.35-1.57-1.78-3.74-1.28-6.49c0.24-1.41,0.55-2.92,0.93-4.53
		c0.37-1.61,0.75-3.09,1.14-4.41c0.74-2.6,2.15-4.72,4.24-6.38c2.08-1.65,4.4-2.48,6.93-2.48c2.66,0,4.6,0.85,5.82,2.54
		C122.53,28.86,122.93,30.98,122.5,33.51z M114.67,41.81c0.36-1.23,0.73-2.62,1.1-4.18c0.37-1.56,0.64-2.78,0.8-3.67
		c0.22-1.23,0.17-2.32-0.17-3.27c-0.34-0.95-1-1.43-1.99-1.43c-0.91,0-1.76,0.43-2.55,1.28c-0.79,0.85-1.39,1.99-1.8,3.42
		c-0.29,1.01-0.63,2.38-1.03,4.12c-0.39,1.73-0.66,3.02-0.81,3.85c-0.25,1.43-0.18,2.57,0.2,3.43s1.04,1.29,1.98,1.29
		c0.99,0,1.83-0.4,2.52-1.2C113.62,44.64,114.2,43.43,114.67,41.81z"/>
	<path class="st0" d="M121.98,50.81l5.94-25.74h9.87c2.6,0,4.45,0.76,5.57,2.27c1.12,1.52,1.42,3.39,0.9,5.63
		c-0.42,1.82-1.34,3.39-2.75,4.7c-1.41,1.31-2.63,2.01-3.67,2.11c0.56,0.5,0.96,0.98,1.18,1.44c0.23,0.47,0.38,1.03,0.44,1.68
		c0.16,1.37,0.33,2.84,0.51,4.43c0.18,1.59,0.55,2.74,1.11,3.48h-6.54c-0.6-0.73-0.89-1.9-0.86-3.49c0.03-1.6-0.02-3.02-0.14-4.27
		c-0.06-0.61-0.2-1.17-0.43-1.68s-0.48-0.76-0.76-0.76h-1.99l-1.87,8.11c-0.14,0.61-0.5,1.12-1.06,1.5
		c-0.57,0.39-1.16,0.58-1.8,0.58H121.98z M138.23,32.98c0.24-1.03,0.17-1.83-0.2-2.41c-0.37-0.57-0.9-0.86-1.6-0.86h-3.54
		l-1.51,6.54h3.54c0.69,0,1.36-0.29,2-0.86C137.55,34.81,137.99,34.01,138.23,32.98z"/>
	<path class="st0" d="M165.86,48.78c-2.04,1.61-4.39,2.42-7.07,2.42c-2.04,0-3.75-0.6-5.14-1.81c-1.38-1.21-2.04-3.1-1.96-5.68
		c0.08-1.88,0.34-3.83,0.8-5.84c0.45-2.01,1.08-3.93,1.88-5.75c1.15-2.65,2.76-4.56,4.83-5.72c2.07-1.16,3.98-1.74,5.72-1.74
		c2.53,0,4.46,0.72,5.77,2.17c1.31,1.45,1.86,3.48,1.65,6.09h-6.15c0.18-1.11,0.03-1.99-0.44-2.64c-0.48-0.65-1.06-0.98-1.75-0.98
		c-1.15,0-2.17,0.7-3.07,2.11c-0.9,1.41-1.69,3.59-2.37,6.54c-0.74,3.21-0.98,5.45-0.72,6.72c0.26,1.27,1,1.9,2.21,1.9
		c0.59,0,1.28-0.31,2.06-0.94c0.78-0.62,1.37-1.52,1.78-2.69h6.15C169.29,45.21,167.9,47.16,165.86,48.78z"/>
	<path class="st0" d="M192.27,33.51c-0.23,1.41-0.52,2.88-0.87,4.43c-0.36,1.55-0.76,3.05-1.19,4.52c-0.75,2.58-2.09,4.69-4.01,6.35
		c-1.92,1.65-4.28,2.48-7.1,2.48c-2.52,0-4.45-0.79-5.8-2.36c-1.35-1.57-1.78-3.74-1.28-6.49c0.24-1.41,0.55-2.92,0.93-4.53
		c0.37-1.61,0.75-3.09,1.14-4.41c0.74-2.6,2.15-4.72,4.24-6.38c2.08-1.65,4.4-2.48,6.93-2.48c2.66,0,4.6,0.85,5.82,2.54
		C192.3,28.86,192.69,30.98,192.27,33.51z M184.44,41.81c0.36-1.23,0.73-2.62,1.1-4.18c0.37-1.56,0.64-2.78,0.8-3.67
		c0.22-1.23,0.17-2.32-0.17-3.27c-0.34-0.95-1-1.43-1.99-1.43c-0.91,0-1.76,0.43-2.55,1.28c-0.79,0.85-1.39,1.99-1.8,3.42
		c-0.29,1.01-0.63,2.38-1.03,4.12s-0.66,3.02-0.81,3.85c-0.25,1.43-0.18,2.57,0.2,3.43s1.04,1.29,1.98,1.29
		c0.99,0,1.83-0.4,2.52-1.2C183.38,44.64,183.97,43.43,184.44,41.81z"/>
	<path class="st0" d="M197.66,25.07h6.03l-5.46,23.66c-0.14,0.61-0.49,1.12-1.06,1.5c-0.57,0.39-1.16,0.58-1.8,0.58h-3.65
		L197.66,25.07z"/>
	<path class="st0" d="M215.62,50.81l-4.45-13.41c-0.02-0.1-0.03-0.33-0.05-0.7c-0.01-0.37-0.04-0.6-0.08-0.7
		c-0.01,0.14-0.04,0.41-0.1,0.82c-0.05,0.41-0.09,0.67-0.12,0.79l-2.57,11.12c-0.14,0.61-0.5,1.12-1.06,1.5
		c-0.57,0.39-1.16,0.58-1.8,0.58h-3.66l5.94-25.74h5.44l4.38,13.11c0.05,0.12,0.09,0.35,0.1,0.7c0.02,0.35,0.05,0.6,0.09,0.76
		c0.04-0.16,0.08-0.42,0.12-0.77c0.04-0.36,0.08-0.6,0.11-0.74l3.01-13.05H227l-5.46,23.66c-0.14,0.61-0.49,1.12-1.06,1.5
		c-0.57,0.39-1.16,0.58-1.8,0.58H215.62z"/>
</g>
<g>
	<polygon class="st0" points="50.28,34.17 53.02,32.58 53.02,15.26 38.01,6.59 23.01,15.26 23.01,32.58 25.75,34.17 38.01,27.09 	
		"/>
	<polygon class="st0" points="24.58,36.3 21.75,34.67 6.74,43.33 6.74,60.66 21.75,69.32 36.75,60.66 36.75,57.38 24.58,50.35 	"/>
	<polygon class="st0" points="54.13,34.67 51.45,36.21 51.45,50.35 39.12,57.47 39.12,60.66 54.13,69.32 69.13,60.66 69.13,43.33 	
		"/>
</g>
</svg>
