<?xml version="1.0" encoding="utf-8"?>
<!-- Generator: Adobe Illustrator 23.0.1, SVG Export Plug-In . SVG Version: 6.00 Build 0)  -->
<svg version="1.1" id="레이어_1" xmlns="http://www.w3.org/2000/svg" xmlns:xlink="http://www.w3.org/1999/xlink" x="0px"
	 y="0px" viewBox="0 0 600 200" style="enable-background:new 0 0 600 200;" xml:space="preserve">
<style type="text/css">
	.st0{fill:#FFFFFF;}
	.st1{opacity:0.47;fill:#FFFFFF;}
</style>
<g>
	<g>
		<polygon class="st0" points="241.8,52.1 283.2,76.1 283.2,76.1 283.2,76.1 283.2,28.4 283.2,28.3 283.2,28.3 241.8,4.4 
			200.4,28.3 200.4,28.3 241.7,52.2 		"/>
		<polygon class="st1" points="200.3,76.1 241.7,52.2 200.4,28.3 159,52.2 159,100 200.3,76.2 		"/>
		<polygon class="st0" points="200.4,124 200.3,123.9 200.3,76.2 159,100 159,100 159,147.8 159.2,147.9 200.4,124.2 		"/>
		<polygon class="st1" points="200.4,124 200.3,124 200.3,124 200.3,171.7 200.4,171.8 241.8,147.9 200.4,124 		"/>
		<polygon class="st1" points="283.2,28.4 283.2,76.1 283.2,76.2 283.2,76.2 283.2,123.9 283.2,123.9 283.2,123.9 324.6,100 
			324.6,52.3 		"/>
		<polygon class="st0" points="283.2,123.9 283.2,123.9 283.2,123.9 241.8,147.8 241.8,147.8 241.8,147.8 241.7,147.8 241.7,147.8 
			241.7,195.5 241.8,195.6 283.1,171.7 283.2,171.7 283.2,171.7 324.6,147.8 324.6,100.1 324.6,100 		"/>
	</g>
	<g>
		<polygon class="st0" points="133.2,52.3 105.5,52.3 77.4,86.6 77.4,52.3 55,52.3 55,148.1 77.4,148.1 77.4,119.5 82.3,113.4 
			110.6,148.1 137.3,148.1 96.5,96.1 		"/>
		<path class="st0" d="M421.6,100.9c3.2-5.1,4.9-10.8,4.9-17c0-4.1-0.8-8.1-2.3-12c-1.5-3.8-3.8-7.2-6.6-10.2
			c-2.8-2.9-6.3-5.3-10.1-7c-3.9-1.7-8.3-2.6-12.9-2.6h-39.9v95.8H377v-32.5h14l18.4,32.5h24.1l-21.5-37.7
			C416,107.9,419.1,104.7,421.6,100.9z M404.4,84c0,3.7-0.9,6.5-2.8,8.5c-1.7,1.9-4.3,2.9-7.8,2.9H377V72.5h16.8
			c3.5,0,6,0.9,7.8,2.9C403.5,77.5,404.4,80.3,404.4,84z"/>
		<polygon class="st0" points="529.2,52.3 514.2,101.5 498.5,63.4 486.9,63.4 471.2,101.5 456,52.3 433.3,52.3 462.3,148.1 
			475,148.1 492.7,103.7 510.4,148.1 523.2,148.1 552,52.3 		"/>
	</g>
</g>
</svg>
