<?xml version="1.0" encoding="utf-8"?>
<!-- Generator: Adobe Illustrator 23.0.1, SVG Export Plug-In . SVG Version: 6.00 Build 0)  -->
<svg version="1.1" id="레이어_1" xmlns="http://www.w3.org/2000/svg" xmlns:xlink="http://www.w3.org/1999/xlink" x="0px"
	 y="0px" viewBox="0 0 512 512" style="enable-background:new 0 0 512 512;" xml:space="preserve">
<style type="text/css">
	.st0{fill:#134DA3;}
</style>
<path class="st0" d="M247.3,415.1c8.5,0,16.1,0,24.1,0c0,4.9,0,9.5,0,14.4c-1.4,0.1-2.8,0.3-4.3,0.3c-59.2,0-118.3,0-177.5,0
	c-8.9,0-10.8-2-10.8-10.8c0-42.7,0-85.3,0-128c0-2.1,0-4.2,0-6.7c4.8,0,9.1,0,14.1,0c0,43.4,0,86.7,0,130.5c32,0,63.2,0,94.8,0
	c0.1-1.8,0.3-3.4,0.3-5c0-47.5-0.1-95,0.1-142.5c0-4.7-1.7-5.4-5.8-5.4c-37.8,0.1-75.7,0.1-113.5,0.1c-8.5,0-10.5-2-10.5-10.6
	c0-16.5,0-33,0-49.5c0-8.1,2.3-10.3,10.5-10.4c13,0,26,0,39,0c1.8,0,3.5,0,6.2,0c-1.7-2.7-2.9-4.4-4-6.2
	c-8.8-14.3-8.3-31.9,1.1-44.1c9.8-12.8,28.2-19.2,43.4-13.7c6.3,2.3,12,7,17.4,11.3c4.6,3.7,8.4,8.5,13.6,12.1
	c-1.8-5.9-3.5-11.7-5.3-17.6c-6.9-22.1,10.1-43.7,29.5-48c20.4-4.5,41.8,9.9,46.3,30.5c2,9.2-0.9,17.4-3.3,25.9
	c-0.8,3-1.9,5.9-3.3,10c7.4-6.8,13.5-13,20.2-18.3c19.7-15.5,51.1-6.5,59.7,17.1c4.6,12.4,2.4,24.2-4.4,35.4
	c-0.5,0.9-1.1,1.6-1.7,2.5c-0.4,0.7-0.9,1.4-1.8,2.8c2.3,0.1,3.9,0.3,5.6,0.3c13.2,0,26.3,0,39.5,0c7.9,0,10.2,2.3,10.2,10
	c0,17,0,34,0,51c0,7.2-2.3,9.5-9.6,9.5c-38,0-76,0.1-114-0.1c-4.9,0-6.1,1.5-6.1,6.2c0.2,46.8,0.1,93.7,0.1,140.5
	C247.3,410.5,247.3,412.4,247.3,415.1z M202.9,206.4c0,69.9,0,139,0,208.4c10,0,19.8,0,30.1,0c0-2.1,0-3.9,0-5.7
	c0-45.1,0-90.2,0-135.4c0-20.8,0-41.6-0.1-62.4c0-1.6-1.6-4.7-2.5-4.7C221.3,206.3,212.2,206.4,202.9,206.4z M188,247.4
	c0-12.5-0.2-24.1,0.1-35.8c0.1-4.1-1-5.5-5.3-5.5c-35.1,0.1-70.3,0-105.4-0.2c-3.4,0-4.7,1-4.6,4.5c0.2,10.3,0.3,20.7-0.1,31
	c-0.2,4.9,1.5,6,6.2,6c34.5-0.2,68.9-0.1,103.4-0.1C184,247.4,185.6,247.4,188,247.4z M361.8,247.1c0-14,0-27.4,0-41.1
	c-9.8,0-19.1,0-28.4,0c-26.8,0.1-53.6,0.2-80.4,0.1c-4.6,0-6.2,1.5-5.8,6c0.4,4.5,0.1,9,0.1,13.5c0,7.1,0,14.2,0,21.6
	C285.9,247.1,323.8,247.1,361.8,247.1z M217.4,188c1.8-3.6,3.2-6.1,4.2-8.6c6.7-17,13.7-33.9,19.7-51.1c3.2-9.2-1.3-19.8-9.1-25.1
	c-8.1-5.6-20.5-5.8-28.8-0.3c-7.7,5.1-12.2,15.1-9.7,24.4c2.5,9.3,5.6,18.4,9.2,27.4C207.2,165.5,212.2,176.2,217.4,188z
	 M200.2,190.7c-3.4-4.1-6.2-7.8-9.4-11.2c-11.1-11.6-22-23.6-33.8-34.6c-7.6-7.1-18.8-7.3-27-2.3c-8.5,5.2-13.7,16.6-12.1,26.7
	c1.4,8.7,9.4,16.8,19.3,18.7c7.2,1.4,14.5,2.4,21.8,2.6C172.4,191,185.8,190.7,200.2,190.7z M234.5,191.3
	c22.7-0.2,44.1,1.2,64.9-3.7c4.7-1.1,9.4-4.5,12.7-8.1c8.4-9,7.1-23-2.2-33c-7.9-8.5-21.3-9.8-30.9-2.2
	C262.4,157.4,249.3,174,234.5,191.3z"/>
<path class="st0" d="M377.5,414.9c18,0,35.6,0,53.7,0c0-12.8,0-25.4,0-38.4c5.1,0,9.6,0,14.7,0c0,3.6,0,7,0,10.5c0,11.3,0,22.7,0,34
	c0,6.2-2.6,8.8-8.8,8.8c-44.8,0-89.6,0-134.5,0c-6,0-8.5-2.6-8.5-8.5c-0.1-14.8,0-29.6,0-44.7c4.8,0,9.3,0,14.4,0
	c0,12.6,0,25.4,0,38.4c18.3,0,35.9,0,54,0c0.1-1.8,0.3-3.6,0.3-5.4c0-14.5-0.1-29,0.1-43.5c0.1-4.5-1.2-6.1-5.9-6
	c-20.8,0.2-41.7,0.1-62.5,0.1c-8.2,0-10.3-2.1-10.3-10.3c0-8.5,0-17,0-25.5c0-8.1,2.1-10.2,10.4-10.2c18.3,0,36.7,0,55,0
	c1.6,0,3.2,0,6.2,0c-4.3-6-8-11-11.6-16.1c-1.7-2.3-3.4-4.5-4.9-6.9c-2.5-3.9-1.8-8.3,1.6-10.6c3.3-2.3,7.3-1.6,10.1,2.1
	c5.6,7.5,11,15.1,16.4,22.6c0.7,0.9,1.4,1.7,2.6,3.2c5.3-7.3,10.3-14.3,15.4-21.2c1.2-1.6,2.3-3.3,3.6-4.8c3-3.5,6.8-4.1,10.1-1.7
	c3.1,2.3,4,6.6,1.5,10.2c-4.3,6.3-8.9,12.4-13.4,18.7c-0.8,1.2-1.5,2.4-2.6,4.2c2.4,0.1,4.2,0.3,5.9,0.3c18.5,0,37,0,55.5,0
	c7,0,9.7,2.7,9.7,9.6c0,8.7-0.1,17.3-0.1,26c0,8.3-2.1,10.4-10.2,10.5c-20.8,0-41.7,0.1-62.5-0.1c-4.5,0-6,1.2-6,5.8
	c0.3,14.8,0.1,29.7,0.1,44.5C377.1,411.8,377.4,413.3,377.5,414.9z M298.9,328.6c0,4.6,0.3,8.4-0.1,12.2c-0.4,4.1,1.4,5.1,5.2,5
	c15.5-0.2,30.9-0.1,46.4-0.1c13.1,0,13,0,12.5-13.1c-0.1-3.4-1.4-4.1-4.5-4.1c-15.8,0.1-31.6,0.1-47.4,0.1
	C307.2,328.6,303.4,328.6,298.9,328.6z M409.5,328.6c-6.8,0-13.6,0-20.4,0c-12.2,0-12,0-12,12c0,4.3,1.7,5.3,5.6,5.2
	c15.3-0.2,30.6-0.1,45.9-0.1c13,0,12.9,0,12.7-12.9c-0.1-3.2-1-4.4-4.3-4.3C427.8,328.7,418.6,328.6,409.5,328.6z"/>
</svg>
