<?xml version="1.0" encoding="utf-8"?>
<!-- Generator: Adobe Illustrator 23.0.1, SVG Export Plug-In . SVG Version: 6.00 Build 0)  -->
<svg version="1.1" id="레이어_1" xmlns="http://www.w3.org/2000/svg" xmlns:xlink="http://www.w3.org/1999/xlink" x="0px"
	 y="0px" viewBox="0 0 30.39 30.39" style="enable-background:new 0 0 30.39 30.39;" xml:space="preserve">
<style type="text/css">
	.st0{fill:#157ACC;}
</style>
<g>
	<path class="st0" d="M15.55,29.66c-0.56,0-1.12-0.13-1.56-0.38l-9.96-5.75c-0.87-0.5-1.56-1.69-1.56-2.7V9.33
		c0-1.01,0.68-2.19,1.56-2.7l9.96-5.75c0.87-0.5,2.24-0.5,3.11,0l9.96,5.75c0.87,0.5,1.56,1.69,1.56,2.7v11.5
		c0,1.01-0.68,2.19-1.56,2.7l-9.96,5.75C16.67,29.53,16.11,29.66,15.55,29.66z M15.55,1.5c-0.39,0-0.78,0.08-1.06,0.24L4.53,7.5
		C3.96,7.82,3.47,8.68,3.47,9.33v11.5c0,0.65,0.49,1.5,1.06,1.83l9.96,5.75c0.56,0.32,1.55,0.32,2.11,0l9.96-5.75
		c0.56-0.32,1.06-1.18,1.06-1.83V9.33c0-0.65-0.49-1.5-1.06-1.83L16.6,1.74C16.32,1.58,15.93,1.5,15.55,1.5z"/>
</g>
</svg>
