<?xml version="1.0" encoding="utf-8"?>
<!-- Generator: Adobe Illustrator 23.0.1, SVG Export Plug-In . SVG Version: 6.00 Build 0)  -->
<svg version="1.1" id="레이어_1" xmlns="http://www.w3.org/2000/svg" xmlns:xlink="http://www.w3.org/1999/xlink" x="0px"
	 y="0px" viewBox="0 0 30 30" style="enable-background:new 0 0 30 30;" xml:space="preserve">
<style type="text/css">
	.st0{fill:#BFBFBF;}
	.st1{fill:#00298D;}
	.st2{fill:#FFFFFF;}
</style>
<g>
	<polygon class="st0" points="19.1,13.1 20.1,12.5 20.1,6.2 14.7,3 9.2,6.2 9.2,12.5 10.2,13.1 14.7,10.5 	"/>
	<polygon class="st0" points="9.8,13.9 8.8,13.3 3.3,16.4 3.3,22.7 8.8,25.9 14.2,22.7 14.2,21.5 9.8,19 	"/>
	<polygon class="st0" points="20.5,13.3 19.6,13.8 19.6,19 15.1,21.5 15.1,22.7 20.5,25.9 26,22.7 26,16.4 	"/>
</g>
<circle class="st1" cx="23.9" cy="7" r="4.4"/>
<polygon class="st2" points="20.8,6.6 22.7,8.5 26.5,4.8 27.2,5.5 22.8,10 20.1,7.3 "/>
</svg>
