<?xml version="1.0" encoding="utf-8"?>
<!-- Generator: Adobe Illustrator 23.0.1, SVG Export Plug-In . SVG Version: 6.00 Build 0)  -->
<svg version="1.1" id="레이어_1" xmlns="http://www.w3.org/2000/svg" xmlns:xlink="http://www.w3.org/1999/xlink" x="0px"
	 y="0px" viewBox="0 0 200 200" style="enable-background:new 0 0 200 200;" xml:space="preserve">
<style type="text/css">
	.st0{fill:none;}
	.st1{fill:#CECECE;}
	.st2{clip-path:url(#SVGID_1_);fill:#0071BC;}
	.st3{clip-path:url(#SVGID_1_);fill:#0070BC;}
	.st4{clip-path:url(#SVGID_1_);fill:#006FBC;}
	.st5{clip-path:url(#SVGID_1_);fill:#016EBC;}
	.st6{clip-path:url(#SVGID_1_);fill:#016DBB;}
	.st7{clip-path:url(#SVGID_1_);fill:#016CBB;}
	.st8{clip-path:url(#SVGID_1_);fill:#016BBB;}
	.st9{clip-path:url(#SVGID_1_);fill:#016ABB;}
	.st10{clip-path:url(#SVGID_1_);fill:#0169BB;}
	.st11{clip-path:url(#SVGID_1_);fill:#0268BB;}
	.st12{clip-path:url(#SVGID_1_);fill:#0267BB;}
	.st13{clip-path:url(#SVGID_1_);fill:#0266BA;}
	.st14{clip-path:url(#SVGID_1_);fill:#0265BA;}
	.st15{clip-path:url(#SVGID_1_);fill:#0264BA;}
	.st16{clip-path:url(#SVGID_1_);fill:#0263BA;}
	.st17{clip-path:url(#SVGID_1_);fill:#0362BA;}
	.st18{clip-path:url(#SVGID_1_);fill:#0361BA;}
	.st19{clip-path:url(#SVGID_1_);fill:#0360BA;}
	.st20{clip-path:url(#SVGID_1_);fill:#035FB9;}
	.st21{clip-path:url(#SVGID_1_);fill:#035EB9;}
	.st22{clip-path:url(#SVGID_1_);fill:#035DB9;}
	.st23{clip-path:url(#SVGID_1_);fill:#045CB9;}
	.st24{clip-path:url(#SVGID_1_);fill:#045BB9;}
	.st25{clip-path:url(#SVGID_1_);fill:#045AB9;}
	.st26{clip-path:url(#SVGID_1_);fill:#0459B9;}
	.st27{clip-path:url(#SVGID_1_);fill:#0458B8;}
	.st28{clip-path:url(#SVGID_1_);fill:#0557B8;}
	.st29{clip-path:url(#SVGID_1_);fill:#0556B8;}
	.st30{clip-path:url(#SVGID_1_);fill:#0555B8;}
	.st31{clip-path:url(#SVGID_1_);fill:#0554B8;}
	.st32{clip-path:url(#SVGID_1_);fill:#0553B8;}
	.st33{clip-path:url(#SVGID_1_);fill:#0552B8;}
	.st34{clip-path:url(#SVGID_1_);fill:#0650B7;}
	.st35{clip-path:url(#SVGID_1_);fill:#064FB7;}
	.st36{clip-path:url(#SVGID_1_);fill:#064EB7;}
	.st37{clip-path:url(#SVGID_1_);fill:#064DB7;}
	.st38{clip-path:url(#SVGID_1_);fill:#064CB7;}
	.st39{clip-path:url(#SVGID_1_);fill:#064BB7;}
	.st40{clip-path:url(#SVGID_1_);fill:#074AB7;}
	.st41{clip-path:url(#SVGID_1_);fill:#0749B6;}
	.st42{clip-path:url(#SVGID_1_);fill:#0748B6;}
	.st43{clip-path:url(#SVGID_1_);fill:#0747B6;}
	.st44{clip-path:url(#SVGID_1_);fill:#0746B6;}
	.st45{clip-path:url(#SVGID_1_);fill:#0845B6;}
	.st46{clip-path:url(#SVGID_1_);fill:#0844B6;}
	.st47{clip-path:url(#SVGID_1_);fill:#0843B6;}
	.st48{clip-path:url(#SVGID_1_);fill:#0842B5;}
	.st49{clip-path:url(#SVGID_1_);fill:#0841B5;}
	.st50{clip-path:url(#SVGID_1_);fill:#0840B5;}
	.st51{clip-path:url(#SVGID_1_);fill:#093FB5;}
	.st52{clip-path:url(#SVGID_1_);fill:#093EB5;}
	.st53{clip-path:url(#SVGID_1_);fill:#093DB5;}
	.st54{clip-path:url(#SVGID_1_);fill:#093CB5;}
	.st55{clip-path:url(#SVGID_1_);fill:#093BB4;}
	.st56{clip-path:url(#SVGID_1_);fill:#093AB4;}
	.st57{clip-path:url(#SVGID_1_);fill:#0A39B4;}
	.st58{clip-path:url(#SVGID_1_);fill:#0A38B4;}
	.st59{clip-path:url(#SVGID_1_);fill:#0A37B4;}
	.st60{clip-path:url(#SVGID_1_);fill:#0A36B4;}
	.st61{clip-path:url(#SVGID_1_);fill:#0A35B4;}
	.st62{clip-path:url(#SVGID_1_);fill:#0A34B3;}
	.st63{clip-path:url(#SVGID_1_);fill:#0B33B3;}
	.st64{clip-path:url(#SVGID_1_);fill:#0B32B3;}
	.st65{clip-path:url(#SVGID_1_);fill:#0B31B3;}
	.st66{fill:#39B4FF;}
	.st67{fill:#FFFFFF;}
	.st68{clip-path:url(#SVGID_2_);fill:#0071BC;}
	.st69{clip-path:url(#SVGID_2_);fill:#0070BC;}
	.st70{clip-path:url(#SVGID_2_);fill:#006FBC;}
	.st71{clip-path:url(#SVGID_2_);fill:#016EBC;}
	.st72{clip-path:url(#SVGID_2_);fill:#016DBB;}
	.st73{clip-path:url(#SVGID_2_);fill:#016CBB;}
	.st74{clip-path:url(#SVGID_2_);fill:#016BBB;}
	.st75{clip-path:url(#SVGID_2_);fill:#016ABB;}
	.st76{clip-path:url(#SVGID_2_);fill:#0169BB;}
	.st77{clip-path:url(#SVGID_2_);fill:#0268BB;}
	.st78{clip-path:url(#SVGID_2_);fill:#0267BB;}
	.st79{clip-path:url(#SVGID_2_);fill:#0266BA;}
	.st80{clip-path:url(#SVGID_2_);fill:#0265BA;}
	.st81{clip-path:url(#SVGID_2_);fill:#0264BA;}
	.st82{clip-path:url(#SVGID_2_);fill:#0263BA;}
	.st83{clip-path:url(#SVGID_2_);fill:#0362BA;}
	.st84{clip-path:url(#SVGID_2_);fill:#0361BA;}
	.st85{clip-path:url(#SVGID_2_);fill:#0360BA;}
	.st86{clip-path:url(#SVGID_2_);fill:#035FB9;}
	.st87{clip-path:url(#SVGID_2_);fill:#035EB9;}
	.st88{clip-path:url(#SVGID_2_);fill:#035DB9;}
	.st89{clip-path:url(#SVGID_2_);fill:#045CB9;}
	.st90{clip-path:url(#SVGID_2_);fill:#045BB9;}
	.st91{clip-path:url(#SVGID_2_);fill:#045AB9;}
	.st92{clip-path:url(#SVGID_2_);fill:#0459B9;}
	.st93{clip-path:url(#SVGID_2_);fill:#0458B8;}
	.st94{clip-path:url(#SVGID_2_);fill:#0557B8;}
	.st95{clip-path:url(#SVGID_2_);fill:#0556B8;}
	.st96{clip-path:url(#SVGID_2_);fill:#0555B8;}
	.st97{clip-path:url(#SVGID_2_);fill:#0554B8;}
	.st98{clip-path:url(#SVGID_2_);fill:#0553B8;}
	.st99{clip-path:url(#SVGID_2_);fill:#0552B8;}
	.st100{clip-path:url(#SVGID_2_);fill:#0650B7;}
	.st101{clip-path:url(#SVGID_2_);fill:#064FB7;}
	.st102{clip-path:url(#SVGID_2_);fill:#064EB7;}
	.st103{clip-path:url(#SVGID_2_);fill:#064DB7;}
	.st104{clip-path:url(#SVGID_2_);fill:#064CB7;}
	.st105{clip-path:url(#SVGID_2_);fill:#064BB7;}
	.st106{clip-path:url(#SVGID_2_);fill:#074AB7;}
	.st107{clip-path:url(#SVGID_2_);fill:#0749B6;}
	.st108{clip-path:url(#SVGID_2_);fill:#0748B6;}
	.st109{clip-path:url(#SVGID_2_);fill:#0747B6;}
	.st110{clip-path:url(#SVGID_2_);fill:#0746B6;}
	.st111{clip-path:url(#SVGID_2_);fill:#0845B6;}
	.st112{clip-path:url(#SVGID_2_);fill:#0844B6;}
	.st113{clip-path:url(#SVGID_2_);fill:#0843B6;}
	.st114{clip-path:url(#SVGID_2_);fill:#0842B5;}
	.st115{clip-path:url(#SVGID_2_);fill:#0841B5;}
	.st116{clip-path:url(#SVGID_2_);fill:#0840B5;}
	.st117{clip-path:url(#SVGID_2_);fill:#093FB5;}
	.st118{clip-path:url(#SVGID_2_);fill:#093EB5;}
	.st119{clip-path:url(#SVGID_2_);fill:#093DB5;}
	.st120{clip-path:url(#SVGID_2_);fill:#093CB5;}
	.st121{clip-path:url(#SVGID_2_);fill:#093BB4;}
	.st122{clip-path:url(#SVGID_2_);fill:#093AB4;}
	.st123{clip-path:url(#SVGID_2_);fill:#0A39B4;}
	.st124{clip-path:url(#SVGID_2_);fill:#0A38B4;}
	.st125{clip-path:url(#SVGID_2_);fill:#0A37B4;}
	.st126{clip-path:url(#SVGID_2_);fill:#0A36B4;}
	.st127{clip-path:url(#SVGID_2_);fill:#0A35B4;}
	.st128{clip-path:url(#SVGID_2_);fill:#0A34B3;}
	.st129{clip-path:url(#SVGID_2_);fill:#0B33B3;}
	.st130{clip-path:url(#SVGID_2_);fill:#0B32B3;}
	.st131{clip-path:url(#SVGID_2_);fill:#0B31B3;}
	.st132{clip-path:url(#SVGID_3_);fill:#0071BC;}
	.st133{clip-path:url(#SVGID_3_);fill:#0070BC;}
	.st134{clip-path:url(#SVGID_3_);fill:#006FBC;}
	.st135{clip-path:url(#SVGID_3_);fill:#016EBC;}
	.st136{clip-path:url(#SVGID_3_);fill:#016DBB;}
	.st137{clip-path:url(#SVGID_3_);fill:#016CBB;}
	.st138{clip-path:url(#SVGID_3_);fill:#016BBB;}
	.st139{clip-path:url(#SVGID_3_);fill:#016ABB;}
	.st140{clip-path:url(#SVGID_3_);fill:#0169BB;}
	.st141{clip-path:url(#SVGID_3_);fill:#0268BB;}
	.st142{clip-path:url(#SVGID_3_);fill:#0267BB;}
	.st143{clip-path:url(#SVGID_3_);fill:#0266BA;}
	.st144{clip-path:url(#SVGID_3_);fill:#0265BA;}
	.st145{clip-path:url(#SVGID_3_);fill:#0264BA;}
	.st146{clip-path:url(#SVGID_3_);fill:#0263BA;}
	.st147{clip-path:url(#SVGID_3_);fill:#0362BA;}
	.st148{clip-path:url(#SVGID_3_);fill:#0361BA;}
	.st149{clip-path:url(#SVGID_3_);fill:#0360BA;}
	.st150{clip-path:url(#SVGID_3_);fill:#035FB9;}
	.st151{clip-path:url(#SVGID_3_);fill:#035EB9;}
	.st152{clip-path:url(#SVGID_3_);fill:#035DB9;}
	.st153{clip-path:url(#SVGID_3_);fill:#045CB9;}
	.st154{clip-path:url(#SVGID_3_);fill:#045BB9;}
	.st155{clip-path:url(#SVGID_3_);fill:#045AB9;}
	.st156{clip-path:url(#SVGID_3_);fill:#0459B9;}
	.st157{clip-path:url(#SVGID_3_);fill:#0458B8;}
	.st158{clip-path:url(#SVGID_3_);fill:#0557B8;}
	.st159{clip-path:url(#SVGID_3_);fill:#0556B8;}
	.st160{clip-path:url(#SVGID_3_);fill:#0555B8;}
	.st161{clip-path:url(#SVGID_3_);fill:#0554B8;}
	.st162{clip-path:url(#SVGID_3_);fill:#0553B8;}
	.st163{clip-path:url(#SVGID_3_);fill:#0552B8;}
	.st164{clip-path:url(#SVGID_3_);fill:#0650B7;}
	.st165{clip-path:url(#SVGID_3_);fill:#064FB7;}
	.st166{clip-path:url(#SVGID_3_);fill:#064EB7;}
	.st167{clip-path:url(#SVGID_3_);fill:#064DB7;}
	.st168{clip-path:url(#SVGID_3_);fill:#064CB7;}
	.st169{clip-path:url(#SVGID_3_);fill:#064BB7;}
	.st170{clip-path:url(#SVGID_3_);fill:#074AB7;}
	.st171{clip-path:url(#SVGID_3_);fill:#0749B6;}
	.st172{clip-path:url(#SVGID_3_);fill:#0748B6;}
	.st173{clip-path:url(#SVGID_3_);fill:#0747B6;}
	.st174{clip-path:url(#SVGID_3_);fill:#0746B6;}
	.st175{clip-path:url(#SVGID_3_);fill:#0845B6;}
	.st176{clip-path:url(#SVGID_3_);fill:#0844B6;}
	.st177{clip-path:url(#SVGID_3_);fill:#0843B6;}
	.st178{clip-path:url(#SVGID_3_);fill:#0842B5;}
	.st179{clip-path:url(#SVGID_3_);fill:#0841B5;}
	.st180{clip-path:url(#SVGID_3_);fill:#0840B5;}
	.st181{clip-path:url(#SVGID_3_);fill:#093FB5;}
	.st182{clip-path:url(#SVGID_3_);fill:#093EB5;}
	.st183{clip-path:url(#SVGID_3_);fill:#093DB5;}
	.st184{clip-path:url(#SVGID_3_);fill:#093CB5;}
	.st185{clip-path:url(#SVGID_3_);fill:#093BB4;}
	.st186{clip-path:url(#SVGID_3_);fill:#093AB4;}
	.st187{clip-path:url(#SVGID_3_);fill:#0A39B4;}
	.st188{clip-path:url(#SVGID_3_);fill:#0A38B4;}
	.st189{clip-path:url(#SVGID_3_);fill:#0A37B4;}
	.st190{clip-path:url(#SVGID_3_);fill:#0A36B4;}
	.st191{clip-path:url(#SVGID_3_);fill:#0A35B4;}
	.st192{clip-path:url(#SVGID_3_);fill:#0A34B3;}
	.st193{clip-path:url(#SVGID_3_);fill:#0B33B3;}
	.st194{clip-path:url(#SVGID_3_);fill:#0B32B3;}
	.st195{clip-path:url(#SVGID_3_);fill:#0B31B3;}
</style>
<g>
	<path class="st0" d="M138.65,81.68c4.14,0,7.5-3.37,7.5-7.5c0-3.07-1.84-5.8-4.69-6.95l-1.25-1.85V53.6h-3.13v11.77l-1.25,1.85
		c-2.85,1.15-4.69,3.88-4.69,6.95C131.14,78.32,134.51,81.68,138.65,81.68z"/>
	<path class="st0" d="M138.65,18.82c-10.1,0-18.44,7.71-19.45,17.55h38.89C157.09,26.53,148.75,18.82,138.65,18.82z"/>
	<path class="st0" d="M106.52,92.11h64.25V40.37h-64.25V92.11z M133.08,64.11V51.6l2-2h7.13l2,2v12.51
		c3.65,2.01,5.94,5.83,5.94,10.07c0,6.34-5.16,11.5-11.5,11.5s-11.5-5.16-11.5-11.5C127.14,69.94,129.44,66.12,133.08,64.11z"/>
	<path class="st1" d="M172.78,36.37h-10.67c-1.02-12.05-11.15-21.55-23.46-21.55s-22.44,9.5-23.46,21.55h-10.67l-2,2v55.74l2,2
		h68.25l2-2V38.37L172.78,36.37z M138.65,18.82c10.1,0,18.44,7.71,19.45,17.55H119.2C120.21,26.53,128.55,18.82,138.65,18.82z
		 M170.78,92.11h-64.25V40.37h64.25V92.11z"/>
	<path class="st1" d="M138.65,85.68c6.34,0,11.5-5.16,11.5-11.5c0-4.24-2.29-8.06-5.94-10.07V51.6l-2-2h-7.13l-2,2v12.51
		c-3.65,2.01-5.94,5.83-5.94,10.07C127.14,80.52,132.31,85.68,138.65,85.68z M135.84,67.22l1.25-1.85V53.6h3.13v11.77l1.25,1.85
		c2.85,1.15,4.69,3.88,4.69,6.95c0,4.14-3.37,7.5-7.5,7.5s-7.5-3.37-7.5-7.5C131.14,71.11,132.99,68.38,135.84,67.22z"/>
</g>
<g>
	<g>
		<defs>
			<ellipse id="SVGID_7_" cx="83.72" cy="147.87" rx="58.46" ry="38.14"/>
		</defs>
		<clipPath id="SVGID_1_">
			<use xlink:href="#SVGID_7_"  style="overflow:visible;"/>
		</clipPath>
		<path class="st2" d="M25.27,109.73v76.28V109.73z"/>
		<rect x="25.27" y="109.73" class="st2" width="1.83" height="76.28"/>
		<rect x="27.1" y="109.73" class="st3" width="1.83" height="76.28"/>
		<rect x="28.92" y="109.73" class="st4" width="1.83" height="76.28"/>
		<rect x="30.75" y="109.73" class="st5" width="1.83" height="76.28"/>
		<rect x="32.58" y="109.73" class="st6" width="1.83" height="76.28"/>
		<rect x="34.4" y="109.73" class="st7" width="1.83" height="76.28"/>
		<rect x="36.23" y="109.73" class="st8" width="1.83" height="76.28"/>
		<rect x="38.06" y="109.73" class="st9" width="1.83" height="76.28"/>
		<rect x="39.88" y="109.73" class="st10" width="1.83" height="76.28"/>
		<rect x="41.71" y="109.73" class="st11" width="1.83" height="76.28"/>
		<rect x="43.54" y="109.73" class="st12" width="1.83" height="76.28"/>
		<rect x="45.36" y="109.73" class="st13" width="1.83" height="76.28"/>
		<rect x="47.19" y="109.73" class="st14" width="1.83" height="76.28"/>
		<rect x="49.02" y="109.73" class="st15" width="1.83" height="76.28"/>
		<rect x="50.84" y="109.73" class="st16" width="1.83" height="76.28"/>
		<rect x="52.67" y="109.73" class="st17" width="1.83" height="76.28"/>
		<rect x="54.5" y="109.73" class="st18" width="1.83" height="76.28"/>
		<rect x="56.32" y="109.73" class="st19" width="1.83" height="76.28"/>
		<rect x="58.15" y="109.73" class="st20" width="1.83" height="76.28"/>
		<rect x="59.98" y="109.73" class="st21" width="1.83" height="76.28"/>
		<rect x="61.8" y="109.73" class="st22" width="1.83" height="76.28"/>
		<rect x="63.63" y="109.73" class="st23" width="1.83" height="76.28"/>
		<rect x="65.46" y="109.73" class="st24" width="1.83" height="76.28"/>
		<rect x="67.28" y="109.73" class="st25" width="1.83" height="76.28"/>
		<rect x="69.11" y="109.73" class="st26" width="1.83" height="76.28"/>
		<rect x="70.94" y="109.73" class="st27" width="1.83" height="76.28"/>
		<rect x="72.76" y="109.73" class="st28" width="1.83" height="76.28"/>
		<rect x="74.59" y="109.73" class="st29" width="1.83" height="76.28"/>
		<rect x="76.42" y="109.73" class="st30" width="1.83" height="76.28"/>
		<rect x="78.24" y="109.73" class="st31" width="1.83" height="76.28"/>
		<rect x="80.07" y="109.73" class="st32" width="1.83" height="76.28"/>
		<rect x="81.9" y="109.73" class="st33" width="1.83" height="76.28"/>
		<rect x="83.72" y="109.73" class="st34" width="1.83" height="76.28"/>
		<rect x="85.55" y="109.73" class="st35" width="1.83" height="76.28"/>
		<rect x="87.38" y="109.73" class="st36" width="1.83" height="76.28"/>
		<rect x="89.2" y="109.73" class="st37" width="1.83" height="76.28"/>
		<rect x="91.03" y="109.73" class="st38" width="1.83" height="76.28"/>
		<rect x="92.86" y="109.73" class="st39" width="1.83" height="76.28"/>
		<rect x="94.68" y="109.73" class="st40" width="1.83" height="76.28"/>
		<rect x="96.51" y="109.73" class="st41" width="1.83" height="76.28"/>
		<rect x="98.34" y="109.73" class="st42" width="1.83" height="76.28"/>
		<rect x="100.16" y="109.73" class="st43" width="1.83" height="76.28"/>
		<rect x="101.99" y="109.73" class="st44" width="1.83" height="76.28"/>
		<rect x="103.82" y="109.73" class="st45" width="1.83" height="76.28"/>
		<rect x="105.64" y="109.73" class="st46" width="1.83" height="76.28"/>
		<rect x="107.47" y="109.73" class="st47" width="1.83" height="76.28"/>
		<rect x="109.3" y="109.73" class="st48" width="1.83" height="76.28"/>
		<rect x="111.12" y="109.73" class="st49" width="1.83" height="76.28"/>
		<rect x="112.95" y="109.73" class="st50" width="1.83" height="76.28"/>
		<rect x="114.78" y="109.73" class="st51" width="1.83" height="76.28"/>
		<rect x="116.61" y="109.73" class="st52" width="1.83" height="76.28"/>
		<rect x="118.43" y="109.73" class="st53" width="1.83" height="76.28"/>
		<rect x="120.26" y="109.73" class="st54" width="1.83" height="76.28"/>
		<rect x="122.09" y="109.73" class="st55" width="1.83" height="76.28"/>
		<rect x="123.91" y="109.73" class="st56" width="1.83" height="76.28"/>
		<rect x="125.74" y="109.73" class="st57" width="1.83" height="76.28"/>
		<rect x="127.57" y="109.73" class="st58" width="1.83" height="76.28"/>
		<rect x="129.39" y="109.73" class="st59" width="1.83" height="76.28"/>
		<rect x="131.22" y="109.73" class="st60" width="1.83" height="76.28"/>
		<rect x="133.05" y="109.73" class="st61" width="1.83" height="76.28"/>
		<rect x="134.87" y="109.73" class="st62" width="1.83" height="76.28"/>
		<rect x="136.7" y="109.73" class="st63" width="1.83" height="76.28"/>
		<rect x="138.53" y="109.73" class="st64" width="1.83" height="76.28"/>
		<rect x="140.35" y="109.73" class="st65" width="1.83" height="76.28"/>
		<path class="st65" d="M142.18,186.01v-76.28V186.01z"/>
	</g>
</g>
<g>
	<ellipse class="st66" cx="83.72" cy="142.42" rx="58.46" ry="38.14"/>
</g>
<g>
	<path class="st67" d="M83.72,175.6c-28.77,0-52.18-14.89-52.18-33.18c0-18.3,23.41-33.18,52.18-33.18
		c28.77,0,52.18,14.89,52.18,33.18C135.91,160.71,112.5,175.6,83.72,175.6z M83.72,110.23c-28.22,0-51.18,14.44-51.18,32.18
		S55.5,174.6,83.72,174.6s51.18-14.44,51.18-32.18S111.95,110.23,83.72,110.23z"/>
</g>
<g>
	<path class="st67" d="M83.72,177.97c-30.84,0-55.93-15.95-55.93-35.55s25.09-35.55,55.93-35.55s55.93,15.95,55.93,35.55
		S114.56,177.97,83.72,177.97z M83.72,107.87c-30.29,0-54.93,15.5-54.93,34.55s24.64,34.55,54.93,34.55s54.93-15.5,54.93-34.55
		S114.01,107.87,83.72,107.87z"/>
</g>
<g>
	<g>
		<polygon class="st67" points="95.97,138.23 98.45,137.3 98.45,127.06 84.86,121.94 71.27,127.06 71.27,137.3 73.76,138.23 
			84.86,134.05 		"/>
	</g>
	<g>
		<polygon class="st67" points="72.7,139.49 70.13,138.53 56.54,143.65 56.54,153.88 70.13,159 83.72,153.88 83.72,151.95 
			72.7,147.8 		"/>
	</g>
	<g>
		<polygon class="st67" points="99.46,138.53 97.03,139.44 97.03,147.8 85.87,152 85.87,153.88 99.46,159 113.05,153.88 
			113.05,143.65 		"/>
	</g>
</g>
<g>
	<g>
		<defs>
			<ellipse id="SVGID_9_" cx="83.72" cy="132.81" rx="58.46" ry="38.14"/>
		</defs>
		<clipPath id="SVGID_2_">
			<use xlink:href="#SVGID_9_"  style="overflow:visible;"/>
		</clipPath>
		<path class="st68" d="M25.27,94.67v76.28V94.67z"/>
		<rect x="25.27" y="94.67" class="st68" width="1.83" height="76.28"/>
		<rect x="27.1" y="94.67" class="st69" width="1.83" height="76.28"/>
		<rect x="28.92" y="94.67" class="st70" width="1.83" height="76.28"/>
		<rect x="30.75" y="94.67" class="st71" width="1.83" height="76.28"/>
		<rect x="32.58" y="94.67" class="st72" width="1.83" height="76.28"/>
		<rect x="34.4" y="94.67" class="st73" width="1.83" height="76.28"/>
		<rect x="36.23" y="94.67" class="st74" width="1.83" height="76.28"/>
		<rect x="38.06" y="94.67" class="st75" width="1.83" height="76.28"/>
		<rect x="39.88" y="94.67" class="st76" width="1.83" height="76.28"/>
		<rect x="41.71" y="94.67" class="st77" width="1.83" height="76.28"/>
		<rect x="43.54" y="94.67" class="st78" width="1.83" height="76.28"/>
		<rect x="45.36" y="94.67" class="st79" width="1.83" height="76.28"/>
		<rect x="47.19" y="94.67" class="st80" width="1.83" height="76.28"/>
		<rect x="49.02" y="94.67" class="st81" width="1.83" height="76.28"/>
		<rect x="50.84" y="94.67" class="st82" width="1.83" height="76.28"/>
		<rect x="52.67" y="94.67" class="st83" width="1.83" height="76.28"/>
		<rect x="54.5" y="94.67" class="st84" width="1.83" height="76.28"/>
		<rect x="56.32" y="94.67" class="st85" width="1.83" height="76.28"/>
		<rect x="58.15" y="94.67" class="st86" width="1.83" height="76.28"/>
		<rect x="59.98" y="94.67" class="st87" width="1.83" height="76.28"/>
		<rect x="61.8" y="94.67" class="st88" width="1.83" height="76.28"/>
		<rect x="63.63" y="94.67" class="st89" width="1.83" height="76.28"/>
		<rect x="65.46" y="94.67" class="st90" width="1.83" height="76.28"/>
		<rect x="67.28" y="94.67" class="st91" width="1.83" height="76.28"/>
		<rect x="69.11" y="94.67" class="st92" width="1.83" height="76.28"/>
		<rect x="70.94" y="94.67" class="st93" width="1.83" height="76.28"/>
		<rect x="72.76" y="94.67" class="st94" width="1.83" height="76.28"/>
		<rect x="74.59" y="94.67" class="st95" width="1.83" height="76.28"/>
		<rect x="76.42" y="94.67" class="st96" width="1.83" height="76.28"/>
		<rect x="78.24" y="94.67" class="st97" width="1.83" height="76.28"/>
		<rect x="80.07" y="94.67" class="st98" width="1.83" height="76.28"/>
		<rect x="81.9" y="94.67" class="st99" width="1.83" height="76.28"/>
		<rect x="83.72" y="94.67" class="st100" width="1.83" height="76.28"/>
		<rect x="85.55" y="94.67" class="st101" width="1.83" height="76.28"/>
		<rect x="87.38" y="94.67" class="st102" width="1.83" height="76.28"/>
		<rect x="89.2" y="94.67" class="st103" width="1.83" height="76.28"/>
		<rect x="91.03" y="94.67" class="st104" width="1.83" height="76.28"/>
		<rect x="92.86" y="94.67" class="st105" width="1.83" height="76.28"/>
		<rect x="94.68" y="94.67" class="st106" width="1.83" height="76.28"/>
		<rect x="96.51" y="94.67" class="st107" width="1.83" height="76.28"/>
		<rect x="98.34" y="94.67" class="st108" width="1.83" height="76.28"/>
		<rect x="100.16" y="94.67" class="st109" width="1.83" height="76.28"/>
		<rect x="101.99" y="94.67" class="st110" width="1.83" height="76.28"/>
		<rect x="103.82" y="94.67" class="st111" width="1.83" height="76.28"/>
		<rect x="105.64" y="94.67" class="st112" width="1.83" height="76.28"/>
		<rect x="107.47" y="94.67" class="st113" width="1.83" height="76.28"/>
		<rect x="109.3" y="94.67" class="st114" width="1.83" height="76.28"/>
		<rect x="111.12" y="94.67" class="st115" width="1.83" height="76.28"/>
		<rect x="112.95" y="94.67" class="st116" width="1.83" height="76.28"/>
		<rect x="114.78" y="94.67" class="st117" width="1.83" height="76.28"/>
		<rect x="116.61" y="94.67" class="st118" width="1.83" height="76.28"/>
		<rect x="118.43" y="94.67" class="st119" width="1.83" height="76.28"/>
		<rect x="120.26" y="94.67" class="st120" width="1.83" height="76.28"/>
		<rect x="122.09" y="94.67" class="st121" width="1.83" height="76.28"/>
		<rect x="123.91" y="94.67" class="st122" width="1.83" height="76.28"/>
		<rect x="125.74" y="94.67" class="st123" width="1.83" height="76.28"/>
		<rect x="127.57" y="94.67" class="st124" width="1.83" height="76.28"/>
		<rect x="129.39" y="94.67" class="st125" width="1.83" height="76.28"/>
		<rect x="131.22" y="94.67" class="st126" width="1.83" height="76.28"/>
		<rect x="133.05" y="94.67" class="st127" width="1.83" height="76.28"/>
		<rect x="134.87" y="94.67" class="st128" width="1.83" height="76.28"/>
		<rect x="136.7" y="94.67" class="st129" width="1.83" height="76.28"/>
		<rect x="138.53" y="94.67" class="st130" width="1.83" height="76.28"/>
		<rect x="140.35" y="94.67" class="st131" width="1.83" height="76.28"/>
		<path class="st131" d="M142.18,170.95V94.67V170.95z"/>
	</g>
</g>
<g>
	<ellipse class="st66" cx="83.72" cy="127.36" rx="58.46" ry="38.14"/>
</g>
<g>
	<path class="st67" d="M83.72,160.54c-28.77,0-52.18-14.89-52.18-33.18c0-18.3,23.41-33.18,52.18-33.18
		c28.77,0,52.18,14.89,52.18,33.18C135.91,145.65,112.5,160.54,83.72,160.54z M83.72,95.17c-28.22,0-51.18,14.44-51.18,32.18
		s22.96,32.18,51.18,32.18s51.18-14.44,51.18-32.18S111.95,95.17,83.72,95.17z"/>
</g>
<g>
	<path class="st67" d="M83.72,162.91c-30.84,0-55.93-15.95-55.93-35.55s25.09-35.55,55.93-35.55s55.93,15.95,55.93,35.55
		S114.56,162.91,83.72,162.91z M83.72,92.81c-30.29,0-54.93,15.5-54.93,34.55s24.64,34.55,54.93,34.55s54.93-15.5,54.93-34.55
		S114.01,92.81,83.72,92.81z"/>
</g>
<g>
	<g>
		<polygon class="st67" points="95.97,123.17 98.45,122.24 98.45,112 84.86,106.88 71.27,112 71.27,122.24 73.76,123.17 
			84.86,118.99 		"/>
	</g>
	<g>
		<polygon class="st67" points="72.7,124.43 70.13,123.47 56.54,128.59 56.54,138.83 70.13,143.95 83.72,138.83 83.72,136.89 
			72.7,132.74 		"/>
	</g>
	<g>
		<polygon class="st67" points="99.46,123.47 97.03,124.38 97.03,132.74 85.87,136.94 85.87,138.83 99.46,143.95 113.05,138.83 
			113.05,128.59 		"/>
	</g>
</g>
<g>
	<g>
		<defs>
			<ellipse id="SVGID_11_" cx="83.72" cy="115.35" rx="58.46" ry="38.14"/>
		</defs>
		<clipPath id="SVGID_3_">
			<use xlink:href="#SVGID_11_"  style="overflow:visible;"/>
		</clipPath>
		<path class="st132" d="M25.27,77.21v76.28V77.21z"/>
		<rect x="25.27" y="77.21" class="st132" width="1.83" height="76.28"/>
		<rect x="27.1" y="77.21" class="st133" width="1.83" height="76.28"/>
		<rect x="28.92" y="77.21" class="st134" width="1.83" height="76.28"/>
		<rect x="30.75" y="77.21" class="st135" width="1.83" height="76.28"/>
		<rect x="32.58" y="77.21" class="st136" width="1.83" height="76.28"/>
		<rect x="34.4" y="77.21" class="st137" width="1.83" height="76.28"/>
		<rect x="36.23" y="77.21" class="st138" width="1.83" height="76.28"/>
		<rect x="38.06" y="77.21" class="st139" width="1.83" height="76.28"/>
		<rect x="39.88" y="77.21" class="st140" width="1.83" height="76.28"/>
		<rect x="41.71" y="77.21" class="st141" width="1.83" height="76.28"/>
		<rect x="43.54" y="77.21" class="st142" width="1.83" height="76.28"/>
		<rect x="45.36" y="77.21" class="st143" width="1.83" height="76.28"/>
		<rect x="47.19" y="77.21" class="st144" width="1.83" height="76.28"/>
		<rect x="49.02" y="77.21" class="st145" width="1.83" height="76.28"/>
		<rect x="50.84" y="77.21" class="st146" width="1.83" height="76.28"/>
		<rect x="52.67" y="77.21" class="st147" width="1.83" height="76.28"/>
		<rect x="54.5" y="77.21" class="st148" width="1.83" height="76.28"/>
		<rect x="56.32" y="77.21" class="st149" width="1.83" height="76.28"/>
		<rect x="58.15" y="77.21" class="st150" width="1.83" height="76.28"/>
		<rect x="59.98" y="77.21" class="st151" width="1.83" height="76.28"/>
		<rect x="61.8" y="77.21" class="st152" width="1.83" height="76.28"/>
		<rect x="63.63" y="77.21" class="st153" width="1.83" height="76.28"/>
		<rect x="65.46" y="77.21" class="st154" width="1.83" height="76.28"/>
		<rect x="67.28" y="77.21" class="st155" width="1.83" height="76.28"/>
		<rect x="69.11" y="77.21" class="st156" width="1.83" height="76.28"/>
		<rect x="70.94" y="77.21" class="st157" width="1.83" height="76.28"/>
		<rect x="72.76" y="77.21" class="st158" width="1.83" height="76.28"/>
		<rect x="74.59" y="77.21" class="st159" width="1.83" height="76.28"/>
		<rect x="76.42" y="77.21" class="st160" width="1.83" height="76.28"/>
		<rect x="78.24" y="77.21" class="st161" width="1.83" height="76.28"/>
		<rect x="80.07" y="77.21" class="st162" width="1.83" height="76.28"/>
		<rect x="81.9" y="77.21" class="st163" width="1.83" height="76.28"/>
		<rect x="83.72" y="77.21" class="st164" width="1.83" height="76.28"/>
		<rect x="85.55" y="77.21" class="st165" width="1.83" height="76.28"/>
		<rect x="87.38" y="77.21" class="st166" width="1.83" height="76.28"/>
		<rect x="89.2" y="77.21" class="st167" width="1.83" height="76.28"/>
		<rect x="91.03" y="77.21" class="st168" width="1.83" height="76.28"/>
		<rect x="92.86" y="77.21" class="st169" width="1.83" height="76.28"/>
		<rect x="94.68" y="77.21" class="st170" width="1.83" height="76.28"/>
		<rect x="96.51" y="77.21" class="st171" width="1.83" height="76.28"/>
		<rect x="98.34" y="77.21" class="st172" width="1.83" height="76.28"/>
		<rect x="100.16" y="77.21" class="st173" width="1.83" height="76.28"/>
		<rect x="101.99" y="77.21" class="st174" width="1.83" height="76.28"/>
		<rect x="103.82" y="77.21" class="st175" width="1.83" height="76.28"/>
		<rect x="105.64" y="77.21" class="st176" width="1.83" height="76.28"/>
		<rect x="107.47" y="77.21" class="st177" width="1.83" height="76.28"/>
		<rect x="109.3" y="77.21" class="st178" width="1.83" height="76.28"/>
		<rect x="111.12" y="77.21" class="st179" width="1.83" height="76.28"/>
		<rect x="112.95" y="77.21" class="st180" width="1.83" height="76.28"/>
		<rect x="114.78" y="77.21" class="st181" width="1.83" height="76.28"/>
		<rect x="116.61" y="77.21" class="st182" width="1.83" height="76.28"/>
		<rect x="118.43" y="77.21" class="st183" width="1.83" height="76.28"/>
		<rect x="120.26" y="77.21" class="st184" width="1.83" height="76.28"/>
		<rect x="122.09" y="77.21" class="st185" width="1.83" height="76.28"/>
		<rect x="123.91" y="77.21" class="st186" width="1.83" height="76.28"/>
		<rect x="125.74" y="77.21" class="st187" width="1.83" height="76.28"/>
		<rect x="127.57" y="77.21" class="st188" width="1.83" height="76.28"/>
		<rect x="129.39" y="77.21" class="st189" width="1.83" height="76.28"/>
		<rect x="131.22" y="77.21" class="st190" width="1.83" height="76.28"/>
		<rect x="133.05" y="77.21" class="st191" width="1.83" height="76.28"/>
		<rect x="134.87" y="77.21" class="st192" width="1.83" height="76.28"/>
		<rect x="136.7" y="77.21" class="st193" width="1.83" height="76.28"/>
		<rect x="138.53" y="77.21" class="st194" width="1.83" height="76.28"/>
		<rect x="140.35" y="77.21" class="st195" width="1.83" height="76.28"/>
		<path class="st195" d="M142.18,153.49V77.21V153.49z"/>
	</g>
</g>
<g>
	<ellipse class="st66" cx="83.72" cy="109.89" rx="58.46" ry="38.14"/>
</g>
<g>
	<path class="st67" d="M83.72,143.08c-28.77,0-52.18-14.89-52.18-33.18c0-18.3,23.41-33.18,52.18-33.18
		c28.77,0,52.18,14.89,52.18,33.18C135.91,128.19,112.5,143.08,83.72,143.08z M83.72,77.71c-28.22,0-51.18,14.44-51.18,32.18
		s22.96,32.18,51.18,32.18s51.18-14.44,51.18-32.18S111.95,77.71,83.72,77.71z"/>
</g>
<g>
	<path class="st67" d="M83.72,145.44c-30.84,0-55.93-15.95-55.93-35.55s25.09-35.55,55.93-35.55s55.93,15.95,55.93,35.55
		S114.56,145.44,83.72,145.44z M83.72,75.34c-30.29,0-54.93,15.5-54.93,34.55s24.64,34.55,54.93,34.55s54.93-15.5,54.93-34.55
		S114.01,75.34,83.72,75.34z"/>
</g>
<g>
	<g>
		<polygon class="st67" points="95.97,105.71 98.45,104.77 98.45,94.53 84.86,89.41 71.27,94.53 71.27,104.77 73.76,105.71 
			84.86,101.53 		"/>
	</g>
	<g>
		<polygon class="st67" points="72.7,106.97 70.13,106 56.54,111.12 56.54,121.36 70.13,126.48 83.72,121.36 83.72,119.42 
			72.7,115.27 		"/>
	</g>
	<g>
		<polygon class="st67" points="99.46,106 97.03,106.92 97.03,115.27 85.87,119.48 85.87,121.36 99.46,126.48 113.05,121.36 
			113.05,111.12 		"/>
	</g>
</g>
</svg>
