<?xml version="1.0" encoding="utf-8"?>
<!-- Generator: Adobe Illustrator 23.0.1, SVG Export Plug-In . SVG Version: 6.00 Build 0)  -->
<svg version="1.1" id="레이어_1" xmlns="http://www.w3.org/2000/svg" xmlns:xlink="http://www.w3.org/1999/xlink" x="0px"
	 y="0px" viewBox="0 0 800 100" style="enable-background:new 0 0 800 100;" xml:space="preserve">
<style type="text/css">
	.st0{fill:url(#SVGID_1_);}
	.st1{fill:url(#SVGID_2_);}
	.st2{fill:url(#SVGID_3_);}
	.st3{fill:url(#SVGID_4_);}
	.st4{fill:url(#SVGID_5_);}
	.st5{fill:url(#SVGID_6_);}
	.st6{fill:url(#SVGID_7_);}
	.st7{fill:url(#SVGID_8_);}
	.st8{fill:url(#SVGID_9_);}
	.st9{fill:url(#SVGID_10_);}
	.st10{fill:url(#SVGID_11_);}
	.st11{fill:url(#SVGID_12_);}
	.st12{fill:url(#SVGID_13_);}
	.st13{fill:url(#SVGID_14_);}
	.st14{fill:url(#SVGID_15_);}
	.st15{fill:url(#SVGID_16_);}
	.st16{fill:url(#SVGID_17_);}
	.st17{fill:url(#SVGID_18_);}
	.st18{fill:url(#SVGID_19_);}
	.st19{fill:url(#SVGID_20_);}
</style>
<g>
	<linearGradient id="SVGID_1_" gradientUnits="userSpaceOnUse" x1="29.7966" y1="45.4974" x2="528.8065" y2="-182.6214">
		<stop  offset="2.512563e-03" style="stop-color:#0048C2"/>
		<stop  offset="0.5503" style="stop-color:#008D84"/>
		<stop  offset="1" style="stop-color:#00248A"/>
	</linearGradient>
	<path class="st0" d="M47.25,31.02c-1.1,0.53-2.1,1.21-3,2.04c-0.9,0.83-1.49,1.76-1.75,2.8h3.8l-1.8,7.78h-7.98l1.5-6.48
		c0.43-1.88,1.45-3.58,3.04-5.11c1.59-1.53,3.26-2.52,5.01-2.97L47.25,31.02z M56.61,31.02c-1.1,0.53-2.1,1.21-3,2.04
		c-0.9,0.83-1.49,1.76-1.75,2.8h3.8l-1.8,7.78h-7.98l1.5-6.48c0.43-1.88,1.45-3.58,3.04-5.11c1.59-1.53,3.26-2.52,5.01-2.97
		L56.61,31.02z"/>
	<linearGradient id="SVGID_2_" gradientUnits="userSpaceOnUse" x1="39.3908" y1="66.4848" x2="538.4007" y2="-161.634">
		<stop  offset="2.512563e-03" style="stop-color:#0048C2"/>
		<stop  offset="0.5503" style="stop-color:#008D84"/>
		<stop  offset="1" style="stop-color:#00248A"/>
	</linearGradient>
	<path class="st1" d="M65.66,63.99l1.63-7.07h8.44l-1.63,7.07h13.53l-0.79,3.41c-0.22,0.95-0.7,1.71-1.44,2.27
		c-0.74,0.56-1.6,0.84-2.58,0.84H53.84c-0.95,0-1.67-0.28-2.17-0.84c-0.5-0.56-0.64-1.32-0.42-2.27l0.79-3.41H65.66z M58.92,55.37
		c-0.95,0-1.61-0.25-2-0.74c-0.39-0.49-0.47-1.21-0.25-2.17l4.7-20.36h31.37l-4.7,20.36c-0.22,0.95-0.64,1.68-1.25,2.17
		c-0.61,0.49-1.4,0.74-2.34,0.74H58.92z M80.41,48.81l2.34-10.14H68.33l-2.34,10.14H80.41z"/>
	<linearGradient id="SVGID_3_" gradientUnits="userSpaceOnUse" x1="45.7983" y1="80.5013" x2="544.8082" y2="-147.6175">
		<stop  offset="2.512563e-03" style="stop-color:#0048C2"/>
		<stop  offset="0.5503" style="stop-color:#008D84"/>
		<stop  offset="1" style="stop-color:#00248A"/>
	</linearGradient>
	<path class="st2" d="M94.2,56.38c-0.89,0-1.51-0.2-1.86-0.61c-0.35-0.41-0.42-1.06-0.22-1.96l0.9-3.91h35.84l-0.9,3.91
		c-0.21,0.9-0.58,1.55-1.12,1.96c-0.54,0.41-1.25,0.61-2.15,0.61H94.2z M93.04,70.64c-0.86,0-1.49-0.23-1.87-0.69
		c-0.38-0.46-0.47-1.11-0.28-1.96l2.32-10.05h8.52l-1.43,6.18h23.27l-0.89,3.87c-0.19,0.84-0.6,1.49-1.2,1.96
		c-0.61,0.46-1.34,0.69-2.21,0.69H93.04z M130.01,36.06c-0.19,0.81-0.53,1.41-1.04,1.79c-0.51,0.38-1.16,0.57-1.97,0.57h-20.84
		l-0.72,3.11h23.43l-0.95,4.12c-0.19,0.81-0.53,1.41-1.04,1.79c-0.51,0.38-1.16,0.57-1.97,0.57h-26.9c-0.81,0-1.38-0.19-1.71-0.57
		c-0.33-0.38-0.4-0.97-0.21-1.79l3.17-13.71h31.71L130.01,36.06z"/>
	<linearGradient id="SVGID_4_" gradientUnits="userSpaceOnUse" x1="54.3231" y1="99.1492" x2="553.333" y2="-128.9696">
		<stop  offset="2.512563e-03" style="stop-color:#0048C2"/>
		<stop  offset="0.5503" style="stop-color:#008D84"/>
		<stop  offset="1" style="stop-color:#00248A"/>
	</linearGradient>
	<path class="st3" d="M148.16,63.99l2.39-10.35h8.48l-2.39,10.35h17.38l-0.79,3.41c-0.22,0.95-0.7,1.71-1.44,2.27
		c-0.74,0.56-1.6,0.84-2.58,0.84h-28.99c-0.95,0-1.67-0.28-2.17-0.84c-0.5-0.56-0.64-1.32-0.42-2.27l0.79-3.41H148.16z
		 M147.75,32.11h31.71l-3.59,15.56c-0.5,2.16-1.21,4.53-2.14,7.11c-0.93,2.58-2.1,4.95-3.52,7.11h-8.02
		c1.22-1.91,2.18-3.82,2.89-5.74c0.71-1.92,1.21-3.54,1.52-4.86h-20.8c-0.67,0-1.19-0.22-1.58-0.67c-0.38-0.45-0.48-1.08-0.29-1.89
		l0.9-3.91h23.27l1.42-6.14h-20.8c-0.67,0-1.19-0.22-1.58-0.67c-0.38-0.45-0.48-1.08-0.29-1.89L147.75,32.11z"/>
	<linearGradient id="SVGID_5_" gradientUnits="userSpaceOnUse" x1="60.9833" y1="113.7183" x2="559.9932" y2="-114.4005">
		<stop  offset="2.512563e-03" style="stop-color:#0048C2"/>
		<stop  offset="0.5503" style="stop-color:#008D84"/>
		<stop  offset="1" style="stop-color:#00248A"/>
	</linearGradient>
	<path class="st4" d="M182.8,38.46c0.46-1.99,1.4-3.59,2.82-4.79c1.42-1.21,3.1-1.81,5.05-1.81h8.98c1.95,0,3.36,0.6,4.22,1.81
		c0.86,1.21,1.07,2.8,0.61,4.79l-2.2,9.55c-0.45,1.96-1.39,3.55-2.81,4.77c-1.42,1.22-3.11,1.83-5.06,1.83h-8.98
		c-1.95,0-3.35-0.61-4.21-1.83c-0.86-1.22-1.06-2.81-0.61-4.77L182.8,38.46z M181.09,70.64c-0.86,0-1.49-0.23-1.87-0.69
		c-0.38-0.46-0.47-1.11-0.28-1.96l2.75-11.9h8.52l-1.84,7.99h21.47l-0.9,3.91c-0.19,0.84-0.6,1.49-1.2,1.96
		c-0.61,0.46-1.34,0.69-2.21,0.69H181.09z M189.57,45.86c-0.2,0.87-0.19,1.44,0.02,1.7c0.22,0.27,0.55,0.4,0.99,0.4h1.71
		c0.45,0,0.84-0.13,1.18-0.4c0.34-0.27,0.61-0.83,0.81-1.7l1.21-5.26c0.21-0.9,0.2-1.47-0.02-1.72c-0.22-0.25-0.55-0.38-1-0.38
		h-1.71c-0.45,0-0.84,0.13-1.17,0.38c-0.34,0.25-0.61,0.83-0.82,1.72L189.57,45.86z M211.48,56.42c-0.2,0.87-0.65,1.56-1.36,2.08
		c-0.7,0.52-1.54,0.78-2.52,0.78h-5.26l6.3-27.3h8.48L211.48,56.42z"/>
	<linearGradient id="SVGID_6_" gradientUnits="userSpaceOnUse" x1="67.3216" y1="127.5835" x2="566.3315" y2="-100.5354">
		<stop  offset="2.512563e-03" style="stop-color:#0048C2"/>
		<stop  offset="0.5503" style="stop-color:#008D84"/>
		<stop  offset="1" style="stop-color:#00248A"/>
	</linearGradient>
	<path class="st5" d="M219.35,52.38c-0.89,0-1.51-0.2-1.86-0.61c-0.35-0.41-0.42-1.06-0.22-1.96l0.76-3.28h35.84l-0.76,3.28
		c-0.21,0.9-0.58,1.55-1.12,1.96c-0.54,0.41-1.26,0.61-2.15,0.61H219.35z M248.15,62.27c-0.19,0.81-0.51,1.39-0.96,1.72
		c-0.45,0.34-1.08,0.5-1.89,0.5h-20.93l-0.22,0.97h23.6l-0.65,2.82c-0.19,0.81-0.53,1.41-1.04,1.79c-0.51,0.38-1.16,0.57-1.97,0.57
		h-27.15c-0.81,0-1.38-0.19-1.71-0.57c-0.33-0.38-0.4-0.97-0.21-1.79l1.97-8.54h23.23l0.22-0.97h-20.97c-0.81,0-1.36-0.17-1.66-0.5
		c-0.3-0.34-0.35-0.91-0.17-1.72l0.66-2.86h31.83L248.15,62.27z M254.31,35.56c-0.19,0.81-0.53,1.41-1.04,1.79
		c-0.51,0.38-1.16,0.57-1.97,0.57h-20.8l-0.28,1.22h23.43l-0.84,3.66c-0.19,0.81-0.53,1.41-1.04,1.79
		c-0.51,0.38-1.16,0.57-1.97,0.57h-26.9c-0.81,0-1.38-0.19-1.71-0.57c-0.33-0.38-0.4-0.97-0.21-1.79l2.51-10.85h31.66L254.31,35.56z
		"/>
	<linearGradient id="SVGID_7_" gradientUnits="userSpaceOnUse" x1="73.9746" y1="142.1368" x2="572.9844" y2="-85.982">
		<stop  offset="2.512563e-03" style="stop-color:#0048C2"/>
		<stop  offset="0.5503" style="stop-color:#008D84"/>
		<stop  offset="1" style="stop-color:#00248A"/>
	</linearGradient>
	<path class="st6" d="M285.57,65.17c-0.36,1.54-1.18,2.84-2.46,3.89c-1.29,1.05-2.7,1.58-4.23,1.58h-3.05l0.19-0.84
		c-0.42,0.11-1.04,0.24-1.88,0.38c-0.9,0.14-1.83,0.21-2.81,0.21h-16.92c-0.92,0-1.59-0.24-2.03-0.72
		c-0.43-0.48-0.55-1.16-0.34-2.06l0.86-3.74h20.18c0.89,0,1.78-0.07,2.68-0.21c0.8-0.08,1.38-0.2,1.75-0.34l7.23-31.33h8.48
		L285.57,65.17z M259.06,38.5c0.46-1.99,1.42-3.59,2.88-4.79c1.46-1.21,3.17-1.81,5.12-1.81h9.44c1.95,0,3.38,0.6,4.28,1.81
		c0.9,1.21,1.13,2.8,0.67,4.79l-3.6,15.6c-0.45,1.96-1.41,3.55-2.88,4.77c-1.47,1.22-3.17,1.83-5.12,1.83h-9.44
		c-1.95,0-3.38-0.61-4.28-1.83c-0.9-1.22-1.13-2.81-0.67-4.77L259.06,38.5z M264.56,51.96c-0.2,0.87-0.19,1.44,0.02,1.7
		c0.22,0.27,0.55,0.4,0.99,0.4h2.17c0.45,0,0.84-0.13,1.18-0.4c0.34-0.27,0.61-0.83,0.81-1.7l2.61-11.31
		c0.21-0.9,0.2-1.47-0.02-1.72c-0.22-0.25-0.55-0.38-1-0.38h-2.17c-0.45,0-0.84,0.13-1.17,0.38c-0.34,0.25-0.61,0.83-0.82,1.72
		L264.56,51.96z"/>
	<linearGradient id="SVGID_8_" gradientUnits="userSpaceOnUse" x1="82.0004" y1="159.6933" x2="581.0103" y2="-68.4255">
		<stop  offset="2.512563e-03" style="stop-color:#0048C2"/>
		<stop  offset="0.5503" style="stop-color:#008D84"/>
		<stop  offset="1" style="stop-color:#00248A"/>
	</linearGradient>
	<path class="st7" d="M334.83,64.79c-0.38,1.65-1.42,3.05-3.12,4.18c-1.7,1.14-3.58,1.7-5.64,1.7h-18.55c-2.06,0-3.68-0.57-4.85-1.7
		c-1.17-1.14-1.57-2.53-1.19-4.18l0.69-2.99c0.38-1.65,1.42-3.05,3.12-4.18c1.7-1.14,3.57-1.7,5.64-1.7h5.18l0.37-1.6h-11.15
		c-0.89,0-1.51-0.2-1.86-0.61c-0.35-0.41-0.42-1.06-0.22-1.96l0.88-3.83h35.84l-0.88,3.83c-0.21,0.9-0.58,1.55-1.12,1.96
		c-0.54,0.41-1.25,0.61-2.15,0.61h-10.86l-0.18,0.8c-0.07,0.31-0.17,0.57-0.31,0.8h5.01c2.06,0,3.68,0.57,4.85,1.7
		c1.17,1.14,1.57,2.53,1.19,4.18L334.83,64.79z M323.55,41.61c-1.6,1.63-4.1,2.98-7.5,4.06c-3.4,1.08-6.83,1.62-10.32,1.62l1.4-6.06
		c2.9,0,5.81-0.63,8.75-1.89c0.83-0.34,1.56-0.74,2.2-1.22h-7.23c-0.81,0-1.37-0.18-1.69-0.55c-0.32-0.36-0.39-0.95-0.2-1.77
		l0.89-3.87h31.75l-0.89,3.87c-0.19,0.81-0.53,1.4-1.01,1.77c-0.49,0.36-1.14,0.55-1.94,0.55h-7.14c0.42,0.48,0.97,0.88,1.64,1.22
		c2.35,1.26,4.98,1.89,7.88,1.89l-1.4,6.06c-3.48,0-6.67-0.54-9.57-1.62C326.28,44.59,324.4,43.24,323.55,41.61z M326.94,63.32
		c0.07-0.31-0.02-0.53-0.27-0.65c-0.25-0.13-0.85-0.19-1.79-0.19H312.6c-0.95,0-1.57,0.06-1.88,0.19c-0.31,0.13-0.5,0.34-0.57,0.65
		c-0.06,0.28,0.03,0.49,0.27,0.63c0.25,0.14,0.84,0.21,1.79,0.21h12.28c0.95,0,1.58-0.07,1.89-0.21
		C326.69,63.81,326.87,63.6,326.94,63.32z"/>
	<linearGradient id="SVGID_9_" gradientUnits="userSpaceOnUse" x1="89.2108" y1="175.466" x2="588.2207" y2="-52.6528">
		<stop  offset="2.512563e-03" style="stop-color:#0048C2"/>
		<stop  offset="0.5503" style="stop-color:#008D84"/>
		<stop  offset="1" style="stop-color:#00248A"/>
	</linearGradient>
	<path class="st8" d="M354.06,47.54c-1.23,1.6-3.19,2.94-5.88,4.04c-2.69,1.09-5.05,1.65-7.09,1.68l1.59-6.9
		c1.8-0.2,3.66-1.11,5.58-2.73c1.92-1.63,3.35-4.46,4.28-8.5l0.74-3.2h8.65l-0.74,3.2c-0.93,4.04-0.86,6.87,0.23,8.5
		c1.09,1.63,2.5,2.54,4.24,2.73l-1.59,6.9c-2.03-0.03-4.09-0.59-6.19-1.68C355.76,50.49,354.49,49.14,354.06,47.54z M343.78,54.23
		h30.29l-3.18,13.75c-0.19,0.84-0.58,1.49-1.16,1.96c-0.58,0.46-1.3,0.69-2.17,0.69h-24.85c-0.86,0-1.48-0.23-1.84-0.69
		c-0.37-0.46-0.45-1.11-0.26-1.96L343.78,54.23z M363.32,64.07l0.76-3.28h-13.37l-0.76,3.28H363.32z M374.97,50.32
		c-0.2,0.87-0.65,1.56-1.36,2.08c-0.7,0.52-1.54,0.78-2.52,0.78h-5.26l4.89-21.2h8.48L374.97,50.32z"/>
	<linearGradient id="SVGID_10_" gradientUnits="userSpaceOnUse" x1="93.9478" y1="185.8282" x2="592.9577" y2="-42.2906">
		<stop  offset="2.512563e-03" style="stop-color:#0048C2"/>
		<stop  offset="0.5503" style="stop-color:#008D84"/>
		<stop  offset="1" style="stop-color:#00248A"/>
	</linearGradient>
	<path class="st9" d="M388.65,60.2h-6.6l4.92-27.46h9.48L388.65,60.2z M387.49,69.54c-0.17,0.73-0.5,1.28-1.01,1.64
		c-0.5,0.36-1.18,0.55-2.05,0.55h-6.27l1.96-8.5h8.81L387.49,69.54z"/>
	<linearGradient id="SVGID_11_" gradientUnits="userSpaceOnUse" x1="100.4558" y1="200.0644" x2="599.4656" y2="-28.0544">
		<stop  offset="2.512563e-03" style="stop-color:#0048C2"/>
		<stop  offset="0.5503" style="stop-color:#008D84"/>
		<stop  offset="1" style="stop-color:#00248A"/>
	</linearGradient>
	<path class="st10" d="M415.05,63.99l2.39-10.35h8.48l-2.39,10.35h17.38l-0.79,3.41c-0.22,0.95-0.7,1.71-1.44,2.27
		c-0.74,0.56-1.6,0.84-2.58,0.84h-28.99c-0.95,0-1.67-0.28-2.17-0.84c-0.5-0.56-0.64-1.32-0.42-2.27l0.79-3.41H415.05z
		 M414.64,32.11h31.71l-3.59,15.56c-0.5,2.16-1.21,4.53-2.14,7.11c-0.93,2.58-2.1,4.95-3.52,7.11h-8.02
		c1.22-1.91,2.18-3.82,2.89-5.74c0.71-1.92,1.21-3.54,1.52-4.86h-20.8c-0.67,0-1.2-0.22-1.58-0.67c-0.38-0.45-0.48-1.08-0.29-1.89
		l0.9-3.91h23.27l1.42-6.14h-20.8c-0.67,0-1.2-0.22-1.58-0.67c-0.38-0.45-0.48-1.08-0.29-1.89L414.64,32.11z"/>
	<linearGradient id="SVGID_12_" gradientUnits="userSpaceOnUse" x1="107.1159" y1="214.6336" x2="606.1259" y2="-13.4852">
		<stop  offset="2.512563e-03" style="stop-color:#0048C2"/>
		<stop  offset="0.5503" style="stop-color:#008D84"/>
		<stop  offset="1" style="stop-color:#00248A"/>
	</linearGradient>
	<path class="st11" d="M449.68,38.46c0.46-1.99,1.4-3.59,2.82-4.79c1.42-1.21,3.1-1.81,5.05-1.81h8.98c1.95,0,3.36,0.6,4.22,1.81
		c0.86,1.21,1.07,2.8,0.61,4.79l-2.2,9.55c-0.45,1.96-1.39,3.55-2.81,4.77c-1.42,1.22-3.11,1.83-5.06,1.83h-8.98
		c-1.95,0-3.35-0.61-4.21-1.83c-0.86-1.22-1.06-2.81-0.61-4.77L449.68,38.46z M447.98,70.64c-0.86,0-1.49-0.23-1.87-0.69
		c-0.38-0.46-0.47-1.11-0.28-1.96l2.75-11.9h8.52l-1.84,7.99h21.47l-0.9,3.91c-0.19,0.84-0.6,1.49-1.2,1.96
		c-0.61,0.46-1.34,0.69-2.21,0.69H447.98z M456.45,45.86c-0.2,0.87-0.19,1.44,0.02,1.7c0.22,0.27,0.55,0.4,0.99,0.4h1.71
		c0.45,0,0.84-0.13,1.18-0.4c0.34-0.27,0.61-0.83,0.81-1.7l1.21-5.26c0.21-0.9,0.2-1.47-0.02-1.72c-0.22-0.25-0.55-0.38-1-0.38
		h-1.71c-0.45,0-0.84,0.13-1.17,0.38c-0.34,0.25-0.61,0.83-0.82,1.72L456.45,45.86z M478.37,56.42c-0.2,0.87-0.65,1.56-1.36,2.08
		c-0.7,0.52-1.54,0.78-2.52,0.78h-5.26l6.3-27.3h8.48L478.37,56.42z"/>
	<linearGradient id="SVGID_13_" gradientUnits="userSpaceOnUse" x1="112.9751" y1="227.4504" x2="611.985" y2="-0.6684">
		<stop  offset="2.512563e-03" style="stop-color:#0048C2"/>
		<stop  offset="0.5503" style="stop-color:#008D84"/>
		<stop  offset="1" style="stop-color:#00248A"/>
	</linearGradient>
	<path class="st12" d="M483.31,70.47c-0.95,0-1.61-0.25-2-0.74c-0.39-0.49-0.47-1.21-0.25-2.17l8.19-35.46h20.3l-8.19,35.46
		c-0.22,0.95-0.64,1.68-1.25,2.17c-0.61,0.49-1.4,0.74-2.34,0.74H483.31z M493.68,63.91l5.83-25.24h-3.3l-5.83,25.24H493.68z
		 M517,45.06h5.81l-1.07,4.63c-0.22,0.95-0.68,1.64-1.37,2.06c-0.7,0.42-1.55,0.63-2.55,0.63h-2.51l-2.95,12.79
		c-0.36,1.54-1.18,2.84-2.46,3.89c-1.29,1.05-2.7,1.58-4.23,1.58h-3.05l8.92-38.65h8.48L517,45.06z"/>
	<linearGradient id="SVGID_14_" gradientUnits="userSpaceOnUse" x1="120.1553" y1="243.1572" x2="619.1652" y2="15.0384">
		<stop  offset="2.512563e-03" style="stop-color:#0048C2"/>
		<stop  offset="0.5503" style="stop-color:#008D84"/>
		<stop  offset="1" style="stop-color:#00248A"/>
	</linearGradient>
	<path class="st13" d="M548.01,50.78c-0.17,0.76-0.58,1.37-1.22,1.85c-0.64,0.48-1.43,0.72-2.38,0.72h-4.59l1.56-6.77h-2.42
		c-1.09,1.82-2.41,3.39-3.97,4.71c-3.25,2.72-7.75,4.08-13.52,4.08l1.55-6.73c2.9,0,5.12-0.59,6.67-1.77l0.41-0.34h-4.14
		c-0.7,0-1.22-0.22-1.58-0.65c-0.36-0.43-0.46-1-0.3-1.7l0.89-3.87h8.19l0.42-1.81h-5.72c-0.67,0-1.19-0.22-1.58-0.67
		c-0.38-0.45-0.48-1.08-0.29-1.89l0.9-3.91h16.5l-1.78,7.7l-0.07,0.29h1.34l1.85-8.03h7.6L548.01,50.78z M537.77,65.29
		c-1.55,1.4-3.91,2.68-7.09,3.83c-3.18,1.15-6.5,1.72-9.99,1.72l1.51-6.56c2.9,0,5.69-0.62,8.37-1.87c2.68-1.25,4.27-2.94,4.76-5.07
		l0.77-3.32h8.56l-0.77,3.32c-0.49,2.13,0.29,3.82,2.36,5.07c2.07,1.25,4.55,1.87,7.44,1.87l-1.51,6.56c-3.48,0-6.53-0.57-9.15-1.72
		C540.43,67.97,538.67,66.7,537.77,65.29z M553.4,31.98h7.64l-4.78,20.69c-0.18,0.79-0.66,1.44-1.44,1.98
		c-0.78,0.53-1.57,0.8-2.38,0.8h-4.47L553.4,31.98z"/>
	<linearGradient id="SVGID_15_" gradientUnits="userSpaceOnUse" x1="126.8378" y1="257.7751" x2="625.8477" y2="29.6563">
		<stop  offset="2.512563e-03" style="stop-color:#0048C2"/>
		<stop  offset="0.5503" style="stop-color:#008D84"/>
		<stop  offset="1" style="stop-color:#00248A"/>
	</linearGradient>
	<path class="st14" d="M561.9,52.51c-0.89,0-1.51-0.2-1.86-0.61c-0.35-0.41-0.42-1.06-0.22-1.96l0.76-3.28h35.84l-0.76,3.28
		c-0.21,0.9-0.58,1.55-1.12,1.96c-0.54,0.41-1.26,0.61-2.15,0.61H561.9z M596.72,40.27c-0.38,1.65-1.32,2.98-2.82,3.97
		c-1.5,1-3.28,1.49-5.34,1.49h-19.68c-2.06,0-3.61-0.5-4.65-1.49c-1.04-1-1.37-2.32-0.98-3.97l0.68-2.94c0.38-1.65,1.32-2.99,2.82-4
		c1.5-1.01,3.28-1.51,5.34-1.51h19.68c2.06,0,3.61,0.5,4.64,1.51c1.03,1.01,1.36,2.34,0.98,4L596.72,40.27z M590.72,62.27
		c-0.19,0.81-0.51,1.39-0.96,1.72c-0.45,0.34-1.08,0.5-1.89,0.5h-20.93l-0.22,0.97h23.6l-0.65,2.82c-0.19,0.81-0.53,1.41-1.04,1.79
		c-0.51,0.38-1.16,0.57-1.97,0.57h-27.15c-0.81,0-1.38-0.19-1.71-0.57c-0.33-0.38-0.4-0.97-0.21-1.79l1.97-8.54h23.23l0.22-0.97
		h-20.97c-0.81,0-1.36-0.17-1.66-0.5c-0.3-0.34-0.35-0.91-0.17-1.72l0.66-2.86h31.83L590.72,62.27z M586.86,39.55
		c0.61,0,1.06-0.06,1.34-0.19s0.45-0.32,0.51-0.57s-0.02-0.44-0.24-0.57c-0.22-0.13-0.64-0.19-1.25-0.19H573.8
		c-0.61,0-1.07,0.06-1.36,0.19c-0.29,0.13-0.47,0.32-0.53,0.57s0.03,0.44,0.27,0.57c0.24,0.13,0.66,0.19,1.27,0.19H586.86z"/>
	<linearGradient id="SVGID_16_" gradientUnits="userSpaceOnUse" x1="134.3678" y1="274.2469" x2="633.3777" y2="46.1281">
		<stop  offset="2.512563e-03" style="stop-color:#0048C2"/>
		<stop  offset="0.5503" style="stop-color:#008D84"/>
		<stop  offset="1" style="stop-color:#00248A"/>
	</linearGradient>
	<path class="st15" d="M619.29,32.45l0.7-3.03h8.44l-0.7,3.03h7.23l-0.93,4.04c-0.19,0.81-0.53,1.4-1.01,1.77
		c-0.49,0.36-1.14,0.55-1.94,0.55h-18.67c-0.81,0-1.37-0.18-1.69-0.55c-0.32-0.36-0.39-0.95-0.2-1.77l0.93-4.04H619.29z
		 M609.37,45.02c0.34-1.49,1.1-2.74,2.27-3.76c1.17-1.02,2.73-1.54,4.68-1.54h10.94c1.95,0,3.27,0.51,3.95,1.54
		c0.68,1.02,0.85,2.28,0.51,3.76l-0.86,3.74c-0.34,1.46-1.09,2.71-2.25,3.76c-1.16,1.05-2.72,1.58-4.67,1.58h-10.94
		c-1.95,0-3.27-0.53-3.96-1.58c-0.69-1.05-0.87-2.31-0.53-3.76L609.37,45.02z M637.54,64.83c-0.43,1.88-1.43,3.33-2.99,4.35
		c-1.56,1.02-3.33,1.54-5.3,1.54h-17.8c-1.95,0-3.47-0.51-4.57-1.54c-1.1-1.02-1.43-2.47-1-4.35l0.9-3.91
		c0.43-1.88,1.43-3.32,3-4.31c1.57-0.99,3.32-1.49,5.27-1.49h17.8c1.98,0,3.51,0.5,4.61,1.49c1.09,1,1.42,2.43,0.99,4.31
		L637.54,64.83z M622.76,47.08c0.09-0.39,0.02-0.63-0.21-0.72c-0.23-0.08-0.57-0.13-1.02-0.13h-2.26c-0.45,0-0.85,0.04-1.22,0.13
		c-0.37,0.08-0.6,0.32-0.69,0.72c-0.09,0.39,0.02,0.65,0.34,0.78c0.32,0.13,0.7,0.19,1.15,0.19h2.26c0.45,0,0.81-0.06,1.09-0.19
		C622.48,47.73,622.67,47.48,622.76,47.08z M629.5,62.77c0.1-0.42,0.05-0.76-0.14-1.01c-0.19-0.25-0.73-0.38-1.63-0.38h-10.44
		c-0.86,0-1.46,0.13-1.78,0.38c-0.32,0.25-0.53,0.59-0.63,1.01l-0.03,0.13c-0.1,0.42-0.04,0.75,0.17,0.99
		c0.21,0.24,0.75,0.36,1.61,0.36h10.44c0.89,0,1.49-0.12,1.8-0.36c0.31-0.24,0.51-0.57,0.6-0.99L629.5,62.77z M643.45,35.64h5.51
		l-0.99,4.29c-0.2,0.87-0.6,1.5-1.21,1.89c-0.61,0.39-1.37,0.59-2.29,0.59h-2.59l-0.36,1.56h5.51l-0.99,4.29
		c-0.2,0.87-0.6,1.5-1.21,1.89c-0.61,0.39-1.37,0.59-2.29,0.59h-2.59l-0.1,0.42c-0.2,0.87-0.65,1.56-1.36,2.08
		c-0.7,0.52-1.54,0.78-2.52,0.78h-5.26l5.09-22.04h8.48L643.45,35.64z"/>
	<linearGradient id="SVGID_17_" gradientUnits="userSpaceOnUse" x1="141.209" y1="289.2121" x2="640.2189" y2="61.0933">
		<stop  offset="2.512563e-03" style="stop-color:#0048C2"/>
		<stop  offset="0.5503" style="stop-color:#008D84"/>
		<stop  offset="1" style="stop-color:#00248A"/>
	</linearGradient>
	<path class="st16" d="M656.83,34.84l1.06-4.58h8.52l-1.06,4.58h6.52l-0.98,4.25c-0.19,0.81-0.53,1.4-1.01,1.77
		c-0.49,0.36-1.14,0.55-1.94,0.55h-17.25c-0.81,0-1.37-0.18-1.69-0.55c-0.32-0.36-0.39-0.95-0.2-1.77l0.98-4.25H656.83z
		 M647.3,49.19c0.46-1.99,1.4-3.59,2.82-4.79c1.42-1.21,3.1-1.81,5.05-1.81h7.9c1.95,0,3.36,0.6,4.22,1.81
		c0.86,1.21,1.07,2.8,0.61,4.79l-3.39,14.68c-0.45,1.96-1.39,3.55-2.81,4.77c-1.42,1.22-3.11,1.83-5.06,1.83h-7.9
		c-1.95,0-3.35-0.61-4.21-1.83c-0.86-1.22-1.06-2.81-0.61-4.77L647.3,49.19z M652.86,61.8c-0.2,0.87-0.19,1.44,0.02,1.7
		c0.22,0.27,0.55,0.4,0.99,0.4h0.63c0.45,0,0.84-0.13,1.18-0.4c0.34-0.27,0.61-0.83,0.81-1.7l2.44-10.56
		c0.21-0.9,0.2-1.47-0.02-1.72c-0.22-0.25-0.55-0.38-1-0.38h-0.63c-0.45,0-0.84,0.13-1.17,0.38c-0.34,0.25-0.61,0.83-0.82,1.72
		L652.86,61.8z M678.67,46.83h5.81l-1.07,4.63c-0.22,0.95-0.68,1.64-1.37,2.06c-0.7,0.42-1.54,0.63-2.55,0.63h-2.51l-2.54,11.02
		c-0.36,1.54-1.18,2.84-2.46,3.89c-1.29,1.05-2.7,1.58-4.23,1.58h-3.05l8.92-38.65h8.48L678.67,46.83z"/>
	<linearGradient id="SVGID_18_" gradientUnits="userSpaceOnUse" x1="148.14" y1="304.3737" x2="647.1499" y2="76.2549">
		<stop  offset="2.512563e-03" style="stop-color:#0048C2"/>
		<stop  offset="0.5503" style="stop-color:#008D84"/>
		<stop  offset="1" style="stop-color:#00248A"/>
	</linearGradient>
	<path class="st17" d="M688.7,38.46c0.46-1.99,1.4-3.59,2.82-4.79c1.42-1.21,3.1-1.81,5.05-1.81h7.9c1.95,0,3.36,0.6,4.22,1.81
		c0.86,1.21,1.07,2.8,0.61,4.79l-0.26,1.14h2.67l1.76-7.61h8.44l-7.66,33.18c-0.36,1.54-1.18,2.84-2.46,3.89
		c-1.29,1.05-2.7,1.58-4.23,1.58h-3.01l1.96-8.5h-1.88c-0.28,0-0.54-0.03-0.77-0.08l-0.42,1.81c-0.45,1.96-1.39,3.55-2.81,4.77
		c-1.42,1.22-3.11,1.83-5.06,1.83h-7.9c-1.95,0-3.35-0.61-4.21-1.83c-0.86-1.22-1.06-2.81-0.61-4.77L688.7,38.46z M691.8,61.8
		c-0.2,0.87-0.19,1.44,0.02,1.7c0.22,0.27,0.55,0.4,0.99,0.4h0.63c0.45,0,0.84-0.13,1.18-0.4c0.34-0.27,0.61-0.83,0.81-1.7
		l4.91-21.28c0.21-0.9,0.2-1.47-0.02-1.72c-0.22-0.25-0.55-0.38-1-0.38h-0.63c-0.45,0-0.84,0.13-1.17,0.38
		c-0.34,0.25-0.61,0.83-0.82,1.72L691.8,61.8z M708.31,46.2c-0.28,0-0.54-0.03-0.77-0.08l-2.2,9.55H708l2.18-9.46H708.31z"/>
	<linearGradient id="SVGID_19_" gradientUnits="userSpaceOnUse" x1="153.1643" y1="315.3643" x2="652.1742" y2="87.2455">
		<stop  offset="2.512563e-03" style="stop-color:#0048C2"/>
		<stop  offset="0.5503" style="stop-color:#008D84"/>
		<stop  offset="1" style="stop-color:#00248A"/>
	</linearGradient>
	<path class="st18" d="M731.22,60.2h-6.6l4.92-27.46h9.48L731.22,60.2z M730.07,69.54c-0.17,0.73-0.5,1.28-1.01,1.64
		c-0.5,0.36-1.18,0.55-2.05,0.55h-6.27l1.96-8.5h8.81L730.07,69.54z"/>
	<linearGradient id="SVGID_20_" gradientUnits="userSpaceOnUse" x1="151.2157" y1="311.1019" x2="650.2256" y2="82.9831">
		<stop  offset="2.512563e-03" style="stop-color:#0048C2"/>
		<stop  offset="0.5503" style="stop-color:#008D84"/>
		<stop  offset="1" style="stop-color:#00248A"/>
	</linearGradient>
	<path class="st19" d="M742.92,42.83c1.1-0.53,2.1-1.21,3-2.04c0.9-0.83,1.49-1.76,1.75-2.8h-3.8l1.8-7.78h7.98l-1.5,6.48
		c-0.43,1.88-1.45,3.58-3.04,5.11c-1.59,1.53-3.26,2.52-5.01,2.97L742.92,42.83z M752.28,42.83c1.1-0.53,2.1-1.21,3-2.04
		c0.9-0.83,1.49-1.76,1.75-2.8h-3.8l1.8-7.78H763l-1.5,6.48c-0.43,1.88-1.45,3.58-3.04,5.11c-1.59,1.53-3.26,2.52-5.01,2.97
		L752.28,42.83z"/>
</g>
</svg>
