<?xml version="1.0" encoding="utf-8"?>
<!-- Generator: Adobe Illustrator 23.0.1, SVG Export Plug-In . SVG Version: 6.00 Build 0)  -->
<svg version="1.1" id="레이어_1" xmlns="http://www.w3.org/2000/svg" xmlns:xlink="http://www.w3.org/1999/xlink" x="0px"
	 y="0px" viewBox="0 0 200 200" style="enable-background:new 0 0 200 200;" xml:space="preserve">
<style type="text/css">
	.st0{fill:none;}
	.st1{fill:#CECECE;}
	.st2{fill:url(#SVGID_1_);}
	.st3{fill:url(#SVGID_2_);}
	.st4{fill:url(#SVGID_3_);}
</style>
<g>
	<path class="st0" d="M97.71,162.83c-1.18,0-2.36,0.45-3.26,1.35c-1.8,1.79-1.8,4.72,0,6.51c1.79,1.79,4.72,1.79,6.51,0
		s1.79-4.72,0-6.51C100.07,163.28,98.89,162.83,97.71,162.83z"/>
	<path class="st0" d="M57.98,66.12c-2.54,0-4.6,2.07-4.6,4.6c0,2.54,2.07,4.6,4.6,4.6c2.54,0,4.6-2.07,4.6-4.6
		C62.59,68.18,60.52,66.12,57.98,66.12z"/>
	<path class="st0" d="M139.91,148.05c-2.54,0-4.6,2.07-4.6,4.6c0,2.54,2.07,4.6,4.6,4.6s4.6-2.07,4.6-4.6
		C144.52,150.11,142.45,148.05,139.91,148.05z"/>
	<path class="st0" d="M13.27,130.28c-2.54,0-4.6,2.07-4.6,4.6s2.07,4.6,4.6,4.6s4.6-2.07,4.6-4.6S15.81,130.28,13.27,130.28z"/>
	<path class="st0" d="M187.65,85.76c-2.54,0-4.6,2.07-4.6,4.6s2.07,4.6,4.6,4.6c2.54,0,4.6-2.07,4.6-4.6S190.19,85.76,187.65,85.76z
		"/>
	<path class="st0" d="M148.51,35.07L148.51,35.07c0.87-0.87,1.35-2.03,1.35-3.26c0-1.23-0.48-2.39-1.35-3.26
		c-0.9-0.9-2.08-1.35-3.26-1.35s-2.36,0.45-3.26,1.35c-0.87,0.87-1.35,2.03-1.35,3.26c0,1.23,0.48,2.39,1.35,3.26
		C143.79,36.87,146.71,36.87,148.51,35.07z"/>
	<path class="st1" d="M115.8,92.19l2.65,2.65l28.3-28.3l0.55-1.32V39.9c1.42-0.35,2.76-1.07,3.86-2.18v0
		c1.58-1.58,2.44-3.67,2.44-5.9c0-2.23-0.87-4.33-2.44-5.9c-3.26-3.26-8.55-3.25-11.8,0c-1.58,1.58-2.44,3.67-2.44,5.9
		c0,2.23,0.87,4.33,2.44,5.9c1.19,1.19,2.66,1.94,4.2,2.26v24.46L115.8,92.19z M140.65,31.82c0-1.23,0.48-2.39,1.35-3.26
		c0.9-0.9,2.08-1.35,3.26-1.35s2.36,0.45,3.26,1.35c0.87,0.87,1.35,2.03,1.35,3.26c0,1.23-0.48,2.39-1.35,3.26v0
		c-1.79,1.79-4.72,1.79-6.51,0C141.13,34.2,140.65,33.05,140.65,31.82z"/>
	<path class="st1" d="M187.65,82.01c-4.6,0-8.35,3.74-8.35,8.35c0,1.69,0.51,3.25,1.37,4.57l-17.29,17.29h-39.24v3.74h40.02
		l1.32-0.55l17.9-17.9c1.25,0.75,2.71,1.19,4.27,1.19c4.6,0,8.35-3.74,8.35-8.35S192.26,82.01,187.65,82.01z M187.65,94.96
		c-2.54,0-4.6-2.07-4.6-4.6s2.07-4.6,4.6-4.6c2.54,0,4.6,2.07,4.6,4.6S190.19,94.96,187.65,94.96z"/>
	<path class="st1" d="M139.91,144.3c-1.62,0-3.14,0.47-4.42,1.28l-18.44-18.44l-2.65,2.65l18.44,18.44
		c-0.81,1.28-1.28,2.8-1.28,4.42c0,4.6,3.74,8.35,8.35,8.35s8.35-3.74,8.35-8.35C148.26,148.05,144.51,144.3,139.91,144.3z
		 M139.91,157.26c-2.54,0-4.6-2.07-4.6-4.6c0-2.54,2.07-4.6,4.6-4.6s4.6,2.07,4.6,4.6C144.52,155.19,142.45,157.26,139.91,157.26z"
		/>
	<path class="st1" d="M66.33,70.72c0-4.6-3.74-8.35-8.35-8.35s-8.35,3.74-8.35,8.35c0,4.6,3.74,8.35,8.35,8.35
		c1.62,0,3.14-0.47,4.42-1.28l18.44,18.44l2.65-2.65L65.05,75.14C65.86,73.86,66.33,72.35,66.33,70.72z M57.98,75.33
		c-2.54,0-4.6-2.07-4.6-4.6c0-2.54,2.07-4.6,4.6-4.6c2.54,0,4.6,2.07,4.6,4.6C62.59,73.26,60.52,75.33,57.98,75.33z"/>
	<path class="st1" d="M35.45,109.83l-17.9,17.9c-1.25-0.75-2.71-1.19-4.27-1.19c-4.6,0-8.35,3.74-8.35,8.35s3.74,8.35,8.35,8.35
		s8.35-3.74,8.35-8.35c0-1.69-0.51-3.25-1.37-4.57l17.29-17.29h39.24v-3.74H36.77L35.45,109.83z M13.27,139.49
		c-2.54,0-4.6-2.07-4.6-4.6s2.07-4.6,4.6-4.6s4.6,2.07,4.6,4.6S15.81,139.49,13.27,139.49z"/>
	<path class="st1" d="M99.58,159.31v-26.07h-3.74v26.07c-1.48,0.34-2.88,1.07-4.03,2.22c-3.25,3.25-3.25,8.55,0,11.8
		c1.63,1.63,3.76,2.44,5.9,2.44s4.28-0.81,5.9-2.44c3.25-3.25,3.25-8.55,0-11.8C102.46,160.38,101.06,159.65,99.58,159.31z
		 M100.97,170.69c-1.79,1.79-4.72,1.79-6.51,0c-1.8-1.79-1.8-4.72,0-6.51c0.9-0.9,2.08-1.35,3.26-1.35c1.18,0,2.36,0.45,3.26,1.35
		C102.76,165.97,102.76,168.89,100.97,170.69z"/>
</g>
<g>
	<linearGradient id="SVGID_1_" gradientUnits="userSpaceOnUse" x1="1.3318" y1="8.5224" x2="188.0142" y2="152.6696">
		<stop  offset="0" style="stop-color:#0071BC"/>
		<stop  offset="1" style="stop-color:#0B31B3"/>
	</linearGradient>
	<polygon class="st2" points="117.33,99.13 121,97.01 121,73.82 100.92,62.23 80.83,73.82 80.83,97.01 84.51,99.13 100.92,89.66 	
		"/>
	<linearGradient id="SVGID_2_" gradientUnits="userSpaceOnUse" x1="-25.7424" y1="43.5857" x2="160.94" y2="187.7329">
		<stop  offset="0" style="stop-color:#0071BC"/>
		<stop  offset="1" style="stop-color:#0B31B3"/>
	</linearGradient>
	<polygon class="st3" points="82.94,101.99 79.15,99.8 59.06,111.39 59.06,134.59 79.15,146.18 99.23,134.59 99.23,130.2 
		82.94,120.79 	"/>
	<linearGradient id="SVGID_3_" gradientUnits="userSpaceOnUse" x1="-8.7883" y1="21.6288" x2="177.8941" y2="165.776">
		<stop  offset="0" style="stop-color:#0071BC"/>
		<stop  offset="1" style="stop-color:#0B31B3"/>
	</linearGradient>
	<polygon class="st4" points="122.48,99.8 118.89,101.87 118.89,120.79 102.4,130.32 102.4,134.59 122.48,146.18 142.57,134.59 
		142.57,111.39 	"/>
</g>
</svg>
