<?xml version="1.0" encoding="utf-8"?>
<!-- Generator: Adobe Illustrator 23.0.1, SVG Export Plug-In . SVG Version: 6.00 Build 0)  -->
<svg version="1.1" id="레이어_1" xmlns="http://www.w3.org/2000/svg" xmlns:xlink="http://www.w3.org/1999/xlink" x="0px"
	 y="0px" viewBox="0 0 204 231" style="enable-background:new 0 0 204 231;" xml:space="preserve">
<style type="text/css">
	.st0{fill:#71C2FF;}
	.st1{fill:#FFFFFF;}
</style>
<path class="st0" d="M195.39,179.65c4.76-2.75,8.66-9.5,8.66-15V66.77c0-5.5-3.9-12.25-8.66-15L110.62,2.83
	c-4.76-2.75-12.56-2.75-17.32,0L8.53,51.77c-4.76,2.75-8.66,9.5-8.66,15v97.88c0,5.5,3.9,12.25,8.66,15L93.3,228.6
	c4.76,2.75,12.56,2.75,17.32,0L195.39,179.65z"/>
<path class="st1" d="M101.96,66.02L58.93,90.87v49.69l43.04,24.85L145,140.56V90.87L101.96,66.02z M121.97,102.53l-18.51-10.69
	V70.35l37.2,21.48L121.97,102.53z M101.96,136.99l-18.42-10.64v-21.28l18.42-10.64l18.42,10.64v21.28L101.96,136.99z M100.46,91.84
	l-18.53,10.7l-18.7-10.69l37.23-21.5V91.84z M80.54,105.2v21.06l-18.61,10.66V94.56L80.54,105.2z M81.95,128.9l18.51,10.69v21.49
	l-37.2-21.47L81.95,128.9z M103.46,139.59l18.53-10.7l18.71,10.69l-37.23,21.5V139.59z M123.39,126.23v-21.06L142,94.51v42.35
	L123.39,126.23z"/>
</svg>
