<?xml version="1.0" encoding="utf-8"?>
<!-- Generator: Adobe Illustrator 23.0.1, SVG Export Plug-In . SVG Version: 6.00 Build 0)  -->
<svg version="1.1" id="레이어_1" xmlns="http://www.w3.org/2000/svg" xmlns:xlink="http://www.w3.org/1999/xlink" x="0px"
	 y="0px" viewBox="0 0 4770 436" style="enable-background:new 0 0 4770 436;" xml:space="preserve">
<style type="text/css">
	.st0{fill:url(#SVGID_1_);}
	.st1{fill:url(#SVGID_2_);}
	.st2{fill:url(#SVGID_3_);}
	.st3{fill:url(#SVGID_4_);}
	.st4{fill:url(#SVGID_5_);}
	.st5{fill:url(#SVGID_6_);}
	.st6{fill:url(#SVGID_7_);}
	.st7{fill:url(#SVGID_8_);}
	.st8{fill:url(#SVGID_9_);}
	.st9{fill:url(#SVGID_10_);}
	.st10{fill:url(#SVGID_11_);}
	.st11{fill:url(#SVGID_12_);}
	.st12{fill:url(#SVGID_13_);}
	.st13{fill:url(#SVGID_14_);}
	.st14{fill:url(#SVGID_15_);}
	.st15{fill:url(#SVGID_16_);}
	.st16{fill:url(#SVGID_17_);}
	.st17{fill:url(#SVGID_18_);}
	.st18{fill:url(#SVGID_19_);}
	.st19{fill:url(#SVGID_20_);}
	.st20{fill:url(#SVGID_21_);}
	.st21{fill:url(#SVGID_22_);}
	.st22{fill:url(#SVGID_23_);}
</style>
<g>
	<linearGradient id="SVGID_1_" gradientUnits="userSpaceOnUse" x1="86.4942" y1="145.7382" x2="5261.9399" y2="316.8273">
		<stop  offset="0" style="stop-color:#0034C6"/>
		<stop  offset="0.5" style="stop-color:#008FAD"/>
		<stop  offset="1" style="stop-color:#0028BB"/>
	</linearGradient>
	<path class="st0" d="M136.7,119.7c-5.7,2.7-10.9,6.3-15.5,10.5c-4.7,4.3-7.7,9.1-9.1,14.4h19.7l-9.3,40.1H81.2l7.7-33.4
		c2.2-9.7,7.5-18.5,15.7-26.3c8.2-7.9,16.9-13,26-15.3L136.7,119.7z M185.3,119.7c-5.7,2.7-10.9,6.3-15.5,10.5
		c-4.7,4.3-7.7,9.1-9.1,14.4h19.7l-9.3,40.1h-41.4l7.7-33.4c2.2-9.7,7.5-18.5,15.7-26.3c8.2-7.9,16.9-13,26-15.3L185.3,119.7z"/>
	<linearGradient id="SVGID_2_" gradientUnits="userSpaceOnUse" x1="84.1136" y1="217.752" x2="5259.5591" y2="388.8411">
		<stop  offset="0" style="stop-color:#0034C6"/>
		<stop  offset="0.5" style="stop-color:#008FAD"/>
		<stop  offset="1" style="stop-color:#0028BB"/>
	</linearGradient>
	<path class="st1" d="M245.1,322.5c-8.2-1.6-15.7-5.6-22.7-12c-7-6.4-11.1-13.4-12.4-20.9c-5.4,8.2-14.1,15.8-26.2,22.8
		c-12.1,6.9-22.6,10.5-31.6,10.6l8.4-36.4c8-1.6,16.2-7.1,24.4-16.6c8.3-9.5,14.8-24.6,19.6-45.4l23-99.7h40.3l-23,99.7
		c-4.2,18.3-5.3,32.3-3.2,41.7c2.1,9.5,6.1,15.7,12,18.7L245.1,322.5z M340.8,298.2c-1.5,6.6-5.3,12.5-11.2,17.7
		c-6,5.1-12.7,7.7-20.2,7.7h-14.5l21.8-94.5h-5.9L294,301.9c-1.5,6.4-4.7,11.6-9.8,15.6c-5.1,4-11,6.1-17.8,6.1h-17.6l45.9-198.9
		h40.1l-15.8,68.3h5.9l15.8-68.3h40.1L340.8,298.2z"/>
	<linearGradient id="SVGID_3_" gradientUnits="userSpaceOnUse" x1="84.3193" y1="211.5297" x2="5259.7646" y2="382.6188">
		<stop  offset="0" style="stop-color:#0034C6"/>
		<stop  offset="0.5" style="stop-color:#008FAD"/>
		<stop  offset="1" style="stop-color:#0028BB"/>
	</linearGradient>
	<path class="st2" d="M431.2,289.5l6.2-26.7h44.2l-6.2,26.7h67.4l-4.1,17.6c-1.1,4.9-3.6,8.8-7.5,11.7c-3.8,2.9-8.3,4.3-13.4,4.3
		H367.6c-4.9,0-8.7-1.4-11.2-4.3c-2.6-2.9-3.3-6.8-2.2-11.7l4.1-17.6H431.2z M552.7,196.2c-1,4.2-2.6,7.2-5,8.9
		c-2.4,1.7-5.6,2.6-9.8,2.6H431.3l-3.5,15.2h123.1l-4.9,21.2c-1,4.2-2.8,7.3-5.4,9.2c-2.6,2-6,2.9-10.2,2.9H388.9
		c-4.2,0-7.1-1-8.9-2.9c-1.7-2-2.1-5-1.1-9.2l16.2-70h118.5l3.5-15H410.2c-4.2,0-7.1-0.9-8.6-2.6s-1.8-4.7-0.9-8.9l5.2-22.3H569
		L552.7,196.2z"/>
	<linearGradient id="SVGID_4_" gradientUnits="userSpaceOnUse" x1="84.5309" y1="205.1297" x2="5259.9766" y2="376.2188">
		<stop  offset="0" style="stop-color:#0034C6"/>
		<stop  offset="0.5" style="stop-color:#008FAD"/>
		<stop  offset="1" style="stop-color:#0028BB"/>
	</linearGradient>
	<path class="st3" d="M685,248.8l-5.1,22.1c-0.9,3.8-2.6,6.6-5.2,8.5c-2.6,1.9-6.1,2.8-10.6,2.8h-30.8l7.7-33.4h-63.7
		c-4.6,0-7.9-1-9.7-3.1c-1.8-2.1-2.2-5.5-1.1-10.1l4.6-19.7H757l-4.6,19.7c-1.1,4.6-3,8-5.8,10.1c-2.8,2.1-6.5,3.1-11.1,3.1H685z
		 M758.6,178c-2,8.5-7.3,15.7-16.1,21.5c-8.8,5.8-18.5,8.7-29.2,8.7h-94.9c-10.7,0-19.1-2.9-25.2-8.7c-6.1-5.8-8.2-12.9-6.2-21.5
		l5.5-23.6c2-8.5,7.3-15.7,16.1-21.6c8.8-5.9,18.5-8.8,29.2-8.8h94.9c10.7,0,19.1,2.9,25.2,8.8c6.1,5.9,8.1,13,6.2,21.6L758.6,178z
		 M570.9,323.8c-4.5,0-7.7-1.2-9.7-3.6c-2-2.4-2.5-5.7-1.5-10.1l11.9-51.4h44.2l-7.3,31.4H729l-4.6,19.9c-1,4.3-3.1,7.7-6.2,10.1
		c-3.2,2.4-7,3.6-11.4,3.6H570.9z M708.9,173.8c3.2,0,5.6-0.6,7.1-1.8c1.6-1.2,2.7-3.2,3.3-6c0.7-2.9,0.3-4.9-1-6.1
		c-1.3-1.2-3.6-1.7-6.8-1.7h-68c-3.2,0-5.7,0.6-7.6,1.7c-1.9,1.2-3.1,3.2-3.8,6.1c-0.6,2.7-0.3,4.7,1,6c1.3,1.2,3.5,1.8,6.7,1.8
		H708.9z"/>
	<linearGradient id="SVGID_5_" gradientUnits="userSpaceOnUse" x1="84.8108" y1="196.6612" x2="5260.2563" y2="367.7503">
		<stop  offset="0" style="stop-color:#0034C6"/>
		<stop  offset="0.5" style="stop-color:#008FAD"/>
		<stop  offset="1" style="stop-color:#0028BB"/>
	</linearGradient>
	<path class="st4" d="M857.1,158.7c-3.5,0-6.3-1.2-8.4-3.6c-2.1-2.4-2.7-5.7-1.7-9.9l4.7-20.2h110.1l-3.7,16h12.1l3.8-16.5h44
		l-21.8,94.5c-1,4.5-3.4,8.1-7,10.7c-3.7,2.7-8,4-13.1,4h-27.3l4-17.3h-20.6c-3.6,0-6.3-1.1-8.1-3.4c-1.8-2.2-2.3-5.2-1.4-8.8
		l0.4-1.5c-2.2,1.9-4.4,3.7-6.7,5.4c-21.1,16.2-50.8,24.3-89.2,24.3l7.9-34c21.1,0,37.8-3.5,50.2-10.5c12.4-7,19.8-15.8,22.2-26.3
		l0.7-3H857.1z M981.4,293.2c-2.3,10.1-7.6,17.9-15.7,23.3c-8.1,5.4-17.3,8.1-27.6,8.1h-92.3c-10.1,0-18-2.7-23.7-8.1
		s-7.4-13.2-5-23.3l5.3-23c2.3-10.1,7.6-17.9,15.8-23.3s17.3-8.1,27.4-8.1H958c10.3,0,18.2,2.7,23.8,8.1c5.6,5.4,7.2,13.2,4.9,23.3
		L981.4,293.2z M940.1,280.7c0.5-2.3,0.3-4.2-0.6-5.6c-1-1.4-3.8-2.2-8.4-2.2h-54.2c-4.5,0-7.6,0.7-9.3,2.2
		c-1.7,1.4-2.8,3.3-3.4,5.6l-0.4,1.5c-0.5,2.3-0.3,4.2,0.8,5.6c1,1.4,3.8,2.2,8.3,2.2h54.2c4.6,0,7.8-0.7,9.4-2.2s2.7-3.3,3.3-5.6
		L940.1,280.7z M945.9,174.7c-1.5,2.7-3.2,5.5-5.2,8.2h19.7l1.9-8.2H945.9z"/>
	<linearGradient id="SVGID_6_" gradientUnits="userSpaceOnUse" x1="85.2008" y1="184.8631" x2="5260.6465" y2="355.9522">
		<stop  offset="0" style="stop-color:#0034C6"/>
		<stop  offset="0.5" style="stop-color:#008FAD"/>
		<stop  offset="1" style="stop-color:#0028BB"/>
	</linearGradient>
	<path class="st5" d="M1079.2,127l3.6-15.6h43.8l-3.6,15.6h37.5l-4.8,20.8c-1,4.2-2.7,7.2-5.2,9.1c-2.5,1.9-5.9,2.8-10.1,2.8h-96.6
		c-4.2,0-7.1-0.9-8.8-2.8c-1.7-1.9-2-4.9-1-9.1l4.8-20.8H1079.2z M1191.4,223.9c-1,4.5-3.4,8.1-7,10.7c-3.7,2.7-8,4-13.1,4H1144
		l7-30.3h-11.1l-0.7,2.8c-1.7,7.5-5.6,14-11.6,19.4s-14.1,8.1-24.2,8.1h-56.8c-10.1,0-17-2.7-20.6-8.1c-3.6-5.4-4.5-11.9-2.8-19.4
		l4.5-19.3c1.8-7.7,5.7-14.1,11.7-19.4c6.1-5.3,14.1-7.9,24.3-7.9h56.8c10.1,0,16.9,2.7,20.5,8c0.6,1,1.2,2.1,1.8,3.3h15.6
		l11.8-51.1h44L1191.4,223.9z M1029.6,244.3h157.1l-15.2,65.9c-1,4.3-3,7.7-6,10.1c-3,2.4-6.8,3.6-11.2,3.6h-128.9
		c-4.5,0-7.7-1.2-9.6-3.6c-1.9-2.4-2.4-5.7-1.4-10.1L1029.6,244.3z M1097.3,202.4c0.5-2,0.2-3.3-0.9-3.7c-1.1-0.4-2.7-0.6-5.1-0.6
		h-13c-2.3,0-4.3,0.2-5.9,0.6c-1.6,0.4-2.7,1.7-3.1,3.7c-0.5,2,0,3.4,1.3,4c1.4,0.6,3.2,1,5.5,1h13c2.3,0,4.1-0.3,5.4-1
		C1095.9,205.8,1096.8,204.5,1097.3,202.4z M1132.1,290l2.8-11.9h-69.3l-2.8,11.9H1132.1z"/>
	<linearGradient id="SVGID_7_" gradientUnits="userSpaceOnUse" x1="85.2389" y1="183.71" x2="5260.6846" y2="354.7991">
		<stop  offset="0" style="stop-color:#0034C6"/>
		<stop  offset="0.5" style="stop-color:#008FAD"/>
		<stop  offset="1" style="stop-color:#0028BB"/>
	</linearGradient>
	<path class="st6" d="M1225.8,230.4c-4.6,0-7.9-1-9.7-3.1c-1.8-2.1-2.2-5.5-1.1-10.1l3.9-16.9h185.9l-3.9,16.9
		c-1.1,4.6-3,8-5.8,10.1c-2.8,2.1-6.5,3.1-11.1,3.1H1225.8z M1406.4,167.3c-2,8.5-6.8,15.4-14.6,20.5c-7.8,5.1-17,7.7-27.7,7.7H1262
		c-10.7,0-18.7-2.6-24.1-7.7c-5.4-5.1-7.1-12-5.1-20.5l3.5-15.2c2-8.5,6.8-15.4,14.6-20.6c7.8-5.2,17-7.8,27.7-7.8h102.1
		c10.7,0,18.7,2.6,24.1,7.8c5.4,5.2,7.1,12.1,5.1,20.6L1406.4,167.3z M1375.4,280.7c-1,4.2-2.6,7.2-5,8.9s-5.6,2.6-9.8,2.6h-108.6
		l-1.2,5h122.4l-3.4,14.5c-1,4.2-2.8,7.3-5.4,9.2c-2.6,2-6,2.9-10.2,2.9h-140.9c-4.2,0-7.1-1-8.9-2.9c-1.7-2-2.1-5-1.1-9.2l10.2-44
		h120.5l1.2-5h-108.8c-4.2,0-7.1-0.9-8.6-2.6c-1.5-1.7-1.8-4.7-0.9-8.9l3.4-14.7h165.1L1375.4,280.7z M1355.2,163.6
		c3.2,0,5.5-0.3,6.9-1s2.3-1.6,2.6-2.9c0.3-1.3-0.1-2.3-1.3-2.9c-1.2-0.7-3.3-1-6.5-1h-69.6c-3.2,0-5.5,0.3-7.1,1
		c-1.5,0.6-2.4,1.6-2.7,2.9c-0.3,1.3,0.2,2.3,1.4,2.9c1.2,0.7,3.4,1,6.6,1H1355.2z"/>
	<linearGradient id="SVGID_8_" gradientUnits="userSpaceOnUse" x1="85.5396" y1="174.6166" x2="5260.9849" y2="345.7057">
		<stop  offset="0" style="stop-color:#0034C6"/>
		<stop  offset="0.5" style="stop-color:#008FAD"/>
		<stop  offset="1" style="stop-color:#0028BB"/>
	</linearGradient>
	<path class="st7" d="M1500.5,267.2h-24.5c-4.8,0-8.3-1.2-10.5-3.7c-2.3-2.5-2.8-6-1.8-10.6l4.4-19.1h105.1c4.6,0,9.3-0.4,13.9-1.1
		c4.1-0.7,7.1-1.4,9-2.2l24.5-106h44l-39.5,171c-1.8,7.9-6.1,14.6-12.8,20c-6.7,5.4-14,8.1-21.9,8.1h-15.8l13.8-59.8
		c-2.2,0.6-5.3,1.2-9.6,2c-4.7,0.9-9.5,1.3-14.6,1.3h-19.7l-9.4,40.7c-1,4.3-3.6,7.9-7.8,10.8c-4.2,2.9-8.6,4.3-13.2,4.3h-26.4
		L1500.5,267.2z M1489.1,157.1c2.4-10.3,7.3-18.5,14.9-24.7c7.6-6.2,16.4-9.3,26.5-9.3h48.5c10.1,0,17.5,3.1,22.2,9.3
		c4.7,6.2,5.9,14.4,3.5,24.7l-7.6,32.9c-2.3,10.1-7.3,18.3-14.9,24.6c-7.6,6.3-16.4,9.4-26.6,9.4h-48.5c-10.1,0-17.5-3.1-22.2-9.4
		c-4.7-6.3-5.9-14.5-3.5-24.6L1489.1,157.1z M1528.7,179c-1,4.5-1,7.4,0.1,8.8c1.1,1.4,2.8,2.1,5.2,2.1h10.8c2.3,0,4.3-0.7,6.1-2.1
		c1.8-1.4,3.2-4.3,4.2-8.8l2.5-10.8c1.1-4.6,1-7.6-0.1-8.9c-1.1-1.3-2.9-2-5.2-2h-10.8c-2.3,0-4.3,0.6-6.1,2
		c-1.7,1.3-3.2,4.3-4.2,8.9L1528.7,179z"/>
	<linearGradient id="SVGID_9_" gradientUnits="userSpaceOnUse" x1="85.8538" y1="165.1099" x2="5261.2993" y2="336.199">
		<stop  offset="0" style="stop-color:#0034C6"/>
		<stop  offset="0.5" style="stop-color:#008FAD"/>
		<stop  offset="1" style="stop-color:#0028BB"/>
	</linearGradient>
	<path class="st8" d="M1709,139.4l5.5-23.6h40.3l-5.5,23.6h25.8l-5.1,21.9c-1,4.2-2.7,7.2-5.2,9.1c-2.5,1.9-5.9,2.8-10.1,2.8h-67
		c-4.2,0-7.1-0.9-8.8-2.8c-1.7-1.9-2-4.9-1-9.1l5.1-21.9H1709z M1668.8,212.2c2.4-10.3,6.8-18.5,13.3-24.7
		c6.5-6.2,14.3-9.3,23.4-9.3h29.9c9.1,0,15.5,3.1,19.1,9.3c3.6,6.2,4.2,14.4,1.9,24.7l-17.5,75.8c-2.3,10.1-6.8,18.3-13.3,24.6
		c-6.5,6.3-14.3,9.4-23.4,9.4h-29.9c-9.1,0-15.5-3.1-19.1-9.4c-3.6-6.3-4.2-14.5-1.9-24.6L1668.8,212.2z M1693.6,275.9
		c-1,4.5-1.3,7.4-0.8,8.8c0.5,1.4,1.5,2.1,3.1,2.1c1.6,0,2.8-0.7,3.7-2c0.9-1.3,1.8-4.3,2.9-8.9l11.9-51.6c1.1-4.6,1.5-7.6,1.2-8.9
		c-0.3-1.3-1.2-2-2.8-2c-1.6,0-2.9,0.7-4.1,2.1c-1.1,1.4-2.2,4.3-3.2,8.8L1693.6,275.9z M1828.2,298.2c-1.5,6.6-5.3,12.5-11.2,17.7
		c-6,5.1-12.7,7.7-20.2,7.7h-13.7l21.8-94.5h-5.9l-16.8,72.8c-1.5,6.4-4.7,11.6-9.8,15.6c-5.1,4-11,6.1-17.8,6.1H1738l45.9-198.9
		h39.2l-15.8,68.3h5.9l15.8-68.3h39.2L1828.2,298.2z"/>
	<linearGradient id="SVGID_10_" gradientUnits="userSpaceOnUse" x1="85.9666" y1="161.6973" x2="5261.4121" y2="332.7864">
		<stop  offset="0" style="stop-color:#0034C6"/>
		<stop  offset="0.5" style="stop-color:#008FAD"/>
		<stop  offset="1" style="stop-color:#0028BB"/>
	</linearGradient>
	<path class="st9" d="M1927.9,221.1c-4.6,0-7.9-1-9.7-3.1c-1.8-2.1-2.2-5.5-1.1-10.1l4.5-19.5h41.8c1.6-3,3.2-6.3,4.9-9.8
		c3.2-6.9,5.2-12.2,6-15.8l1.2-5h-23.8c-3.5,0-6.3-1.2-8.4-3.6c-2.1-2.4-2.7-5.7-1.7-9.9l4.6-19.7h79.7l-8.1,34.9
		c-1.5,6.1-4.2,12.8-7.9,20.2c-1.6,3.3-3.2,6.2-4.8,8.7h47.7c1.1-2.9,2.1-5.9,2.9-8.9c1.7-6.1,3.1-11.6,4.3-16.7l1.2-5h-24.7
		c-3.5,0-6.3-1.2-8.4-3.6c-2.1-2.4-2.7-5.7-1.7-9.9l4.6-19.7h80.8l-8.9,38.4c-0.7,3.2-2.6,8.7-5.6,16.7c-1.3,3.3-2.6,6.2-3.7,8.7
		h14.1l-4.5,19.5c-1.1,4.6-3,8-5.8,10.1c-2.8,2.1-6.5,3.1-11.1,3.1H1927.9z M1922.4,230.6h44.2l-13.7,59.4h31.2l-7.8,33.8h-62.4
		c-4.2,0-7.2-1-8.9-3c-1.8-2-2.2-5.1-1.2-9.3L1922.4,230.6z M2018.1,241.4l3.3-14.3h44l-3.3,14.3h30.1l-5,21.5c-1,4.2-2.6,7.2-5,9
		c-2.4,1.8-5.5,2.7-9.4,2.7c1.2,4.6,1.1,10.2-0.4,16.7c-3,12.9-9.4,22.5-19.4,28.8c-10,6.4-20.8,9.5-32.3,9.5
		c-11.4,0-20.8-3.2-28.1-9.6c-7.3-6.4-9.5-16.1-6.5-28.9c1.5-6.4,3.8-11.8,7.1-16.5h-0.6c-4.2,0-7.1-0.9-8.6-2.7
		c-1.5-1.8-1.8-4.8-0.8-9l5-21.5H2018.1z M2031.7,281.1c-1.6,0-2.9,1-3.8,2.9c-1,2-1.8,4.5-2.5,7.7c-0.7,3-1,5.4-0.9,7.2
		c0.1,1.7,1,2.6,2.5,2.6c1.6,0,2.9-0.8,3.8-2.5c1-1.7,1.8-4.1,2.5-7.3c0.7-3.2,1-5.7,0.9-7.7
		C2034.1,282.1,2033.3,281.1,2031.7,281.1z"/>
	<linearGradient id="SVGID_11_" gradientUnits="userSpaceOnUse" x1="86.2232" y1="153.9379" x2="5261.6685" y2="325.027">
		<stop  offset="0" style="stop-color:#0034C6"/>
		<stop  offset="0.5" style="stop-color:#008FAD"/>
		<stop  offset="1" style="stop-color:#0028BB"/>
	</linearGradient>
	<path class="st10" d="M2129,158c2.4-10.3,7.2-18.5,14.6-24.7c7.4-6.2,16.1-9.3,26.2-9.3h46.4c10.1,0,17.4,3.1,21.9,9.3
		c4.5,6.2,5.5,14.4,3.2,24.7l-9.3,40.3c-2.3,10.1-7.2,18.3-14.6,24.6c-7.4,6.3-16.1,9.4-26.2,9.4h-46.4c-10.1,0-17.4-3.1-21.9-9.4
		c-4.5-6.3-5.5-14.5-3.2-24.6L2129,158z M2123.3,239.3h157.1l-16.4,70.9c-1,4.3-3,7.7-6,10.1c-3,2.4-6.8,3.6-11.2,3.6h-128.9
		c-4.5,0-7.7-1.2-9.6-3.6c-1.9-2.4-2.4-5.7-1.4-10.1L2123.3,239.3z M2166.3,187.3c-1,4.5-1,7.4,0.1,8.8c1.1,1.4,2.8,2.1,5.2,2.1h8.7
		c2.3,0,4.3-0.7,6.1-2.1c1.8-1.4,3.2-4.3,4.2-8.8l4.2-18.2c1.1-4.6,1-7.6-0.1-8.9c-1.1-1.3-2.9-2-5.2-2h-8.7c-2.3,0-4.3,0.7-6.1,2
		c-1.7,1.3-3.2,4.3-4.2,8.9L2166.3,187.3z M2224.7,290l3.9-16.9h-69.3l-3.9,16.9H2224.7z M2285,219.1c-1,4.5-3.4,8.1-7,10.7
		c-3.7,2.7-8,4-13.1,4h-27.3l25.2-109.2h44L2285,219.1z"/>
	<linearGradient id="SVGID_12_" gradientUnits="userSpaceOnUse" x1="86.4366" y1="147.4802" x2="5261.8823" y2="318.5693">
		<stop  offset="0" style="stop-color:#0034C6"/>
		<stop  offset="0.5" style="stop-color:#008FAD"/>
		<stop  offset="1" style="stop-color:#0028BB"/>
	</linearGradient>
	<path class="st11" d="M2482.8,212.6c-1,4.5-3.4,8.1-7,10.7c-3.7,2.7-8,4-13.1,4h-27.3l8-34.7h-14.1l-0.3,1.1
		c-2.3,10.1-7.2,18.3-14.6,24.6c-7.4,6.3-16.1,9.4-26.2,9.4H2342c-10.1,0-17.4-3.1-21.9-9.4c-4.5-6.3-5.5-14.5-3.2-24.6l8.3-35.8
		c2.4-10.3,7.2-18.5,14.6-24.7c7.4-6.2,16.1-9.3,26.2-9.3h46.4c10.1,0,17.4,3.1,21.9,9.3c4.5,6.2,5.5,14.4,3.2,24.7l-0.3,1.3h14.1
		l8-34.7h44L2482.8,212.6z M2312.6,323.8c-4.2,0-7.2-1-8.9-3c-1.8-2-2.2-5.1-1.2-9.3l18.4-79.7h41.8l-3,12.8h7.6l3-12.8h41.4
		l-12.7,54.8c5.3-1.7,9.8-4.9,13.5-9.6c3.7-4.7,6.6-11.7,8.7-20.9l5.6-24.3h44l-5.6,24.3c-2.7,11.8-2.4,19.6,1,23.4
		c3.4,3.8,8.4,6.4,15.2,8l-8.4,36.2c-8.6-0.7-17-3.3-25.2-7.7c-8.2-4.4-13.2-9.1-15.3-14.2c-3.7,4.3-10.1,9.1-19,14.3
		c-8.9,5.2-17.5,7.8-25.7,7.8H2312.6z M2363.4,182.7c-1,4.5-1,7.4,0.1,8.8c1.1,1.4,2.8,2.1,5.2,2.1h8.7c2.3,0,4.3-0.7,6.1-2.1
		c1.8-1.4,3.2-4.3,4.2-8.8l3.2-13.7c1.1-4.6,1-7.6-0.1-8.9c-1.1-1.3-2.9-2-5.2-2h-8.7c-2.3,0-4.3,0.7-6.1,2
		c-1.7,1.3-3.2,4.3-4.2,8.9L2363.4,182.7z M2356.7,290.4l3.5-15.2h-7.6l-3.5,15.2H2356.7z"/>
	<linearGradient id="SVGID_13_" gradientUnits="userSpaceOnUse" x1="86.5904" y1="142.8294" x2="5262.0361" y2="313.9185">
		<stop  offset="0" style="stop-color:#0034C6"/>
		<stop  offset="0.5" style="stop-color:#008FAD"/>
		<stop  offset="1" style="stop-color:#0028BB"/>
	</linearGradient>
	<path class="st12" d="M2510.2,249.9c-4.6,0-7.9-1-9.7-3.1c-1.8-2.1-2.2-5.5-1.1-10.1l4.7-20.2H2690l-4.7,20.2
		c-1.1,4.6-3,8-5.8,10.1c-2.8,2.1-6.5,3.1-11.1,3.1H2510.2z M2536,124.2h44.2l-11.2,48.3h121.3l-4.6,19.9c-1,4.2-2.8,7.3-5.4,9.2
		c-2.6,2-6,2.9-10.2,2.9h-140c-4.2,0-7.1-1-8.9-2.9c-1.7-2-2.1-5-1.1-9.2L2536,124.2z M2504.2,323.8c-4.5,0-7.7-1.2-9.7-3.6
		c-2-2.4-2.5-5.7-1.5-10.1l12.2-52.9h44.2l-7.6,32.9h120.5l-4.6,19.9c-1,4.3-3.1,7.7-6.2,10.1c-3.2,2.4-7,3.6-11.4,3.6H2504.2z"/>
	<linearGradient id="SVGID_14_" gradientUnits="userSpaceOnUse" x1="86.9199" y1="132.8617" x2="5262.3652" y2="303.9508">
		<stop  offset="0" style="stop-color:#0034C6"/>
		<stop  offset="0.5" style="stop-color:#008FAD"/>
		<stop  offset="1" style="stop-color:#0028BB"/>
	</linearGradient>
	<path class="st13" d="M2810.3,289.5l8.4-36.4h43.8l-8.4,36.4h70.2l-4.1,17.6c-1.1,4.9-3.6,8.8-7.5,11.7c-3.8,2.9-8.3,4.3-13.4,4.3
		H2749c-4.9,0-8.7-1.4-11.2-4.3c-2.6-2.9-3.3-6.8-2.2-11.7l4.1-17.6H2810.3z M2947.2,147c-1,4.2-2.8,7.3-5.4,9.2
		c-2.6,2-6,2.9-10.2,2.9h-107.5l-11.9,51.6h122.4l-5,21.5c-1,4.2-2.8,7.3-5.4,9.2s-6,2.9-10.2,2.9h-141.1c-4.2,0-7.1-1-8.9-2.9
		s-2.1-5-1.1-9.2l24.7-106.8h164.5L2947.2,147z"/>
	<linearGradient id="SVGID_15_" gradientUnits="userSpaceOnUse" x1="87.1423" y1="126.1351" x2="5262.5879" y2="297.2242">
		<stop  offset="0" style="stop-color:#0034C6"/>
		<stop  offset="0.5" style="stop-color:#008FAD"/>
		<stop  offset="1" style="stop-color:#0028BB"/>
	</linearGradient>
	<path class="st14" d="M3013.8,216.1c-7.1,8.2-17.3,14.8-30.6,19.8c-13.3,5-25.2,7.6-35.8,7.7l8.2-35.5c9.3-1,18.8-5.2,28.3-12.6
		c8.8-6.6,15.5-19,20.3-37.1h-23.6c-4.2,0-7.1-0.9-8.8-2.8c-1.7-1.9-2-4.9-1-9.1l5-21.5h116.1l-5,21.5c-1,4.2-2.7,7.2-5.2,9.1
		c-2.5,1.9-5.9,2.8-10.1,2.8h-22.3c-3.6,18.1-2.8,30.4,2.3,37.1c5.7,7.4,13,11.6,22,12.6l-8.2,35.5c-10.5-0.1-21-2.7-31.6-7.7
		C3023.2,230.9,3016.5,224.3,3013.8,216.1z M2961,323.8c-4.5,0-7.7-1.2-9.7-3.6c-2-2.4-2.5-5.7-1.5-10.1l14.2-61.3h44.2l-9.5,41.2
		h111.4l-4.7,20.2c-1,4.3-3.1,7.7-6.2,10.1c-3.2,2.4-7,3.6-11.4,3.6H2961z M3118.6,250.3c-1,4.5-3.4,8.1-7,10.7c-3.7,2.7-8,4-13.1,4
		h-27.3l15.8-68.3h-13.2c-3.6,0-6.3-1.1-8.1-3.4c-1.8-2.2-2.3-5.2-1.4-8.8l4.7-20.4h25.6l9.2-39.7h44L3118.6,250.3z"/>
	<linearGradient id="SVGID_16_" gradientUnits="userSpaceOnUse" x1="87.3494" y1="119.8683" x2="5262.7949" y2="290.9574">
		<stop  offset="0" style="stop-color:#0034C6"/>
		<stop  offset="0.5" style="stop-color:#008FAD"/>
		<stop  offset="1" style="stop-color:#0028BB"/>
	</linearGradient>
	<path class="st15" d="M3159.1,230.4c-4.6,0-7.9-1-9.7-3.1c-1.8-2.1-2.2-5.5-1.1-10.1l3.9-16.9h185.9l-3.9,16.9
		c-1.1,4.6-3,8-5.8,10.1c-2.8,2.1-6.5,3.1-11.1,3.1H3159.1z M3339.7,167.3c-2,8.5-6.8,15.4-14.6,20.5c-7.8,5.1-17,7.7-27.7,7.7
		h-102.1c-10.7,0-18.7-2.6-24.1-7.7c-5.4-5.1-7.1-12-5.1-20.5l3.5-15.2c2-8.5,6.8-15.4,14.6-20.6c7.8-5.2,17-7.8,27.7-7.8H3314
		c10.7,0,18.7,2.6,24.1,7.8c5.4,5.2,7.1,12.1,5.1,20.6L3339.7,167.3z M3308.8,280.7c-1,4.2-2.6,7.2-5,8.9c-2.4,1.7-5.6,2.6-9.8,2.6
		h-108.6l-1.2,5h122.4l-3.4,14.5c-1,4.2-2.8,7.3-5.4,9.2s-6,2.9-10.2,2.9h-140.9c-4.2,0-7.1-1-8.9-2.9s-2.1-5-1.1-9.2l10.2-44h120.5
		l1.2-5h-108.8c-4.2,0-7.1-0.9-8.6-2.6c-1.5-1.7-1.8-4.7-0.9-8.9l3.4-14.7H3319L3308.8,280.7z M3288.5,163.6c3.2,0,5.5-0.3,6.9-1
		s2.3-1.6,2.6-2.9c0.3-1.3-0.1-2.3-1.3-2.9c-1.2-0.7-3.3-1-6.5-1h-69.6c-3.2,0-5.5,0.3-7.1,1c-1.5,0.6-2.4,1.6-2.7,2.9
		c-0.3,1.3,0.2,2.3,1.4,2.9c1.2,0.7,3.4,1,6.6,1H3288.5z"/>
	<linearGradient id="SVGID_17_" gradientUnits="userSpaceOnUse" x1="87.7449" y1="107.9037" x2="5263.1904" y2="278.9928">
		<stop  offset="0" style="stop-color:#0034C6"/>
		<stop  offset="0.5" style="stop-color:#008FAD"/>
		<stop  offset="1" style="stop-color:#0028BB"/>
	</linearGradient>
	<path class="st16" d="M3455.1,139.4l5.5-23.6h44.2l-5.5,23.6h33.8l-5.1,21.9c-1,4.2-2.7,7.2-5.2,9.1c-2.5,1.9-5.9,2.8-10.1,2.8
		h-89.5c-4.2,0-7.1-0.9-8.8-2.8c-1.7-1.9-2-4.9-1-9.1l5.1-21.9H3455.1z M3405.8,213.3c2.4-10.3,7.2-18.5,14.6-24.7
		c7.4-6.2,16.1-9.3,26.2-9.3h41c10.1,0,17.4,3.1,21.9,9.3c4.5,6.2,5.5,14.4,3.2,24.7l-17.5,75.6c-2.3,10.1-7.2,18.3-14.6,24.6
		c-7.4,6.3-16.1,9.4-26.2,9.4h-41c-10.1,0-17.4-3.1-21.9-9.4c-4.5-6.3-5.5-14.5-3.2-24.6L3405.8,213.3z M3434.8,278.3
		c-1,4.5-1,7.4,0.1,8.8c1.1,1.4,2.8,2.1,5.2,2.1h3.3c2.3,0,4.3-0.7,6.1-2.1c1.8-1.4,3.2-4.3,4.2-8.8l12.6-54.4
		c1.1-4.6,1-7.6-0.1-8.9c-1.1-1.3-2.9-2-5.2-2h-3.3c-2.3,0-4.3,0.7-6.1,2c-1.7,1.3-3.2,4.3-4.2,8.9L3434.8,278.3z M3568.5,201.1
		h30.1l-5.5,23.8c-1.1,4.9-3.5,8.5-7.1,10.6c-3.6,2.2-8,3.3-13.2,3.3h-13l-13.1,56.8c-1.8,7.9-6.1,14.6-12.8,20
		c-6.7,5.4-14,8.1-21.9,8.1h-15.8l46-199.1h44L3568.5,201.1z"/>
	<linearGradient id="SVGID_18_" gradientUnits="userSpaceOnUse" x1="87.783" y1="106.7513" x2="5263.2285" y2="277.8404">
		<stop  offset="0" style="stop-color:#0034C6"/>
		<stop  offset="0.5" style="stop-color:#008FAD"/>
		<stop  offset="1" style="stop-color:#0028BB"/>
	</linearGradient>
	<path class="st17" d="M3602.8,249.9c-4.6,0-7.9-1-9.7-3.1c-1.8-2.1-2.2-5.5-1.1-10.1l4.7-20.2h185.9l-4.7,20.2
		c-1.1,4.6-3,8-5.8,10.1c-2.8,2.1-6.5,3.1-11.1,3.1H3602.8z M3628.5,124.2h44.2l-11.2,48.3h121.3l-4.6,19.9c-1,4.2-2.8,7.3-5.4,9.2
		c-2.6,2-6,2.9-10.2,2.9h-140c-4.2,0-7.1-1-8.9-2.9c-1.7-2-2.1-5-1.1-9.2L3628.5,124.2z M3596.8,323.8c-4.5,0-7.7-1.2-9.7-3.6
		c-2-2.4-2.5-5.7-1.5-10.1l12.2-52.9h44.2l-7.6,32.9h120.5l-4.6,19.9c-1,4.3-3.1,7.7-6.2,10.1s-7,3.6-11.4,3.6H3596.8z"/>
	<linearGradient id="SVGID_19_" gradientUnits="userSpaceOnUse" x1="88.1044" y1="97.0309" x2="5263.5498" y2="268.12">
		<stop  offset="0" style="stop-color:#0034C6"/>
		<stop  offset="0.5" style="stop-color:#008FAD"/>
		<stop  offset="1" style="stop-color:#0028BB"/>
	</linearGradient>
	<path class="st18" d="M3858.9,231c-4.6,0-7.9-1-9.7-3.1c-1.8-2.1-2.2-5.5-1.1-10.1l4.3-18.6h72.2l3.6-15.4h44l-3.6,15.4h69.8
		l-4.3,18.6c-1.1,4.6-3,8-5.8,10.1c-2.8,2.1-6.5,3.1-11.1,3.1H3858.9z M3953.4,166c-8.1,7.7-21.2,14.4-39.2,20.2
		c-18,5.8-36.1,8.7-54.1,8.7l7.6-32.7c15,0,30.3-3.1,45.9-9.4c15.6-6.3,24.8-15.3,27.5-27l0.6-2.4h43.6l-0.6,2.4
		c-2.7,11.7,2.3,20.7,14.9,27s26.5,9.4,41.5,9.4l-7.6,32.7c-18.1,0-34.8-2.9-50.1-8.7C3968,180.4,3958,173.7,3953.4,166z
		 M4008.7,280.7c-1,4.2-2.6,7.2-5,8.9c-2.4,1.7-5.6,2.6-9.8,2.6h-108.6l-1.2,5h122.4l-3.4,14.5c-1,4.2-2.8,7.3-5.4,9.2
		s-6,2.9-10.2,2.9h-140.9c-4.2,0-7.1-1-8.9-2.9s-2.1-5-1.1-9.2l10.2-44h120.5l1.2-5h-108.8c-4.2,0-7.1-0.9-8.6-2.6
		c-1.5-1.7-1.8-4.7-0.9-8.9l3.4-14.7h165.1L4008.7,280.7z"/>
	<linearGradient id="SVGID_20_" gradientUnits="userSpaceOnUse" x1="88.3569" y1="89.3924" x2="5263.8022" y2="260.4815">
		<stop  offset="0" style="stop-color:#0034C6"/>
		<stop  offset="0.5" style="stop-color:#008FAD"/>
		<stop  offset="1" style="stop-color:#0028BB"/>
	</linearGradient>
	<path class="st19" d="M4147.1,277l-7.1,30.8c-1,4.3-3.7,8.1-8,11.2c-4.3,3.1-8.8,4.7-13.4,4.7h-26.2l10.8-46.6h-58.5
		c-4.6,0-7.9-1-9.7-3.1c-1.8-2.1-2.2-5.5-1.1-10.1l4.7-20.2h185.9l-4.7,20.2c-1.1,4.6-3,8-5.8,10.1c-2.8,2.1-6.5,3.1-11.1,3.1
		H4147.1z M4227,186.2c-1,4.2-2.6,7.2-5,8.9c-2.4,1.7-5.6,2.6-9.8,2.6h-108.8l-1.4,6.1h124.4l-5,21.7c-1,4.2-2.8,7.3-5.4,9.2
		s-6,2.9-10.2,2.9h-142.4c-4.2,0-7.1-1-8.9-2.9s-2.1-5-1.1-9.2l14.2-61.3h120.7l1.3-5.6H4080c-4.2,0-7.1-0.9-8.6-2.6
		s-1.8-4.7-0.9-8.9l5.1-22.1h165.6L4227,186.2z"/>
	<linearGradient id="SVGID_21_" gradientUnits="userSpaceOnUse" x1="88.5492" y1="83.5739" x2="5263.9946" y2="254.663">
		<stop  offset="0" style="stop-color:#0034C6"/>
		<stop  offset="0.5" style="stop-color:#008FAD"/>
		<stop  offset="1" style="stop-color:#0028BB"/>
	</linearGradient>
	<path class="st20" d="M4303.9,214.4c-6.4,8.2-16.5,15.2-30.5,20.8c-13.9,5.6-26.2,8.5-36.8,8.7l8.2-35.5c9.3-1,19-5.7,28.9-14.1
		c10-8.4,17.3-23,22.1-43.8l6-26h44.9l-6,26c-4.8,20.8-4.3,35.4,1.6,43.8c5.9,8.4,13.3,13.1,22.3,14.1l-8.2,35.5
		c-10.5-0.1-21.3-3-32.5-8.7C4312.9,229.5,4306.2,222.6,4303.9,214.4z M4249.9,323.8c-4.5,0-7.7-1.2-9.7-3.6
		c-2-2.4-2.5-5.7-1.5-10.1l14.2-61.3h44.2l-9.5,41.2H4399l-4.7,20.2c-1,4.3-3.1,7.7-6.2,10.1c-3.1,2.4-7,3.6-11.4,3.6H4249.9z
		 M4381.8,171l1.5-6.5h-14.5c-3.6,0-6.3-1.1-8.1-3.4c-1.8-2.2-2.3-5.2-1.4-8.8l4.3-18.6h26.9l2.1-9.1h44l-28.8,124.8
		c-1,4.5-3.4,8.1-7,10.7c-3.7,2.7-8,4-13.1,4h-27.3l14.4-62.4h-14.5c-3.6,0-6.3-1.1-8.1-3.4c-1.8-2.2-2.3-5.2-1.4-8.8l4.3-18.6
		H4381.8z"/>
	<linearGradient id="SVGID_22_" gradientUnits="userSpaceOnUse" x1="88.5399" y1="83.8549" x2="5263.9854" y2="254.944">
		<stop  offset="0" style="stop-color:#0034C6"/>
		<stop  offset="0.5" style="stop-color:#008FAD"/>
		<stop  offset="1" style="stop-color:#0028BB"/>
	</linearGradient>
	<path class="st21" d="M4485.7,270h-34.2l25.3-141.5h49.2L4485.7,270z M4479.8,318.2c-0.9,3.8-2.6,6.6-5.2,8.5
		c-2.6,1.9-6.1,2.8-10.6,2.8h-32.5l10.1-43.8h45.7L4479.8,318.2z"/>
	<linearGradient id="SVGID_23_" gradientUnits="userSpaceOnUse" x1="91.1819" y1="3.9367" x2="5266.6274" y2="175.0258">
		<stop  offset="0" style="stop-color:#0034C6"/>
		<stop  offset="0.5" style="stop-color:#008FAD"/>
		<stop  offset="1" style="stop-color:#0028BB"/>
	</linearGradient>
	<path class="st22" d="M4546.2,180.6c5.7-2.7,10.9-6.2,15.5-10.5c4.7-4.3,7.7-9.1,9.1-14.4h-19.7l9.3-40.1h41.4l-7.7,33.4
		c-2.2,9.7-7.5,18.5-15.7,26.3c-8.2,7.9-16.9,13-26,15.3L4546.2,180.6z M4594.8,180.6c5.7-2.7,10.9-6.2,15.5-10.5
		c4.7-4.3,7.7-9.1,9.1-14.4h-19.7l9.3-40.1h41.4l-7.7,33.4c-2.2,9.7-7.5,18.5-15.7,26.3c-8.2,7.9-16.9,13-26,15.3L4594.8,180.6z"/>
</g>
</svg>
