<?xml version="1.0" encoding="utf-8"?>
<!-- Generator: Adobe Illustrator 23.0.1, SVG Export Plug-In . SVG Version: 6.00 Build 0)  -->
<svg version="1.1" id="레이어_1" xmlns="http://www.w3.org/2000/svg" xmlns:xlink="http://www.w3.org/1999/xlink" x="0px"
	 y="0px" viewBox="0 0 204 231" style="enable-background:new 0 0 204 231;" xml:space="preserve">
<style type="text/css">
	.st0{fill:#FF6D71;}
	.st1{fill:#FFFFFF;}
</style>
<path class="st0" d="M195.78,179.82c4.76-2.75,8.66-9.5,8.66-15V66.93c0-5.5-3.9-12.25-8.66-15L111.01,2.99
	c-4.76-2.75-12.56-2.75-17.32,0L8.92,51.93c-4.76,2.75-8.66,9.5-8.66,15v97.88c0,5.5,3.9,12.25,8.66,15l84.77,48.94
	c4.76,2.75,12.56,2.75,17.32,0L195.78,179.82z"/>
<g>
	<path class="st1" d="M140.49,99.88l1.5-1.5V84.29l-1.5-1.5H64.21l-1.5,1.5v14.09l1.5,1.5h36.64v7.23H64.21l-1.5,1.5v14.09l1.5,1.5
		h36.64v7.22H64.21l-1.5,1.5v14.09l1.5,1.5h76.28l1.5-1.5v-14.09l-1.5-1.5h-36.64v-7.22h36.64l1.5-1.5v-14.09l-1.5-1.5h-36.64v-7.23
		H140.49z M138.99,145.52H65.71v-11.09h73.28V145.52z M138.99,121.2H65.71v-11.09h73.28V121.2z M65.71,85.79h73.28v11.09H65.71
		V85.79z"/>
	<rect x="71.87" y="89.84" class="st1" width="11.76" height="3"/>
	<rect x="71.87" y="114.16" class="st1" width="11.76" height="3"/>
	<rect x="71.87" y="138.48" class="st1" width="11.76" height="3"/>
</g>
</svg>
