<?xml version="1.0" encoding="utf-8"?>
<!-- Generator: Adobe Illustrator 23.0.1, SVG Export Plug-In . SVG Version: 6.00 Build 0)  -->
<svg version="1.1" id="레이어_1" xmlns="http://www.w3.org/2000/svg" xmlns:xlink="http://www.w3.org/1999/xlink" x="0px"
	 y="0px" viewBox="0 0 290.61 436.4" style="enable-background:new 0 0 290.61 436.4;" xml:space="preserve">
<style type="text/css">
	.st0{fill:#2160A5;}
	.st1{fill:#7C7C7C;}
	.st2{fill:#757575;}
	.st3{fill:#FFFFFF;}
</style>
<g>
	<path class="st0" d="M196.65,106.12c0.8-0.46,1.45-1.59,1.45-2.51V43.35c0-0.92-0.65-2.05-1.45-2.51l-52.18-30.13
		c-0.8-0.46-2.1-0.46-2.9,0L89.38,40.84c-0.8,0.46-1.45,1.59-1.45,2.51v60.26c0,0.92,0.65,2.05,1.45,2.51l52.18,30.13
		c0.8,0.46,2.1,0.46,2.9,0L196.65,106.12z"/>
</g>
<g>
	<path class="st0" d="M143.01,141.81c-0.61,0-1.22-0.14-1.7-0.41l-56.27-32.49c-0.95-0.55-1.7-1.84-1.7-2.95V40.99
		c0-1.1,0.75-2.39,1.7-2.95l56.27-32.49c0.95-0.55,2.45-0.55,3.4,0l56.27,32.49c0.95,0.55,1.7,1.84,1.7,2.95v64.97
		c0,1.1-0.75,2.39-1.7,2.95l-0.25-0.43l0.25,0.43l-56.27,32.49C144.24,141.67,143.63,141.81,143.01,141.81z M143.01,6.15
		c-0.44,0-0.88,0.09-1.2,0.28L85.55,38.92c-0.64,0.37-1.2,1.34-1.2,2.08v64.97c0,0.74,0.56,1.71,1.2,2.08l56.27,32.49
		c0.64,0.37,1.76,0.37,2.4,0l56.27-32.49c0.64-0.37,1.2-1.34,1.2-2.08V40.99c0-0.74-0.56-1.71-1.2-2.08L144.21,6.43
		C143.89,6.24,143.45,6.15,143.01,6.15z"/>
</g>
<g>
	<path class="st1" d="M130.3,230.25c0.8-0.46,1.45-1.59,1.45-2.51v-60.26c0-0.92-0.65-2.05-1.45-2.51l-52.18-30.13
		c-0.8-0.46-2.1-0.46-2.9,0l-52.18,30.13c-0.8,0.46-1.45,1.59-1.45,2.51v60.26c0,0.92,0.65,2.05,1.45,2.51l52.18,30.13
		c0.8,0.46,2.1,0.46,2.9,0L130.3,230.25z"/>
</g>
<g>
	<path class="st2" d="M76.67,265.94c-0.61,0-1.22-0.14-1.7-0.41L18.7,233.04c-0.95-0.55-1.7-1.84-1.7-2.95v-64.97
		c0-1.1,0.75-2.39,1.7-2.95l56.27-32.49c0.95-0.55,2.45-0.55,3.4,0l56.27,32.49c0.95,0.55,1.7,1.84,1.7,2.95v64.97
		c0,1.1-0.75,2.39-1.7,2.95l-0.25-0.43l0.25,0.43l-56.27,32.49C77.89,265.8,77.28,265.94,76.67,265.94z M76.67,130.29
		c-0.44,0-0.88,0.09-1.2,0.28L19.2,163.05c-0.64,0.37-1.2,1.34-1.2,2.08v64.97c0,0.74,0.56,1.71,1.2,2.08l56.27,32.49
		c0.64,0.37,1.76,0.37,2.4,0l56.27-32.49c0.64-0.37,1.2-1.34,1.2-2.08v-64.97c0-0.74-0.56-1.71-1.2-2.08l-56.27-32.49
		C77.55,130.38,77.11,130.29,76.67,130.29z"/>
</g>
<g>
	<path class="st1" d="M267.36,230.25c0.8-0.46,1.45-1.59,1.45-2.51v-60.26c0-0.92-0.65-2.05-1.45-2.51l-52.18-30.13
		c-0.8-0.46-2.1-0.46-2.9,0l-52.18,30.13c-0.8,0.46-1.45,1.59-1.45,2.51v60.26c0,0.92,0.65,2.05,1.45,2.51l52.18,30.13
		c0.8,0.46,2.1,0.46,2.9,0L267.36,230.25z"/>
</g>
<g>
	<path class="st2" d="M213.73,265.94c-0.61,0-1.22-0.14-1.7-0.41l-56.27-32.49c-0.95-0.55-1.7-1.84-1.7-2.95v-64.97
		c0-1.1,0.75-2.39,1.7-2.95l56.27-32.49c0.95-0.55,2.45-0.55,3.4,0l56.27,32.49c0.95,0.55,1.7,1.84,1.7,2.95v64.97
		c0,1.1-0.75,2.39-1.7,2.95l-56.27,32.49C214.95,265.8,214.34,265.94,213.73,265.94z M213.73,130.29c-0.44,0-0.88,0.09-1.2,0.28
		l-56.27,32.49c-0.64,0.37-1.2,1.34-1.2,2.08v64.97c0,0.74,0.56,1.71,1.2,2.08l56.27,32.49c0.64,0.37,1.76,0.37,2.4,0l56.27-32.49
		c0.64-0.37,1.2-1.34,1.2-2.08v-64.97c0-0.74-0.56-1.71-1.2-2.08l-56.27-32.49C214.61,130.38,214.17,130.29,213.73,130.29z"/>
</g>
<g>
	<path class="st1" d="M130.27,387.25c0.8-0.46,1.45-1.59,1.45-2.51v-60.26c0-0.92-0.65-2.05-1.45-2.51l-52.18-30.13
		c-0.8-0.46-2.1-0.46-2.9,0l-52.18,30.13c-0.8,0.46-1.45,1.59-1.45,2.51v60.26c0,0.92,0.65,2.05,1.45,2.51l52.18,30.13
		c0.8,0.46,2.1,0.46,2.9,0L130.27,387.25z"/>
</g>
<g>
	<path class="st2" d="M76.64,422.94c-0.61,0-1.22-0.14-1.7-0.41l-56.27-32.49c-0.95-0.55-1.7-1.84-1.7-2.95v-64.97
		c0-1.1,0.75-2.39,1.7-2.95l56.27-32.49c0.95-0.55,2.45-0.55,3.4,0l56.27,32.49c0.95,0.55,1.7,1.84,1.7,2.95v64.97
		c0,1.1-0.75,2.39-1.7,2.95l-56.27,32.49C77.87,422.8,77.25,422.94,76.64,422.94z M76.64,287.29c-0.44,0-0.88,0.09-1.2,0.28
		l-56.27,32.49c-0.64,0.37-1.2,1.34-1.2,2.08v64.97c0,0.74,0.56,1.71,1.2,2.08l56.27,32.49c0.64,0.37,1.76,0.37,2.4,0l56.27-32.49
		c0.64-0.37,1.2-1.34,1.2-2.08v-64.97c0-0.74-0.56-1.71-1.2-2.08l-56.27-32.49C77.52,287.38,77.08,287.29,76.64,287.29z"/>
</g>
<g>
	<path class="st1" d="M266.99,387.25c0.8-0.46,1.45-1.59,1.45-2.51v-60.26c0-0.92-0.65-2.05-1.45-2.51l-52.18-30.13
		c-0.8-0.46-2.1-0.46-2.9,0l-52.18,30.13c-0.8,0.46-1.45,1.59-1.45,2.51v60.26c0,0.92,0.65,2.05,1.45,2.51l52.18,30.13
		c0.8,0.46,2.1,0.46,2.9,0L266.99,387.25z"/>
</g>
<g>
	<path class="st2" d="M213.36,422.94c-0.61,0-1.22-0.14-1.7-0.41l-56.27-32.49c-0.95-0.55-1.7-1.84-1.7-2.95v-64.97
		c0-1.1,0.75-2.39,1.7-2.95l56.27-32.49c0.95-0.55,2.45-0.55,3.4,0l56.27,32.49c0.95,0.55,1.7,1.84,1.7,2.95v64.97
		c0,1.1-0.75,2.4-1.7,2.95l-56.27,32.49C214.58,422.8,213.97,422.94,213.36,422.94z M213.36,287.29c-0.44,0-0.88,0.09-1.2,0.28
		l-56.27,32.49c-0.64,0.37-1.2,1.34-1.2,2.08v64.97c0,0.74,0.56,1.71,1.2,2.08l56.27,32.49c0.64,0.37,1.76,0.37,2.4,0l56.27-32.49
		c0.64-0.37,1.2-1.34,1.2-2.08v-64.97c0-0.74-0.56-1.71-1.2-2.08l-56.27-32.49C214.24,287.38,213.8,287.29,213.36,287.29z"/>
</g>
<g>
	<path class="st3" d="M117.11,44.96v2.03h-4.35v7.01h0.54c0.76,0,1.52-0.02,2.29-0.06c0.77-0.04,1.54-0.12,2.32-0.24l0.24,2.01
		c-0.76,0.14-1.56,0.22-2.41,0.26c-0.85,0.04-1.66,0.06-2.44,0.06h-2.86V44.96H117.11z M121.17,49.22h1.52v-5.89h2.25v17.28h-2.25
		v-9.37h-1.52v8.53h-2.25V43.68h2.25V49.22z"/>
	<path class="st3" d="M131.03,56.47v-3.2h-2.64v-1.95h2.23v-4.68h-2.12v-1.95h12.34v1.95h-2.04v4.68h2.19v1.95h-2.64v3.2h4.26v1.97
		h-15.83v-1.97H131.03z M132.95,51.32h3.53v-4.68h-3.53V51.32z M133.34,56.47h2.71v-3.2h-2.71V56.47z"/>
	<path class="st3" d="M149.02,56.54c-0.79,0-1.47-0.12-2.03-0.37c-0.56-0.25-1.03-0.59-1.38-1.04c-0.36-0.45-0.62-0.97-0.79-1.58
		c-0.17-0.61-0.25-1.28-0.25-2.01v-2.06c0-0.72,0.08-1.38,0.25-2c0.17-0.61,0.43-1.14,0.79-1.59c0.36-0.45,0.82-0.79,1.38-1.04
		c0.56-0.25,1.24-0.37,2.03-0.37c0.79,0,1.47,0.12,2.03,0.37c0.56,0.25,1.02,0.59,1.38,1.04c0.36,0.45,0.62,0.98,0.79,1.59
		c0.17,0.61,0.25,1.28,0.25,2v2.06c0,0.73-0.08,1.4-0.25,2.01c-0.17,0.61-0.43,1.13-0.79,1.58c-0.36,0.45-0.82,0.79-1.38,1.04
		C150.49,56.42,149.81,56.54,149.02,56.54z M149.02,46.54c-0.79,0-1.36,0.27-1.7,0.82c-0.34,0.55-0.51,1.34-0.51,2.4v1.51
		c0,1.05,0.17,1.85,0.51,2.4c0.34,0.55,0.91,0.82,1.7,0.82c0.79,0,1.36-0.27,1.7-0.82c0.34-0.55,0.51-1.34,0.51-2.4v-1.51
		c0-1.05-0.17-1.85-0.51-2.4C150.38,46.81,149.81,46.54,149.02,46.54z M158.24,60.61h-2.36V43.33h2.36V60.61z"/>
	<path class="st3" d="M168.26,52.02c0.4,0.43,0.83,0.88,1.3,1.35c0.47,0.46,0.95,0.91,1.43,1.35l-1.51,1.58
		c-0.42-0.4-0.83-0.79-1.23-1.18c-0.4-0.39-0.77-0.76-1.11-1.12c-0.36-0.36-0.66-0.68-0.91-0.98c-0.25-0.29-0.4-0.52-0.46-0.68
		h-0.04c-0.06,0.17-0.23,0.42-0.51,0.75c-0.28,0.33-0.57,0.65-0.88,0.98c-0.35,0.36-0.71,0.73-1.1,1.11
		c-0.38,0.38-0.84,0.81-1.38,1.31l-1.54-1.6c1.05-0.94,1.98-1.85,2.79-2.73c0.27-0.3,0.5-0.58,0.68-0.85
		c0.18-0.27,0.33-0.55,0.44-0.84c0.11-0.28,0.19-0.58,0.24-0.89c0.05-0.31,0.07-0.66,0.07-1.04v-3.98h2.4v3.98
		c0,0.37,0.02,0.71,0.05,1c0.03,0.3,0.1,0.58,0.2,0.85c0.1,0.27,0.23,0.53,0.4,0.8C167.74,51.45,167.97,51.73,168.26,52.02z
		 M174.31,49.42h2.38v2.04h-2.38v9.14h-2.36V43.33h2.36V49.42z"/>
</g>
<g>
	<path class="st3" d="M102.94,74.82c0.52-0.22,0.97-0.41,1.34-0.59c0.37-0.17,0.69-0.34,0.94-0.49s0.46-0.3,0.6-0.44
		c0.15-0.14,0.26-0.29,0.34-0.44s0.13-0.31,0.15-0.49c0.02-0.17,0.03-0.37,0.03-0.6v-0.5h-3.11v-0.61h3.79v1.18
		c0,0.42-0.04,0.77-0.13,1.06c-0.09,0.29-0.26,0.56-0.53,0.81c-0.27,0.25-0.66,0.5-1.16,0.76c-0.5,0.26-1.16,0.56-1.99,0.92
		L102.94,74.82z M107.38,75.6c0.37,0,0.72,0.04,1.05,0.12c0.33,0.08,0.62,0.19,0.88,0.34c0.25,0.14,0.45,0.32,0.59,0.53
		c0.14,0.21,0.22,0.44,0.22,0.7v0.39c0,0.26-0.07,0.49-0.22,0.7c-0.15,0.21-0.34,0.39-0.59,0.53c-0.25,0.14-0.54,0.26-0.88,0.34
		c-0.33,0.08-0.68,0.12-1.05,0.12c-0.37,0-0.72-0.04-1.05-0.12c-0.33-0.08-0.62-0.19-0.88-0.34c-0.25-0.15-0.45-0.32-0.59-0.53
		c-0.15-0.21-0.22-0.45-0.22-0.7v-0.39c0-0.26,0.07-0.5,0.22-0.71c0.14-0.21,0.34-0.39,0.59-0.53c0.25-0.14,0.54-0.25,0.88-0.33
		C106.66,75.64,107.01,75.6,107.38,75.6z M107.38,78.76c0.26,0,0.52-0.02,0.77-0.07c0.25-0.05,0.47-0.12,0.66-0.22
		c0.19-0.1,0.35-0.21,0.46-0.35c0.12-0.14,0.17-0.3,0.17-0.47v-0.34c0-0.18-0.06-0.34-0.17-0.47c-0.12-0.14-0.27-0.26-0.46-0.35
		c-0.19-0.1-0.42-0.17-0.66-0.22c-0.25-0.05-0.5-0.07-0.77-0.07c-0.26,0-0.52,0.02-0.77,0.07c-0.25,0.05-0.47,0.12-0.66,0.22
		c-0.19,0.1-0.35,0.21-0.46,0.35c-0.12,0.14-0.17,0.3-0.17,0.47v0.34c0,0.18,0.06,0.34,0.17,0.47c0.12,0.14,0.27,0.26,0.46,0.35
		c0.19,0.1,0.42,0.17,0.66,0.22C106.86,78.74,107.11,78.76,107.38,78.76z M109.38,71.48v-1.39h0.68v5.32h-0.68v-1.42h-1.95v-0.6
		h1.95v-1.3h-1.8v-0.6H109.38z"/>
	<path class="st3" d="M114.1,74.84c-0.35,0-0.66-0.06-0.93-0.17c-0.27-0.12-0.5-0.26-0.69-0.44c-0.19-0.18-0.33-0.39-0.43-0.61
		c-0.1-0.23-0.15-0.45-0.15-0.68v-0.57c0-0.22,0.05-0.45,0.15-0.68c0.1-0.23,0.24-0.43,0.43-0.61c0.19-0.18,0.42-0.33,0.69-0.45
		c0.27-0.12,0.59-0.17,0.93-0.17c0.35,0,0.66,0.06,0.93,0.17c0.27,0.12,0.5,0.26,0.69,0.45c0.19,0.18,0.33,0.39,0.43,0.61
		c0.1,0.23,0.15,0.45,0.15,0.68v0.57c0,0.22-0.05,0.45-0.15,0.68c-0.1,0.23-0.24,0.43-0.43,0.61c-0.19,0.18-0.42,0.33-0.69,0.44
		C114.76,74.78,114.45,74.84,114.1,74.84z M114.1,71.07c-0.22,0-0.43,0.03-0.62,0.1c-0.19,0.07-0.35,0.16-0.48,0.28
		c-0.14,0.12-0.24,0.26-0.32,0.43c-0.08,0.16-0.11,0.34-0.11,0.53v0.45c0,0.19,0.04,0.37,0.11,0.53c0.08,0.16,0.18,0.31,0.32,0.43
		c0.14,0.12,0.3,0.21,0.48,0.28c0.19,0.07,0.39,0.1,0.62,0.1c0.22,0,0.43-0.03,0.62-0.1c0.19-0.07,0.35-0.16,0.48-0.28
		c0.14-0.12,0.24-0.26,0.32-0.43c0.08-0.16,0.11-0.34,0.11-0.53v-0.45c0-0.19-0.04-0.37-0.11-0.53c-0.08-0.16-0.18-0.31-0.32-0.43
		c-0.14-0.12-0.3-0.21-0.48-0.28C114.53,71.1,114.33,71.07,114.1,71.07z M116.4,75.6c0.37,0,0.72,0.04,1.05,0.12
		c0.33,0.08,0.62,0.19,0.88,0.34c0.25,0.14,0.45,0.32,0.59,0.53c0.14,0.21,0.22,0.44,0.22,0.7v0.39c0,0.26-0.07,0.49-0.22,0.7
		c-0.15,0.21-0.34,0.39-0.59,0.53c-0.25,0.14-0.54,0.26-0.88,0.34c-0.33,0.08-0.68,0.12-1.05,0.12c-0.37,0-0.72-0.04-1.05-0.12
		c-0.33-0.08-0.62-0.19-0.88-0.34c-0.25-0.15-0.45-0.32-0.59-0.53c-0.15-0.21-0.22-0.45-0.22-0.7v-0.39c0-0.26,0.07-0.5,0.22-0.71
		c0.14-0.21,0.34-0.39,0.59-0.53c0.25-0.14,0.54-0.25,0.88-0.33C115.68,75.64,116.03,75.6,116.4,75.6z M116.4,78.76
		c0.26,0,0.52-0.02,0.77-0.07c0.25-0.05,0.47-0.12,0.66-0.22c0.19-0.1,0.35-0.21,0.46-0.35c0.12-0.14,0.17-0.3,0.17-0.47v-0.34
		c0-0.18-0.06-0.34-0.17-0.47c-0.12-0.14-0.27-0.26-0.46-0.35c-0.19-0.1-0.42-0.17-0.66-0.22c-0.25-0.05-0.5-0.07-0.77-0.07
		c-0.26,0-0.52,0.02-0.77,0.07c-0.25,0.05-0.47,0.12-0.66,0.22c-0.19,0.1-0.35,0.21-0.46,0.35c-0.12,0.14-0.17,0.3-0.17,0.47v0.34
		c0,0.18,0.06,0.34,0.17,0.47c0.12,0.14,0.27,0.26,0.46,0.35c0.19,0.1,0.42,0.17,0.66,0.22C115.88,78.74,116.13,78.76,116.4,78.76z
		 M118.4,71.32v-1.24h0.68v5.32h-0.68v-1.42h-1.62v-0.6h1.62v-1.45h-1.62v-0.6H118.4z"/>
	<path class="st3" d="M125.97,71.52h-2.05v1.44c0,0.19,0.01,0.36,0.02,0.49c0.01,0.14,0.04,0.27,0.08,0.4
		c0.04,0.13,0.1,0.25,0.17,0.37c0.08,0.12,0.18,0.26,0.31,0.41c0.19,0.22,0.43,0.48,0.72,0.76c0.29,0.28,0.61,0.59,0.98,0.92
		l-0.45,0.46c-0.34-0.32-0.64-0.6-0.89-0.85c-0.25-0.25-0.47-0.48-0.67-0.69c-0.15-0.15-0.28-0.3-0.4-0.44
		c-0.12-0.14-0.19-0.24-0.22-0.31h-0.01c-0.01,0.05-0.04,0.11-0.09,0.18c-0.05,0.07-0.11,0.15-0.18,0.24
		c-0.07,0.09-0.14,0.17-0.22,0.26c-0.08,0.09-0.16,0.17-0.23,0.25c-0.07,0.07-0.15,0.17-0.27,0.28c-0.11,0.12-0.24,0.24-0.37,0.38
		c-0.14,0.14-0.28,0.28-0.44,0.43c-0.15,0.15-0.3,0.29-0.45,0.41l-0.46-0.46c0.32-0.28,0.61-0.55,0.89-0.82
		c0.27-0.27,0.53-0.53,0.76-0.79c0.16-0.18,0.28-0.34,0.38-0.48c0.09-0.14,0.16-0.28,0.21-0.42c0.05-0.14,0.08-0.28,0.1-0.43
		c0.02-0.14,0.02-0.31,0.02-0.5v-1.49h-2.08v-0.61h4.83V71.52z M128.14,79.12h-0.7v-9.04h0.7V79.12z"/>
	<path class="st3" d="M135.67,74.61c-0.22,0.02-0.45,0.04-0.67,0.06c-0.22,0.02-0.45,0.04-0.68,0.05c-0.23,0.02-0.47,0.03-0.73,0.04
		c-0.26,0.01-0.53,0.02-0.82,0.03v1.43h-0.7v-1.42c-0.34,0.01-0.7,0.02-1.08,0.02c-0.38,0-0.8,0-1.26,0v-0.6
		c0.71,0,1.34,0,1.88-0.01c0.54-0.01,1.04-0.02,1.49-0.03c0.45-0.02,0.88-0.04,1.27-0.06c0.4-0.03,0.81-0.06,1.24-0.11L135.67,74.61
		z M132.55,73.58c-0.3,0-0.59-0.04-0.85-0.11c-0.26-0.08-0.49-0.18-0.69-0.31c-0.2-0.13-0.35-0.29-0.46-0.46
		c-0.11-0.18-0.17-0.37-0.17-0.58v-0.38c0-0.21,0.06-0.41,0.17-0.58c0.11-0.18,0.27-0.33,0.46-0.46c0.2-0.13,0.43-0.24,0.69-0.31
		c0.26-0.08,0.55-0.11,0.85-0.11c0.3,0,0.59,0.04,0.85,0.11c0.26,0.08,0.49,0.18,0.69,0.31c0.2,0.13,0.35,0.29,0.46,0.46
		s0.17,0.37,0.17,0.58v0.38c0,0.21-0.06,0.41-0.17,0.58s-0.27,0.33-0.46,0.46c-0.2,0.13-0.43,0.24-0.69,0.31
		C133.13,73.54,132.85,73.58,132.55,73.58z M132.55,70.85c-0.21,0-0.41,0.02-0.59,0.07c-0.18,0.05-0.34,0.12-0.48,0.2
		c-0.14,0.09-0.25,0.19-0.33,0.3c-0.08,0.12-0.12,0.24-0.12,0.36v0.26c0,0.13,0.04,0.25,0.12,0.37c0.08,0.11,0.19,0.21,0.33,0.3
		c0.14,0.09,0.3,0.15,0.48,0.2c0.18,0.05,0.38,0.07,0.59,0.07c0.2,0,0.4-0.02,0.58-0.07c0.18-0.05,0.35-0.12,0.48-0.2
		c0.14-0.09,0.25-0.18,0.33-0.3c0.08-0.11,0.12-0.23,0.12-0.37v-0.26c0-0.13-0.04-0.25-0.12-0.36c-0.08-0.12-0.19-0.22-0.33-0.3
		c-0.14-0.09-0.3-0.15-0.48-0.2C132.95,70.88,132.75,70.85,132.55,70.85z M131.98,78.4h5.28v0.61h-5.98v-2.39h0.7V78.4z
		 M136.36,75.53v-5.45h0.69v7.02h-0.69v-0.96h-2.04v-0.61H136.36z"/>
	<path class="st3" d="M139.21,70.52h4.23v0.61h-3.55v1.21h3.37v0.6h-3.37v1.21c0.54,0,1.02,0,1.43-0.01c0.41,0,0.79-0.01,1.13-0.02
		c0.34-0.01,0.67-0.03,0.97-0.05c0.3-0.02,0.62-0.05,0.94-0.09l0.07,0.6c-0.31,0.04-0.62,0.07-0.94,0.09
		c-0.32,0.02-0.68,0.04-1.08,0.05c-0.4,0.01-0.86,0.02-1.37,0.02c-0.51,0-1.12,0-1.82,0V70.52z M140.52,75.77h5.53v3.34h-5.53V75.77
		z M141.19,78.49h4.18v-2.1h-4.18V78.49z M146.05,75.23h-0.69v-5.15h0.69V75.23z"/>
	<path class="st3" d="M155.88,74.13v0.59h-8.31v-0.59H155.88z M154.64,75.51v2.11h-5.14v0.96h5.41v0.58h-6.09v-2.12h5.14v-0.95
		h-5.19v-0.58H154.64z M154.55,71.96c0,0.23-0.07,0.44-0.22,0.62c-0.15,0.18-0.34,0.34-0.6,0.47c-0.25,0.13-0.55,0.23-0.9,0.3
		c-0.35,0.07-0.72,0.1-1.11,0.1c-0.4,0-0.77-0.03-1.11-0.1c-0.35-0.07-0.65-0.17-0.9-0.3c-0.25-0.13-0.45-0.29-0.6-0.47
		c-0.15-0.18-0.22-0.39-0.22-0.62v-0.3c0-0.24,0.07-0.45,0.22-0.63c0.14-0.18,0.34-0.34,0.6-0.47c0.25-0.13,0.55-0.23,0.9-0.29
		c0.35-0.07,0.72-0.1,1.11-0.1c0.4,0,0.77,0.03,1.11,0.1c0.35,0.07,0.65,0.17,0.9,0.3c0.25,0.13,0.45,0.29,0.6,0.47
		c0.14,0.18,0.22,0.39,0.22,0.62V71.96z M149.58,71.93c0,0.13,0.06,0.26,0.17,0.37c0.11,0.12,0.27,0.22,0.46,0.3
		c0.19,0.09,0.42,0.15,0.68,0.2c0.26,0.05,0.54,0.07,0.84,0.07c0.3,0,0.58-0.02,0.84-0.07c0.26-0.05,0.49-0.11,0.68-0.2
		c0.19-0.09,0.35-0.19,0.46-0.3c0.11-0.12,0.17-0.24,0.17-0.37v-0.24c0-0.13-0.06-0.26-0.17-0.37c-0.11-0.12-0.27-0.21-0.46-0.3
		c-0.19-0.08-0.42-0.15-0.68-0.2c-0.26-0.05-0.54-0.07-0.84-0.07c-0.3,0-0.58,0.02-0.84,0.07c-0.26,0.05-0.49,0.12-0.68,0.2
		c-0.19,0.08-0.35,0.18-0.46,0.3c-0.11,0.12-0.17,0.24-0.17,0.37V71.93z"/>
	<path class="st3" d="M164.82,74.07c-0.42,0.04-0.85,0.07-1.3,0.09c-0.45,0.02-0.91,0.04-1.38,0.05c-0.47,0.01-0.94,0.02-1.42,0.02
		c-0.48,0-0.95,0-1.42,0v-0.59h0.96v-2.57h-0.9v-0.59h5v0.59h-0.97v2.51c0.23-0.01,0.46-0.03,0.68-0.04
		c0.22-0.01,0.45-0.03,0.68-0.06L164.82,74.07z M160.93,73.64c0.62,0,1.22-0.01,1.79-0.03v-2.54h-1.79V73.64z M166.51,75.1v2.31
		h-4.85v1.14h5.08v0.59h-5.77v-2.31h4.85v-1.13h-4.9v-0.6H166.51z M166.51,74.57h-0.69v-4.49h0.69V74.57z"/>
	<path class="st3" d="M176.35,75.36v0.6h-3.81v3.15h-0.7v-3.15h-3.8v-0.6H176.35z M175.23,74.02h-5.98v-3.39h5.88v0.6h-5.18v2.19
		h5.28V74.02z"/>
	<path class="st3" d="M184.09,70.79v2.68h-5.14v1.46h5.35v0.6h-2.76v1.7h3.81v0.6h-8.31v-0.6h3.81v-1.7h-2.58v-2.66h5.14V71.4h-5.17
		v-0.6H184.09z"/>
	<path class="st3" d="M107.32,89.01c0.52-0.22,0.97-0.41,1.34-0.59c0.37-0.17,0.68-0.34,0.93-0.48c0.25-0.15,0.45-0.29,0.6-0.44
		c0.15-0.14,0.27-0.29,0.35-0.44c0.08-0.15,0.13-0.32,0.15-0.49c0.02-0.17,0.03-0.37,0.03-0.6v-0.5h-3.11v-0.61h3.79v1.18
		c0,0.28-0.02,0.53-0.05,0.75c-0.04,0.22-0.1,0.42-0.2,0.61c-0.1,0.18-0.24,0.36-0.42,0.52c-0.18,0.16-0.41,0.33-0.69,0.5
		c-0.28,0.17-0.63,0.35-1.03,0.54c-0.41,0.19-0.88,0.4-1.43,0.64L107.32,89.01z M108.48,90.08h5.67v3.33h-0.69V90.7h-4.97V90.08z
		 M114.15,86.52h1.38v0.61h-1.38v2.41h-0.69v-5.24h0.69V86.52z"/>
	<path class="st3" d="M124.38,89.74v0.6h-3.8v3.01h-0.7v-3.01h-3.81v-0.6H124.38z M123.15,84.65v3.88h-5.85v-3.88h0.68v1.35h4.49
		v-1.35H123.15z M122.47,87.95v-1.34h-4.49v1.34H122.47z"/>
	<path class="st3" d="M126.7,88.98c0.16-0.18,0.28-0.34,0.38-0.48c0.09-0.14,0.16-0.29,0.22-0.43c0.05-0.14,0.09-0.29,0.1-0.44
		c0.02-0.15,0.02-0.33,0.02-0.52v-2.13h0.72v2.08c0,0.19,0.01,0.36,0.02,0.5c0.01,0.14,0.04,0.28,0.08,0.41
		c0.04,0.13,0.1,0.26,0.18,0.38c0.08,0.13,0.18,0.26,0.32,0.42c0.2,0.23,0.44,0.49,0.73,0.78c0.29,0.29,0.62,0.6,0.99,0.94
		L130,90.94c-0.32-0.3-0.61-0.58-0.88-0.85c-0.27-0.27-0.5-0.51-0.7-0.72c-0.15-0.16-0.29-0.31-0.41-0.45
		c-0.12-0.14-0.2-0.25-0.22-0.32h-0.01c-0.01,0.03-0.03,0.08-0.08,0.15c-0.05,0.07-0.1,0.15-0.17,0.23
		c-0.07,0.09-0.14,0.18-0.22,0.27c-0.08,0.1-0.15,0.18-0.23,0.26c-0.09,0.09-0.19,0.2-0.31,0.33c-0.12,0.13-0.25,0.26-0.39,0.4
		c-0.14,0.14-0.28,0.28-0.44,0.43c-0.15,0.15-0.3,0.28-0.44,0.41l-0.46-0.48c0.33-0.29,0.63-0.57,0.9-0.83
		C126.22,89.5,126.47,89.24,126.7,88.98z M132.56,93.35h-0.69v-5.54h-2.15v-0.63h2.15v-2.87h0.69V93.35z"/>
	<path class="st3" d="M142.38,88.24v0.59h-8.31v-0.59H142.38z M141.14,89.72v2.12h-5.15v0.97h5.42v0.58h-6.1v-2.13h5.15V90.3h-5.2
		v-0.58H141.14z M141.09,85.19h-5.08v1.59h5.13v0.59h-5.82v-2.78h5.77V85.19z"/>
	<path class="st3" d="M148.54,85.32h2.32v0.6h-5.24v-0.6h2.23v-1.14h0.69V85.32z M148.2,89.45c-0.35,0-0.65-0.04-0.91-0.12
		c-0.26-0.08-0.47-0.19-0.64-0.32c-0.17-0.13-0.3-0.28-0.38-0.45c-0.08-0.17-0.12-0.34-0.12-0.51v-0.3c0-0.17,0.04-0.34,0.12-0.51
		c0.08-0.17,0.21-0.32,0.38-0.45c0.17-0.13,0.39-0.24,0.64-0.32c0.26-0.08,0.56-0.12,0.91-0.12c0.35,0,0.65,0.04,0.91,0.12
		c0.26,0.08,0.47,0.19,0.64,0.32c0.17,0.13,0.3,0.28,0.38,0.45c0.08,0.17,0.12,0.34,0.12,0.51v0.3c0,0.17-0.04,0.34-0.12,0.51
		c-0.08,0.17-0.21,0.32-0.38,0.45c-0.17,0.13-0.39,0.24-0.64,0.32C148.85,89.41,148.55,89.45,148.2,89.45z M148.2,86.93
		c-0.24,0-0.44,0.03-0.62,0.08c-0.17,0.05-0.32,0.12-0.43,0.2c-0.11,0.08-0.2,0.17-0.25,0.28c-0.06,0.1-0.08,0.2-0.08,0.3v0.22
		c0,0.1,0.03,0.2,0.08,0.3c0.06,0.1,0.14,0.19,0.25,0.28c0.11,0.08,0.26,0.15,0.43,0.2c0.17,0.05,0.38,0.08,0.62,0.08
		c0.24,0,0.44-0.03,0.62-0.08c0.17-0.05,0.32-0.12,0.43-0.2c0.11-0.08,0.2-0.17,0.25-0.28c0.06-0.1,0.08-0.2,0.08-0.3v-0.22
		c0-0.1-0.03-0.2-0.08-0.3c-0.06-0.1-0.14-0.19-0.25-0.28c-0.11-0.08-0.26-0.15-0.43-0.2C148.65,86.95,148.44,86.93,148.2,86.93z
		 M153.05,89.89v3.45h-5.52v-3.45h0.68v1.07h4.15v-1.07H153.05z M152.37,92.72v-1.15h-4.15v1.15H152.37z M152.37,86.49v-2.19h0.68
		v5.05h-0.68v-0.69h-1.53v-0.6h1.53V87.1h-1.53v-0.6H152.37z"/>
	<path class="st3" d="M154.86,86.44c0-0.22,0.05-0.45,0.16-0.66c0.11-0.22,0.26-0.41,0.45-0.58c0.19-0.17,0.43-0.3,0.7-0.41
		c0.27-0.1,0.57-0.15,0.9-0.15c0.32,0,0.61,0.05,0.88,0.14c0.27,0.1,0.5,0.22,0.69,0.39c0.19,0.16,0.34,0.35,0.45,0.55
		c0.11,0.21,0.17,0.42,0.19,0.64h2.06v-2.06h0.69v4.62h-0.69v-1.95h-2.06c-0.01,0.22-0.07,0.44-0.18,0.65
		c-0.11,0.21-0.26,0.39-0.46,0.55c-0.19,0.16-0.42,0.29-0.69,0.39c-0.26,0.1-0.56,0.15-0.88,0.15c-0.33,0-0.63-0.05-0.9-0.15
		c-0.27-0.1-0.5-0.24-0.7-0.41c-0.19-0.17-0.34-0.36-0.45-0.57c-0.11-0.21-0.16-0.44-0.16-0.67V86.44z M158.6,86.51
		c0-0.16-0.04-0.32-0.11-0.47c-0.08-0.15-0.18-0.28-0.32-0.4c-0.14-0.12-0.3-0.21-0.49-0.28c-0.19-0.07-0.39-0.1-0.61-0.1
		c-0.22,0-0.42,0.03-0.61,0.1c-0.19,0.07-0.35,0.16-0.49,0.28c-0.14,0.12-0.25,0.25-0.32,0.4c-0.08,0.15-0.11,0.31-0.11,0.47v0.34
		c0,0.16,0.04,0.32,0.11,0.47c0.08,0.15,0.18,0.28,0.32,0.4c0.14,0.12,0.3,0.21,0.49,0.28c0.19,0.07,0.39,0.1,0.61,0.1
		c0.22,0,0.42-0.03,0.61-0.1c0.19-0.07,0.35-0.16,0.49-0.28c0.14-0.12,0.25-0.25,0.32-0.4c0.08-0.15,0.11-0.31,0.11-0.47V86.51z
		 M162.02,89.46v3.88h-5.52v-3.88h0.68v1.25h4.15v-1.25H162.02z M161.34,92.71v-1.39h-4.15v1.39H161.34z"/>
	<path class="st3" d="M168.31,88.49c0,0.83-0.2,1.48-0.59,1.93c-0.39,0.46-0.94,0.69-1.64,0.69c-0.7,0-1.24-0.23-1.64-0.69
		c-0.39-0.46-0.59-1.1-0.59-1.93v-0.93c0-0.82,0.2-1.47,0.59-1.92c0.39-0.46,0.94-0.69,1.64-0.69c0.7,0,1.24,0.23,1.64,0.69
		c0.39,0.46,0.59,1.1,0.59,1.93V88.49z M167.63,87.69c0-0.38-0.04-0.7-0.11-0.96c-0.07-0.26-0.18-0.48-0.31-0.65
		c-0.14-0.17-0.3-0.29-0.49-0.37c-0.19-0.08-0.4-0.11-0.63-0.11c-0.23,0-0.44,0.04-0.63,0.11c-0.19,0.08-0.35,0.2-0.49,0.37
		c-0.14,0.17-0.24,0.38-0.31,0.65c-0.07,0.26-0.11,0.58-0.11,0.96v0.68c0,0.38,0.04,0.7,0.11,0.96c0.07,0.27,0.18,0.48,0.31,0.65
		c0.14,0.17,0.3,0.29,0.49,0.37c0.19,0.08,0.4,0.11,0.63,0.11c0.23,0,0.44-0.04,0.63-0.11c0.19-0.08,0.35-0.2,0.49-0.37
		c0.14-0.17,0.24-0.39,0.31-0.65s0.11-0.59,0.11-0.96V87.69z M170.56,87.7h1.5v0.62h-1.5v5.02h-0.7v-9.04h0.7V87.7z"/>
	<path class="st3" d="M173.64,90.38h0.69c0.21,0,0.42,0,0.62-0.01c0.2,0,0.41-0.01,0.61-0.02c0.21-0.01,0.42-0.03,0.64-0.05
		c0.22-0.02,0.46-0.05,0.71-0.09l0.08,0.61c-0.51,0.08-1,0.13-1.46,0.15c-0.46,0.02-0.9,0.03-1.34,0.03h-1.24v-3.33h2.61V85.7h-2.61
		v-0.6h3.29v3.17h-2.61V90.38z M178.32,87.66h1.27v-3.35h0.69v9.04h-0.69v-5.06h-1.27v4.62h-0.69V84.5h0.69V87.66z"/>
	<path class="st3" d="M128.9,103.14v-1.03h0.69v1.03h3.81v0.59h-8.31v-0.59H128.9z M129.24,101.02c-0.11,0.2-0.47,0.43-1.1,0.68
		c-0.28,0.11-0.6,0.23-0.96,0.36c-0.36,0.13-0.74,0.25-1.12,0.37l-0.28-0.55c0.45-0.14,0.85-0.27,1.19-0.39
		c0.35-0.12,0.64-0.23,0.9-0.33c0.2-0.08,0.37-0.16,0.5-0.24c0.13-0.08,0.24-0.16,0.31-0.25c0.08-0.09,0.13-0.18,0.16-0.29
		c0.03-0.1,0.04-0.22,0.04-0.34v-0.1h-2.74v-0.59h2.74v-0.94h0.7v0.94h2.75v0.59h-2.75v0.1c0,0.13,0.01,0.24,0.04,0.34
		c0.03,0.1,0.08,0.2,0.16,0.29c0.08,0.09,0.18,0.17,0.31,0.25c0.13,0.08,0.29,0.16,0.5,0.24c0.25,0.1,0.55,0.21,0.91,0.33
		c0.36,0.12,0.75,0.24,1.18,0.38l-0.26,0.55c-0.42-0.13-0.79-0.25-1.12-0.37c-0.33-0.11-0.65-0.23-0.97-0.36
		C129.73,101.44,129.37,101.22,129.24,101.02L129.24,101.02z M129.25,104.42c0.37,0,0.72,0.03,1.06,0.1
		c0.34,0.07,0.64,0.16,0.9,0.29c0.26,0.13,0.46,0.29,0.62,0.48c0.15,0.19,0.23,0.42,0.23,0.67v0.32c0,0.26-0.08,0.48-0.23,0.67
		c-0.16,0.19-0.36,0.35-0.62,0.48c-0.26,0.13-0.56,0.23-0.9,0.29c-0.34,0.07-0.69,0.1-1.06,0.1c-0.37,0-0.72-0.03-1.06-0.1
		c-0.34-0.07-0.64-0.16-0.9-0.29c-0.26-0.13-0.46-0.29-0.62-0.48c-0.16-0.19-0.23-0.42-0.23-0.67v-0.32c0-0.26,0.08-0.48,0.23-0.68
		c0.15-0.19,0.36-0.36,0.62-0.48c0.26-0.13,0.56-0.22,0.9-0.29C128.52,104.45,128.88,104.42,129.25,104.42z M129.25,107.23
		c0.26,0,0.52-0.02,0.78-0.06c0.26-0.04,0.49-0.11,0.69-0.19c0.2-0.08,0.36-0.19,0.48-0.31c0.12-0.13,0.18-0.27,0.18-0.43V106
		c0-0.16-0.06-0.3-0.18-0.42c-0.12-0.12-0.28-0.23-0.48-0.31c-0.2-0.09-0.43-0.15-0.69-0.19c-0.26-0.04-0.52-0.06-0.78-0.06
		c-0.27,0-0.53,0.02-0.79,0.06c-0.25,0.04-0.48,0.11-0.68,0.19c-0.2,0.09-0.36,0.19-0.48,0.31c-0.12,0.12-0.18,0.26-0.18,0.42v0.24
		c0,0.16,0.06,0.3,0.18,0.43c0.12,0.13,0.28,0.23,0.48,0.31c0.2,0.08,0.43,0.14,0.68,0.19
		C128.72,107.21,128.98,107.23,129.25,107.23z"/>
	<path class="st3" d="M139.94,102.76c-0.3,0.04-0.64,0.07-1,0.1c-0.36,0.03-0.78,0.05-1.24,0.07c-0.46,0.02-0.99,0.03-1.58,0.04
		c-0.59,0.01-1.26,0.01-2.01,0.01v-0.6c0.38,0,0.72,0,1.04,0c0.32,0,0.62,0,0.91-0.01v-1.73h0.69v1.72
		c0.35-0.01,0.67-0.01,0.96-0.02c0.29-0.01,0.56-0.02,0.81-0.04c0.25-0.02,0.48-0.03,0.7-0.05c0.22-0.02,0.44-0.04,0.65-0.06
		L139.94,102.76z M139.11,98.86v0.93c0,0.38-0.02,0.74-0.05,1.08c-0.04,0.34-0.08,0.61-0.13,0.83l-0.69-0.09
		c0.06-0.29,0.11-0.57,0.14-0.85c0.03-0.28,0.05-0.57,0.05-0.89v-0.41h-3.7v-0.6H139.11z M141.26,103.85v2.17h-5.02v1.01h5.29v0.58
		h-5.97v-2.17h5.02v-1.01h-5.07v-0.58H141.26z M141.26,100.54h1.35v0.61h-1.35v2.17h-0.69v-4.79h0.69V100.54z"/>
	<path class="st3" d="M143.63,105.73h0.87l-0.71,2.23h-0.57L143.63,105.73z"/>
	<path class="st3" d="M153.39,99.98h-2.05v1.44c0,0.19,0.01,0.36,0.02,0.49c0.01,0.14,0.04,0.27,0.08,0.4
		c0.04,0.13,0.1,0.25,0.17,0.37c0.08,0.12,0.18,0.26,0.31,0.41c0.19,0.22,0.43,0.48,0.72,0.76c0.29,0.28,0.61,0.59,0.98,0.92
		l-0.45,0.46c-0.34-0.32-0.64-0.6-0.89-0.85c-0.25-0.25-0.47-0.48-0.67-0.69c-0.15-0.15-0.28-0.3-0.4-0.44
		c-0.12-0.14-0.19-0.24-0.22-0.31H151c-0.01,0.05-0.04,0.11-0.09,0.18c-0.05,0.07-0.11,0.15-0.18,0.24
		c-0.07,0.09-0.14,0.17-0.22,0.26c-0.08,0.09-0.16,0.17-0.23,0.25c-0.07,0.07-0.16,0.17-0.27,0.28c-0.11,0.12-0.24,0.24-0.37,0.38
		c-0.14,0.14-0.28,0.28-0.44,0.43c-0.16,0.15-0.31,0.29-0.45,0.41l-0.46-0.46c0.32-0.28,0.61-0.55,0.89-0.82
		c0.27-0.27,0.53-0.53,0.76-0.79c0.16-0.18,0.28-0.34,0.38-0.48c0.09-0.14,0.16-0.28,0.21-0.42c0.05-0.14,0.08-0.28,0.1-0.43
		c0.02-0.14,0.02-0.31,0.02-0.5v-1.49h-2.08v-0.61h4.83V99.98z M155.55,107.57h-0.7v-9.04h0.7V107.57z"/>
	<path class="st3" d="M163.24,104.35c-0.44,0.05-0.88,0.08-1.32,0.11c-0.45,0.03-0.95,0.05-1.52,0.07v2.75h-0.71v-2.73
		c-0.36,0.01-0.74,0.01-1.15,0.01c-0.41,0-0.87,0-1.36,0v-0.61c0.71,0,1.36-0.01,1.95-0.01c0.59-0.01,1.13-0.02,1.62-0.04
		c0.49-0.02,0.94-0.04,1.34-0.06c0.4-0.03,0.76-0.06,1.09-0.1L163.24,104.35z M160.44,99.31h2.22v0.61h-5.21v-0.61h2.3V98.4h0.69
		V99.31z M160.09,103.35c-0.31,0-0.6-0.03-0.86-0.1c-0.26-0.07-0.49-0.16-0.68-0.27c-0.19-0.12-0.34-0.26-0.44-0.42
		c-0.11-0.16-0.16-0.35-0.16-0.54v-0.32c0-0.2,0.05-0.39,0.16-0.55c0.11-0.16,0.25-0.3,0.44-0.42c0.19-0.12,0.42-0.2,0.68-0.27
		c0.26-0.06,0.55-0.09,0.86-0.09c0.31,0,0.6,0.03,0.86,0.09c0.26,0.06,0.49,0.15,0.68,0.27c0.19,0.12,0.34,0.26,0.44,0.43
		c0.11,0.16,0.16,0.35,0.16,0.54v0.32c0,0.2-0.05,0.38-0.16,0.54c-0.11,0.16-0.25,0.3-0.44,0.42c-0.19,0.12-0.42,0.21-0.68,0.27
		C160.69,103.32,160.4,103.35,160.09,103.35z M160.09,100.96c-0.22,0-0.43,0.02-0.61,0.06c-0.18,0.04-0.34,0.1-0.47,0.17
		c-0.13,0.07-0.23,0.15-0.31,0.25c-0.07,0.1-0.11,0.2-0.11,0.31v0.22c0,0.11,0.04,0.22,0.11,0.31c0.07,0.1,0.17,0.18,0.31,0.25
		c0.13,0.07,0.29,0.13,0.47,0.17c0.18,0.04,0.38,0.06,0.61,0.06c0.22,0,0.43-0.02,0.61-0.06c0.18-0.04,0.34-0.1,0.47-0.17
		c0.13-0.07,0.23-0.16,0.31-0.25c0.07-0.1,0.11-0.2,0.11-0.31v-0.22c0-0.11-0.04-0.21-0.11-0.31c-0.07-0.1-0.17-0.18-0.31-0.25
		c-0.13-0.07-0.29-0.13-0.47-0.17C160.52,100.98,160.32,100.96,160.09,100.96z M164.56,107.57h-0.7v-9.04h0.7V107.57z"/>
</g>
<g>
	<path class="st3" d="M63.77,163.79c0,0.6-0.05,1.13-0.16,1.58c-0.1,0.45-0.31,0.89-0.61,1.31c-0.3,0.42-0.73,0.86-1.29,1.32
		c-0.55,0.46-1.28,0.99-2.19,1.62l-0.97-1.3c0.79-0.52,1.41-0.97,1.88-1.35c0.47-0.37,0.83-0.73,1.07-1.08
		c0.24-0.34,0.4-0.7,0.48-1.07c0.08-0.37,0.12-0.81,0.12-1.31v-1.16H58.9v-1.48h4.87V163.79z M66.71,163.96h1.2v-4.29h1.62v12.59
		h-1.62v-6.82h-1.2v6.21h-1.62v-11.72h1.62V163.96z"/>
	<path class="st3" d="M77.36,165.62H71.4v-5.59h1.67v1.56h2.63v-1.56h1.67V165.62z M80.89,166.57v3.53h-6.21v0.92h6.59v1.35h-8.24
		v-3.56h6.21v-0.91h-6.28v-1.34H80.89z M73.07,164.23h2.63v-1.25h-2.63V164.23z M80.89,162.05h1.65v1.49h-1.65V166h-1.71v-6.34h1.71
		V162.05z"/>
	<path class="st3" d="M90.06,160.23v1.41h-4.44v0.99h4.2v1.41h-4.2v1c0.96,0,1.87-0.01,2.73-0.03c0.87-0.02,1.75-0.07,2.65-0.16
		l0.15,1.39c-0.42,0.05-0.88,0.08-1.35,0.11c-0.48,0.03-1.01,0.05-1.59,0.06c-0.58,0.01-1.22,0.02-1.92,0.03
		c-0.7,0-1.48,0.01-2.35,0.01v-6.21H90.06z M85.68,167.42h8v4.85h-8V167.42z M87.38,170.86h4.62v-2.03h-4.62V170.86z M93.69,166.85
		h-1.71v-7.19h1.71V166.85z"/>
</g>
<g>
	<path class="st3" d="M37.22,194.53v-2.27h0.71v2.27h4.44v0.6h-8.31v-0.6H37.22z M40.44,190.55c0.01-0.13,0.01-0.27,0.01-0.41
		c0-0.14,0-0.28,0-0.44v-0.93h-5.29v-0.61h6.01v1.18c0,0.44-0.01,0.85-0.02,1.22c-0.02,0.37-0.04,0.72-0.07,1.05
		c-0.03,0.33-0.07,0.64-0.11,0.93c-0.04,0.29-0.09,0.59-0.15,0.89l-0.72-0.08c0.07-0.38,0.13-0.74,0.18-1.1
		c0.05-0.36,0.09-0.72,0.12-1.1l-5.37,0.09l-0.02-0.62L40.44,190.55z"/>
	<path class="st3" d="M45.71,192.33c-0.34,0-0.64-0.06-0.92-0.17c-0.28-0.12-0.51-0.27-0.7-0.45c-0.19-0.19-0.34-0.4-0.44-0.64
		c-0.11-0.24-0.16-0.48-0.16-0.72v-0.59c0-0.24,0.05-0.48,0.16-0.72c0.11-0.24,0.25-0.45,0.44-0.64c0.19-0.19,0.43-0.34,0.7-0.45
		c0.28-0.12,0.58-0.17,0.92-0.17c0.34,0,0.64,0.06,0.92,0.17c0.28,0.12,0.51,0.27,0.7,0.45c0.19,0.19,0.34,0.4,0.44,0.64
		c0.11,0.24,0.16,0.48,0.16,0.72v0.59c0,0.24-0.05,0.48-0.16,0.72c-0.11,0.24-0.25,0.45-0.44,0.64c-0.19,0.19-0.43,0.34-0.7,0.45
		C46.35,192.28,46.05,192.33,45.71,192.33z M45.71,188.39c-0.23,0-0.44,0.04-0.63,0.12c-0.19,0.08-0.35,0.18-0.49,0.32
		c-0.14,0.13-0.24,0.28-0.32,0.46c-0.08,0.17-0.11,0.35-0.11,0.53v0.47c0,0.18,0.04,0.36,0.11,0.53c0.08,0.17,0.18,0.32,0.32,0.45
		c0.14,0.13,0.3,0.24,0.49,0.32c0.19,0.08,0.4,0.12,0.63,0.12c0.23,0,0.44-0.04,0.63-0.12c0.19-0.08,0.35-0.18,0.49-0.32
		c0.14-0.13,0.24-0.28,0.32-0.45c0.08-0.17,0.11-0.35,0.11-0.53v-0.47c0-0.18-0.04-0.36-0.11-0.53c-0.08-0.17-0.18-0.32-0.32-0.46
		c-0.14-0.13-0.3-0.24-0.49-0.32C46.15,188.43,45.94,188.39,45.71,188.39z M45.71,195.69h5.05v0.61h-5.76v-2.96h0.7V195.69z
		 M50.54,193.84h-0.69v-6.47h0.69V193.84z"/>
	<path class="st3" d="M52.23,193.88c0.44-0.3,0.82-0.56,1.14-0.8c0.32-0.23,0.58-0.45,0.8-0.65c0.21-0.2,0.38-0.39,0.51-0.57
		c0.13-0.18,0.22-0.37,0.29-0.56c0.07-0.19,0.11-0.41,0.13-0.63c0.02-0.23,0.03-0.49,0.03-0.78v-0.99H52.4v-0.62h3.4v1.65
		c0,0.33-0.01,0.63-0.04,0.89c-0.03,0.26-0.08,0.51-0.16,0.74c-0.08,0.23-0.19,0.45-0.34,0.65c-0.15,0.21-0.34,0.42-0.57,0.65
		c-0.24,0.22-0.53,0.46-0.87,0.72c-0.34,0.25-0.74,0.54-1.2,0.86L52.23,193.88z M57.77,190.63h1.36v-3.26h0.69v9.04h-0.69v-5.15
		h-1.36v4.71h-0.69v-8.41h0.69V190.63z"/>
	<path class="st3" d="M65.62,191.55h-4.07v-3.93h0.67v1.39h2.73v-1.39h0.67V191.55z M62.22,190.95h2.73v-1.33h-2.73V190.95z
		 M68.2,192.47v2.27h-4.77v1.1h5v0.59h-5.69v-2.27h4.77v-1.09H62.7v-0.6H68.2z M68.2,189.3h1.38v0.61H68.2v2.03h-0.69v-4.57h0.69
		V189.3z"/>
	<path class="st3" d="M70.6,194.57h0.87l-0.71,2.23h-0.57L70.6,194.57z"/>
	<path class="st3" d="M75.35,193.78c0.5-0.28,0.93-0.54,1.3-0.77c0.36-0.23,0.67-0.44,0.92-0.64c0.25-0.19,0.45-0.38,0.61-0.56
		c0.15-0.18,0.27-0.36,0.36-0.54c0.08-0.18,0.14-0.38,0.17-0.58c0.03-0.2,0.04-0.43,0.04-0.68v-1.14h-3.3v-0.63h3.99v1.76
		c0,0.23-0.01,0.45-0.03,0.64h2.36v-3.26h0.69v9.04h-0.69v-5.14h-2.49c-0.08,0.25-0.2,0.49-0.36,0.71
		c-0.16,0.22-0.38,0.45-0.66,0.69c-0.28,0.24-0.62,0.49-1.04,0.76c-0.42,0.27-0.92,0.57-1.5,0.91L75.35,193.78z"/>
	<path class="st3" d="M85.06,193.44h0.69c0.21,0,0.42,0,0.62,0c0.2,0,0.41-0.01,0.61-0.02c0.21-0.01,0.42-0.03,0.64-0.05
		c0.22-0.02,0.46-0.05,0.71-0.09l0.08,0.61c-0.51,0.08-1,0.13-1.46,0.15c-0.46,0.02-0.9,0.03-1.34,0.03h-1.24v-3.33h2.61v-1.97
		h-2.61v-0.6h3.29v3.17h-2.61V193.44z M89.74,190.72H91v-3.35h0.69v9.04H91v-5.06h-1.27v4.62h-0.69v-8.41h0.69V190.72z"/>
	<path class="st3" d="M96.75,194.53v-2.09h0.72v2.09h3.8v0.6h-8.31v-0.6H96.75z M97.12,190.45c-0.04,0.1-0.15,0.23-0.34,0.4
		c-0.19,0.17-0.46,0.37-0.82,0.61c-0.3,0.2-0.63,0.41-1.01,0.64c-0.38,0.23-0.75,0.44-1.1,0.63l-0.38-0.55
		c0.44-0.22,0.83-0.44,1.2-0.66c0.36-0.21,0.66-0.4,0.89-0.56c0.24-0.16,0.45-0.31,0.6-0.45c0.16-0.13,0.28-0.27,0.37-0.42
		c0.09-0.15,0.15-0.31,0.18-0.49c0.03-0.18,0.05-0.41,0.05-0.68v-0.96h0.72v0.96c0,0.27,0.02,0.5,0.05,0.68
		c0.03,0.18,0.09,0.35,0.18,0.49c0.09,0.15,0.21,0.29,0.37,0.42c0.15,0.13,0.35,0.28,0.6,0.45c0.23,0.16,0.53,0.34,0.89,0.55
		c0.36,0.21,0.75,0.43,1.18,0.65l-0.37,0.54c-0.36-0.19-0.72-0.4-1.09-0.62s-0.71-0.44-1-0.63c-0.36-0.24-0.63-0.44-0.81-0.6
		C97.29,190.69,97.17,190.55,97.12,190.45L97.12,190.45z"/>
	<path class="st3" d="M104.72,189.99c-0.05,0.16-0.3,0.44-0.73,0.81c-0.17,0.15-0.39,0.33-0.65,0.55c-0.26,0.21-0.56,0.44-0.9,0.69
		l-0.43-0.5c0.32-0.22,0.61-0.43,0.88-0.65c0.27-0.21,0.51-0.41,0.71-0.6c0.14-0.13,0.26-0.25,0.36-0.37
		c0.09-0.11,0.17-0.23,0.22-0.35c0.06-0.12,0.1-0.25,0.12-0.39c0.02-0.14,0.03-0.3,0.03-0.47v-1.11h0.71v1.08
		c0,0.18,0.01,0.33,0.02,0.46c0.02,0.13,0.05,0.25,0.1,0.35c0.05,0.11,0.12,0.21,0.21,0.31c0.09,0.1,0.22,0.22,0.38,0.35
		c0.18,0.15,0.41,0.32,0.66,0.52c0.26,0.19,0.51,0.38,0.77,0.55l-0.4,0.5c-0.23-0.16-0.45-0.32-0.65-0.48
		c-0.2-0.15-0.38-0.29-0.52-0.4c-0.23-0.18-0.43-0.35-0.59-0.5C104.86,190.19,104.76,190.08,104.72,189.99L104.72,189.99z
		 M109.44,192.39v2.31h-4.85v1.14h5.08v0.59h-5.77v-2.31h4.85V193h-4.9v-0.6H109.44z M108.75,189.11v-1.74h0.69v4.49h-0.69v-2.14
		h-2.03v-0.61H108.75z"/>
	<path class="st3" d="M112.29,191.43c0.51,0,0.97,0,1.38-0.01c0.41-0.01,0.78-0.02,1.11-0.03c0.34-0.01,0.65-0.03,0.94-0.05
		c0.29-0.02,0.59-0.05,0.89-0.08l0.06,0.6c-0.27,0.03-0.56,0.06-0.87,0.09c-0.31,0.03-0.66,0.05-1.06,0.06
		c-0.4,0.01-0.85,0.02-1.36,0.03c-0.51,0.01-1.1,0.01-1.77,0.01v-2.42h3.23v-1.21h-3.23v-0.61h3.92v2.41h-3.23V191.43z
		 M118.43,192.72v3.69h-5.52v-3.69h0.68v1.17h4.15v-1.17H118.43z M117.75,195.78v-1.29h-4.15v1.29H117.75z M118.43,192.19h-0.69
		v-4.82h0.69V192.19z"/>
	<path class="st3" d="M47.26,203.07h-1.03v4.49c0.25-0.01,0.49-0.03,0.73-0.04c0.23-0.02,0.46-0.04,0.69-0.06l0.05,0.59
		c-0.51,0.06-1.06,0.1-1.65,0.12c-0.58,0.02-1.16,0.03-1.72,0.03h-2.39v-0.61h1.06v-4.52h-0.96v-0.6h5.22V203.07z M44.57,207.59
		c0.17,0,0.34,0,0.5,0c0.16,0,0.32,0,0.48-0.01v-4.51h-1.87v4.52H44.57z M48.7,204.85v-3.25h0.69v9.04H48.7v-5.15h-1.58v-0.63H48.7z
		"/>
	<path class="st3" d="M59.16,205.71v0.59h-8.31v-0.59H59.16z M57.93,207.13v2.05h-5.15v0.91h5.42v0.58h-6.1v-2.07h5.15v-0.89h-5.2
		v-0.58H57.93z M57.93,204.9h-5.83v-3.17h0.68v1.04h4.47v-1.04h0.68V204.9z M52.78,204.3h4.47v-0.95h-4.47V204.3z"/>
	<path class="st3" d="M61.24,207.77h1.35c0.5,0,1.01-0.01,1.53-0.04c0.52-0.03,1.01-0.08,1.47-0.15l0.08,0.6
		c-0.53,0.09-1.07,0.14-1.62,0.17c-0.55,0.03-1.1,0.04-1.64,0.04h-1.87v-3.46h3.27v-1.99h-3.27v-0.61h3.97v3.21h-3.27V207.77z
		 M67.31,210.63h-0.7v-9.04h0.7V210.63z"/>
	<path class="st3" d="M70.47,206.31c0.16-0.18,0.28-0.34,0.38-0.48c0.09-0.14,0.16-0.29,0.22-0.43c0.05-0.14,0.09-0.29,0.1-0.44
		c0.02-0.15,0.02-0.33,0.02-0.52v-2.18h0.72v2.13c0,0.19,0.01,0.36,0.02,0.5c0.01,0.14,0.04,0.28,0.08,0.41
		c0.04,0.13,0.1,0.26,0.18,0.38s0.18,0.26,0.32,0.42c0.2,0.23,0.44,0.49,0.73,0.78c0.29,0.29,0.62,0.6,0.99,0.94l-0.45,0.47
		c-0.32-0.3-0.61-0.58-0.88-0.85c-0.27-0.27-0.5-0.51-0.7-0.72c-0.15-0.16-0.29-0.31-0.41-0.45c-0.12-0.14-0.2-0.25-0.22-0.32h-0.01
		c-0.01,0.03-0.03,0.08-0.08,0.15c-0.05,0.07-0.1,0.15-0.17,0.23s-0.14,0.18-0.22,0.27s-0.15,0.18-0.23,0.26
		c-0.09,0.09-0.19,0.2-0.31,0.33c-0.12,0.13-0.25,0.26-0.39,0.4c-0.14,0.14-0.28,0.28-0.44,0.43c-0.15,0.15-0.3,0.28-0.45,0.41
		l-0.46-0.48c0.33-0.29,0.63-0.57,0.9-0.83C69.99,206.84,70.24,206.58,70.47,206.31z M75.66,203.55v-1.96h0.68v9.04h-0.68v-4.39
		h-2.1v-0.62h2.1v-1.44h-2.1v-0.62H75.66z"/>
	<path class="st3" d="M78.39,208.8h0.87l-0.71,2.23h-0.57L78.39,208.8z"/>
	<path class="st3" d="M91.06,208.76v0.6h-8.31v-0.6H91.06z M89.12,205.04c0.01-0.13,0.01-0.27,0.01-0.4c0-0.14,0-0.28,0-0.42v-1.19
		h-5.29v-0.61h6.01v1.43c0,0.42-0.01,0.8-0.02,1.16c-0.02,0.36-0.04,0.7-0.07,1.03c-0.03,0.33-0.07,0.64-0.11,0.95
		c-0.04,0.31-0.09,0.62-0.15,0.94l-0.72-0.08c0.07-0.38,0.13-0.75,0.18-1.12c0.05-0.36,0.09-0.73,0.12-1.11l-5.37,0.1l-0.02-0.62
		L89.12,205.04z"/>
	<path class="st3" d="M95.56,205.94v-0.8H93v-1.94h5.11v-0.78h-5.14v-0.58h5.81v1.94h-5.11v0.78h5.31v0.58h-2.72v0.8h3.81v0.59
		h-8.31v-0.59H95.56z M98.82,207.28v1.99h-5.15v0.83h5.42v0.58h-6.1v-1.99h5.15v-0.83h-5.2v-0.58H98.82z"/>
	<path class="st3" d="M102.05,207.77h1.32c0.5,0,1.01-0.01,1.53-0.04c0.52-0.03,1.01-0.08,1.47-0.15l0.08,0.6
		c-0.53,0.09-1.07,0.14-1.62,0.17c-0.55,0.03-1.1,0.04-1.64,0.04h-1.83v-3.46h3.09v-1.99h-3.09v-0.61h3.78v3.21h-3.09V207.77z
		 M107.58,204.79v-3.19h0.69v9.04h-0.69v-5.21h-1.75v-0.63H107.58z"/>
	<path class="st3" d="M110.28,208.8h0.87l-0.71,2.23h-0.57L110.28,208.8z"/>
	<path class="st3" d="M41.17,216.68v0.63h-2.71v4.45H39c0.27,0,0.52,0,0.76-0.01c0.24-0.01,0.47-0.02,0.69-0.03
		c0.22-0.01,0.44-0.03,0.66-0.06c0.22-0.03,0.44-0.06,0.66-0.1l0.08,0.62c-0.47,0.08-0.93,0.13-1.38,0.16
		c-0.45,0.03-0.92,0.04-1.42,0.04h-1.31v-5.72H41.17z M42.59,219.07v-3.06h0.69v8.41h-0.69v-4.72h-1.96v-0.63H42.59z M45.07,224.86
		h-0.69v-9.04h0.69V224.86z"/>
	<path class="st3" d="M51.3,220.02c0,0.83-0.2,1.48-0.59,1.94c-0.39,0.46-0.94,0.69-1.65,0.69c-0.71,0-1.25-0.23-1.65-0.69
		c-0.39-0.46-0.59-1.11-0.59-1.94v-0.94c0-0.83,0.2-1.48,0.59-1.93c0.39-0.46,0.94-0.69,1.65-0.69c0.71,0,1.25,0.23,1.65,0.69
		c0.39,0.46,0.59,1.11,0.59,1.94V220.02z M50.61,219.2c0-0.38-0.04-0.7-0.11-0.96c-0.08-0.26-0.18-0.48-0.32-0.65
		c-0.14-0.17-0.3-0.29-0.49-0.37c-0.19-0.08-0.4-0.12-0.63-0.12c-0.23,0-0.44,0.04-0.63,0.12c-0.19,0.08-0.35,0.2-0.49,0.37
		c-0.14,0.17-0.24,0.38-0.32,0.65c-0.08,0.26-0.11,0.58-0.11,0.96v0.69c0,0.38,0.04,0.7,0.11,0.96c0.08,0.27,0.18,0.48,0.32,0.65
		c0.14,0.17,0.3,0.29,0.49,0.37c0.19,0.08,0.4,0.12,0.63,0.12c0.23,0,0.44-0.04,0.63-0.12c0.19-0.08,0.35-0.2,0.49-0.37
		c0.14-0.17,0.24-0.39,0.32-0.65c0.08-0.27,0.11-0.59,0.11-0.96V219.2z M53.79,224.86h-0.7v-9.04h0.7V224.86z"/>
	<path class="st3" d="M60.11,216.55v0.62h-3.42v2h3.08v0.62h-3.08v2.12h1.27c0.46,0,0.94-0.01,1.44-0.04
		c0.5-0.03,1.02-0.08,1.55-0.16l0.08,0.62c-0.53,0.09-1.08,0.14-1.63,0.17c-0.55,0.03-1.09,0.04-1.62,0.04h-1.79v-5.99H60.11z
		 M62.18,219.14v-3.32h0.69v9.04h-0.69v-5.08h-1.83v-0.63H62.18z"/>
	<path class="st3" d="M69.01,222.6c-0.66,0-1.15-0.23-1.46-0.68c-0.31-0.45-0.47-1.1-0.47-1.95v-0.79c0-0.38,0.03-0.73,0.1-1.05
		c0.07-0.32,0.18-0.6,0.33-0.83c0.15-0.23,0.35-0.42,0.6-0.55c0.24-0.13,0.54-0.2,0.9-0.2c0.66,0,1.15,0.23,1.46,0.68
		c0.31,0.45,0.47,1.1,0.47,1.95v0.79c0,0.85-0.16,1.5-0.47,1.95C70.16,222.37,69.67,222.6,69.01,222.6z M69.01,217.19
		c-0.24,0-0.44,0.05-0.6,0.15c-0.16,0.1-0.29,0.24-0.39,0.43c-0.1,0.18-0.16,0.4-0.21,0.66c-0.04,0.25-0.06,0.53-0.06,0.84v0.63
		c0,0.68,0.1,1.19,0.3,1.54c0.2,0.35,0.52,0.52,0.96,0.52c0.44,0,0.76-0.17,0.96-0.52c0.2-0.35,0.3-0.86,0.3-1.54v-0.63
		c0-0.68-0.1-1.19-0.3-1.54C69.77,217.36,69.45,217.19,69.01,217.19z M72.63,219.2h1.27v-3.38h0.69v9.04H73.9v-5.03h-1.27v4.59
		h-0.69v-8.41h0.69V219.2z"/>
	<path class="st3" d="M77.12,216.17v2.95c0.48,0,0.9,0,1.27-0.01c0.36-0.01,0.7-0.02,1.02-0.03c0.32-0.02,0.63-0.04,0.94-0.07
		c0.31-0.03,0.65-0.07,1.03-0.12l0.08,0.62c-0.39,0.05-0.75,0.1-1.07,0.13c-0.32,0.03-0.67,0.06-1.03,0.07
		c-0.36,0.02-0.78,0.03-1.24,0.03c-0.46,0.01-1.03,0.01-1.71,0.01v-3.58H77.12z M83.27,220.79v2.34h-4.86v1.17h5.09v0.59h-5.78
		v-2.34h4.86v-1.16h-4.91v-0.6H83.27z M82.58,217.18v-1.35h0.69v4.43h-0.69v-2.46h-2.74v-0.61H82.58z"/>
	<path class="st3" d="M86.19,221.99h1.35c0.5,0,1.01-0.01,1.53-0.04c0.52-0.03,1.01-0.08,1.47-0.15l0.08,0.6
		c-0.53,0.09-1.07,0.14-1.62,0.17c-0.55,0.03-1.1,0.04-1.64,0.04H85.5v-3.46h3.27v-1.99H85.5v-0.61h3.97v3.21h-3.27V221.99z
		 M92.26,224.86h-0.7v-9.04h0.7V224.86z"/>
	<path class="st3" d="M102.11,222.98v0.6H93.8v-0.6H102.11z M97.95,219.09c-0.04,0.1-0.15,0.23-0.34,0.4
		c-0.19,0.17-0.46,0.37-0.82,0.61c-0.3,0.2-0.63,0.41-1.01,0.64c-0.38,0.23-0.75,0.44-1.1,0.63l-0.38-0.55
		c0.44-0.22,0.83-0.44,1.2-0.66c0.36-0.21,0.66-0.4,0.89-0.56c0.24-0.16,0.45-0.31,0.6-0.45c0.16-0.13,0.28-0.27,0.37-0.42
		c0.09-0.15,0.15-0.31,0.18-0.49c0.03-0.18,0.05-0.41,0.05-0.68v-1.09h0.72v1.09c0,0.27,0.02,0.5,0.05,0.68
		c0.03,0.18,0.09,0.35,0.18,0.49c0.09,0.15,0.21,0.29,0.37,0.42c0.15,0.13,0.35,0.28,0.6,0.45c0.23,0.16,0.53,0.34,0.89,0.55
		c0.36,0.21,0.75,0.43,1.18,0.65l-0.37,0.54c-0.36-0.19-0.72-0.4-1.09-0.62c-0.37-0.22-0.71-0.44-1-0.63
		c-0.36-0.24-0.63-0.44-0.81-0.6C98.12,219.32,98,219.18,97.95,219.09L97.95,219.09z"/>
	<path class="st3" d="M111.11,222.98v0.6h-8.31v-0.6H111.11z M110,221.25h-5.98v-4.69h5.9v0.59h-5.22v1.45h5.17v0.59h-5.17v1.45h5.3
		V221.25z"/>
	<path class="st3" d="M112.34,223.02h0.87l-0.71,2.23h-0.57L112.34,223.02z"/>
	<path class="st3" d="M63.76,234.73h-4.11v-4.27h0.67v1.57h2.77v-1.57h0.67V234.73z M60.32,234.12h2.77v-1.49h-2.77V234.12z
		 M60.67,235.85h5.82v3.3h-0.69v-2.69h-5.12V235.85z M66.48,235.32h-0.69v-5.27h0.69V235.32z"/>
	<path class="st3" d="M71.85,230.91v0.63h-2.71v4.45h0.54c0.27,0,0.52,0,0.76-0.01c0.24-0.01,0.47-0.02,0.69-0.03
		c0.22-0.01,0.45-0.03,0.66-0.06c0.22-0.03,0.44-0.06,0.66-0.1l0.08,0.62c-0.47,0.08-0.93,0.13-1.38,0.16
		c-0.44,0.03-0.92,0.04-1.42,0.04h-1.31v-5.72H71.85z M73.28,233.29v-3.06h0.69v8.41h-0.69v-4.72h-1.96v-0.63H73.28z M75.75,239.09
		h-0.69v-9.04h0.69V239.09z"/>
	<path class="st3" d="M81.98,234.24c0,0.83-0.2,1.48-0.59,1.94c-0.39,0.46-0.94,0.69-1.65,0.69c-0.71,0-1.25-0.23-1.65-0.69
		c-0.39-0.46-0.59-1.11-0.59-1.94v-0.94c0-0.83,0.2-1.48,0.59-1.93c0.39-0.46,0.94-0.69,1.65-0.69c0.71,0,1.25,0.23,1.65,0.69
		c0.39,0.46,0.59,1.11,0.59,1.94V234.24z M81.3,233.43c0-0.38-0.04-0.7-0.11-0.96c-0.08-0.26-0.18-0.48-0.32-0.65
		c-0.14-0.17-0.3-0.29-0.49-0.37c-0.19-0.08-0.4-0.12-0.63-0.12c-0.23,0-0.44,0.04-0.63,0.12c-0.19,0.08-0.35,0.2-0.49,0.37
		c-0.14,0.17-0.24,0.38-0.32,0.65c-0.08,0.26-0.11,0.58-0.11,0.96v0.69c0,0.38,0.04,0.7,0.11,0.96c0.08,0.27,0.18,0.48,0.32,0.65
		c0.14,0.17,0.3,0.29,0.49,0.37c0.19,0.08,0.4,0.12,0.63,0.12c0.23,0,0.44-0.04,0.63-0.12c0.19-0.08,0.35-0.2,0.49-0.37
		c0.14-0.17,0.24-0.39,0.32-0.65c0.08-0.27,0.11-0.59,0.11-0.96V233.43z M84.47,239.09h-0.7v-9.04h0.7V239.09z"/>
	<path class="st3" d="M90.79,230.78v0.62h-3.42v2h3.08v0.62h-3.08v2.12h1.27c0.46,0,0.94-0.01,1.44-0.04
		c0.5-0.03,1.02-0.08,1.55-0.16l0.08,0.62c-0.53,0.09-1.08,0.14-1.63,0.17c-0.55,0.03-1.09,0.04-1.62,0.04h-1.79v-5.99H90.79z
		 M92.86,233.37v-3.32h0.69v9.04h-0.69V234h-1.83v-0.63H92.86z"/>
</g>
<g>
	<path class="st3" d="M201.22,166c0.29,0.32,0.6,0.64,0.95,0.98c0.34,0.34,0.69,0.67,1.04,0.98l-1.1,1.15
		c-0.31-0.29-0.6-0.58-0.89-0.86c-0.29-0.28-0.56-0.56-0.81-0.82c-0.26-0.26-0.48-0.5-0.66-0.71c-0.18-0.21-0.29-0.38-0.34-0.49
		h-0.03c-0.05,0.13-0.17,0.31-0.37,0.55c-0.2,0.24-0.42,0.48-0.64,0.71c-0.25,0.26-0.52,0.53-0.8,0.81c-0.28,0.28-0.61,0.59-1,0.95
		l-1.12-1.16c0.77-0.69,1.44-1.35,2.03-1.99c0.2-0.22,0.36-0.42,0.49-0.62c0.13-0.2,0.24-0.4,0.32-0.61
		c0.08-0.21,0.14-0.42,0.18-0.65c0.04-0.23,0.05-0.48,0.05-0.76v-2.9h1.75v2.9c0,0.27,0.01,0.51,0.03,0.73
		c0.02,0.22,0.07,0.42,0.14,0.62c0.07,0.19,0.17,0.39,0.29,0.58C200.85,165.58,201.02,165.78,201.22,166z M205.64,164.1h1.73v1.49
		h-1.73v6.66h-1.72v-12.59h1.72V164.1z"/>
	<path class="st3" d="M211.44,165.97c-0.53,0-1-0.08-1.4-0.23c-0.4-0.15-0.74-0.36-1.01-0.62c-0.27-0.26-0.47-0.55-0.61-0.88
		c-0.14-0.33-0.2-0.67-0.2-1.04v-0.38c0-0.36,0.07-0.71,0.2-1.04c0.14-0.33,0.34-0.62,0.61-0.88c0.27-0.26,0.61-0.46,1.01-0.62
		c0.4-0.15,0.87-0.23,1.4-0.23c0.46,0,0.87,0.06,1.24,0.18c0.37,0.12,0.68,0.28,0.95,0.48c0.27,0.2,0.48,0.44,0.64,0.71
		c0.16,0.27,0.28,0.55,0.34,0.85h2.1v-2.63h1.71v6.48h-1.71v-2.44h-2.08c-0.05,0.31-0.16,0.6-0.32,0.87
		c-0.16,0.28-0.38,0.51-0.64,0.72c-0.27,0.2-0.58,0.37-0.95,0.49C212.33,165.91,211.91,165.97,211.44,165.97z M211.44,161.52
		c-0.27,0-0.51,0.04-0.71,0.12c-0.2,0.08-0.37,0.18-0.5,0.31c-0.13,0.13-0.23,0.28-0.29,0.44c-0.06,0.16-0.09,0.32-0.09,0.49v0.3
		c0,0.16,0.03,0.32,0.09,0.49c0.06,0.16,0.16,0.31,0.29,0.44c0.13,0.13,0.3,0.23,0.5,0.31c0.2,0.08,0.44,0.12,0.71,0.12
		s0.51-0.04,0.71-0.12c0.2-0.08,0.37-0.18,0.5-0.31c0.13-0.13,0.23-0.28,0.29-0.44c0.06-0.16,0.09-0.32,0.09-0.49v-0.3
		c0-0.16-0.03-0.32-0.09-0.49c-0.06-0.16-0.16-0.31-0.29-0.44c-0.13-0.13-0.3-0.23-0.5-0.31
		C211.95,161.56,211.71,161.52,211.44,161.52z M218.42,166.72v5.55h-8.01v-5.55h1.69v1.42h4.63v-1.42H218.42z M216.72,170.86v-1.31
		h-4.63v1.31H216.72z"/>
	<path class="st3" d="M227.12,160.23v1.41h-4.44v0.99h4.2v1.41h-4.2v1c0.96,0,1.87-0.01,2.73-0.03c0.87-0.02,1.75-0.07,2.65-0.16
		l0.15,1.39c-0.42,0.05-0.88,0.08-1.35,0.11c-0.48,0.03-1.01,0.05-1.59,0.06c-0.58,0.01-1.22,0.02-1.92,0.03
		c-0.7,0-1.48,0.01-2.35,0.01v-6.21H227.12z M222.75,167.42h8v4.85h-8V167.42z M224.44,170.86h4.62v-2.03h-4.62V170.86z
		 M230.75,166.85h-1.71v-7.19h1.71V166.85z"/>
</g>
<g>
	<path class="st3" d="M173.36,200.01h1.76v-1.24h0.69v1.24h1.67v0.61h-1.67v0.89c0,0.23,0.01,0.43,0.02,0.59
		c0.02,0.16,0.05,0.32,0.09,0.45c0.04,0.14,0.1,0.27,0.18,0.4c0.08,0.13,0.18,0.27,0.31,0.43c0.16,0.2,0.36,0.43,0.59,0.69
		c0.23,0.25,0.48,0.52,0.76,0.8l-0.45,0.45c-0.11-0.11-0.23-0.22-0.34-0.35c-0.12-0.13-0.23-0.26-0.35-0.38
		c-0.12-0.13-0.22-0.25-0.33-0.37c-0.1-0.12-0.2-0.22-0.28-0.32c-0.15-0.16-0.27-0.32-0.36-0.46c-0.1-0.14-0.15-0.24-0.17-0.29
		h-0.01c-0.01,0.05-0.06,0.15-0.14,0.28c-0.08,0.13-0.2,0.29-0.35,0.46c-0.18,0.21-0.39,0.44-0.62,0.7
		c-0.23,0.25-0.5,0.54-0.82,0.85l-0.46-0.46c0.14-0.14,0.29-0.28,0.44-0.43c0.14-0.14,0.28-0.29,0.41-0.43
		c0.13-0.14,0.25-0.27,0.36-0.39c0.11-0.12,0.2-0.23,0.27-0.33c0.12-0.15,0.22-0.29,0.29-0.43c0.08-0.13,0.13-0.27,0.17-0.42
		c0.04-0.14,0.07-0.3,0.08-0.47c0.02-0.17,0.02-0.36,0.02-0.58v-0.89h-1.76V200.01z M178.99,201.96h1.3v-3.37h0.69v9.04h-0.69v-5.04
		h-1.3v4.6h-0.69v-8.41h0.69V201.96z"/>
	<path class="st3" d="M189.2,198.88v1.07c0,0.62-0.07,1.27-0.2,1.95h1.48v0.59h-3.81v1.31h2.57v2.22h-5.15v1.07h5.42v0.58h-6.1
		v-2.23h5.15v-1.06h-5.2v-0.58h2.62v-1.31h-3.81v-0.59h6.11c0.08-0.36,0.14-0.7,0.17-1.03c0.03-0.33,0.05-0.65,0.05-0.96v-0.42
		h-5.23v-0.61H189.2z"/>
	<path class="st3" d="M191.72,205.78h0.87l-0.71,2.23h-0.57L191.72,205.78z"/>
	<path class="st3" d="M200.71,199.41v5.81h-4.16v-5.81H200.71z M200.01,200.05h-2.78v4.54h2.78V200.05z M203.1,201.94h1.5v0.62h-1.5
		v5.06h-0.7v-9.04h0.7V201.94z"/>
	<path class="st3" d="M205.31,203.53c0.47-0.23,0.86-0.44,1.18-0.61c0.32-0.18,0.58-0.34,0.79-0.49c0.2-0.15,0.36-0.3,0.47-0.45
		c0.11-0.14,0.19-0.3,0.24-0.45l-2.68,0.08l-0.02-0.59l2.78-0.06c0.01-0.05,0.01-0.11,0.01-0.16c0-0.05,0-0.11,0-0.17v-0.8h-2.53
		v-0.61h3.19v1.45c0,0.05,0,0.1,0,0.14c0,0.04,0,0.09-0.01,0.13h1.51v-2.24h0.68v4.8h-0.68v-1.95h-1.58
		c-0.05,0.23-0.14,0.45-0.26,0.64c-0.12,0.2-0.3,0.39-0.53,0.59c-0.23,0.19-0.53,0.4-0.9,0.6c-0.37,0.21-0.82,0.44-1.36,0.7
		L205.31,203.53z M209.32,204.02h0.69v0.71c0,0.2,0.02,0.38,0.05,0.52c0.04,0.15,0.1,0.28,0.18,0.39c0.08,0.12,0.19,0.22,0.32,0.31
		c0.13,0.09,0.29,0.19,0.48,0.29c0.26,0.13,0.56,0.27,0.9,0.43c0.34,0.15,0.66,0.29,0.96,0.41l-0.29,0.56
		c-0.32-0.13-0.65-0.28-0.97-0.43c-0.32-0.16-0.6-0.29-0.82-0.4c-0.66-0.33-1.05-0.62-1.17-0.86c-0.12,0.24-0.51,0.53-1.17,0.86
		c-0.22,0.11-0.5,0.25-0.82,0.4c-0.32,0.15-0.65,0.3-0.97,0.43l-0.3-0.56c0.14-0.06,0.3-0.12,0.47-0.19
		c0.17-0.07,0.33-0.14,0.49-0.21c0.16-0.07,0.32-0.15,0.47-0.22c0.15-0.07,0.3-0.14,0.43-0.21c0.18-0.09,0.34-0.18,0.47-0.28
		c0.13-0.09,0.24-0.2,0.32-0.31c0.09-0.12,0.15-0.25,0.19-0.4s0.06-0.32,0.06-0.53V204.02z M212.72,204.37h-0.68v-5.79h0.68V204.37z
		"/>
	<path class="st3" d="M214.61,205.78h0.87l-0.71,2.23h-0.57L214.61,205.78z"/>
	<path class="st3" d="M226.47,207.62h-0.69v-5.22h-2.42c-0.06,0.28-0.16,0.54-0.31,0.78c-0.15,0.24-0.36,0.49-0.63,0.75
		c-0.28,0.25-0.63,0.52-1.06,0.8c-0.43,0.28-0.97,0.59-1.61,0.93l-0.33-0.56c0.6-0.32,1.1-0.61,1.5-0.87
		c0.4-0.26,0.73-0.49,0.98-0.71c0.25-0.22,0.44-0.43,0.56-0.62c0.12-0.2,0.21-0.4,0.25-0.61l-3.37,0.08l-0.02-0.62l3.44-0.06v-1.63
		h-3.25v-0.63h3.94v1.96c0,0.07,0,0.14,0,0.2c0,0.06,0,0.13,0,0.19h2.34v-3.18h0.69V207.62z"/>
	<path class="st3" d="M236.28,203.9v0.6h-2.22v3.12h-0.7v-3.12h-2.47v3.12h-0.7v-3.12h-2.22v-0.6H236.28z M235.04,199.13v3.52h-5.84
		v-3.52H235.04z M229.9,202.04h4.45v-2.29h-4.45V202.04z"/>
	<path class="st3" d="M238.46,204.51h1.3c0.47,0,0.96-0.02,1.46-0.05c0.5-0.04,1.02-0.1,1.56-0.19l0.09,0.62
		c-0.53,0.09-1.08,0.16-1.63,0.2c-0.55,0.04-1.07,0.06-1.54,0.06h-1.93v-5.82h0.7V204.51z M244.45,207.62h-0.7v-9.04h0.7V207.62z"/>
	<path class="st3" d="M250.94,199.32v0.62h-3.59v2.02h3.39v0.62h-3.39v2.1h1.42c0.46,0,0.94-0.01,1.44-0.04
		c0.5-0.03,1.02-0.08,1.55-0.16l0.08,0.62c-0.53,0.09-1.08,0.14-1.63,0.17c-0.55,0.03-1.09,0.04-1.62,0.04h-1.95v-5.99H250.94z
		 M253.44,207.62h-0.7v-9.04h0.7V207.62z"/>
</g>
<g>
	<path class="st3" d="M63.93,322.07v1.31H52.4v-1.31H63.93z M62.54,316.96v1.3h-1.45v1.76h1.53v1.3h-8.91v-1.3h1.53v-1.76h-1.45
		v-1.3H62.54z M62.32,324.14v3.22h-6.69v0.72h7.05v1.29h-8.7v-3.24h6.69v-0.7h-6.75v-1.29H62.32z M56.91,320.02h2.52v-1.76h-2.52
		V320.02z"/>
	<path class="st3" d="M68.29,319.93v-1.18h-3.26v-1.37h4.86v3.87h-3.26v1.18c0.66,0,1.32-0.01,1.99-0.04
		c0.67-0.03,1.29-0.08,1.85-0.15l0.16,1.34c-0.57,0.08-1.3,0.14-2.21,0.17c-0.9,0.03-2.04,0.05-3.4,0.05v-3.87H68.29z M71.04,327.18
		c-0.05,0.13-0.18,0.27-0.41,0.42c-0.23,0.15-0.53,0.32-0.9,0.51c-0.43,0.23-0.89,0.45-1.37,0.67c-0.48,0.22-0.95,0.43-1.41,0.62
		l-0.68-1.41c0.51-0.21,1.02-0.43,1.54-0.66c0.52-0.23,0.98-0.46,1.38-0.66c0.32-0.17,0.55-0.37,0.7-0.6
		c0.15-0.23,0.23-0.51,0.23-0.85v-0.85h1.73v0.85c0,0.34,0.07,0.63,0.21,0.85c0.14,0.22,0.38,0.42,0.71,0.6
		c0.19,0.1,0.41,0.21,0.65,0.32c0.24,0.12,0.49,0.23,0.75,0.35c0.26,0.12,0.52,0.23,0.79,0.35c0.27,0.11,0.52,0.21,0.75,0.3
		l-0.66,1.37c-0.5-0.22-0.97-0.43-1.43-0.64c-0.46-0.21-0.9-0.43-1.33-0.64c-0.35-0.18-0.64-0.35-0.85-0.49
		c-0.22-0.15-0.35-0.28-0.39-0.4H71.04z M72.77,319.64h1.04v-2.98h1.62v8.28h-1.62v-3.83h-1.04v2.65h-1.61v-6.94h1.61V319.64z"/>
	<path class="st3" d="M87.17,317.07v1.34h-1.45v1.96h1.53v1.34h-3.6v0.95h4.91v1.38H77.03v-1.38h4.91v-0.95h-3.6v-1.34h1.53v-1.96
		h-1.45v-1.34H87.17z M78.65,324.88h8.31v4.37h-8.31V324.88z M80.34,327.89h4.93v-1.64h-4.93V327.89z M81.56,320.37h2.49v-1.96
		h-2.49V320.37z"/>
	<path class="st3" d="M96.19,317.23v1.41h-4.44v0.99h4.2v1.41h-4.2v1c0.96,0,1.87-0.01,2.73-0.03c0.87-0.02,1.75-0.07,2.65-0.16
		l0.15,1.39c-0.42,0.05-0.88,0.08-1.35,0.11c-0.48,0.03-1.01,0.05-1.59,0.06c-0.58,0.01-1.22,0.02-1.92,0.03
		c-0.7,0-1.48,0.01-2.35,0.01v-6.21H96.19z M91.82,324.42h8v4.85h-8V324.42z M93.51,327.86h4.62v-2.03h-4.62V327.86z M99.82,323.85
		h-1.71v-7.19h1.71V323.85z"/>
</g>
<g>
	<path class="st3" d="M40.21,359.02c-0.02,0.07-0.1,0.18-0.24,0.34c-0.14,0.15-0.32,0.32-0.53,0.5c-0.09,0.08-0.19,0.17-0.31,0.27
		c-0.12,0.1-0.25,0.2-0.39,0.31c-0.14,0.11-0.27,0.21-0.41,0.32c-0.14,0.11-0.26,0.2-0.37,0.28l-0.43-0.49
		c0.3-0.21,0.59-0.43,0.89-0.67c0.3-0.23,0.57-0.47,0.81-0.71c0.12-0.12,0.22-0.23,0.3-0.34c0.08-0.11,0.14-0.21,0.18-0.32
		c0.04-0.11,0.07-0.22,0.09-0.33c0.02-0.12,0.02-0.24,0.02-0.37v-1.02H37.8v-0.6h4.68v0.6h-1.94v0.99c0,0.15,0.01,0.27,0.02,0.39
		c0.01,0.11,0.04,0.22,0.09,0.33c0.05,0.11,0.12,0.21,0.22,0.32c0.1,0.11,0.22,0.23,0.38,0.37c0.16,0.13,0.37,0.29,0.62,0.48
		c0.26,0.19,0.53,0.38,0.81,0.57l-0.41,0.48c-0.2-0.14-0.41-0.29-0.62-0.45c-0.21-0.16-0.39-0.3-0.54-0.42
		c-0.23-0.19-0.43-0.36-0.6-0.51C40.34,359.19,40.24,359.08,40.21,359.02L40.21,359.02z M39.99,363.9h5.06v0.61h-5.77v-3h0.7V363.9z
		 M44.13,357.99v-2.4h0.69v6.46h-0.69v-3.44h-1.89v-0.61H44.13z"/>
	<path class="st3" d="M47.33,359.92c0.57,0,1.05,0,1.45,0c0.4,0,0.76-0.01,1.09-0.02c0.32-0.01,0.62-0.03,0.9-0.05
		c0.28-0.02,0.57-0.05,0.88-0.09l0.06,0.59c-0.29,0.04-0.59,0.07-0.89,0.09c-0.31,0.02-0.66,0.04-1.05,0.05
		c-0.39,0.01-0.84,0.02-1.35,0.03c-0.5,0.01-1.1,0.01-1.78,0.01v-2.55h3.22v-1.35h-3.22v-0.61h3.91v2.55h-3.22V359.92z
		 M47.61,361.64h5.68v3.07H52.6v-2.45h-4.98V361.64z M53.29,357.02h1.38v0.61h-1.38v1.23h1.38v0.61h-1.38v1.63H52.6v-5.52h0.68
		V357.02z"/>
	<path class="st3" d="M55.77,362c0.76-0.44,1.36-0.81,1.81-1.12c0.45-0.31,0.79-0.61,1.02-0.88c0.23-0.27,0.38-0.55,0.45-0.83
		c0.07-0.28,0.1-0.6,0.1-0.97v-1.14h-3.28v-0.63h3.97v1.78c0,0.3-0.02,0.58-0.05,0.82c-0.03,0.24-0.1,0.47-0.19,0.69
		c-0.1,0.22-0.23,0.43-0.4,0.63c-0.17,0.2-0.39,0.42-0.67,0.64c-0.27,0.22-0.61,0.46-1,0.72c-0.39,0.25-0.86,0.54-1.39,0.85
		L55.77,362z M62.74,364.62h-0.7v-9.04h0.7V364.62z"/>
	<path class="st3" d="M70.47,361.07c-0.3,0.04-0.63,0.07-0.99,0.1c-0.37,0.03-0.78,0.05-1.26,0.07c-0.47,0.02-1.01,0.03-1.61,0.04
		c-0.6,0.01-1.29,0.01-2.07,0.01v-0.61c0.49,0,0.94,0,1.34,0c0.4,0,0.78-0.01,1.13-0.02V360c-0.58-0.04-1.01-0.17-1.29-0.4
		c-0.28-0.23-0.42-0.5-0.42-0.82v-0.24c0-0.34,0.17-0.63,0.5-0.87c0.34-0.24,0.85-0.36,1.54-0.36c0.69,0,1.21,0.12,1.54,0.36
		c0.34,0.24,0.5,0.53,0.5,0.87v0.24c0,0.31-0.14,0.58-0.42,0.81c-0.28,0.23-0.71,0.37-1.28,0.41v0.67c0.29-0.01,0.56-0.02,0.81-0.03
		c0.25-0.01,0.48-0.03,0.7-0.04c0.22-0.02,0.42-0.03,0.62-0.05c0.19-0.02,0.39-0.04,0.58-0.06L70.47,361.07z M67.01,356.33v-0.86
		h0.69v0.86h2.14v0.59h-4.96v-0.59H67.01z M65.82,362.04h5.97v2.67h-0.68v-2.06h-5.29V362.04z M67.36,357.89
		c-0.47,0-0.82,0.07-1.04,0.2c-0.23,0.14-0.34,0.3-0.34,0.48v0.18c0,0.18,0.11,0.34,0.34,0.48c0.23,0.14,0.58,0.2,1.04,0.2
		c0.47,0,0.82-0.07,1.04-0.2c0.23-0.14,0.34-0.3,0.34-0.48v-0.18c0-0.18-0.11-0.34-0.34-0.48
		C68.18,357.96,67.83,357.89,67.36,357.89z M71.79,361.51H71.1v-5.92h0.69V361.51z"/>
	<path class="st3" d="M76.31,362.78h0.87l-0.71,2.23H75.9L76.31,362.78z"/>
	<path class="st3" d="M83.58,359.02c-0.02,0.07-0.1,0.18-0.24,0.34c-0.14,0.15-0.32,0.32-0.53,0.5c-0.09,0.08-0.19,0.17-0.31,0.27
		c-0.12,0.1-0.25,0.2-0.39,0.31c-0.14,0.11-0.27,0.21-0.41,0.32c-0.14,0.11-0.26,0.2-0.37,0.28l-0.43-0.49
		c0.3-0.21,0.59-0.43,0.89-0.67c0.3-0.23,0.57-0.47,0.81-0.71c0.12-0.12,0.22-0.23,0.3-0.34c0.08-0.11,0.14-0.21,0.18-0.32
		c0.04-0.11,0.07-0.22,0.09-0.33c0.02-0.12,0.02-0.24,0.02-0.37v-1.02h-2.04v-0.6h4.68v0.6h-1.94v0.99c0,0.15,0.01,0.27,0.02,0.39
		c0.01,0.11,0.04,0.22,0.09,0.33c0.05,0.11,0.12,0.21,0.22,0.32c0.1,0.11,0.22,0.23,0.38,0.37c0.16,0.13,0.37,0.29,0.62,0.48
		c0.26,0.19,0.53,0.38,0.81,0.57l-0.41,0.48c-0.2-0.14-0.41-0.29-0.62-0.45c-0.21-0.16-0.39-0.3-0.54-0.42
		c-0.23-0.19-0.43-0.36-0.6-0.51C83.7,359.19,83.61,359.08,83.58,359.02L83.58,359.02z M83.35,363.9h5.06v0.61h-5.77v-3h0.7V363.9z
		 M87.5,357.99v-2.4h0.69v6.46H87.5v-3.44h-1.89v-0.61H87.5z"/>
	<path class="st3" d="M91.25,360.25c0.16-0.18,0.28-0.34,0.38-0.48c0.09-0.14,0.16-0.29,0.22-0.43c0.05-0.14,0.09-0.29,0.1-0.44
		c0.02-0.15,0.02-0.33,0.02-0.52v-2.13h0.72v2.08c0,0.19,0.01,0.36,0.02,0.5c0.01,0.14,0.04,0.28,0.08,0.41
		c0.04,0.13,0.1,0.26,0.18,0.38c0.08,0.13,0.18,0.26,0.32,0.42c0.2,0.23,0.44,0.49,0.73,0.78c0.29,0.29,0.62,0.6,0.99,0.94
		l-0.45,0.47c-0.32-0.3-0.61-0.58-0.88-0.85c-0.27-0.27-0.5-0.51-0.7-0.72c-0.15-0.16-0.29-0.31-0.41-0.45
		c-0.12-0.14-0.2-0.25-0.22-0.32h-0.01c-0.01,0.03-0.03,0.08-0.08,0.15c-0.05,0.07-0.1,0.15-0.17,0.23
		c-0.07,0.09-0.14,0.18-0.22,0.27c-0.08,0.1-0.16,0.18-0.23,0.26c-0.09,0.09-0.19,0.2-0.31,0.33c-0.12,0.13-0.25,0.26-0.39,0.4
		c-0.14,0.14-0.28,0.28-0.44,0.43c-0.15,0.15-0.3,0.28-0.44,0.41l-0.46-0.48c0.33-0.29,0.63-0.57,0.9-0.83
		C90.77,360.78,91.02,360.52,91.25,360.25z M96.67,358.96h1.51v0.62h-1.51v5.04h-0.7v-9.04h0.7V358.96z"/>
	<path class="st3" d="M101.58,359.02c-0.02,0.07-0.1,0.18-0.24,0.34c-0.14,0.15-0.32,0.32-0.53,0.5c-0.09,0.08-0.19,0.17-0.31,0.27
		c-0.12,0.1-0.25,0.2-0.39,0.31c-0.14,0.11-0.27,0.21-0.41,0.32c-0.14,0.11-0.26,0.2-0.37,0.28l-0.43-0.49
		c0.3-0.21,0.59-0.43,0.89-0.67c0.3-0.23,0.57-0.47,0.81-0.71c0.12-0.12,0.22-0.23,0.3-0.34c0.08-0.11,0.14-0.21,0.18-0.32
		c0.04-0.11,0.07-0.22,0.09-0.33c0.02-0.12,0.02-0.24,0.02-0.37v-1.02h-2.04v-0.6h4.68v0.6h-1.94v0.99c0,0.15,0.01,0.27,0.02,0.39
		c0.01,0.11,0.04,0.22,0.09,0.33c0.05,0.11,0.12,0.21,0.22,0.32c0.1,0.11,0.22,0.23,0.38,0.37c0.16,0.13,0.37,0.29,0.62,0.48
		c0.26,0.19,0.53,0.38,0.81,0.57l-0.41,0.48c-0.2-0.14-0.41-0.29-0.62-0.45c-0.21-0.16-0.39-0.3-0.54-0.42
		c-0.23-0.19-0.43-0.36-0.6-0.51C101.7,359.19,101.61,359.08,101.58,359.02L101.58,359.02z M101.35,363.9h5.06v0.61h-5.77v-3h0.7
		V363.9z M105.49,357.99v-2.4h0.69v6.46h-0.69v-3.44h-1.89v-0.61H105.49z"/>
	<path class="st3" d="M108.7,359.92c0.57,0,1.05,0,1.45,0c0.4,0,0.76-0.01,1.09-0.02c0.32-0.01,0.62-0.03,0.9-0.05
		s0.57-0.05,0.88-0.09l0.06,0.59c-0.29,0.04-0.59,0.07-0.9,0.09c-0.31,0.02-0.66,0.04-1.05,0.05c-0.39,0.01-0.84,0.02-1.35,0.03
		c-0.5,0.01-1.1,0.01-1.78,0.01v-2.55h3.22v-1.35h-3.22v-0.61h3.91v2.55h-3.22V359.92z M108.98,361.64h5.68v3.07h-0.69v-2.45h-4.98
		V361.64z M114.65,357.02h1.38v0.61h-1.38v1.23h1.38v0.61h-1.38v1.63h-0.68v-5.52h0.68V357.02z"/>
</g>
<g>
	<path class="st3" d="M195.58,323.46c0.7-0.25,1.3-0.48,1.79-0.68c0.49-0.2,0.89-0.38,1.21-0.54c0.32-0.16,0.57-0.31,0.75-0.45
		c0.18-0.14,0.32-0.28,0.41-0.41l-4.06,0.15l-0.04-1.42l4.28-0.09v-1.16h-3.9v-1.43h5.56v2.6h2.44v-3.34h1.71v8.96h-1.71v-4.17h-2.6
		c-0.11,0.34-0.28,0.65-0.51,0.93c-0.23,0.28-0.56,0.55-0.97,0.81c-0.42,0.26-0.93,0.52-1.54,0.79c-0.61,0.26-1.35,0.55-2.21,0.85
		L195.58,323.46z M199.43,327.66h6.5v1.46h-8.22v-4.16h1.72V327.66z"/>
	<path class="st3" d="M211.42,320.79c-0.05,0.12-0.15,0.26-0.32,0.43c-0.17,0.17-0.37,0.35-0.6,0.54c-0.29,0.23-0.59,0.48-0.89,0.72
		c-0.31,0.25-0.66,0.52-1.07,0.81l-0.99-1.25c0.41-0.29,0.77-0.55,1.08-0.79c0.3-0.24,0.61-0.49,0.91-0.75
		c0.34-0.3,0.59-0.6,0.73-0.92c0.14-0.32,0.22-0.68,0.22-1.08v-1.53h1.73v1.5c0,0.22,0.01,0.41,0.04,0.58
		c0.03,0.17,0.08,0.33,0.15,0.48c0.07,0.15,0.17,0.29,0.29,0.43c0.12,0.14,0.28,0.28,0.47,0.43c0.11,0.08,0.24,0.18,0.39,0.28
		c0.15,0.11,0.3,0.22,0.47,0.34c0.16,0.12,0.33,0.23,0.51,0.35c0.18,0.11,0.35,0.22,0.51,0.33l-0.95,1.18
		c-0.57-0.37-1.14-0.77-1.71-1.19c-0.27-0.21-0.49-0.38-0.64-0.52c-0.16-0.14-0.26-0.26-0.3-0.37H211.42z M218.04,323.51v3.57h-6.24
		v0.93h6.62v1.35h-8.27v-3.57h6.24v-0.93h-6.31v-1.35H218.04z M216.34,320.14h-2.22v-1.45h2.22v-2.03h1.71v6.28h-1.71V320.14z"/>
	<path class="st3" d="M226.75,317.26v1.42h-4.44v1.06h4.2v1.42h-4.2v1.06c0.96,0,1.87-0.01,2.73-0.03c0.87-0.02,1.75-0.07,2.65-0.16
		l0.15,1.41c-0.42,0.05-0.88,0.08-1.35,0.11c-0.48,0.03-1.01,0.05-1.59,0.06c-0.58,0.01-1.22,0.02-1.92,0.03
		c-0.7,0-1.48,0.01-2.35,0.01v-6.38H226.75z M226.48,329.65c-0.6,0-1.13-0.06-1.62-0.17c-0.48-0.11-0.9-0.28-1.24-0.49
		c-0.34-0.21-0.61-0.46-0.8-0.76c-0.19-0.29-0.28-0.62-0.28-0.98v-0.54c0-0.36,0.09-0.69,0.28-0.98c0.19-0.29,0.46-0.54,0.8-0.75
		c0.34-0.21,0.76-0.37,1.24-0.49c0.48-0.12,1.02-0.18,1.62-0.18s1.13,0.06,1.62,0.18c0.48,0.12,0.9,0.28,1.24,0.49
		c0.34,0.21,0.61,0.46,0.8,0.75c0.19,0.29,0.28,0.62,0.28,0.98v0.54c0,0.36-0.09,0.69-0.28,0.98c-0.19,0.29-0.46,0.55-0.8,0.76
		c-0.34,0.21-0.76,0.37-1.24,0.49C227.61,329.59,227.07,329.65,226.48,329.65z M226.48,325.71c-0.35,0-0.67,0.03-0.94,0.1
		c-0.28,0.07-0.51,0.16-0.71,0.26c-0.2,0.11-0.35,0.23-0.45,0.36c-0.1,0.13-0.16,0.26-0.16,0.39v0.32c0,0.13,0.05,0.25,0.16,0.39
		c0.1,0.13,0.25,0.25,0.45,0.36c0.2,0.11,0.44,0.2,0.71,0.26c0.28,0.07,0.59,0.1,0.94,0.1c0.35,0,0.67-0.03,0.94-0.1
		c0.28-0.07,0.51-0.16,0.71-0.26c0.2-0.11,0.35-0.23,0.45-0.36c0.1-0.13,0.16-0.26,0.16-0.39v-0.32c0-0.13-0.05-0.25-0.16-0.39
		c-0.1-0.13-0.26-0.25-0.45-0.36c-0.2-0.11-0.44-0.2-0.71-0.26C227.14,325.74,226.83,325.71,226.48,325.71z M230.37,324.23h-1.71
		v-7.57h1.71V324.23z"/>
</g>
<g>
	<path class="st3" d="M172.34,358.8c-0.01,0.09-0.09,0.2-0.23,0.35c-0.14,0.15-0.32,0.33-0.54,0.54c-0.17,0.16-0.39,0.36-0.65,0.58
		c-0.26,0.22-0.54,0.45-0.83,0.68l-0.44-0.49c0.27-0.2,0.55-0.43,0.84-0.67c0.29-0.24,0.55-0.47,0.77-0.7
		c0.16-0.16,0.28-0.3,0.37-0.41c0.09-0.12,0.16-0.23,0.21-0.35c0.05-0.12,0.08-0.24,0.09-0.38c0.01-0.13,0.02-0.29,0.02-0.48v-1.45
		h0.71v1.43c0,0.18,0.01,0.34,0.02,0.47c0.01,0.13,0.04,0.25,0.09,0.36c0.05,0.11,0.12,0.23,0.22,0.34c0.1,0.12,0.23,0.25,0.39,0.39
		c0.24,0.21,0.49,0.42,0.75,0.62c0.25,0.2,0.49,0.39,0.72,0.55l-0.42,0.48c-0.28-0.21-0.52-0.4-0.74-0.58
		c-0.21-0.17-0.41-0.33-0.58-0.48C172.65,359.21,172.4,358.94,172.34,358.8L172.34,358.8z M172.13,363.9h5.04v0.61h-5.75v-3.02h0.7
		V363.9z M176.95,362.03h-0.69v-6.45h0.69V362.03z"/>
	<path class="st3" d="M180.1,360.25c0.16-0.18,0.28-0.34,0.38-0.48c0.09-0.14,0.16-0.29,0.22-0.43c0.05-0.14,0.09-0.29,0.1-0.44
		c0.02-0.15,0.02-0.33,0.02-0.52v-2.13h0.72v2.08c0,0.19,0.01,0.36,0.02,0.5c0.01,0.14,0.04,0.28,0.08,0.41
		c0.04,0.13,0.1,0.26,0.18,0.38c0.08,0.13,0.18,0.26,0.32,0.42c0.2,0.23,0.44,0.49,0.73,0.78c0.29,0.29,0.62,0.6,0.99,0.94
		l-0.45,0.47c-0.32-0.3-0.61-0.58-0.88-0.85c-0.27-0.27-0.5-0.51-0.7-0.72c-0.15-0.16-0.29-0.31-0.41-0.45
		c-0.12-0.14-0.2-0.25-0.22-0.32h-0.01c-0.01,0.03-0.03,0.08-0.08,0.15c-0.05,0.07-0.1,0.15-0.17,0.23
		c-0.07,0.09-0.14,0.18-0.22,0.27c-0.08,0.1-0.15,0.18-0.23,0.26c-0.09,0.09-0.19,0.2-0.31,0.33c-0.12,0.13-0.25,0.26-0.39,0.4
		c-0.14,0.14-0.28,0.28-0.44,0.43c-0.15,0.15-0.3,0.28-0.45,0.41l-0.46-0.48c0.33-0.29,0.63-0.57,0.9-0.83
		C179.62,360.78,179.87,360.52,180.1,360.25z M185.52,358.96h1.51v0.62h-1.51v5.04h-0.7v-9.04h0.7V358.96z"/>
	<path class="st3" d="M187.84,357.72c0-0.22,0.05-0.44,0.16-0.66c0.11-0.22,0.26-0.41,0.45-0.58c0.19-0.17,0.43-0.3,0.7-0.41
		c0.27-0.1,0.57-0.15,0.9-0.15c0.32,0,0.61,0.05,0.88,0.14c0.27,0.1,0.5,0.22,0.69,0.39c0.19,0.16,0.34,0.35,0.45,0.55
		c0.11,0.21,0.17,0.42,0.19,0.64h2.06v-2.06H195v4.62h-0.69v-1.95h-2.06c-0.01,0.22-0.07,0.44-0.18,0.65
		c-0.11,0.21-0.26,0.39-0.45,0.55c-0.19,0.16-0.42,0.29-0.69,0.39c-0.26,0.1-0.56,0.15-0.88,0.15c-0.33,0-0.63-0.05-0.9-0.15
		c-0.27-0.1-0.5-0.24-0.7-0.41c-0.19-0.17-0.34-0.36-0.45-0.57c-0.11-0.21-0.16-0.44-0.16-0.67V357.72z M191.58,357.79
		c0-0.16-0.04-0.32-0.11-0.47c-0.08-0.15-0.18-0.28-0.32-0.4c-0.14-0.12-0.3-0.21-0.49-0.28c-0.19-0.07-0.39-0.1-0.61-0.1
		c-0.22,0-0.42,0.03-0.61,0.1c-0.19,0.07-0.35,0.16-0.49,0.28c-0.14,0.12-0.25,0.25-0.32,0.4c-0.08,0.15-0.11,0.31-0.11,0.47v0.34
		c0,0.16,0.04,0.32,0.11,0.47c0.08,0.15,0.18,0.28,0.32,0.4c0.14,0.12,0.3,0.21,0.49,0.28c0.19,0.07,0.39,0.1,0.61,0.1
		c0.22,0,0.42-0.03,0.61-0.1c0.19-0.07,0.35-0.16,0.49-0.28c0.14-0.12,0.25-0.25,0.32-0.4c0.08-0.15,0.11-0.3,0.11-0.47V357.79z
		 M195,360.74v3.88h-5.52v-3.88h0.68v1.25h4.15v-1.25H195z M194.32,363.99v-1.39h-4.15v1.39H194.32z"/>
	<path class="st3" d="M197.05,362.78h0.87l-0.71,2.23h-0.57L197.05,362.78z"/>
	<path class="st3" d="M208.49,356.37v4.13h-2.57v2.24h3.81v0.6h-8.31v-0.6h3.81v-2.24h-2.57v-4.13H208.49z M203.34,359.89h4.45
		v-2.91h-4.45V359.89z"/>
	<path class="st3" d="M214.26,356.2v1.7h1.39v-2.2h0.68v6.08h-0.68v-3.26h-1.39v1.92h-3.48v-4.24H214.26z M213.58,356.81h-2.12v3.02
		h2.12V356.81z M213.04,363.9h5.24v0.61h-5.94v-2.97h0.7V363.9z M218.08,362h-0.68v-6.42h0.68V362z"/>
	<path class="st3" d="M219.98,356.02H224v0.61h-3.34v1.24h3.13v0.6h-3.13v1.24c0.47,0,0.88,0,1.23-0.01c0.35,0,0.68-0.01,0.99-0.02
		c0.31-0.01,0.61-0.03,0.9-0.05c0.29-0.02,0.61-0.05,0.95-0.09l0.08,0.6c-0.33,0.04-0.65,0.07-0.96,0.09
		c-0.31,0.02-0.65,0.04-1.02,0.05c-0.37,0.01-0.78,0.02-1.24,0.02c-0.46,0-1,0-1.62,0V356.02z M221.4,361.33h5.53v3.28h-5.53V361.33
		z M222.08,363.99h4.18v-2.04h-4.18V363.99z M226.24,357.72v-2.14h0.69v5.21h-0.69v-2.46h-1.86v-0.61H226.24z"/>
	<path class="st3" d="M231.39,356.41h4.11v0.63h-3.41v4.54h1.17c0.51,0,1.01-0.02,1.5-0.05c0.49-0.04,1.02-0.1,1.58-0.19l0.09,0.62
		c-0.53,0.09-1.08,0.16-1.65,0.2c-0.57,0.04-1.14,0.06-1.7,0.06h-1.69V356.41z M237.9,358.94h1.5v0.62h-1.5v5.06h-0.7v-9.04h0.7
		V358.94z"/>
	<path class="st3" d="M240.13,360.29c0.52-0.22,0.97-0.41,1.34-0.59c0.37-0.17,0.68-0.34,0.93-0.48c0.25-0.15,0.45-0.29,0.6-0.44
		c0.15-0.14,0.27-0.29,0.35-0.45c0.08-0.15,0.13-0.32,0.15-0.49c0.02-0.17,0.03-0.37,0.03-0.6v-0.5h-3.11v-0.61h3.79v1.18
		c0,0.28-0.02,0.53-0.05,0.75c-0.04,0.22-0.1,0.42-0.2,0.61c-0.1,0.18-0.24,0.36-0.42,0.52c-0.18,0.16-0.41,0.33-0.69,0.5
		c-0.28,0.17-0.63,0.35-1.03,0.54c-0.41,0.19-0.88,0.4-1.43,0.64L240.13,360.29z M241.3,361.36h5.67v3.33h-0.69v-2.72h-4.97V361.36z
		 M246.97,357.8h1.38v0.61h-1.38v2.41h-0.69v-5.24h0.69V357.8z"/>
	<path class="st3" d="M254.77,362.68c-0.41,0.04-0.8,0.07-1.18,0.1c-0.38,0.03-0.78,0.05-1.23,0.07c-0.44,0.02-0.94,0.03-1.49,0.04
		c-0.55,0.01-1.21,0.01-1.96,0.01v-0.61c0.5,0,0.96,0,1.37,0c0.42,0,0.8-0.01,1.16-0.02v-1.13c-0.28-0.03-0.53-0.08-0.75-0.17
		c-0.22-0.09-0.42-0.2-0.58-0.34c-0.16-0.14-0.29-0.29-0.38-0.46c-0.09-0.17-0.13-0.34-0.13-0.53v-0.38c0-0.2,0.05-0.4,0.16-0.58
		c0.11-0.18,0.25-0.34,0.44-0.48c0.19-0.14,0.42-0.25,0.68-0.33c0.26-0.08,0.55-0.12,0.87-0.12c0.32,0,0.6,0.04,0.87,0.12
		c0.26,0.08,0.49,0.19,0.68,0.33c0.19,0.14,0.34,0.3,0.45,0.48c0.11,0.18,0.16,0.38,0.16,0.57v0.38c0,0.18-0.04,0.35-0.12,0.51
		c-0.08,0.16-0.2,0.31-0.36,0.44c-0.15,0.13-0.34,0.25-0.55,0.34c-0.21,0.1-0.45,0.16-0.71,0.19v1.12c0.49-0.01,0.93-0.03,1.34-0.06
		c0.41-0.03,0.81-0.07,1.22-0.11L254.77,362.68z M252.09,356.63h2.21v0.61h-5.19v-0.61h2.29v-1.13h0.69V356.63z M251.74,358.34
		c-0.22,0-0.43,0.03-0.61,0.08c-0.18,0.06-0.34,0.13-0.46,0.22c-0.13,0.09-0.23,0.19-0.3,0.31c-0.07,0.12-0.11,0.24-0.11,0.36v0.28
		c0,0.12,0.04,0.24,0.11,0.36c0.07,0.12,0.17,0.22,0.3,0.32c0.13,0.09,0.28,0.17,0.46,0.22c0.18,0.06,0.38,0.08,0.61,0.08
		c0.22,0,0.43-0.03,0.61-0.08c0.18-0.06,0.34-0.13,0.46-0.22c0.13-0.09,0.23-0.2,0.3-0.32c0.07-0.12,0.11-0.24,0.11-0.36v-0.28
		c0-0.12-0.04-0.24-0.11-0.36c-0.07-0.12-0.17-0.22-0.3-0.31c-0.13-0.09-0.28-0.16-0.46-0.22
		C252.17,358.37,251.97,358.34,251.74,358.34z M256.1,359.31h1.43v0.62h-1.43v4.69h-0.7v-9.04h0.7V359.31z"/>
</g>
</svg>
