<?xml version="1.0" encoding="utf-8"?>
<!-- Generator: Adobe Illustrator 23.0.1, SVG Export Plug-In . SVG Version: 6.00 Build 0)  -->
<svg version="1.1" id="레이어_1" xmlns="http://www.w3.org/2000/svg" xmlns:xlink="http://www.w3.org/1999/xlink" x="0px"
	 y="0px" viewBox="0 0 204 231" style="enable-background:new 0 0 204 231;" xml:space="preserve">
<style type="text/css">
	.st0{fill:#CB83FF;}
	.st1{fill:#FFFFFF;}
</style>
<path class="st0" d="M195.55,179.65c4.76-2.75,8.66-9.5,8.66-15V66.76c0-5.5-3.9-12.25-8.66-15L110.78,2.82
	c-4.76-2.75-12.56-2.75-17.32,0L8.69,51.76c-4.76,2.75-8.66,9.5-8.66,15v97.88c0,5.5,3.9,12.25,8.66,15l84.77,48.94
	c4.76,2.75,12.56,2.75,17.32,0L195.55,179.65z"/>
<path class="st1" d="M139.75,107.33l1.5-1.5c0-21.58-17.56-39.13-39.13-39.13s-39.13,17.56-39.13,39.13l1.5,1.5h17.9l10.05,19.65
	H83.3l-1.5,1.5v34.74l1.5,1.5h38.16l1.5-1.5v-34.74l-1.5-1.5h-10.2l11.08-19.65H139.75z M138.22,104.33h-20.6
	c-0.22-15.28-3.75-28.05-8.88-34.02C125.03,73.34,137.53,87.33,138.22,104.33z M102.12,69.69c5.78,0,12.2,14.15,12.5,34.63h-25
	C89.92,83.84,96.34,69.69,102.12,69.69z M95.5,70.31c-5.13,5.96-8.67,18.74-8.88,34.02h-20.6C66.71,87.33,79.2,73.34,95.5,70.31z
	 M97.63,129.98h9.56v14.37h-9.56V129.98z M119.96,161.72H84.8v-31.74h9.82v15.87l1.5,1.5h12.56l1.5-1.5v-15.87h9.77V161.72z
	 M107.81,126.98H96.13H95.8l-10.05-19.65h33.14L107.81,126.98z"/>
</svg>
