<?xml version="1.0" encoding="utf-8"?>
<!-- Generator: Adobe Illustrator 23.0.1, SVG Export Plug-In . SVG Version: 6.00 Build 0)  -->
<svg version="1.1" id="레이어_1" xmlns="http://www.w3.org/2000/svg" xmlns:xlink="http://www.w3.org/1999/xlink" x="0px"
	 y="0px" viewBox="0 0 204 231" style="enable-background:new 0 0 204 231;" xml:space="preserve">
<style type="text/css">
	.st0{fill:#00BB5A;}
	.st1{fill:#FFFFFF;}
</style>
<path class="st0" d="M195.73,179.01c4.76-2.75,8.66-9.5,8.66-15V66.13c0-5.5-3.9-12.25-8.66-15L110.96,2.19
	c-4.76-2.75-12.56-2.75-17.32,0L8.87,51.13c-4.76,2.75-8.66,9.5-8.66,15v97.88c0,5.5,3.9,12.25,8.66,15l84.77,48.94
	c4.76,2.75,12.56,2.75,17.32,0L195.73,179.01z"/>
<path class="st1" d="M150.85,85.42l-48.42,28.77L54.01,85.42l-2.27,1.29v57.03l0.73,1.29l49.19,29.23l0.77-0.44l0.77,0.44
	l49.19-29.23l0.73-1.29V86.71L150.85,85.42z M150.12,109.02l-5.55,3.28v-7.41l-2.28-1.28l-31.37,19.16l-0.72,1.28v8.56l-6.26,3.7
	v-19.51l46.19-27.44V109.02z M141.57,114.07l-28.37,16.76v-5.94l28.37-17.33V114.07z M100.93,116.79v19.48l-5.91-3.57v-8.65
	l-0.72-1.28L62.93,103.6l-2.28,1.28v7.01l-5.91-3.57V89.34L100.93,116.79z M92.02,130.87l-28.37-17.17v-6.15l28.37,17.33V130.87z
	 M54.74,111.82l46.19,27.95v30.56l-46.19-27.45V111.82z M103.93,170.33v-30.55l46.19-27.28v30.38L103.93,170.33z"/>
</svg>
