<?xml version="1.0" encoding="utf-8"?>
<!-- Generator: Adobe Illustrator 23.0.1, SVG Export Plug-In . SVG Version: 6.00 Build 0)  -->
<svg version="1.1" id="레이어_1" xmlns="http://www.w3.org/2000/svg" xmlns:xlink="http://www.w3.org/1999/xlink" x="0px"
	 y="0px" viewBox="0 0 555.6 276.4" style="enable-background:new 0 0 555.6 276.4;" xml:space="preserve">
<style type="text/css">
	.st0{fill:#2160A5;}
	.st1{fill:#7C7C7C;}
	.st2{fill:#757575;}
	.st3{fill:#FFFFFF;}
</style>
<g>
	<path class="st0" d="M330.6,106.1c0.8-0.5,1.5-1.6,1.5-2.5V43.3c0-0.9-0.6-2-1.5-2.5l-52.2-30.1c-0.8-0.5-2.1-0.5-2.9,0l-52.2,30.1
		c-0.8,0.5-1.4,1.6-1.4,2.5v60.3c0,0.9,0.6,2.1,1.4,2.5l52.2,30.1c0.8,0.5,2.1,0.5,2.9,0L330.6,106.1z"/>
</g>
<g>
	<path class="st0" d="M277,141.8c-0.6,0-1.2-0.1-1.7-0.4L219,108.9c-0.9-0.6-1.7-1.8-1.7-2.9V41c0-1.1,0.8-2.4,1.7-3l56.3-32.5
		c1-0.6,2.5-0.6,3.4,0L335,38c1,0.5,1.7,1.8,1.7,3v65c0,1.1-0.8,2.4-1.7,2.9l-0.3-0.4l0.3,0.4l-56.3,32.5
		C278.2,141.7,277.6,141.8,277,141.8z M277,6.2c-0.4,0-0.9,0.1-1.2,0.3l-56.3,32.5c-0.6,0.4-1.2,1.3-1.2,2.1v65
		c0,0.7,0.6,1.7,1.2,2.1l56.3,32.5c0.6,0.4,1.8,0.4,2.4,0l56.3-32.5c0.6-0.4,1.2-1.3,1.2-2.1V41c0-0.7-0.6-1.7-1.2-2.1L278.2,6.4
		C277.9,6.2,277.5,6.2,277,6.2z"/>
</g>
<g>
	<path class="st1" d="M125.3,229.3c0.8-0.5,1.4-1.6,1.4-2.5v-60.3c0-0.9-0.7-2.1-1.4-2.5l-52.2-30.1c-0.8-0.5-2.1-0.5-2.9,0L18,164
		c-0.8,0.5-1.5,1.6-1.5,2.5v60.3c0,0.9,0.6,2.1,1.5,2.5l52.2,30.1c0.8,0.5,2.1,0.5,2.9,0L125.3,229.3z"/>
</g>
<g>
	<path class="st2" d="M71.7,264.9c-0.6,0-1.2-0.1-1.7-0.4L13.7,232c-0.9-0.6-1.7-1.8-1.7-2.9v-65c0-1.1,0.8-2.4,1.7-2.9L70,128.7
		c0.9-0.6,2.4-0.6,3.4,0l56.3,32.5c0.9,0.6,1.7,1.8,1.7,2.9v65c0,1.1-0.8,2.4-1.7,2.9l-0.3-0.4l0.3,0.4l-56.3,32.5
		C72.9,264.8,72.3,264.9,71.7,264.9z M71.7,129.3c-0.4,0-0.9,0.1-1.2,0.3l-56.3,32.5c-0.6,0.4-1.2,1.3-1.2,2.1v65
		c0,0.7,0.6,1.7,1.2,2.1l56.3,32.5c0.6,0.4,1.8,0.4,2.4,0l56.3-32.5c0.6-0.4,1.2-1.3,1.2-2.1v-65c0-0.7-0.6-1.7-1.2-2.1l-56.3-32.5
		C72.6,129.4,72.1,129.3,71.7,129.3z"/>
</g>
<g>
	<path class="st1" d="M262.4,229.3c0.8-0.5,1.5-1.6,1.5-2.5v-60.3c0-0.9-0.6-2.1-1.5-2.5l-52.2-30.1c-0.8-0.5-2.1-0.5-2.9,0
		L155.1,164c-0.8,0.5-1.4,1.6-1.4,2.5v60.3c0,0.9,0.6,2.1,1.4,2.5l52.2,30.1c0.8,0.5,2.1,0.5,2.9,0L262.4,229.3z"/>
</g>
<g>
	<path class="st2" d="M208.7,264.9c-0.6,0-1.2-0.1-1.7-0.4L150.8,232c-0.9-0.6-1.7-1.8-1.7-2.9v-65c0-1.1,0.8-2.4,1.7-2.9l56.3-32.5
		c0.9-0.6,2.4-0.6,3.4,0l56.3,32.5c1,0.6,1.7,1.8,1.7,2.9v65c0,1.1-0.8,2.4-1.7,2.9l-56.3,32.5C209.9,264.8,209.3,264.9,208.7,264.9
		z M208.7,129.3c-0.4,0-0.9,0.1-1.2,0.3l-56.3,32.5c-0.6,0.4-1.2,1.3-1.2,2.1v65c0,0.7,0.6,1.7,1.2,2.1l56.3,32.5
		c0.6,0.4,1.8,0.4,2.4,0l56.3-32.5c0.6-0.4,1.2-1.3,1.2-2.1v-65c0-0.7-0.6-1.7-1.2-2.1l-56.3-32.5
		C209.6,129.4,209.2,129.3,208.7,129.3z"/>
</g>
<g>
	<path class="st1" d="M399.3,229.3c0.8-0.5,1.5-1.6,1.5-2.5v-60.3c0-0.9-0.6-2.1-1.5-2.5l-52.2-30.1c-0.8-0.5-2.1-0.5-2.9,0L292,164
		c-0.8,0.5-1.5,1.6-1.5,2.5v60.3c0,0.9,0.6,2.1,1.5,2.5l52.2,30.1c0.8,0.5,2.1,0.5,2.9,0L399.3,229.3z"/>
</g>
<g>
	<path class="st2" d="M345.6,264.9c-0.6,0-1.2-0.1-1.7-0.4L287.7,232c-1-0.6-1.7-1.8-1.7-2.9v-65c0-1.1,0.8-2.4,1.7-2.9l56.3-32.5
		c1-0.6,2.5-0.6,3.4,0l56.3,32.5c1,0.6,1.7,1.8,1.7,2.9v65c0,1.1-0.8,2.4-1.7,2.9l-56.3,32.5C346.9,264.8,346.3,264.9,345.6,264.9z
		 M345.6,129.3c-0.4,0-0.9,0.1-1.2,0.3l-56.3,32.5c-0.6,0.4-1.2,1.3-1.2,2.1v65c0,0.7,0.6,1.7,1.2,2.1l56.3,32.5
		c0.6,0.4,1.8,0.4,2.4,0l56.3-32.5c0.6-0.4,1.2-1.3,1.2-2.1v-65c0-0.7-0.6-1.7-1.2-2.1l-56.3-32.5
		C346.5,129.4,346.1,129.3,345.6,129.3z"/>
</g>
<g>
	<path class="st1" d="M536,229.3c0.8-0.5,1.5-1.6,1.5-2.5v-60.3c0-0.9-0.7-2.1-1.5-2.5l-52.2-30.1c-0.8-0.5-2.1-0.5-2.9,0L428.7,164
		c-0.8,0.5-1.5,1.6-1.5,2.5v60.3c0,0.9,0.6,2.1,1.5,2.5l52.2,30.1c0.8,0.5,2.1,0.5,2.9,0L536,229.3z"/>
</g>
<g>
	<path class="st2" d="M482.4,264.9c-0.6,0-1.2-0.1-1.7-0.4L424.4,232c-1-0.6-1.7-1.8-1.7-2.9v-65c0-1.1,0.8-2.4,1.7-2.9l56.3-32.5
		c1-0.6,2.5-0.6,3.4,0l56.3,32.5c1,0.6,1.7,1.8,1.7,2.9v65c0,1.1-0.8,2.4-1.7,2.9l-56.3,32.5C483.6,264.8,483,264.9,482.4,264.9z
		 M482.4,129.3c-0.4,0-0.9,0.1-1.2,0.3l-56.3,32.5c-0.6,0.4-1.2,1.3-1.2,2.1v65c0,0.7,0.6,1.7,1.2,2.1l56.3,32.5
		c0.6,0.4,1.8,0.4,2.4,0l56.3-32.5c0.6-0.4,1.2-1.3,1.2-2.1v-65c0-0.7-0.6-1.7-1.2-2.1l-56.3-32.5
		C483.2,129.4,482.8,129.3,482.4,129.3z"/>
</g>
<g>
	<path class="st3" d="M251.1,45v2h-4.4v7h0.5c0.8,0,1.5,0,2.3-0.1c0.8,0,1.5-0.1,2.3-0.2l0.2,2c-0.8,0.1-1.6,0.2-2.4,0.3
		c-0.9,0-1.7,0.1-2.4,0.1h-2.9V45H251.1z M255.2,49.2h1.5v-5.9h2.3v17.3h-2.3v-9.4h-1.5v8.5h-2.3V43.7h2.3V49.2z"/>
	<path class="st3" d="M265,56.5v-3.2h-2.6v-2h2.2v-4.7h-2.1v-2h12.3v2h-2v4.7h2.2v2h-2.6v3.2h4.3v2h-15.8v-2H265z M267,51.3h3.5
		v-4.7H267V51.3z M267.3,56.5h2.7v-3.2h-2.7V56.5z"/>
	<path class="st3" d="M283,56.5c-0.8,0-1.5-0.1-2-0.4s-1-0.6-1.4-1c-0.4-0.5-0.6-1-0.8-1.6s-0.3-1.3-0.3-2v-2.1c0-0.7,0.1-1.4,0.3-2
		c0.2-0.6,0.4-1.1,0.8-1.6c0.4-0.5,0.8-0.8,1.4-1s1.2-0.4,2-0.4s1.5,0.1,2,0.4s1,0.6,1.4,1c0.4,0.5,0.6,1,0.8,1.6s0.3,1.3,0.3,2v2.1
		c0,0.7-0.1,1.4-0.3,2c-0.2,0.6-0.4,1.1-0.8,1.6c-0.4,0.5-0.8,0.8-1.4,1C284.5,56.4,283.8,56.5,283,56.5z M283,46.5
		c-0.8,0-1.4,0.3-1.7,0.8c-0.3,0.5-0.5,1.3-0.5,2.4v1.5c0,1,0.2,1.8,0.5,2.4c0.3,0.5,0.9,0.8,1.7,0.8s1.4-0.3,1.7-0.8
		c0.3-0.5,0.5-1.3,0.5-2.4v-1.5c0-1-0.2-1.8-0.5-2.4C284.4,46.8,283.8,46.5,283,46.5z M292.2,60.6h-2.4V43.3h2.4V60.6z"/>
	<path class="st3" d="M302.3,52c0.4,0.4,0.8,0.9,1.3,1.3c0.5,0.5,1,0.9,1.4,1.3l-1.5,1.6c-0.4-0.4-0.8-0.8-1.2-1.2
		c-0.4-0.4-0.8-0.8-1.1-1.1c-0.4-0.4-0.7-0.7-0.9-1c-0.3-0.3-0.4-0.5-0.5-0.7h0c-0.1,0.2-0.2,0.4-0.5,0.8s-0.6,0.7-0.9,1
		c-0.4,0.4-0.7,0.7-1.1,1.1c-0.4,0.4-0.8,0.8-1.4,1.3l-1.5-1.6c1-0.9,2-1.8,2.8-2.7c0.3-0.3,0.5-0.6,0.7-0.8
		c0.2-0.3,0.3-0.5,0.4-0.8c0.1-0.3,0.2-0.6,0.2-0.9c0-0.3,0.1-0.7,0.1-1v-4h2.4v4c0,0.4,0,0.7,0,1c0,0.3,0.1,0.6,0.2,0.8
		c0.1,0.3,0.2,0.5,0.4,0.8C301.7,51.5,302,51.7,302.3,52z M308.3,49.4h2.4v2h-2.4v9.1H306V43.3h2.4V49.4z"/>
</g>
<g>
	<path class="st3" d="M236.9,74.8c0.5-0.2,1-0.4,1.3-0.6c0.4-0.2,0.7-0.3,0.9-0.5s0.5-0.3,0.6-0.4c0.1-0.1,0.3-0.3,0.3-0.4
		s0.1-0.3,0.1-0.5c0-0.2,0-0.4,0-0.6v-0.5h-3.1v-0.6h3.8v1.2c0,0.4,0,0.8-0.1,1.1c-0.1,0.3-0.3,0.6-0.5,0.8s-0.7,0.5-1.2,0.8
		s-1.2,0.6-2,0.9L236.9,74.8z M241.4,75.6c0.4,0,0.7,0,1.1,0.1s0.6,0.2,0.9,0.3c0.3,0.1,0.4,0.3,0.6,0.5s0.2,0.4,0.2,0.7v0.4
		c0,0.3-0.1,0.5-0.2,0.7s-0.3,0.4-0.6,0.5s-0.5,0.3-0.9,0.3c-0.3,0.1-0.7,0.1-1.1,0.1c-0.4,0-0.7,0-1.1-0.1s-0.6-0.2-0.9-0.3
		c-0.3-0.2-0.4-0.3-0.6-0.5c-0.1-0.2-0.2-0.4-0.2-0.7v-0.4c0-0.3,0.1-0.5,0.2-0.7c0.1-0.2,0.3-0.4,0.6-0.5s0.5-0.3,0.9-0.3
		C240.7,75.6,241,75.6,241.4,75.6z M241.4,78.8c0.3,0,0.5,0,0.8-0.1s0.5-0.1,0.7-0.2s0.4-0.2,0.5-0.3c0.1-0.1,0.2-0.3,0.2-0.5v-0.3
		c0-0.2-0.1-0.3-0.2-0.5c-0.1-0.1-0.3-0.3-0.5-0.3c-0.2-0.1-0.4-0.2-0.7-0.2c-0.3-0.1-0.5-0.1-0.8-0.1c-0.3,0-0.5,0-0.8,0.1
		s-0.5,0.1-0.7,0.2s-0.4,0.2-0.5,0.3c-0.1,0.1-0.2,0.3-0.2,0.5v0.3c0,0.2,0.1,0.3,0.2,0.5c0.1,0.1,0.3,0.3,0.5,0.3
		c0.2,0.1,0.4,0.2,0.7,0.2C240.9,78.7,241.1,78.8,241.4,78.8z M243.4,71.5v-1.4h0.7v5.3h-0.7V74h-1.9v-0.6h1.9v-1.3h-1.8v-0.6
		L243.4,71.5L243.4,71.5z"/>
	<path class="st3" d="M248.1,74.8c-0.4,0-0.7-0.1-0.9-0.2c-0.3-0.1-0.5-0.3-0.7-0.4s-0.3-0.4-0.4-0.6c-0.1-0.2-0.1-0.4-0.1-0.7v-0.6
		c0-0.2,0.1-0.4,0.1-0.7c0.1-0.2,0.2-0.4,0.4-0.6c0.2-0.2,0.4-0.3,0.7-0.4c0.3-0.1,0.6-0.2,0.9-0.2c0.4,0,0.7,0.1,0.9,0.2
		c0.3,0.1,0.5,0.3,0.7,0.4c0.2,0.2,0.3,0.4,0.4,0.6c0.1,0.2,0.1,0.4,0.1,0.7v0.6c0,0.2-0.1,0.4-0.1,0.7c-0.1,0.2-0.2,0.4-0.4,0.6
		s-0.4,0.3-0.7,0.4S248.4,74.8,248.1,74.8z M248.1,71.1c-0.2,0-0.4,0-0.6,0.1s-0.4,0.2-0.5,0.3c-0.1,0.1-0.2,0.3-0.3,0.4
		c-0.1,0.2-0.1,0.3-0.1,0.5v0.4c0,0.2,0,0.4,0.1,0.5c0.1,0.2,0.2,0.3,0.3,0.4c0.1,0.1,0.3,0.2,0.5,0.3c0.2,0.1,0.4,0.1,0.6,0.1
		c0.2,0,0.4,0,0.6-0.1s0.4-0.2,0.5-0.3c0.1-0.1,0.2-0.3,0.3-0.4c0.1-0.2,0.1-0.3,0.1-0.5v-0.4c0-0.2,0-0.4-0.1-0.5
		c-0.1-0.2-0.2-0.3-0.3-0.4c-0.1-0.1-0.3-0.2-0.5-0.3C248.5,71.1,248.3,71.1,248.1,71.1z M250.4,75.6c0.4,0,0.7,0,1.1,0.1
		s0.6,0.2,0.9,0.3c0.3,0.1,0.4,0.3,0.6,0.5s0.2,0.4,0.2,0.7v0.4c0,0.3-0.1,0.5-0.2,0.7s-0.3,0.4-0.6,0.5s-0.5,0.3-0.9,0.3
		c-0.3,0.1-0.7,0.1-1.1,0.1c-0.4,0-0.7,0-1.1-0.1s-0.6-0.2-0.9-0.3c-0.3-0.2-0.4-0.3-0.6-0.5c-0.1-0.2-0.2-0.4-0.2-0.7v-0.4
		c0-0.3,0.1-0.5,0.2-0.7c0.1-0.2,0.3-0.4,0.6-0.5s0.5-0.3,0.9-0.3C249.7,75.6,250,75.6,250.4,75.6z M250.4,78.8c0.3,0,0.5,0,0.8-0.1
		s0.5-0.1,0.7-0.2s0.4-0.2,0.5-0.3c0.1-0.1,0.2-0.3,0.2-0.5v-0.3c0-0.2-0.1-0.3-0.2-0.5c-0.1-0.1-0.3-0.3-0.5-0.3
		c-0.2-0.1-0.4-0.2-0.7-0.2c-0.3-0.1-0.5-0.1-0.8-0.1c-0.3,0-0.5,0-0.8,0.1s-0.5,0.1-0.7,0.2s-0.4,0.2-0.5,0.3
		c-0.1,0.1-0.2,0.3-0.2,0.5v0.3c0,0.2,0.1,0.3,0.2,0.5c0.1,0.1,0.3,0.3,0.5,0.3c0.2,0.1,0.4,0.2,0.7,0.2
		C249.9,78.7,250.1,78.8,250.4,78.8z M252.4,71.3v-1.2h0.7v5.3h-0.7V74h-1.6v-0.6h1.6v-1.4h-1.6v-0.6L252.4,71.3L252.4,71.3z"/>
	<path class="st3" d="M260,71.5h-2V73c0,0.2,0,0.4,0,0.5c0,0.1,0,0.3,0.1,0.4c0,0.1,0.1,0.3,0.2,0.4c0.1,0.1,0.2,0.3,0.3,0.4
		c0.2,0.2,0.4,0.5,0.7,0.8s0.6,0.6,1,0.9l-0.5,0.5c-0.3-0.3-0.6-0.6-0.9-0.8s-0.5-0.5-0.7-0.7c-0.1-0.2-0.3-0.3-0.4-0.4
		s-0.2-0.2-0.2-0.3h0c0,0.1,0,0.1-0.1,0.2s-0.1,0.2-0.2,0.2s-0.1,0.2-0.2,0.3c-0.1,0.1-0.2,0.2-0.2,0.3c-0.1,0.1-0.1,0.2-0.3,0.3
		c-0.1,0.1-0.2,0.2-0.4,0.4c-0.1,0.1-0.3,0.3-0.4,0.4c-0.1,0.2-0.3,0.3-0.4,0.4l-0.5-0.5c0.3-0.3,0.6-0.6,0.9-0.8
		c0.3-0.3,0.5-0.5,0.8-0.8c0.2-0.2,0.3-0.3,0.4-0.5c0.1-0.1,0.2-0.3,0.2-0.4s0.1-0.3,0.1-0.4c0-0.1,0-0.3,0-0.5v-1.5h-2.1v-0.6h4.8
		L260,71.5L260,71.5z M262.1,79.1h-0.7v-9h0.7V79.1z"/>
	<path class="st3" d="M269.7,74.6c-0.2,0-0.5,0-0.7,0.1s-0.5,0-0.7,0.1c-0.2,0-0.5,0-0.7,0s-0.5,0-0.8,0v1.4h-0.7v-1.4
		c-0.3,0-0.7,0-1.1,0c-0.4,0-0.8,0-1.3,0v-0.6c0.7,0,1.3,0,1.9,0s1,0,1.5,0c0.5,0,0.9,0,1.3-0.1c0.4,0,0.8-0.1,1.2-0.1L269.7,74.6z
		 M266.5,73.6c-0.3,0-0.6,0-0.9-0.1c-0.3-0.1-0.5-0.2-0.7-0.3s-0.4-0.3-0.5-0.5c-0.1-0.2-0.2-0.4-0.2-0.6v-0.4
		c0-0.2,0.1-0.4,0.2-0.6c0.1-0.2,0.3-0.3,0.5-0.5c0.2-0.1,0.4-0.2,0.7-0.3c0.3-0.1,0.5-0.1,0.9-0.1c0.3,0,0.6,0,0.9,0.1
		c0.3,0.1,0.5,0.2,0.7,0.3s0.4,0.3,0.5,0.5s0.2,0.4,0.2,0.6v0.4c0,0.2-0.1,0.4-0.2,0.6s-0.3,0.3-0.5,0.5c-0.2,0.1-0.4,0.2-0.7,0.3
		C267.1,73.5,266.9,73.6,266.5,73.6z M266.5,70.8c-0.2,0-0.4,0-0.6,0.1s-0.3,0.1-0.5,0.2c-0.1,0.1-0.3,0.2-0.3,0.3
		c-0.1,0.1-0.1,0.2-0.1,0.4V72c0,0.1,0,0.3,0.1,0.4c0.1,0.1,0.2,0.2,0.3,0.3c0.1,0.1,0.3,0.2,0.5,0.2c0.2,0.1,0.4,0.1,0.6,0.1
		c0.2,0,0.4,0,0.6-0.1s0.4-0.1,0.5-0.2c0.1-0.1,0.3-0.2,0.3-0.3c0.1-0.1,0.1-0.2,0.1-0.4v-0.3c0-0.1,0-0.3-0.1-0.4s-0.2-0.2-0.3-0.3
		c-0.1-0.1-0.3-0.2-0.5-0.2C267,70.9,266.8,70.8,266.5,70.8z M266,78.4h5.3V79h-6v-2.4h0.7V78.4z M270.4,75.5v-5.4h0.7v7h-0.7v-1h-2
		v-0.6H270.4z"/>
	<path class="st3" d="M273.2,70.5h4.2v0.6h-3.5v1.2h3.4v0.6h-3.4v1.2c0.5,0,1,0,1.4,0c0.4,0,0.8,0,1.1,0c0.3,0,0.7,0,1-0.1
		c0.3,0,0.6-0.1,0.9-0.1l0.1,0.6c-0.3,0-0.6,0.1-0.9,0.1s-0.7,0-1.1,0.1s-0.9,0-1.4,0s-1.1,0-1.8,0L273.2,70.5L273.2,70.5z
		 M274.5,75.8h5.5v3.3h-5.5V75.8z M275.2,78.5h4.2v-2.1h-4.2V78.5z M280,75.2h-0.7v-5.2h0.7V75.2z"/>
	<path class="st3" d="M289.9,74.1v0.6h-8.3v-0.6H289.9z M288.6,75.5v2.1h-5.1v1h5.4v0.6h-6.1V77h5.1v-0.9h-5.2v-0.6H288.6z
		 M288.5,72c0,0.2-0.1,0.4-0.2,0.6s-0.3,0.3-0.6,0.5c-0.3,0.1-0.5,0.2-0.9,0.3s-0.7,0.1-1.1,0.1c-0.4,0-0.8,0-1.1-0.1
		c-0.4-0.1-0.6-0.2-0.9-0.3c-0.3-0.1-0.5-0.3-0.6-0.5s-0.2-0.4-0.2-0.6v-0.3c0-0.2,0.1-0.4,0.2-0.6c0.1-0.2,0.3-0.3,0.6-0.5
		c0.3-0.1,0.5-0.2,0.9-0.3c0.4-0.1,0.7-0.1,1.1-0.1c0.4,0,0.8,0,1.1,0.1c0.4,0.1,0.6,0.2,0.9,0.3c0.3,0.1,0.5,0.3,0.6,0.5
		c0.1,0.2,0.2,0.4,0.2,0.6V72z M283.6,71.9c0,0.1,0.1,0.3,0.2,0.4c0.1,0.1,0.3,0.2,0.5,0.3c0.2,0.1,0.4,0.2,0.7,0.2
		c0.3,0.1,0.5,0.1,0.8,0.1s0.6,0,0.8-0.1s0.5-0.1,0.7-0.2s0.4-0.2,0.5-0.3c0.1-0.1,0.2-0.2,0.2-0.4v-0.2c0-0.1-0.1-0.3-0.2-0.4
		c-0.1-0.1-0.3-0.2-0.5-0.3c-0.2-0.1-0.4-0.2-0.7-0.2c-0.3-0.1-0.5-0.1-0.8-0.1s-0.6,0-0.8,0.1s-0.5,0.1-0.7,0.2
		c-0.2,0.1-0.4,0.2-0.5,0.3s-0.2,0.2-0.2,0.4V71.9z"/>
	<path class="st3" d="M298.8,74.1c-0.4,0-0.9,0.1-1.3,0.1c-0.5,0-0.9,0-1.4,0.1s-0.9,0-1.4,0s-1,0-1.4,0v-0.6h1v-2.6h-0.9v-0.6h5
		v0.6h-1v2.5c0.2,0,0.5,0,0.7,0s0.5,0,0.7-0.1L298.8,74.1z M294.9,73.6c0.6,0,1.2,0,1.8,0v-2.5h-1.8V73.6z M300.5,75.1v2.3h-4.9v1.1
		h5.1v0.6H295v-2.3h4.9v-1.1h-4.9v-0.6H300.5z M300.5,74.6h-0.7v-4.5h0.7V74.6z"/>
	<path class="st3" d="M310.4,75.4V76h-3.8v3.2h-0.7V76H302v-0.6H310.4z M309.2,74h-6v-3.4h5.9v0.6H304v2.2h5.3V74z"/>
	<path class="st3" d="M318.1,70.8v2.7h-5.1v1.5h5.4v0.6h-2.8v1.7h3.8v0.6H311v-0.6h3.8v-1.7h-2.6v-2.7h5.1v-1.5h-5.2v-0.6
		L318.1,70.8L318.1,70.8z"/>
	<path class="st3" d="M241.3,89c0.5-0.2,1-0.4,1.3-0.6c0.4-0.2,0.7-0.3,0.9-0.5c0.3-0.2,0.4-0.3,0.6-0.4c0.1-0.1,0.3-0.3,0.4-0.4
		s0.1-0.3,0.1-0.5c0-0.2,0-0.4,0-0.6v-0.5h-3.1v-0.6h3.8V86c0,0.3,0,0.5-0.1,0.8c0,0.2-0.1,0.4-0.2,0.6c-0.1,0.2-0.2,0.4-0.4,0.5
		c-0.2,0.2-0.4,0.3-0.7,0.5s-0.6,0.3-1,0.5c-0.4,0.2-0.9,0.4-1.4,0.6L241.3,89z M242.5,90.1h5.7v3.3h-0.7v-2.7h-5L242.5,90.1
		L242.5,90.1z M248.1,86.5h1.4v0.6h-1.4v2.4h-0.7v-5.2h0.7V86.5z"/>
	<path class="st3" d="M258.4,89.7v0.6h-3.8v3h-0.7v-3h-3.8v-0.6H258.4z M257.1,84.7v3.9h-5.9v-3.9h0.7V86h4.5v-1.3H257.1z
		 M256.5,87.9v-1.3H252v1.3H256.5z"/>
	<path class="st3" d="M260.7,89c0.2-0.2,0.3-0.3,0.4-0.5c0.1-0.1,0.2-0.3,0.2-0.4c0-0.1,0.1-0.3,0.1-0.4c0-0.2,0-0.3,0-0.5V85h0.7
		v2.1c0,0.2,0,0.4,0,0.5c0,0.1,0,0.3,0.1,0.4c0,0.1,0.1,0.3,0.2,0.4c0.1,0.1,0.2,0.3,0.3,0.4c0.2,0.2,0.4,0.5,0.7,0.8s0.6,0.6,1,0.9
		l-0.5,0.4c-0.3-0.3-0.6-0.6-0.9-0.8c-0.3-0.3-0.5-0.5-0.7-0.7c-0.1-0.2-0.3-0.3-0.4-0.4s-0.2-0.3-0.2-0.3h0c0,0,0,0.1-0.1,0.2
		s-0.1,0.2-0.2,0.2c-0.1,0.1-0.1,0.2-0.2,0.3c-0.1,0.1-0.1,0.2-0.2,0.3c-0.1,0.1-0.2,0.2-0.3,0.3c-0.1,0.1-0.3,0.3-0.4,0.4
		s-0.3,0.3-0.4,0.4c-0.1,0.2-0.3,0.3-0.4,0.4l-0.5-0.5c0.3-0.3,0.6-0.6,0.9-0.8C260.2,89.5,260.5,89.2,260.7,89z M266.6,93.3h-0.7
		v-5.5h-2.1v-0.6h2.1v-2.9h0.7V93.3z"/>
	<path class="st3" d="M276.4,88.2v0.6h-8.3v-0.6H276.4z M275.1,89.7v2.1H270v1h5.4v0.6h-6.1v-2.1h5.1v-1h-5.2v-0.6H275.1z
		 M275.1,85.2H270v1.6h5.1v0.6h-5.8v-2.8h5.8V85.2z"/>
	<path class="st3" d="M282.5,85.3h2.3v0.6h-5.2v-0.6h2.2v-1.1h0.7L282.5,85.3L282.5,85.3z M282.2,89.4c-0.4,0-0.6,0-0.9-0.1
		s-0.5-0.2-0.6-0.3s-0.3-0.3-0.4-0.4c-0.1-0.2-0.1-0.3-0.1-0.5v-0.3c0-0.2,0-0.3,0.1-0.5c0.1-0.2,0.2-0.3,0.4-0.4s0.4-0.2,0.6-0.3
		c0.3-0.1,0.6-0.1,0.9-0.1s0.6,0,0.9,0.1s0.5,0.2,0.6,0.3s0.3,0.3,0.4,0.4c0.1,0.2,0.1,0.3,0.1,0.5V88c0,0.2,0,0.3-0.1,0.5
		c-0.1,0.2-0.2,0.3-0.4,0.4s-0.4,0.2-0.6,0.3C282.9,89.4,282.5,89.4,282.2,89.4z M282.2,86.9c-0.2,0-0.4,0-0.6,0.1
		c-0.2,0.1-0.3,0.1-0.4,0.2c-0.1,0.1-0.2,0.2-0.3,0.3c-0.1,0.1-0.1,0.2-0.1,0.3V88c0,0.1,0,0.2,0.1,0.3c0.1,0.1,0.1,0.2,0.3,0.3
		c0.1,0.1,0.3,0.2,0.4,0.2c0.2,0.1,0.4,0.1,0.6,0.1s0.4,0,0.6-0.1c0.2-0.1,0.3-0.1,0.4-0.2c0.1-0.1,0.2-0.2,0.3-0.3
		c0.1-0.1,0.1-0.2,0.1-0.3v-0.2c0-0.1,0-0.2-0.1-0.3c-0.1-0.1-0.1-0.2-0.3-0.3c-0.1-0.1-0.3-0.2-0.4-0.2
		C282.6,86.9,282.4,86.9,282.2,86.9z M287,89.9v3.4h-5.5v-3.4h0.7V91h4.1v-1.1H287z M286.4,92.7v-1.2h-4.1v1.2H286.4z M286.4,86.5
		v-2.2h0.7v5.1h-0.7v-0.7h-1.5v-0.6h1.5v-1h-1.5v-0.6L286.4,86.5L286.4,86.5z"/>
	<path class="st3" d="M288.9,86.4c0-0.2,0-0.4,0.2-0.7c0.1-0.2,0.3-0.4,0.5-0.6s0.4-0.3,0.7-0.4c0.3-0.1,0.6-0.2,0.9-0.2
		c0.3,0,0.6,0.1,0.9,0.1c0.3,0.1,0.5,0.2,0.7,0.4c0.2,0.2,0.3,0.3,0.5,0.6c0.1,0.2,0.2,0.4,0.2,0.6h2.1v-2.1h0.7v4.6h-0.7V87h-2.1
		c0,0.2-0.1,0.4-0.2,0.7s-0.3,0.4-0.5,0.6c-0.2,0.2-0.4,0.3-0.7,0.4c-0.3,0.1-0.6,0.2-0.9,0.2c-0.3,0-0.6-0.1-0.9-0.2
		s-0.5-0.2-0.7-0.4c-0.2-0.2-0.3-0.4-0.5-0.6c-0.1-0.2-0.2-0.4-0.2-0.7L288.9,86.4L288.9,86.4z M292.6,86.5c0-0.2,0-0.3-0.1-0.5
		c-0.1-0.2-0.2-0.3-0.3-0.4s-0.3-0.2-0.5-0.3s-0.4-0.1-0.6-0.1s-0.4,0-0.6,0.1c-0.2,0.1-0.4,0.2-0.5,0.3c-0.1,0.1-0.3,0.3-0.3,0.4
		c-0.1,0.2-0.1,0.3-0.1,0.5v0.3c0,0.2,0,0.3,0.1,0.5c0.1,0.2,0.2,0.3,0.3,0.4s0.3,0.2,0.5,0.3s0.4,0.1,0.6,0.1s0.4,0,0.6-0.1
		c0.2-0.1,0.4-0.2,0.5-0.3c0.1-0.1,0.3-0.3,0.3-0.4c0.1-0.2,0.1-0.3,0.1-0.5V86.5z M296,89.5v3.9h-5.5v-3.9h0.7v1.3h4.1v-1.3H296z
		 M295.3,92.7v-1.4h-4.1v1.4H295.3z"/>
	<path class="st3" d="M302.3,88.5c0,0.8-0.2,1.5-0.6,1.9c-0.4,0.5-0.9,0.7-1.6,0.7s-1.2-0.2-1.6-0.7c-0.4-0.5-0.6-1.1-0.6-1.9v-0.9
		c0-0.8,0.2-1.5,0.6-1.9c0.4-0.5,0.9-0.7,1.6-0.7s1.2,0.2,1.6,0.7c0.4,0.5,0.6,1.1,0.6,1.9V88.5z M301.6,87.7c0-0.4,0-0.7-0.1-1
		c-0.1-0.3-0.2-0.5-0.3-0.7c-0.1-0.2-0.3-0.3-0.5-0.4s-0.4-0.1-0.6-0.1s-0.4,0-0.6,0.1c-0.2,0.1-0.4,0.2-0.5,0.4
		c-0.1,0.2-0.2,0.4-0.3,0.7c-0.1,0.3-0.1,0.6-0.1,1v0.7c0,0.4,0,0.7,0.1,1s0.2,0.5,0.3,0.7c0.1,0.2,0.3,0.3,0.5,0.4s0.4,0.1,0.6,0.1
		s0.4,0,0.6-0.1c0.2-0.1,0.4-0.2,0.5-0.4c0.1-0.2,0.2-0.4,0.3-0.7s0.1-0.6,0.1-1V87.7z M304.6,87.7h1.5v0.6h-1.5v5h-0.7v-9h0.7V87.7
		z"/>
	<path class="st3" d="M307.6,90.4h0.7c0.2,0,0.4,0,0.6,0c0.2,0,0.4,0,0.6,0c0.2,0,0.4,0,0.6-0.1c0.2,0,0.5-0.1,0.7-0.1l0.1,0.6
		c-0.5,0.1-1,0.1-1.5,0.2c-0.5,0-0.9,0-1.3,0H307v-3.3h2.6v-2H307v-0.6h3.3v3.2h-2.6L307.6,90.4L307.6,90.4z M312.3,87.7h1.3v-3.3
		h0.7v9h-0.7v-5.1h-1.3v4.6h-0.7v-8.4h0.7V87.7z"/>
	<path class="st3" d="M262.9,103.1v-1h0.7v1h3.8v0.6h-8.3v-0.6H262.9z M263.2,101c-0.1,0.2-0.5,0.4-1.1,0.7c-0.3,0.1-0.6,0.2-1,0.4
		s-0.7,0.3-1.1,0.4l-0.3-0.6c0.5-0.1,0.9-0.3,1.2-0.4c0.4-0.1,0.6-0.2,0.9-0.3c0.2-0.1,0.4-0.2,0.5-0.2c0.1-0.1,0.2-0.2,0.3-0.3
		c0.1-0.1,0.1-0.2,0.2-0.3c0-0.1,0-0.2,0-0.3v-0.1h-2.7v-0.6h2.7v-0.9h0.7v0.9h2.8v0.6h-2.8v0.1c0,0.1,0,0.2,0,0.3s0.1,0.2,0.2,0.3
		c0.1,0.1,0.2,0.2,0.3,0.3s0.3,0.2,0.5,0.2c0.3,0.1,0.5,0.2,0.9,0.3c0.4,0.1,0.8,0.2,1.2,0.4l-0.3,0.6c-0.4-0.1-0.8-0.3-1.1-0.4
		c-0.3-0.1-0.6-0.2-1-0.4C263.7,101.4,263.4,101.2,263.2,101L263.2,101z M263.3,104.4c0.4,0,0.7,0,1.1,0.1s0.6,0.2,0.9,0.3
		c0.3,0.1,0.5,0.3,0.6,0.5c0.1,0.2,0.2,0.4,0.2,0.7v0.3c0,0.3-0.1,0.5-0.2,0.7c-0.2,0.2-0.4,0.3-0.6,0.5c-0.3,0.1-0.6,0.2-0.9,0.3
		c-0.3,0.1-0.7,0.1-1.1,0.1s-0.7,0-1.1-0.1s-0.6-0.2-0.9-0.3c-0.3-0.1-0.5-0.3-0.6-0.5s-0.2-0.4-0.2-0.7V106c0-0.3,0.1-0.5,0.2-0.7
		c0.1-0.2,0.4-0.4,0.6-0.5c0.3-0.1,0.6-0.2,0.9-0.3C262.5,104.4,262.9,104.4,263.3,104.4z M263.3,107.2c0.3,0,0.5,0,0.8-0.1
		s0.5-0.1,0.7-0.2s0.4-0.2,0.5-0.3c0.1-0.1,0.2-0.3,0.2-0.4V106c0-0.2-0.1-0.3-0.2-0.4c-0.1-0.1-0.3-0.2-0.5-0.3
		c-0.2-0.1-0.4-0.2-0.7-0.2s-0.5-0.1-0.8-0.1c-0.3,0-0.5,0-0.8,0.1c-0.3,0-0.5,0.1-0.7,0.2c-0.2,0.1-0.4,0.2-0.5,0.3
		c-0.1,0.1-0.2,0.3-0.2,0.4v0.2c0,0.2,0.1,0.3,0.2,0.4s0.3,0.2,0.5,0.3c0.2,0.1,0.4,0.1,0.7,0.2C262.7,107.2,263,107.2,263.3,107.2z
		"/>
	<path class="st3" d="M273.9,102.8c-0.3,0-0.6,0.1-1,0.1s-0.8,0.1-1.2,0.1s-1,0-1.6,0s-1.3,0-2,0v-0.6c0.4,0,0.7,0,1,0s0.6,0,0.9,0
		v-1.7h0.7v1.7c0.4,0,0.7,0,1,0c0.3,0,0.6,0,0.8,0c0.3,0,0.5,0,0.7-0.1c0.2,0,0.4,0,0.6-0.1L273.9,102.8z M273.1,98.9v0.9
		c0,0.4,0,0.7,0,1.1c0,0.3-0.1,0.6-0.1,0.8l-0.7-0.1c0.1-0.3,0.1-0.6,0.1-0.8c0-0.3,0-0.6,0-0.9v-0.4h-3.7v-0.6
		C268.7,98.9,273.1,98.9,273.1,98.9z M275.3,103.8v2.2h-5v1h5.3v0.6h-6v-2.2h5v-1h-5.1v-0.6H275.3z M275.3,100.5h1.4v0.6h-1.4v2.2
		h-0.7v-4.8h0.7V100.5z"/>
	<path class="st3" d="M277.6,105.7h0.9l-0.7,2.2h-0.6L277.6,105.7z"/>
	<path class="st3" d="M287.4,100h-2v1.4c0,0.2,0,0.4,0,0.5c0,0.1,0,0.3,0.1,0.4c0,0.1,0.1,0.3,0.2,0.4c0.1,0.1,0.2,0.3,0.3,0.4
		c0.2,0.2,0.4,0.5,0.7,0.8s0.6,0.6,1,0.9l-0.5,0.5c-0.3-0.3-0.6-0.6-0.9-0.8s-0.5-0.5-0.7-0.7c-0.1-0.2-0.3-0.3-0.4-0.4
		s-0.2-0.2-0.2-0.3h0c0,0.1,0,0.1-0.1,0.2s-0.1,0.2-0.2,0.2s-0.1,0.2-0.2,0.3c-0.1,0.1-0.2,0.2-0.2,0.3c-0.1,0.1-0.2,0.2-0.3,0.3
		c-0.1,0.1-0.2,0.2-0.4,0.4c-0.1,0.1-0.3,0.3-0.4,0.4s-0.3,0.3-0.5,0.4l-0.5-0.5c0.3-0.3,0.6-0.6,0.9-0.8c0.3-0.3,0.5-0.5,0.8-0.8
		c0.2-0.2,0.3-0.3,0.4-0.5c0.1-0.1,0.2-0.3,0.2-0.4s0.1-0.3,0.1-0.4c0-0.1,0-0.3,0-0.5V100h-2.1v-0.6h4.8L287.4,100L287.4,100z
		 M289.5,107.6h-0.7v-9h0.7V107.6z"/>
	<path class="st3" d="M297.2,104.3c-0.4,0.1-0.9,0.1-1.3,0.1c-0.5,0-1,0.1-1.5,0.1v2.8h-0.7v-2.7c-0.4,0-0.7,0-1.1,0s-0.9,0-1.4,0
		v-0.6c0.7,0,1.4,0,2,0c0.6,0,1.1,0,1.6,0c0.5,0,0.9,0,1.3-0.1c0.4,0,0.8-0.1,1.1-0.1L297.2,104.3z M294.4,99.3h2.2v0.6h-5.2v-0.6
		h2.3v-0.9h0.7V99.3z M294.1,103.3c-0.3,0-0.6,0-0.9-0.1c-0.3-0.1-0.5-0.2-0.7-0.3c-0.2-0.1-0.3-0.3-0.5-0.4
		c-0.1-0.2-0.2-0.3-0.2-0.5v-0.3c0-0.2,0-0.4,0.2-0.6c0.1-0.2,0.3-0.3,0.5-0.4c0.2-0.1,0.4-0.2,0.7-0.3c0.3-0.1,0.5-0.1,0.9-0.1
		s0.6,0,0.9,0.1c0.3,0.1,0.5,0.2,0.7,0.3c0.2,0.1,0.3,0.3,0.4,0.4c0.1,0.2,0.2,0.3,0.2,0.5v0.3c0,0.2,0,0.4-0.2,0.5
		c-0.1,0.2-0.3,0.3-0.4,0.4c-0.2,0.1-0.4,0.2-0.7,0.3C294.7,103.3,294.4,103.3,294.1,103.3z M294.1,101c-0.2,0-0.4,0-0.6,0.1
		s-0.3,0.1-0.5,0.2s-0.2,0.2-0.3,0.3c-0.1,0.1-0.1,0.2-0.1,0.3v0.2c0,0.1,0,0.2,0.1,0.3c0.1,0.1,0.2,0.2,0.3,0.3
		c0.1,0.1,0.3,0.1,0.5,0.2s0.4,0.1,0.6,0.1c0.2,0,0.4,0,0.6-0.1s0.3-0.1,0.5-0.2s0.2-0.2,0.3-0.3c0.1-0.1,0.1-0.2,0.1-0.3v-0.2
		c0-0.1,0-0.2-0.1-0.3c-0.1-0.1-0.2-0.2-0.3-0.3c-0.1-0.1-0.3-0.1-0.5-0.2C294.5,101,294.3,101,294.1,101z M298.6,107.6h-0.7v-9h0.7
		V107.6z"/>
</g>
<g>
	<path class="st3" d="M58.8,194.2c0,0.6,0,1.1-0.2,1.6c-0.1,0.4-0.3,0.9-0.6,1.3s-0.7,0.9-1.3,1.3c-0.5,0.5-1.3,1-2.2,1.6l-1-1.3
		c0.8-0.5,1.4-1,1.9-1.4c0.5-0.4,0.8-0.7,1.1-1.1c0.2-0.3,0.4-0.7,0.5-1.1c0.1-0.4,0.1-0.8,0.1-1.3v-1.2h-3.2v-1.5h4.9V194.2z
		 M61.7,194.4h1.2v-4.3h1.6v12.6h-1.6v-6.8h-1.2v6.2h-1.6v-11.7h1.6V194.4z"/>
	<path class="st3" d="M72.4,196.1h-6v-5.6h1.7v1.6h2.6v-1.6h1.7L72.4,196.1L72.4,196.1z M75.9,197v3.5h-6.2v0.9h6.6v1.4H68v-3.6h6.2
		v-0.9H68V197L75.9,197L75.9,197z M68.1,194.7h2.6v-1.3h-2.6V194.7z M75.9,192.5h1.7v1.5h-1.7v2.5h-1.7v-6.3h1.7V192.5z"/>
	<path class="st3" d="M85.1,190.7v1.4h-4.4v1h4.2v1.4h-4.2v1c1,0,1.9,0,2.7,0c0.9,0,1.8-0.1,2.7-0.2l0.2,1.4
		c-0.4,0.1-0.9,0.1-1.3,0.1c-0.5,0-1,0.1-1.6,0.1c-0.6,0-1.2,0-1.9,0c-0.7,0-1.5,0-2.3,0v-6.2L85.1,190.7L85.1,190.7z M80.7,197.9h8
		v4.9h-8V197.9z M82.4,201.3H87v-2h-4.6V201.3z M88.7,197.3H87v-7.2h1.7V197.3z"/>
</g>
<g>
	<path class="st3" d="M196.2,196.5c0.3,0.3,0.6,0.6,0.9,1c0.3,0.3,0.7,0.7,1,1l-1.1,1.1c-0.3-0.3-0.6-0.6-0.9-0.9s-0.6-0.6-0.8-0.8
		c-0.3-0.3-0.5-0.5-0.7-0.7c-0.2-0.2-0.3-0.4-0.3-0.5h0c-0.1,0.1-0.2,0.3-0.4,0.6s-0.4,0.5-0.6,0.7c-0.3,0.3-0.5,0.5-0.8,0.8
		s-0.6,0.6-1,0.9l-1.1-1.2c0.8-0.7,1.4-1.4,2-2c0.2-0.2,0.4-0.4,0.5-0.6s0.2-0.4,0.3-0.6s0.1-0.4,0.2-0.6s0.1-0.5,0.1-0.8V191h1.8
		v2.9c0,0.3,0,0.5,0,0.7s0.1,0.4,0.1,0.6c0.1,0.2,0.2,0.4,0.3,0.6C195.9,196,196,196.2,196.2,196.5z M200.6,194.6h1.7v1.5h-1.7v6.7
		h-1.7v-12.6h1.7V194.6z"/>
	<path class="st3" d="M206.4,196.4c-0.5,0-1-0.1-1.4-0.2s-0.7-0.4-1-0.6c-0.3-0.3-0.5-0.6-0.6-0.9s-0.2-0.7-0.2-1v-0.4
		c0-0.4,0.1-0.7,0.2-1c0.1-0.3,0.3-0.6,0.6-0.9c0.3-0.3,0.6-0.5,1-0.6c0.4-0.1,0.9-0.2,1.4-0.2c0.5,0,0.9,0.1,1.2,0.2
		c0.4,0.1,0.7,0.3,0.9,0.5s0.5,0.4,0.6,0.7s0.3,0.6,0.3,0.9h2.1v-2.6h1.7v6.5h-1.7v-2.4h-2.1c-0.1,0.3-0.2,0.6-0.3,0.9
		c-0.2,0.3-0.4,0.5-0.6,0.7c-0.3,0.2-0.6,0.4-0.9,0.5C207.3,196.4,206.9,196.4,206.4,196.4z M206.4,192c-0.3,0-0.5,0-0.7,0.1
		c-0.2,0.1-0.4,0.2-0.5,0.3s-0.2,0.3-0.3,0.4s-0.1,0.3-0.1,0.5v0.3c0,0.2,0,0.3,0.1,0.5c0.1,0.2,0.2,0.3,0.3,0.4
		c0.1,0.1,0.3,0.2,0.5,0.3s0.4,0.1,0.7,0.1s0.5,0,0.7-0.1c0.2-0.1,0.4-0.2,0.5-0.3s0.2-0.3,0.3-0.4s0.1-0.3,0.1-0.5v-0.3
		c0-0.2,0-0.3-0.1-0.5c-0.1-0.2-0.2-0.3-0.3-0.4c-0.1-0.1-0.3-0.2-0.5-0.3C206.9,192,206.7,192,206.4,192z M213.4,197.2v5.6h-8v-5.6
		h1.7v1.4h4.6v-1.4H213.4z M211.7,201.3V200h-4.6v1.3H211.7z"/>
	<path class="st3" d="M222.1,190.7v1.4h-4.4v1h4.2v1.4h-4.2v1c1,0,1.9,0,2.7,0c0.9,0,1.8-0.1,2.6-0.2l0.1,1.4
		c-0.4,0.1-0.9,0.1-1.4,0.1c-0.5,0-1,0.1-1.6,0.1s-1.2,0-1.9,0c-0.7,0-1.5,0-2.4,0v-6.2L222.1,190.7L222.1,190.7z M217.8,197.9h8
		v4.9h-8V197.9z M219.4,201.3h4.6v-2h-4.6V201.3z M225.8,197.3H224v-7.2h1.7V197.3z"/>
</g>
<g>
	<path class="st3" d="M332.9,195.5v1.3h-11.5v-1.3H332.9z M331.5,190.4v1.3h-1.5v1.8h1.5v1.3h-8.9v-1.3h1.5v-1.8h-1.5v-1.3H331.5z
		 M331.3,197.6v3.2h-6.7v0.7h7v1.3H323v-3.2h6.7v-0.7h-6.8v-1.3H331.3z M325.9,193.5h2.5v-1.8h-2.5V193.5z"/>
	<path class="st3" d="M337.3,193.4v-1.2H334v-1.4h4.9v3.9h-3.3v1.2c0.7,0,1.3,0,2,0c0.7,0,1.3-0.1,1.9-0.1l0.2,1.3
		c-0.6,0.1-1.3,0.1-2.2,0.2c-0.9,0-2,0.1-3.4,0.1v-3.9L337.3,193.4L337.3,193.4z M340,200.6c0,0.1-0.2,0.3-0.4,0.4s-0.5,0.3-0.9,0.5
		c-0.4,0.2-0.9,0.4-1.4,0.7c-0.5,0.2-1,0.4-1.4,0.6l-0.7-1.4c0.5-0.2,1-0.4,1.5-0.7c0.5-0.2,1-0.5,1.4-0.7c0.3-0.2,0.5-0.4,0.7-0.6
		c0.1-0.2,0.2-0.5,0.2-0.9v-0.9h1.7v0.9c0,0.3,0.1,0.6,0.2,0.9c0.1,0.2,0.4,0.4,0.7,0.6c0.2,0.1,0.4,0.2,0.6,0.3
		c0.2,0.1,0.5,0.2,0.8,0.4c0.3,0.1,0.5,0.2,0.8,0.4c0.3,0.1,0.5,0.2,0.8,0.3l-0.7,1.4c-0.5-0.2-1-0.4-1.4-0.6s-0.9-0.4-1.3-0.6
		c-0.4-0.2-0.6-0.4-0.9-0.5C340.2,200.9,340.1,200.8,340,200.6L340,200.6L340,200.6z M341.8,193.1h1v-3h1.6v8.3h-1.6v-3.8h-1v2.6
		h-1.6v-6.9h1.6V193.1z"/>
	<path class="st3" d="M356.2,190.5v1.3h-1.5v2h1.5v1.3h-3.6v0.9h4.9v1.4H346v-1.4h4.9v-0.9h-3.6v-1.3h1.5v-2h-1.5v-1.3H356.2z
		 M347.6,198.3h8.3v4.4h-8.3V198.3z M349.3,201.3h4.9v-1.6h-4.9V201.3z M350.6,193.8h2.5v-2h-2.5V193.8z"/>
	<path class="st3" d="M365.2,190.7v1.4h-4.4v1h4.2v1.4h-4.2v1c1,0,1.9,0,2.7,0c0.9,0,1.8-0.1,2.6-0.2l0.1,1.4
		c-0.4,0.1-0.9,0.1-1.4,0.1c-0.5,0-1,0.1-1.6,0.1s-1.2,0-1.9,0c-0.7,0-1.5,0-2.4,0v-6.2L365.2,190.7L365.2,190.7z M360.8,197.9h8
		v4.9h-8V197.9z M362.5,201.3h4.6v-2h-4.6V201.3z M368.8,197.3h-1.7v-7.2h1.7V197.3z"/>
</g>
<g>
	<path class="st3" d="M464.6,196.9c0.7-0.3,1.3-0.5,1.8-0.7c0.5-0.2,0.9-0.4,1.2-0.5c0.3-0.2,0.6-0.3,0.8-0.4s0.3-0.3,0.4-0.4
		l-4.1,0.1l0-1.4l4.3-0.1v-1.2H465v-1.4h5.6v2.6h2.4v-3.3h1.7v9H473v-4.2h-2.6c-0.1,0.3-0.3,0.6-0.5,0.9s-0.6,0.6-1,0.8
		c-0.4,0.3-0.9,0.5-1.5,0.8c-0.6,0.3-1.4,0.6-2.2,0.9L464.6,196.9z M468.4,201.1h6.5v1.5h-8.2v-4.2h1.7V201.1z"/>
	<path class="st3" d="M480.4,194.2c0,0.1-0.1,0.3-0.3,0.4s-0.4,0.4-0.6,0.5c-0.3,0.2-0.6,0.5-0.9,0.7c-0.3,0.3-0.7,0.5-1.1,0.8
		l-1-1.3c0.4-0.3,0.8-0.6,1.1-0.8c0.3-0.2,0.6-0.5,0.9-0.8c0.3-0.3,0.6-0.6,0.7-0.9c0.1-0.3,0.2-0.7,0.2-1.1v-1.5h1.7v1.5
		c0,0.2,0,0.4,0,0.6s0.1,0.3,0.1,0.5s0.2,0.3,0.3,0.4s0.3,0.3,0.5,0.4c0.1,0.1,0.2,0.2,0.4,0.3s0.3,0.2,0.5,0.3
		c0.2,0.1,0.3,0.2,0.5,0.4c0.2,0.1,0.4,0.2,0.5,0.3l-1,1.2c-0.6-0.4-1.1-0.8-1.7-1.2c-0.3-0.2-0.5-0.4-0.6-0.5
		C480.6,194.5,480.5,194.4,480.4,194.2L480.4,194.2L480.4,194.2z M487,197v3.6h-6.2v0.9h6.6v1.4h-8.3v-3.6h6.2v-0.9h-6.3V197H487z
		 M485.3,193.6h-2.2v-1.4h2.2v-2h1.7v6.3h-1.7V193.6z"/>
	<path class="st3" d="M495.8,190.7v1.4h-4.4v1.1h4.2v1.4h-4.2v1.1c1,0,1.9,0,2.7,0c0.9,0,1.8-0.1,2.6-0.2l0.1,1.4
		c-0.4,0.1-0.9,0.1-1.4,0.1c-0.5,0-1,0.1-1.6,0.1s-1.2,0-1.9,0c-0.7,0-1.5,0-2.4,0v-6.4L495.8,190.7L495.8,190.7z M495.5,203.1
		c-0.6,0-1.1-0.1-1.6-0.2c-0.5-0.1-0.9-0.3-1.2-0.5s-0.6-0.5-0.8-0.8c-0.2-0.3-0.3-0.6-0.3-1v-0.5c0-0.4,0.1-0.7,0.3-1
		s0.5-0.5,0.8-0.8s0.8-0.4,1.2-0.5c0.5-0.1,1-0.2,1.6-0.2s1.1,0.1,1.6,0.2c0.5,0.1,0.9,0.3,1.2,0.5s0.6,0.5,0.8,0.8s0.3,0.6,0.3,1
		v0.5c0,0.4-0.1,0.7-0.3,1s-0.5,0.6-0.8,0.8c-0.3,0.2-0.8,0.4-1.2,0.5C496.6,203,496.1,203.1,495.5,203.1z M495.5,199.2
		c-0.4,0-0.7,0-0.9,0.1c-0.3,0.1-0.5,0.2-0.7,0.3c-0.2,0.1-0.4,0.2-0.5,0.4s-0.2,0.3-0.2,0.4v0.3c0,0.1,0,0.3,0.2,0.4
		c0.1,0.1,0.3,0.3,0.5,0.4s0.4,0.2,0.7,0.3c0.3,0.1,0.6,0.1,0.9,0.1s0.7,0,0.9-0.1c0.3-0.1,0.5-0.2,0.7-0.3c0.2-0.1,0.4-0.2,0.5-0.4
		s0.2-0.3,0.2-0.4v-0.3c0-0.1,0-0.3-0.2-0.4c-0.1-0.1-0.3-0.3-0.5-0.4c-0.2-0.1-0.4-0.2-0.7-0.3
		C496.1,199.2,495.8,199.2,495.5,199.2z M499.4,197.7h-1.7v-7.6h1.7V197.7z"/>
</g>
</svg>
