<?xml version="1.0" encoding="utf-8"?>
<!-- Generator: Adobe Illustrator 23.0.1, SVG Export Plug-In . SVG Version: 6.00 Build 0)  -->
<svg version="1.1" id="레이어_1" xmlns="http://www.w3.org/2000/svg" xmlns:xlink="http://www.w3.org/1999/xlink" x="0px"
	 y="0px" viewBox="0 0 204 231" style="enable-background:new 0 0 204 231;" xml:space="preserve">
<style type="text/css">
	.st0{fill:#FFC34D;}
	.st1{fill:#FFFFFF;}
</style>
<path class="st0" d="M195.32,179.82c4.76-2.75,8.66-9.5,8.66-15V66.93c0-5.5-3.9-12.25-8.66-15L110.55,2.99
	c-4.76-2.75-12.56-2.75-17.32,0L8.46,51.93c-4.76,2.75-8.66,9.5-8.66,15v97.88c0,5.5,3.9,12.25,8.66,15l84.77,48.94
	c4.76,2.75,12.56,2.75,17.32,0L195.32,179.82z"/>
<path class="st1" d="M140.86,115.75c-1.02-1.02-2.39-1.59-3.84-1.59s-2.81,0.56-3.84,1.59c-0.67,0.67-1.11,1.48-1.35,2.34h-14.07
	c-0.05-2.89-0.89-5.58-2.29-7.9l16.47-16.47l0.44-1.06V77.56c0.83-0.26,1.6-0.69,2.24-1.32c1.03-1.02,1.59-2.39,1.59-3.84
	s-0.56-2.81-1.59-3.84c-1.02-1.02-2.39-1.59-3.84-1.59s-2.81,0.56-3.84,1.59c-2.12,2.12-2.12,5.56,0,7.68
	c0.68,0.68,1.53,1.14,2.44,1.38v14.41l-15.72,15.72c-2.59-2.87-6.21-4.8-10.27-5.18V79.73l-0.44-1.06L92.29,68.01
	c0.4-0.76,0.63-1.62,0.63-2.53c0-2.99-2.43-5.43-5.43-5.43c-2.99,0-5.43,2.43-5.43,5.43c0,2.99,2.43,5.43,5.43,5.43
	c0.99,0,1.91-0.27,2.71-0.73l10.18,10.18v22.22c-7.96,0.75-14.22,7.39-14.38,15.51H71.95c-0.25-0.85-0.68-1.67-1.35-2.34
	c-2.12-2.12-5.56-2.12-7.68,0c-1.02,1.03-1.59,2.39-1.59,3.84s0.56,2.81,1.59,3.84c1.06,1.06,2.45,1.59,3.84,1.59
	s2.78-0.53,3.84-1.59c0.67-0.67,1.11-1.48,1.35-2.34h14.3c0.51,2.97,1.84,5.65,3.75,7.81l-16.06,16.06l-0.44,1.06v15.09
	c-0.83,0.26-1.6,0.69-2.24,1.32c-1.02,1.02-1.59,2.39-1.59,3.84s0.56,2.81,1.59,3.84c1.06,1.06,2.45,1.59,3.84,1.59
	c1.39,0,2.78-0.53,3.84-1.59c2.12-2.12,2.11-5.56,0-7.67c-0.68-0.68-1.53-1.14-2.44-1.39v-14.41l15.69-15.69
	c2.69,2.08,6.05,3.33,9.7,3.33c3.26,0,6.3-0.99,8.83-2.69l9.8,9.8c-0.43,0.78-0.68,1.67-0.68,2.63c0,2.99,2.43,5.43,5.43,5.43
	c2.99,0,5.43-2.43,5.43-5.43c0-2.99-2.43-5.43-5.43-5.43c-0.95,0-1.85,0.25-2.63,0.68l-9.59-9.59c2.31-2.28,3.91-5.27,4.48-8.6h14.3
	c0.25,0.85,0.68,1.67,1.35,2.34c1.06,1.06,2.45,1.59,3.84,1.59s2.78-0.53,3.84-1.59c1.03-1.02,1.59-2.39,1.59-3.84
	S141.89,116.77,140.86,115.75z M129.07,70.68c0.46-0.46,1.07-0.71,1.72-0.71s1.26,0.25,1.72,0.71c0.46,0.46,0.71,1.07,0.71,1.72
	s-0.25,1.26-0.71,1.72v0c-0.92,0.92-2.51,0.92-3.43,0C128.12,73.17,128.12,71.63,129.07,70.68z M85.07,65.48
	c0-1.34,1.09-2.43,2.43-2.43c1.34,0,2.43,1.09,2.43,2.43c0,1.34-1.09,2.43-2.43,2.43C86.16,67.9,85.07,66.82,85.07,65.48z
	 M68.48,121.3c-0.95,0.95-2.49,0.95-3.43,0c-0.46-0.46-0.71-1.07-0.71-1.72s0.25-1.26,0.71-1.72c0.47-0.47,1.09-0.71,1.72-0.71
	s1.24,0.24,1.72,0.71C69.42,118.81,69.42,120.35,68.48,121.3z M76.82,167.99c-0.95,0.95-2.49,0.95-3.43,0
	c-0.46-0.46-0.71-1.07-0.71-1.72s0.25-1.26,0.71-1.72h0c0.46-0.46,1.07-0.71,1.72-0.71s1.26,0.25,1.72,0.71
	C77.76,165.5,77.76,167.04,76.82,167.99z M125.26,141.59c1.34,0,2.43,1.09,2.43,2.43c0,1.34-1.09,2.43-2.43,2.43
	c-1.34,0-2.43-1.09-2.43-2.43C122.84,142.68,123.93,141.59,125.26,141.59z M101.89,131.28c-7.11,0-12.89-5.78-12.89-12.89
	c0-7.11,5.78-12.89,12.89-12.89c7.11,0,12.89,5.78,12.89,12.89C114.78,125.5,109,131.28,101.89,131.28z M138.74,121.3
	c-0.95,0.95-2.49,0.95-3.43,0c-0.95-0.95-0.95-2.49,0-3.43c0.46-0.46,1.07-0.71,1.72-0.71s1.26,0.25,1.72,0.71
	c0.46,0.46,0.71,1.07,0.71,1.72S139.2,120.84,138.74,121.3z"/>
</svg>
