<?xml version="1.0" encoding="utf-8"?>
<!-- Generator: Adobe Illustrator 23.0.1, SVG Export Plug-In . SVG Version: 6.00 Build 0)  -->
<svg version="1.1" id="레이어_1" xmlns="http://www.w3.org/2000/svg" xmlns:xlink="http://www.w3.org/1999/xlink" x="0px"
	 y="0px" viewBox="0 0 200 200" style="enable-background:new 0 0 200 200;" xml:space="preserve">
<style type="text/css">
	.st0{fill:#FFFFFF;}
	.st1{opacity:0.25;}
</style>
<g>
	<circle class="st0" cx="99.91" cy="100.22" r="73.66"/>
</g>
<g class="st1">
	<path class="st0" d="M99.91,187.45c-48.1,0-87.23-39.13-87.23-87.23s39.13-87.23,87.23-87.23s87.23,39.13,87.23,87.23
		S148.01,187.45,99.91,187.45z M99.91,15.99c-46.45,0-84.23,37.79-84.23,84.23s37.79,84.23,84.23,84.23s84.23-37.79,84.23-84.23
		S146.35,15.99,99.91,15.99z"/>
</g>
<g class="st1">
	<path class="st0" d="M99.91,196.93c-53.33,0-96.71-43.39-96.71-96.71C3.19,46.89,46.58,3.5,99.91,3.5
		c53.33,0,96.71,43.39,96.71,96.71C196.62,153.55,153.24,196.93,99.91,196.93z M99.91,6.5c-51.67,0-93.71,42.04-93.71,93.71
		c0,51.67,42.04,93.71,93.71,93.71c51.67,0,93.71-42.04,93.71-93.71C193.62,48.54,151.58,6.5,99.91,6.5z"/>
</g>
</svg>
