<?xml version="1.0" encoding="utf-8"?>
<!-- Generator: Adobe Illustrator 23.0.1, SVG Export Plug-In . SVG Version: 6.00 Build 0)  -->
<svg version="1.1" id="레이어_1" xmlns="http://www.w3.org/2000/svg" xmlns:xlink="http://www.w3.org/1999/xlink" x="0px"
	 y="0px" viewBox="0 0 290.6 436.4" style="enable-background:new 0 0 290.6 436.4;" xml:space="preserve">
<style type="text/css">
	.st0{fill:#2160A5;}
	.st1{fill:#7C7C7C;}
	.st2{fill:#757575;}
	.st3{fill:#FFFFFF;}
</style>
<g>
	<path class="st0" d="M196.6,106.1c0.8-0.5,1.4-1.6,1.4-2.5V43.3c0-0.9-0.6-2-1.4-2.5l-52.2-30.1c-0.8-0.5-2.1-0.5-2.9,0L89.4,40.8
		c-0.8,0.5-1.4,1.6-1.4,2.5v60.3c0,0.9,0.7,2.1,1.4,2.5l52.2,30.1c0.8,0.5,2.1,0.5,2.9,0L196.6,106.1z"/>
</g>
<g>
	<path class="st0" d="M143,141.8c-0.6,0-1.2-0.1-1.7-0.4L85,108.9c-0.9-0.6-1.7-1.8-1.7-2.9V41c0-1.1,0.8-2.4,1.7-3l56.3-32.5
		c0.9-0.6,2.4-0.6,3.4,0L201,38c0.9,0.5,1.7,1.8,1.7,3v65c0,1.1-0.8,2.4-1.7,2.9l-0.3-0.4l0.3,0.4l-56.3,32.5
		C144.2,141.7,143.6,141.8,143,141.8z M143,6.2c-0.4,0-0.9,0.1-1.2,0.3L85.6,38.9c-0.6,0.4-1.2,1.3-1.2,2.1v65
		c0,0.7,0.6,1.7,1.2,2.1l56.3,32.5c0.6,0.4,1.8,0.4,2.4,0l56.3-32.5c0.6-0.4,1.2-1.3,1.2-2.1V41c0-0.7-0.6-1.7-1.2-2.1L144.2,6.4
		C143.9,6.2,143.4,6.2,143,6.2z"/>
</g>
<g>
	<path class="st1" d="M130.3,230.3c0.8-0.5,1.4-1.6,1.4-2.5v-60.3c0-0.9-0.6-2.1-1.4-2.5l-52.2-30.1c-0.8-0.5-2.1-0.5-2.9,0L23,165
		c-0.8,0.5-1.5,1.6-1.5,2.5v60.3c0,0.9,0.6,2.1,1.5,2.5l52.2,30.1c0.8,0.5,2.1,0.5,2.9,0L130.3,230.3z"/>
</g>
<g>
	<path class="st2" d="M76.7,265.9c-0.6,0-1.2-0.1-1.7-0.4L18.7,233c-1-0.6-1.7-1.8-1.7-2.9v-65c0-1.1,0.8-2.4,1.7-2.9L75,129.7
		c0.9-0.6,2.4-0.6,3.4,0l56.3,32.5c0.9,0.6,1.7,1.8,1.7,2.9v65c0,1.1-0.8,2.4-1.7,2.9l-0.3-0.4l0.3,0.4l-56.3,32.5
		C77.9,265.8,77.3,265.9,76.7,265.9z M76.7,130.3c-0.4,0-0.9,0.1-1.2,0.3l-56.3,32.5c-0.6,0.4-1.2,1.3-1.2,2.1v65
		c0,0.7,0.6,1.7,1.2,2.1l56.3,32.5c0.6,0.4,1.8,0.4,2.4,0l56.3-32.5c0.6-0.4,1.2-1.3,1.2-2.1v-65c0-0.7-0.6-1.7-1.2-2.1l-56.3-32.5
		C77.6,130.4,77.1,130.3,76.7,130.3z"/>
</g>
<g>
	<path class="st1" d="M267.4,230.3c0.8-0.5,1.5-1.6,1.5-2.5v-60.3c0-0.9-0.6-2.1-1.5-2.5l-52.2-30.1c-0.8-0.5-2.1-0.5-2.9,0
		L160.1,165c-0.8,0.5-1.4,1.6-1.4,2.5v60.3c0,0.9,0.6,2.1,1.4,2.5l52.2,30.1c0.8,0.5,2.1,0.5,2.9,0L267.4,230.3z"/>
</g>
<g>
	<path class="st2" d="M213.7,265.9c-0.6,0-1.2-0.1-1.7-0.4L155.8,233c-0.9-0.6-1.7-1.8-1.7-2.9v-65c0-1.1,0.8-2.4,1.7-2.9l56.3-32.5
		c0.9-0.6,2.4-0.6,3.4,0l56.3,32.5c1,0.6,1.7,1.8,1.7,2.9v65c0,1.1-0.8,2.4-1.7,2.9l-56.3,32.5C214.9,265.8,214.3,265.9,213.7,265.9
		z M213.7,130.3c-0.4,0-0.9,0.1-1.2,0.3l-56.3,32.5c-0.6,0.4-1.2,1.3-1.2,2.1v65c0,0.7,0.6,1.7,1.2,2.1l56.3,32.5
		c0.6,0.4,1.8,0.4,2.4,0l56.3-32.5c0.6-0.4,1.2-1.3,1.2-2.1v-65c0-0.7-0.6-1.7-1.2-2.1l-56.3-32.5
		C214.6,130.4,214.2,130.3,213.7,130.3z"/>
</g>
<g>
	<path class="st1" d="M130.3,387.3c0.8-0.5,1.4-1.6,1.4-2.5v-60.3c0-0.9-0.6-2-1.4-2.5l-52.2-30.1c-0.8-0.5-2.1-0.5-2.9,0L23,322
		c-0.8,0.5-1.5,1.6-1.5,2.5v60.3c0,0.9,0.6,2,1.5,2.5l52.2,30.1c0.8,0.5,2.1,0.5,2.9,0L130.3,387.3z"/>
</g>
<g>
	<path class="st2" d="M76.6,422.9c-0.6,0-1.2-0.1-1.7-0.4L18.7,390c-1-0.5-1.7-1.8-1.7-3v-65c0-1.1,0.8-2.4,1.7-3l56.3-32.5
		c0.9-0.5,2.4-0.5,3.4,0l56.3,32.5c0.9,0.5,1.7,1.8,1.7,3v65c0,1.1-0.8,2.4-1.7,3l-56.3,32.5C77.9,422.8,77.3,422.9,76.6,422.9z
		 M76.6,287.3c-0.4,0-0.9,0.1-1.2,0.3l-56.3,32.5c-0.6,0.4-1.2,1.3-1.2,2.1v65c0,0.7,0.6,1.7,1.2,2.1l56.3,32.5
		c0.6,0.4,1.8,0.4,2.4,0l56.3-32.5c0.6-0.4,1.2-1.3,1.2-2.1v-65c0-0.7-0.6-1.7-1.2-2.1l-56.3-32.5C77.5,287.4,77.1,287.3,76.6,287.3
		z"/>
</g>
<g>
	<path class="st1" d="M267,387.3c0.8-0.5,1.5-1.6,1.5-2.5v-60.3c0-0.9-0.6-2-1.5-2.5l-52.2-30.1c-0.8-0.5-2.1-0.5-2.9,0L159.7,322
		c-0.8,0.5-1.4,1.6-1.4,2.5v60.3c0,0.9,0.6,2,1.4,2.5l52.2,30.1c0.8,0.5,2.1,0.5,2.9,0L267,387.3z"/>
</g>
<g>
	<path class="st2" d="M213.4,422.9c-0.6,0-1.2-0.1-1.7-0.4L155.4,390c-0.9-0.5-1.7-1.8-1.7-3v-65c0-1.1,0.8-2.4,1.7-3l56.3-32.5
		c0.9-0.5,2.4-0.5,3.4,0l56.3,32.5c1,0.5,1.7,1.8,1.7,3v65c0,1.1-0.8,2.4-1.7,3l-56.3,32.5C214.6,422.8,214,422.9,213.4,422.9z
		 M213.4,287.3c-0.4,0-0.9,0.1-1.2,0.3l-56.3,32.5c-0.6,0.4-1.2,1.3-1.2,2.1v65c0,0.7,0.6,1.7,1.2,2.1l56.3,32.5
		c0.6,0.4,1.8,0.4,2.4,0l56.3-32.5c0.6-0.4,1.2-1.3,1.2-2.1v-65c0-0.7-0.6-1.7-1.2-2.1l-56.3-32.5
		C214.2,287.4,213.8,287.3,213.4,287.3z"/>
</g>
<g>
	<path class="st3" d="M117.1,45v2h-4.3v7h0.5c0.8,0,1.5,0,2.3-0.1c0.8,0,1.5-0.1,2.3-0.2l0.2,2c-0.8,0.1-1.6,0.2-2.4,0.3
		c-0.8,0-1.7,0.1-2.4,0.1h-2.9V45H117.1z M121.2,49.2h1.5v-5.9h2.3v17.3h-2.3v-9.4h-1.5v8.5h-2.3V43.7h2.3V49.2z"/>
	<path class="st3" d="M131,56.5v-3.2h-2.6v-2h2.2v-4.7h-2.1v-2h12.3v2h-2v4.7h2.2v2h-2.6v3.2h4.3v2h-15.8v-2H131z M132.9,51.3h3.5
		v-4.7h-3.5V51.3z M133.3,56.5h2.7v-3.2h-2.7V56.5z"/>
	<path class="st3" d="M149,56.5c-0.8,0-1.5-0.1-2-0.4s-1-0.6-1.4-1c-0.4-0.5-0.6-1-0.8-1.6s-0.3-1.3-0.3-2v-2.1c0-0.7,0.1-1.4,0.3-2
		c0.2-0.6,0.4-1.1,0.8-1.6s0.8-0.8,1.4-1s1.2-0.4,2-0.4s1.5,0.1,2,0.4s1,0.6,1.4,1s0.6,1,0.8,1.6s0.3,1.3,0.3,2v2.1
		c0,0.7-0.1,1.4-0.3,2c-0.2,0.6-0.4,1.1-0.8,1.6s-0.8,0.8-1.4,1C150.5,56.4,149.8,56.5,149,56.5z M149,46.5c-0.8,0-1.4,0.3-1.7,0.8
		s-0.5,1.3-0.5,2.4v1.5c0,1,0.2,1.8,0.5,2.4c0.3,0.5,0.9,0.8,1.7,0.8s1.4-0.3,1.7-0.8s0.5-1.3,0.5-2.4v-1.5c0-1-0.2-1.8-0.5-2.4
		C150.4,46.8,149.8,46.5,149,46.5z M158.2,60.6h-2.4V43.3h2.4V60.6z"/>
	<path class="st3" d="M168.3,52c0.4,0.4,0.8,0.9,1.3,1.3c0.5,0.5,0.9,0.9,1.4,1.3l-1.5,1.6c-0.4-0.4-0.8-0.8-1.2-1.2
		s-0.8-0.8-1.1-1.1c-0.4-0.4-0.7-0.7-0.9-1c-0.3-0.3-0.4-0.5-0.5-0.7h0c-0.1,0.2-0.2,0.4-0.5,0.8s-0.6,0.7-0.9,1
		c-0.4,0.4-0.7,0.7-1.1,1.1c-0.4,0.4-0.8,0.8-1.4,1.3l-1.5-1.6c1.1-0.9,2-1.8,2.8-2.7c0.3-0.3,0.5-0.6,0.7-0.8
		c0.2-0.3,0.3-0.5,0.4-0.8c0.1-0.3,0.2-0.6,0.2-0.9c0.1-0.3,0.1-0.7,0.1-1v-4h2.4v4c0,0.4,0,0.7,0.1,1c0,0.3,0.1,0.6,0.2,0.8
		c0.1,0.3,0.2,0.5,0.4,0.8C167.7,51.5,168,51.7,168.3,52z M174.3,49.4h2.4v2h-2.4v9.1h-2.4V43.3h2.4V49.4z"/>
</g>
<g>
	<path class="st3" d="M102.9,74.8c0.5-0.2,1-0.4,1.3-0.6c0.4-0.2,0.7-0.3,0.9-0.5s0.5-0.3,0.6-0.4c0.2-0.1,0.3-0.3,0.3-0.4
		s0.1-0.3,0.2-0.5c0-0.2,0-0.4,0-0.6v-0.5h-3.1v-0.6h3.8v1.2c0,0.4,0,0.8-0.1,1.1s-0.3,0.6-0.5,0.8s-0.7,0.5-1.2,0.8s-1.2,0.6-2,0.9
		L102.9,74.8z M107.4,75.6c0.4,0,0.7,0,1.1,0.1s0.6,0.2,0.9,0.3c0.3,0.1,0.4,0.3,0.6,0.5s0.2,0.4,0.2,0.7v0.4c0,0.3-0.1,0.5-0.2,0.7
		s-0.3,0.4-0.6,0.5s-0.5,0.3-0.9,0.3c-0.3,0.1-0.7,0.1-1.1,0.1s-0.7,0-1.1-0.1s-0.6-0.2-0.9-0.3c-0.3-0.2-0.4-0.3-0.6-0.5
		c-0.2-0.2-0.2-0.4-0.2-0.7v-0.4c0-0.3,0.1-0.5,0.2-0.7c0.1-0.2,0.3-0.4,0.6-0.5s0.5-0.3,0.9-0.3C106.7,75.6,107,75.6,107.4,75.6z
		 M107.4,78.8c0.3,0,0.5,0,0.8-0.1s0.5-0.1,0.7-0.2s0.3-0.2,0.5-0.3c0.1-0.1,0.2-0.3,0.2-0.5v-0.3c0-0.2-0.1-0.3-0.2-0.5
		c-0.1-0.1-0.3-0.3-0.5-0.3c-0.2-0.1-0.4-0.2-0.7-0.2c-0.3-0.1-0.5-0.1-0.8-0.1c-0.3,0-0.5,0-0.8,0.1s-0.5,0.1-0.7,0.2
		s-0.3,0.2-0.5,0.3c-0.1,0.1-0.2,0.3-0.2,0.5v0.3c0,0.2,0.1,0.3,0.2,0.5c0.1,0.1,0.3,0.3,0.5,0.3c0.2,0.1,0.4,0.2,0.7,0.2
		C106.9,78.7,107.1,78.8,107.4,78.8z M109.4,71.5v-1.4h0.7v5.3h-0.7V74h-1.9v-0.6h1.9v-1.3h-1.8v-0.6L109.4,71.5L109.4,71.5z"/>
	<path class="st3" d="M114.1,74.8c-0.3,0-0.7-0.1-0.9-0.2c-0.3-0.1-0.5-0.3-0.7-0.4s-0.3-0.4-0.4-0.6c-0.1-0.2-0.2-0.4-0.2-0.7v-0.6
		c0-0.2,0.1-0.4,0.2-0.7s0.2-0.4,0.4-0.6s0.4-0.3,0.7-0.4c0.3-0.1,0.6-0.2,0.9-0.2c0.3,0,0.7,0.1,0.9,0.2c0.3,0.1,0.5,0.3,0.7,0.4
		c0.2,0.2,0.3,0.4,0.4,0.6c0.1,0.2,0.2,0.4,0.2,0.7v0.6c0,0.2-0.1,0.4-0.2,0.7s-0.2,0.4-0.4,0.6s-0.4,0.3-0.7,0.4
		C114.8,74.8,114.4,74.8,114.1,74.8z M114.1,71.1c-0.2,0-0.4,0-0.6,0.1s-0.3,0.2-0.5,0.3c-0.1,0.1-0.2,0.3-0.3,0.4
		c-0.1,0.2-0.1,0.3-0.1,0.5v0.4c0,0.2,0,0.4,0.1,0.5c0.1,0.2,0.2,0.3,0.3,0.4s0.3,0.2,0.5,0.3c0.2,0.1,0.4,0.1,0.6,0.1
		c0.2,0,0.4,0,0.6-0.1s0.3-0.2,0.5-0.3c0.1-0.1,0.2-0.3,0.3-0.4c0.1-0.2,0.1-0.3,0.1-0.5v-0.4c0-0.2,0-0.4-0.1-0.5
		c-0.1-0.2-0.2-0.3-0.3-0.4s-0.3-0.2-0.5-0.3C114.5,71.1,114.3,71.1,114.1,71.1z M116.4,75.6c0.4,0,0.7,0,1.1,0.1s0.6,0.2,0.9,0.3
		c0.3,0.1,0.4,0.3,0.6,0.5s0.2,0.4,0.2,0.7v0.4c0,0.3-0.1,0.5-0.2,0.7s-0.3,0.4-0.6,0.5s-0.5,0.3-0.9,0.3c-0.3,0.1-0.7,0.1-1.1,0.1
		s-0.7,0-1.1-0.1s-0.6-0.2-0.9-0.3c-0.3-0.2-0.4-0.3-0.6-0.5c-0.2-0.2-0.2-0.4-0.2-0.7v-0.4c0-0.3,0.1-0.5,0.2-0.7
		c0.1-0.2,0.3-0.4,0.6-0.5s0.5-0.3,0.9-0.3C115.7,75.6,116,75.6,116.4,75.6z M116.4,78.8c0.3,0,0.5,0,0.8-0.1s0.5-0.1,0.7-0.2
		s0.3-0.2,0.5-0.3c0.1-0.1,0.2-0.3,0.2-0.5v-0.3c0-0.2-0.1-0.3-0.2-0.5c-0.1-0.1-0.3-0.3-0.5-0.3c-0.2-0.1-0.4-0.2-0.7-0.2
		c-0.3-0.1-0.5-0.1-0.8-0.1c-0.3,0-0.5,0-0.8,0.1s-0.5,0.1-0.7,0.2s-0.3,0.2-0.5,0.3c-0.1,0.1-0.2,0.3-0.2,0.5v0.3
		c0,0.2,0.1,0.3,0.2,0.5c0.1,0.1,0.3,0.3,0.5,0.3c0.2,0.1,0.4,0.2,0.7,0.2C115.9,78.7,116.1,78.8,116.4,78.8z M118.4,71.3v-1.2h0.7
		v5.3h-0.7V74h-1.6v-0.6h1.6v-1.4h-1.6v-0.6L118.4,71.3L118.4,71.3z"/>
	<path class="st3" d="M126,71.5h-2.1V73c0,0.2,0,0.4,0,0.5c0,0.1,0,0.3,0.1,0.4c0,0.1,0.1,0.3,0.2,0.4c0.1,0.1,0.2,0.3,0.3,0.4
		c0.2,0.2,0.4,0.5,0.7,0.8s0.6,0.6,1,0.9l-0.4,0.5c-0.3-0.3-0.6-0.6-0.9-0.8s-0.5-0.5-0.7-0.7c-0.2-0.2-0.3-0.3-0.4-0.4
		s-0.2-0.2-0.2-0.3h0c0,0.1,0,0.1-0.1,0.2c-0.1,0.1-0.1,0.2-0.2,0.2s-0.1,0.2-0.2,0.3c-0.1,0.1-0.2,0.2-0.2,0.3
		c-0.1,0.1-0.2,0.2-0.3,0.3c-0.1,0.1-0.2,0.2-0.4,0.4c-0.1,0.1-0.3,0.3-0.4,0.4c-0.2,0.2-0.3,0.3-0.4,0.4l-0.5-0.5
		c0.3-0.3,0.6-0.6,0.9-0.8c0.3-0.3,0.5-0.5,0.8-0.8c0.2-0.2,0.3-0.3,0.4-0.5c0.1-0.1,0.2-0.3,0.2-0.4c0.1-0.1,0.1-0.3,0.1-0.4
		c0-0.1,0-0.3,0-0.5v-1.5h-2.1v-0.6h4.8L126,71.5L126,71.5z M128.1,79.1h-0.7v-9h0.7V79.1z"/>
	<path class="st3" d="M135.7,74.6c-0.2,0-0.4,0-0.7,0.1s-0.4,0-0.7,0.1c-0.2,0-0.5,0-0.7,0s-0.5,0-0.8,0v1.4h-0.7v-1.4
		c-0.3,0-0.7,0-1.1,0s-0.8,0-1.3,0v-0.6c0.7,0,1.3,0,1.9,0c0.5,0,1,0,1.5,0c0.4,0,0.9,0,1.3-0.1c0.4,0,0.8-0.1,1.2-0.1L135.7,74.6z
		 M132.6,73.6c-0.3,0-0.6,0-0.9-0.1c-0.3-0.1-0.5-0.2-0.7-0.3s-0.4-0.3-0.5-0.5c-0.1-0.2-0.2-0.4-0.2-0.6v-0.4
		c0-0.2,0.1-0.4,0.2-0.6c0.1-0.2,0.3-0.3,0.5-0.5c0.2-0.1,0.4-0.2,0.7-0.3c0.3-0.1,0.6-0.1,0.9-0.1s0.6,0,0.9,0.1
		c0.3,0.1,0.5,0.2,0.7,0.3s0.4,0.3,0.5,0.5s0.2,0.4,0.2,0.6v0.4c0,0.2-0.1,0.4-0.2,0.6s-0.3,0.3-0.5,0.5c-0.2,0.1-0.4,0.2-0.7,0.3
		C133.1,73.5,132.9,73.6,132.6,73.6z M132.6,70.8c-0.2,0-0.4,0-0.6,0.1s-0.3,0.1-0.5,0.2c-0.1,0.1-0.3,0.2-0.3,0.3
		c-0.1,0.1-0.1,0.2-0.1,0.4V72c0,0.1,0,0.3,0.1,0.4c0.1,0.1,0.2,0.2,0.3,0.3c0.1,0.1,0.3,0.2,0.5,0.2c0.2,0.1,0.4,0.1,0.6,0.1
		c0.2,0,0.4,0,0.6-0.1c0.2-0.1,0.4-0.1,0.5-0.2c0.1-0.1,0.3-0.2,0.3-0.3c0.1-0.1,0.1-0.2,0.1-0.4v-0.3c0-0.1,0-0.3-0.1-0.4
		c-0.1-0.1-0.2-0.2-0.3-0.3c-0.1-0.1-0.3-0.2-0.5-0.2C132.9,70.9,132.8,70.8,132.6,70.8z M132,78.4h5.3V79h-6v-2.4h0.7V78.4z
		 M136.4,75.5v-5.4h0.7v7h-0.7v-1h-2v-0.6H136.4z"/>
	<path class="st3" d="M139.2,70.5h4.2v0.6h-3.6v1.2h3.4v0.6h-3.4v1.2c0.5,0,1,0,1.4,0c0.4,0,0.8,0,1.1,0c0.3,0,0.7,0,1-0.1
		c0.3,0,0.6-0.1,0.9-0.1l0.1,0.6c-0.3,0-0.6,0.1-0.9,0.1s-0.7,0-1.1,0.1c-0.4,0-0.9,0-1.4,0s-1.1,0-1.8,0L139.2,70.5L139.2,70.5z
		 M140.5,75.8h5.5v3.3h-5.5V75.8z M141.2,78.5h4.2v-2.1h-4.2V78.5z M146.1,75.2h-0.7v-5.2h0.7V75.2z"/>
	<path class="st3" d="M155.9,74.1v0.6h-8.3v-0.6H155.9z M154.6,75.5v2.1h-5.1v1h5.4v0.6h-6.1V77h5.1v-0.9h-5.2v-0.6H154.6z
		 M154.6,72c0,0.2-0.1,0.4-0.2,0.6s-0.3,0.3-0.6,0.5c-0.3,0.1-0.6,0.2-0.9,0.3c-0.4,0.1-0.7,0.1-1.1,0.1c-0.4,0-0.8,0-1.1-0.1
		c-0.4-0.1-0.6-0.2-0.9-0.3c-0.3-0.1-0.4-0.3-0.6-0.5c-0.1-0.2-0.2-0.4-0.2-0.6v-0.3c0-0.2,0.1-0.4,0.2-0.6c0.1-0.2,0.3-0.3,0.6-0.5
		c0.3-0.1,0.6-0.2,0.9-0.3c0.4-0.1,0.7-0.1,1.1-0.1c0.4,0,0.8,0,1.1,0.1c0.4,0.1,0.6,0.2,0.9,0.3c0.3,0.1,0.4,0.3,0.6,0.5
		c0.1,0.2,0.2,0.4,0.2,0.6V72z M149.6,71.9c0,0.1,0.1,0.3,0.2,0.4c0.1,0.1,0.3,0.2,0.5,0.3c0.2,0.1,0.4,0.2,0.7,0.2
		c0.3,0.1,0.5,0.1,0.8,0.1s0.6,0,0.8-0.1s0.5-0.1,0.7-0.2c0.2-0.1,0.4-0.2,0.5-0.3c0.1-0.1,0.2-0.2,0.2-0.4v-0.2
		c0-0.1-0.1-0.3-0.2-0.4c-0.1-0.1-0.3-0.2-0.5-0.3c-0.2-0.1-0.4-0.2-0.7-0.2c-0.3-0.1-0.5-0.1-0.8-0.1s-0.6,0-0.8,0.1
		s-0.5,0.1-0.7,0.2c-0.2,0.1-0.4,0.2-0.5,0.3s-0.2,0.2-0.2,0.4V71.9z"/>
	<path class="st3" d="M164.8,74.1c-0.4,0-0.9,0.1-1.3,0.1s-0.9,0-1.4,0.1s-0.9,0-1.4,0s-0.9,0-1.4,0v-0.6h1v-2.6h-0.9v-0.6h5v0.6h-1
		v2.5c0.2,0,0.5,0,0.7,0c0.2,0,0.4,0,0.7-0.1L164.8,74.1z M160.9,73.6c0.6,0,1.2,0,1.8,0v-2.5h-1.8V73.6z M166.5,75.1v2.3h-4.9v1.1
		h5.1v0.6H161v-2.3h4.9v-1.1h-4.9v-0.6H166.5z M166.5,74.6h-0.7v-4.5h0.7V74.6z"/>
	<path class="st3" d="M176.4,75.4V76h-3.8v3.2h-0.7V76H168v-0.6H176.4z M175.2,74h-6v-3.4h5.9v0.6H170v2.2h5.3L175.2,74L175.2,74z"
		/>
	<path class="st3" d="M184.1,70.8v2.7h-5.1v1.5h5.4v0.6h-2.8v1.7h3.8v0.6H177v-0.6h3.8v-1.7h-2.6v-2.7h5.1v-1.5h-5.2v-0.6
		L184.1,70.8L184.1,70.8z"/>
	<path class="st3" d="M107.3,89c0.5-0.2,1-0.4,1.3-0.6c0.4-0.2,0.7-0.3,0.9-0.5c0.3-0.2,0.4-0.3,0.6-0.4c0.2-0.1,0.3-0.3,0.3-0.4
		s0.1-0.3,0.2-0.5c0-0.2,0-0.4,0-0.6v-0.5h-3.1v-0.6h3.8V86c0,0.3,0,0.5-0.1,0.8c0,0.2-0.1,0.4-0.2,0.6c-0.1,0.2-0.2,0.4-0.4,0.5
		c-0.2,0.2-0.4,0.3-0.7,0.5s-0.6,0.3-1,0.5c-0.4,0.2-0.9,0.4-1.4,0.6L107.3,89z M108.5,90.1h5.7v3.3h-0.7v-2.7h-5L108.5,90.1
		L108.5,90.1z M114.2,86.5h1.4v0.6h-1.4v2.4h-0.7v-5.2h0.7V86.5z"/>
	<path class="st3" d="M124.4,89.7v0.6h-3.8v3h-0.7v-3h-3.8v-0.6H124.4z M123.2,84.7v3.9h-5.8v-3.9h0.7V86h4.5v-1.3H123.2z
		 M122.5,87.9v-1.3H118v1.3H122.5z"/>
	<path class="st3" d="M126.7,89c0.2-0.2,0.3-0.3,0.4-0.5c0.1-0.1,0.2-0.3,0.2-0.4c0.1-0.1,0.1-0.3,0.1-0.4c0-0.2,0-0.3,0-0.5V85h0.7
		v2.1c0,0.2,0,0.4,0,0.5c0,0.1,0,0.3,0.1,0.4c0,0.1,0.1,0.3,0.2,0.4c0.1,0.1,0.2,0.3,0.3,0.4c0.2,0.2,0.4,0.5,0.7,0.8s0.6,0.6,1,0.9
		l-0.5,0.4c-0.3-0.3-0.6-0.6-0.9-0.8s-0.5-0.5-0.7-0.7c-0.1-0.2-0.3-0.3-0.4-0.4c-0.1-0.1-0.2-0.3-0.2-0.3h0c0,0,0,0.1-0.1,0.2
		s-0.1,0.2-0.2,0.2c-0.1,0.1-0.1,0.2-0.2,0.3c-0.1,0.1-0.2,0.2-0.2,0.3c-0.1,0.1-0.2,0.2-0.3,0.3c-0.1,0.1-0.3,0.3-0.4,0.4
		s-0.3,0.3-0.4,0.4c-0.2,0.2-0.3,0.3-0.4,0.4l-0.5-0.5c0.3-0.3,0.6-0.6,0.9-0.8C126.2,89.5,126.5,89.2,126.7,89z M132.6,93.3h-0.7
		v-5.5h-2.1v-0.6h2.1v-2.9h0.7V93.3z"/>
	<path class="st3" d="M142.4,88.2v0.6h-8.3v-0.6H142.4z M141.1,89.7v2.1H136v1h5.4v0.6h-6.1v-2.1h5.1v-1h-5.2v-0.6H141.1z
		 M141.1,85.2H136v1.6h5.1v0.6h-5.8v-2.8h5.8V85.2z"/>
	<path class="st3" d="M148.5,85.3h2.3v0.6h-5.2v-0.6h2.2v-1.1h0.7V85.3z M148.2,89.4c-0.4,0-0.6,0-0.9-0.1c-0.3-0.1-0.5-0.2-0.6-0.3
		s-0.3-0.3-0.4-0.4s-0.1-0.3-0.1-0.5v-0.3c0-0.2,0-0.3,0.1-0.5c0.1-0.2,0.2-0.3,0.4-0.4s0.4-0.2,0.6-0.3c0.3-0.1,0.6-0.1,0.9-0.1
		s0.6,0,0.9,0.1c0.3,0.1,0.5,0.2,0.6,0.3s0.3,0.3,0.4,0.4s0.1,0.3,0.1,0.5V88c0,0.2,0,0.3-0.1,0.5c-0.1,0.2-0.2,0.3-0.4,0.4
		s-0.4,0.2-0.6,0.3C148.9,89.4,148.6,89.4,148.2,89.4z M148.2,86.9c-0.2,0-0.4,0-0.6,0.1c-0.2,0.1-0.3,0.1-0.4,0.2
		c-0.1,0.1-0.2,0.2-0.3,0.3c-0.1,0.1-0.1,0.2-0.1,0.3V88c0,0.1,0,0.2,0.1,0.3c0.1,0.1,0.1,0.2,0.3,0.3c0.1,0.1,0.3,0.2,0.4,0.2
		c0.2,0.1,0.4,0.1,0.6,0.1c0.2,0,0.4,0,0.6-0.1c0.2-0.1,0.3-0.1,0.4-0.2c0.1-0.1,0.2-0.2,0.3-0.3c0.1-0.1,0.1-0.2,0.1-0.3v-0.2
		c0-0.1,0-0.2-0.1-0.3c-0.1-0.1-0.1-0.2-0.3-0.3c-0.1-0.1-0.3-0.2-0.4-0.2C148.6,86.9,148.4,86.9,148.2,86.9z M153.1,89.9v3.4h-5.5
		v-3.4h0.7V91h4.1v-1.1H153.1z M152.4,92.7v-1.2h-4.1v1.2H152.4z M152.4,86.5v-2.2h0.7v5.1h-0.7v-0.7h-1.5v-0.6h1.5v-1h-1.5v-0.6
		L152.4,86.5L152.4,86.5z"/>
	<path class="st3" d="M154.9,86.4c0-0.2,0.1-0.4,0.2-0.7c0.1-0.2,0.3-0.4,0.4-0.6s0.4-0.3,0.7-0.4c0.3-0.1,0.6-0.2,0.9-0.2
		c0.3,0,0.6,0.1,0.9,0.1c0.3,0.1,0.5,0.2,0.7,0.4c0.2,0.2,0.3,0.3,0.4,0.6c0.1,0.2,0.2,0.4,0.2,0.6h2.1v-2.1h0.7v4.6h-0.7V87h-2.1
		c0,0.2-0.1,0.4-0.2,0.7c-0.1,0.2-0.3,0.4-0.5,0.6c-0.2,0.2-0.4,0.3-0.7,0.4c-0.3,0.1-0.6,0.2-0.9,0.2c-0.3,0-0.6-0.1-0.9-0.2
		c-0.3-0.1-0.5-0.2-0.7-0.4c-0.2-0.2-0.3-0.4-0.4-0.6s-0.2-0.4-0.2-0.7V86.4z M158.6,86.5c0-0.2,0-0.3-0.1-0.5
		c-0.1-0.2-0.2-0.3-0.3-0.4c-0.1-0.1-0.3-0.2-0.5-0.3s-0.4-0.1-0.6-0.1s-0.4,0-0.6,0.1s-0.4,0.2-0.5,0.3c-0.1,0.1-0.3,0.3-0.3,0.4
		c-0.1,0.2-0.1,0.3-0.1,0.5v0.3c0,0.2,0,0.3,0.1,0.5c0.1,0.2,0.2,0.3,0.3,0.4c0.1,0.1,0.3,0.2,0.5,0.3s0.4,0.1,0.6,0.1
		s0.4,0,0.6-0.1s0.4-0.2,0.5-0.3c0.1-0.1,0.3-0.3,0.3-0.4c0.1-0.2,0.1-0.3,0.1-0.5V86.5z M162,89.5v3.9h-5.5v-3.9h0.7v1.3h4.1v-1.3
		H162z M161.3,92.7v-1.4h-4.1v1.4H161.3z"/>
	<path class="st3" d="M168.3,88.5c0,0.8-0.2,1.5-0.6,1.9c-0.4,0.5-0.9,0.7-1.6,0.7s-1.2-0.2-1.6-0.7c-0.4-0.5-0.6-1.1-0.6-1.9v-0.9
		c0-0.8,0.2-1.5,0.6-1.9c0.4-0.5,0.9-0.7,1.6-0.7s1.2,0.2,1.6,0.7c0.4,0.5,0.6,1.1,0.6,1.9V88.5z M167.6,87.7c0-0.4,0-0.7-0.1-1
		s-0.2-0.5-0.3-0.7c-0.1-0.2-0.3-0.3-0.5-0.4s-0.4-0.1-0.6-0.1c-0.2,0-0.4,0-0.6,0.1c-0.2,0.1-0.4,0.2-0.5,0.4
		c-0.1,0.2-0.2,0.4-0.3,0.7c-0.1,0.3-0.1,0.6-0.1,1v0.7c0,0.4,0,0.7,0.1,1c0.1,0.3,0.2,0.5,0.3,0.7c0.1,0.2,0.3,0.3,0.5,0.4
		s0.4,0.1,0.6,0.1c0.2,0,0.4,0,0.6-0.1c0.2-0.1,0.4-0.2,0.5-0.4c0.1-0.2,0.2-0.4,0.3-0.7s0.1-0.6,0.1-1V87.7z M170.6,87.7h1.5v0.6
		h-1.5v5h-0.7v-9h0.7V87.7z"/>
	<path class="st3" d="M173.6,90.4h0.7c0.2,0,0.4,0,0.6,0c0.2,0,0.4,0,0.6,0c0.2,0,0.4,0,0.6-0.1c0.2,0,0.5-0.1,0.7-0.1l0.1,0.6
		c-0.5,0.1-1,0.1-1.5,0.2c-0.5,0-0.9,0-1.3,0h-1.2v-3.3h2.6v-2h-2.6v-0.6h3.3v3.2h-2.6L173.6,90.4L173.6,90.4z M178.3,87.7h1.3v-3.3
		h0.7v9h-0.7v-5.1h-1.3v4.6h-0.7v-8.4h0.7V87.7z"/>
	<path class="st3" d="M128.9,103.1v-1h0.7v1h3.8v0.6h-8.3v-0.6H128.9z M129.2,101c-0.1,0.2-0.5,0.4-1.1,0.7c-0.3,0.1-0.6,0.2-1,0.4
		s-0.7,0.3-1.1,0.4l-0.3-0.6c0.4-0.1,0.8-0.3,1.2-0.4c0.3-0.1,0.6-0.2,0.9-0.3c0.2-0.1,0.4-0.2,0.5-0.2c0.1-0.1,0.2-0.2,0.3-0.3
		c0.1-0.1,0.1-0.2,0.2-0.3c0-0.1,0-0.2,0-0.3v-0.1h-2.7v-0.6h2.7v-0.9h0.7v0.9h2.8v0.6h-2.8v0.1c0,0.1,0,0.2,0,0.3s0.1,0.2,0.2,0.3
		c0.1,0.1,0.2,0.2,0.3,0.3s0.3,0.2,0.5,0.2c0.3,0.1,0.6,0.2,0.9,0.3s0.8,0.2,1.2,0.4l-0.3,0.6c-0.4-0.1-0.8-0.3-1.1-0.4
		c-0.3-0.1-0.6-0.2-1-0.4C129.7,101.4,129.4,101.2,129.2,101L129.2,101z M129.3,104.4c0.4,0,0.7,0,1.1,0.1s0.6,0.2,0.9,0.3
		s0.5,0.3,0.6,0.5c0.1,0.2,0.2,0.4,0.2,0.7v0.3c0,0.3-0.1,0.5-0.2,0.7c-0.2,0.2-0.4,0.3-0.6,0.5c-0.3,0.1-0.6,0.2-0.9,0.3
		c-0.3,0.1-0.7,0.1-1.1,0.1s-0.7,0-1.1-0.1s-0.6-0.2-0.9-0.3s-0.5-0.3-0.6-0.5s-0.2-0.4-0.2-0.7V106c0-0.3,0.1-0.5,0.2-0.7
		c0.2-0.2,0.4-0.4,0.6-0.5c0.3-0.1,0.6-0.2,0.9-0.3C128.5,104.4,128.9,104.4,129.3,104.4z M129.3,107.2c0.3,0,0.5,0,0.8-0.1
		s0.5-0.1,0.7-0.2s0.4-0.2,0.5-0.3c0.1-0.1,0.2-0.3,0.2-0.4V106c0-0.2-0.1-0.3-0.2-0.4c-0.1-0.1-0.3-0.2-0.5-0.3
		c-0.2-0.1-0.4-0.2-0.7-0.2c-0.3,0-0.5-0.1-0.8-0.1c-0.3,0-0.5,0-0.8,0.1c-0.3,0-0.5,0.1-0.7,0.2c-0.2,0.1-0.4,0.2-0.5,0.3
		c-0.1,0.1-0.2,0.3-0.2,0.4v0.2c0,0.2,0.1,0.3,0.2,0.4s0.3,0.2,0.5,0.3c0.2,0.1,0.4,0.1,0.7,0.2C128.7,107.2,129,107.2,129.3,107.2z
		"/>
	<path class="st3" d="M139.9,102.8c-0.3,0-0.6,0.1-1,0.1s-0.8,0.1-1.2,0.1s-1,0-1.6,0s-1.3,0-2,0v-0.6c0.4,0,0.7,0,1,0
		c0.3,0,0.6,0,0.9,0v-1.7h0.7v1.7c0.4,0,0.7,0,1,0c0.3,0,0.6,0,0.8,0c0.3,0,0.5,0,0.7-0.1c0.2,0,0.4,0,0.6-0.1L139.9,102.8z
		 M139.1,98.9v0.9c0,0.4,0,0.7-0.1,1.1c0,0.3-0.1,0.6-0.1,0.8l-0.7-0.1c0.1-0.3,0.1-0.6,0.1-0.8s0.1-0.6,0.1-0.9v-0.4h-3.7v-0.6
		C134.7,98.9,139.1,98.9,139.1,98.9z M141.3,103.8v2.2h-5v1h5.3v0.6h-6v-2.2h5v-1h-5.1v-0.6H141.3z M141.3,100.5h1.4v0.6h-1.4v2.2
		h-0.7v-4.8h0.7V100.5z"/>
	<path class="st3" d="M143.6,105.7h0.9l-0.7,2.2h-0.6L143.6,105.7z"/>
	<path class="st3" d="M153.4,100h-2.1v1.4c0,0.2,0,0.4,0,0.5c0,0.1,0,0.3,0.1,0.4c0,0.1,0.1,0.3,0.2,0.4c0.1,0.1,0.2,0.3,0.3,0.4
		c0.2,0.2,0.4,0.5,0.7,0.8c0.3,0.3,0.6,0.6,1,0.9l-0.4,0.5c-0.3-0.3-0.6-0.6-0.9-0.8s-0.5-0.5-0.7-0.7c-0.1-0.2-0.3-0.3-0.4-0.4
		s-0.2-0.2-0.2-0.3h0c0,0.1,0,0.1-0.1,0.2s-0.1,0.2-0.2,0.2c-0.1,0.1-0.1,0.2-0.2,0.3c-0.1,0.1-0.2,0.2-0.2,0.3
		c-0.1,0.1-0.2,0.2-0.3,0.3c-0.1,0.1-0.2,0.2-0.4,0.4c-0.1,0.1-0.3,0.3-0.4,0.4s-0.3,0.3-0.4,0.4l-0.5-0.5c0.3-0.3,0.6-0.6,0.9-0.8
		c0.3-0.3,0.5-0.5,0.8-0.8c0.2-0.2,0.3-0.3,0.4-0.5c0.1-0.1,0.2-0.3,0.2-0.4s0.1-0.3,0.1-0.4c0-0.1,0-0.3,0-0.5V100h-2.1v-0.6h4.8
		L153.4,100L153.4,100z M155.6,107.6h-0.7v-9h0.7V107.6z"/>
	<path class="st3" d="M163.2,104.3c-0.4,0.1-0.9,0.1-1.3,0.1c-0.4,0-0.9,0.1-1.5,0.1v2.8h-0.7v-2.7c-0.4,0-0.7,0-1.1,0
		c-0.4,0-0.9,0-1.4,0v-0.6c0.7,0,1.4,0,1.9,0c0.6,0,1.1,0,1.6,0c0.5,0,0.9,0,1.3-0.1c0.4,0,0.8-0.1,1.1-0.1L163.2,104.3z
		 M160.4,99.3h2.2v0.6h-5.2v-0.6h2.3v-0.9h0.7V99.3z M160.1,103.3c-0.3,0-0.6,0-0.9-0.1s-0.5-0.2-0.7-0.3c-0.2-0.1-0.3-0.3-0.4-0.4
		c-0.1-0.2-0.2-0.3-0.2-0.5v-0.3c0-0.2,0.1-0.4,0.2-0.6s0.3-0.3,0.4-0.4c0.2-0.1,0.4-0.2,0.7-0.3c0.3-0.1,0.6-0.1,0.9-0.1
		s0.6,0,0.9,0.1s0.5,0.2,0.7,0.3c0.2,0.1,0.3,0.3,0.4,0.4c0.1,0.2,0.2,0.3,0.2,0.5v0.3c0,0.2-0.1,0.4-0.2,0.5s-0.3,0.3-0.4,0.4
		c-0.2,0.1-0.4,0.2-0.7,0.3C160.7,103.3,160.4,103.3,160.1,103.3z M160.1,101c-0.2,0-0.4,0-0.6,0.1c-0.2,0-0.3,0.1-0.5,0.2
		s-0.2,0.2-0.3,0.3c-0.1,0.1-0.1,0.2-0.1,0.3v0.2c0,0.1,0,0.2,0.1,0.3c0.1,0.1,0.2,0.2,0.3,0.3c0.1,0.1,0.3,0.1,0.5,0.2
		c0.2,0,0.4,0.1,0.6,0.1c0.2,0,0.4,0,0.6-0.1c0.2,0,0.3-0.1,0.5-0.2s0.2-0.2,0.3-0.3c0.1-0.1,0.1-0.2,0.1-0.3v-0.2
		c0-0.1,0-0.2-0.1-0.3s-0.2-0.2-0.3-0.3c-0.1-0.1-0.3-0.1-0.5-0.2C160.5,101,160.3,101,160.1,101z M164.6,107.6h-0.7v-9h0.7V107.6z"
		/>
</g>
<g>
	<path class="st3" d="M63.8,194.4c0,0.6,0,1.1-0.2,1.6c-0.1,0.4-0.3,0.9-0.6,1.3s-0.7,0.9-1.3,1.3c-0.5,0.5-1.3,1-2.2,1.6l-1-1.3
		c0.8-0.5,1.4-1,1.9-1.4c0.5-0.4,0.8-0.7,1.1-1.1c0.2-0.3,0.4-0.7,0.5-1.1c0.1-0.4,0.1-0.8,0.1-1.3v-1.2h-3.2v-1.5h4.9V194.4z
		 M66.7,194.5h1.2v-4.3h1.6v12.6h-1.6V196h-1.2v6.2h-1.6v-11.7h1.6V194.5z"/>
	<path class="st3" d="M77.4,196.2h-6v-5.6h1.7v1.6h2.6v-1.6h1.7L77.4,196.2L77.4,196.2z M80.9,197.2v3.5h-6.2v0.9h6.6v1.4H73v-3.6
		h6.2v-0.9H73v-1.3L80.9,197.2L80.9,197.2z M73.1,194.8h2.6v-1.3h-2.6V194.8z M80.9,192.6h1.7v1.5h-1.7v2.5h-1.7v-6.3h1.7V192.6z"/>
	<path class="st3" d="M90.1,190.8v1.4h-4.4v1h4.2v1.4h-4.2v1c1,0,1.9,0,2.7,0c0.9,0,1.8-0.1,2.7-0.2l0.2,1.4
		c-0.4,0.1-0.9,0.1-1.3,0.1c-0.5,0-1,0.1-1.6,0.1c-0.6,0-1.2,0-1.9,0c-0.7,0-1.5,0-2.3,0v-6.2L90.1,190.8L90.1,190.8z M85.7,198h8
		v4.9h-8V198z M87.4,201.4H92v-2h-4.6V201.4z M93.7,197.4H92v-7.2h1.7V197.4z"/>
</g>
<g>
	<path class="st3" d="M201.2,196.6c0.3,0.3,0.6,0.6,0.9,1c0.3,0.3,0.7,0.7,1,1l-1.1,1.1c-0.3-0.3-0.6-0.6-0.9-0.9s-0.6-0.6-0.8-0.8
		c-0.3-0.3-0.5-0.5-0.7-0.7c-0.2-0.2-0.3-0.4-0.3-0.5h0c-0.1,0.1-0.2,0.3-0.4,0.6s-0.4,0.5-0.6,0.7c-0.3,0.3-0.5,0.5-0.8,0.8
		s-0.6,0.6-1,0.9l-1.1-1.2c0.8-0.7,1.4-1.4,2-2c0.2-0.2,0.4-0.4,0.5-0.6s0.2-0.4,0.3-0.6s0.1-0.4,0.2-0.6s0.1-0.5,0.1-0.8v-2.9h1.8
		v2.9c0,0.3,0,0.5,0,0.7s0.1,0.4,0.1,0.6c0.1,0.2,0.2,0.4,0.3,0.6C200.9,196.2,201,196.4,201.2,196.6z M205.6,194.7h1.7v1.5h-1.7
		v6.7h-1.7v-12.6h1.7V194.7z"/>
	<path class="st3" d="M211.4,196.6c-0.5,0-1-0.1-1.4-0.2s-0.7-0.4-1-0.6c-0.3-0.3-0.5-0.6-0.6-0.9s-0.2-0.7-0.2-1v-0.4
		c0-0.4,0.1-0.7,0.2-1c0.1-0.3,0.3-0.6,0.6-0.9c0.3-0.3,0.6-0.5,1-0.6c0.4-0.1,0.9-0.2,1.4-0.2c0.5,0,0.9,0.1,1.2,0.2
		c0.4,0.1,0.7,0.3,0.9,0.5s0.5,0.4,0.6,0.7s0.3,0.6,0.3,0.9h2.1v-2.6h1.7v6.5h-1.7v-2.4h-2.1c-0.1,0.3-0.2,0.6-0.3,0.9
		c-0.2,0.3-0.4,0.5-0.6,0.7c-0.3,0.2-0.6,0.4-0.9,0.5C212.3,196.5,211.9,196.6,211.4,196.6z M211.4,192.1c-0.3,0-0.5,0-0.7,0.1
		c-0.2,0.1-0.4,0.2-0.5,0.3s-0.2,0.3-0.3,0.4s-0.1,0.3-0.1,0.5v0.3c0,0.2,0,0.3,0.1,0.5c0.1,0.2,0.2,0.3,0.3,0.4
		c0.1,0.1,0.3,0.2,0.5,0.3s0.4,0.1,0.7,0.1s0.5,0,0.7-0.1c0.2-0.1,0.4-0.2,0.5-0.3s0.2-0.3,0.3-0.4s0.1-0.3,0.1-0.5v-0.3
		c0-0.2,0-0.3-0.1-0.5c-0.1-0.2-0.2-0.3-0.3-0.4c-0.1-0.1-0.3-0.2-0.5-0.3C211.9,192.1,211.7,192.1,211.4,192.1z M218.4,197.3v5.6
		h-8v-5.6h1.7v1.4h4.6v-1.4H218.4z M216.7,201.4v-1.3h-4.6v1.3H216.7z"/>
	<path class="st3" d="M227.1,190.8v1.4h-4.4v1h4.2v1.4h-4.2v1c1,0,1.9,0,2.7,0c0.9,0,1.8-0.1,2.6-0.2l0.1,1.4
		c-0.4,0.1-0.9,0.1-1.4,0.1c-0.5,0-1,0.1-1.6,0.1s-1.2,0-1.9,0c-0.7,0-1.5,0-2.4,0v-6.2L227.1,190.8L227.1,190.8z M222.8,198h8v4.9
		h-8V198z M224.4,201.4h4.6v-2h-4.6V201.4z M230.8,197.4H229v-7.2h1.7V197.4z"/>
</g>
<g>
	<path class="st3" d="M63.9,352.7v1.3H52.4v-1.3H63.9z M62.5,347.5v1.3h-1.5v1.8h1.5v1.3h-8.9v-1.3h1.5v-1.8h-1.5v-1.3H62.5z
		 M62.3,354.7v3.2h-6.7v0.7h7v1.3H54v-3.2h6.7V356h-6.8v-1.3H62.3z M56.9,350.6h2.5v-1.8h-2.5V350.6z"/>
	<path class="st3" d="M68.3,350.5v-1.2H65V348h4.9v3.9h-3.3v1.2c0.7,0,1.3,0,2,0c0.7,0,1.3-0.1,1.8-0.1l0.2,1.3
		c-0.6,0.1-1.3,0.1-2.2,0.2c-0.9,0-2,0-3.4,0v-3.9H68.3z M71,357.8c-0.1,0.1-0.2,0.3-0.4,0.4s-0.5,0.3-0.9,0.5
		c-0.4,0.2-0.9,0.5-1.4,0.7c-0.5,0.2-0.9,0.4-1.4,0.6l-0.7-1.4c0.5-0.2,1-0.4,1.5-0.7c0.5-0.2,1-0.5,1.4-0.7
		c0.3-0.2,0.6-0.4,0.7-0.6c0.2-0.2,0.2-0.5,0.2-0.9V355h1.7v0.8c0,0.3,0.1,0.6,0.2,0.9c0.1,0.2,0.4,0.4,0.7,0.6
		c0.2,0.1,0.4,0.2,0.7,0.3c0.2,0.1,0.5,0.2,0.8,0.4s0.5,0.2,0.8,0.3c0.3,0.1,0.5,0.2,0.8,0.3l-0.7,1.4c-0.5-0.2-1-0.4-1.4-0.6
		c-0.5-0.2-0.9-0.4-1.3-0.6c-0.3-0.2-0.6-0.3-0.8-0.5C71.2,358,71.1,357.9,71,357.8L71,357.8L71,357.8z M72.8,350.2h1v-3h1.6v8.3
		h-1.6v-3.8h-1v2.7h-1.6v-6.9h1.6V350.2z"/>
	<path class="st3" d="M87.2,347.7v1.3h-1.4v2h1.5v1.3h-3.6v1h4.9v1.4H77v-1.4h4.9v-1h-3.6V351h1.5v-2h-1.4v-1.3H87.2z M78.7,355.5
		H87v4.4h-8.3V355.5z M80.3,358.5h4.9v-1.6h-4.9V358.5z M81.6,351H84v-2h-2.5V351z"/>
	<path class="st3" d="M96.2,347.8v1.4h-4.4v1h4.2v1.4h-4.2v1c1,0,1.9,0,2.7,0c0.9,0,1.8-0.1,2.7-0.2l0.2,1.4c-0.4,0-0.9,0.1-1.3,0.1
		c-0.5,0-1,0-1.6,0.1c-0.6,0-1.2,0-1.9,0c-0.7,0-1.5,0-2.3,0v-6.2L96.2,347.8L96.2,347.8z M91.8,355h8v4.9h-8V355z M93.5,358.4h4.6
		v-2h-4.6V358.4z M99.8,354.4h-1.7v-7.2h1.7V354.4z"/>
</g>
<g>
	<path class="st3" d="M195.6,354c0.7-0.3,1.3-0.5,1.8-0.7c0.5-0.2,0.9-0.4,1.2-0.5c0.3-0.2,0.6-0.3,0.8-0.5s0.3-0.3,0.4-0.4
		l-4.1,0.2l0-1.4l4.3-0.1v-1.2H196V348h5.6v2.6h2.4v-3.3h1.7v9H204v-4.2h-2.6c-0.1,0.3-0.3,0.7-0.5,0.9c-0.2,0.3-0.6,0.5-1,0.8
		c-0.4,0.3-0.9,0.5-1.5,0.8c-0.6,0.3-1.4,0.5-2.2,0.8L195.6,354z M199.4,358.2h6.5v1.5h-8.2v-4.2h1.7V358.2z"/>
	<path class="st3" d="M211.4,351.4c-0.1,0.1-0.1,0.3-0.3,0.4c-0.2,0.2-0.4,0.4-0.6,0.5c-0.3,0.2-0.6,0.5-0.9,0.7
		c-0.3,0.3-0.7,0.5-1.1,0.8l-1-1.3c0.4-0.3,0.8-0.5,1.1-0.8c0.3-0.2,0.6-0.5,0.9-0.8c0.3-0.3,0.6-0.6,0.7-0.9s0.2-0.7,0.2-1.1v-1.5
		h1.7v1.5c0,0.2,0,0.4,0,0.6s0.1,0.3,0.1,0.5c0.1,0.2,0.2,0.3,0.3,0.4c0.1,0.1,0.3,0.3,0.5,0.4c0.1,0.1,0.2,0.2,0.4,0.3
		c0.1,0.1,0.3,0.2,0.5,0.3c0.2,0.1,0.3,0.2,0.5,0.4c0.2,0.1,0.4,0.2,0.5,0.3l-0.9,1.2c-0.6-0.4-1.1-0.8-1.7-1.2
		c-0.3-0.2-0.5-0.4-0.6-0.5C211.6,351.6,211.5,351.5,211.4,351.4L211.4,351.4L211.4,351.4z M218,354.1v3.6h-6.2v0.9h6.6v1.3h-8.3
		v-3.6h6.2v-0.9h-6.3v-1.3H218z M216.3,350.7h-2.2v-1.5h2.2v-2h1.7v6.3h-1.7V350.7z"/>
	<path class="st3" d="M226.8,347.8v1.4h-4.4v1.1h4.2v1.4h-4.2v1.1c1,0,1.9,0,2.7,0c0.9,0,1.8-0.1,2.6-0.2l0.1,1.4
		c-0.4,0-0.9,0.1-1.4,0.1c-0.5,0-1,0-1.6,0.1s-1.2,0-1.9,0c-0.7,0-1.5,0-2.4,0v-6.4L226.8,347.8L226.8,347.8z M226.5,360.2
		c-0.6,0-1.1-0.1-1.6-0.2c-0.5-0.1-0.9-0.3-1.2-0.5c-0.3-0.2-0.6-0.5-0.8-0.8c-0.2-0.3-0.3-0.6-0.3-1v-0.5c0-0.4,0.1-0.7,0.3-1
		c0.2-0.3,0.5-0.5,0.8-0.8c0.3-0.2,0.8-0.4,1.2-0.5c0.5-0.1,1-0.2,1.6-0.2s1.1,0.1,1.6,0.2c0.5,0.1,0.9,0.3,1.2,0.5
		c0.3,0.2,0.6,0.5,0.8,0.8c0.2,0.3,0.3,0.6,0.3,1v0.5c0,0.4-0.1,0.7-0.3,1c-0.2,0.3-0.5,0.5-0.8,0.8c-0.3,0.2-0.8,0.4-1.2,0.5
		C227.6,360.2,227.1,360.2,226.5,360.2z M226.5,356.3c-0.4,0-0.7,0-0.9,0.1c-0.3,0.1-0.5,0.2-0.7,0.3c-0.2,0.1-0.4,0.2-0.4,0.4
		c-0.1,0.1-0.2,0.3-0.2,0.4v0.3c0,0.1,0.1,0.3,0.2,0.4c0.1,0.1,0.3,0.3,0.4,0.4s0.4,0.2,0.7,0.3c0.3,0.1,0.6,0.1,0.9,0.1
		s0.7,0,0.9-0.1c0.3-0.1,0.5-0.2,0.7-0.3c0.2-0.1,0.4-0.2,0.4-0.4c0.1-0.1,0.2-0.3,0.2-0.4v-0.3c0-0.1-0.1-0.3-0.2-0.4
		c-0.1-0.1-0.3-0.3-0.4-0.4c-0.2-0.1-0.4-0.2-0.7-0.3C227.1,356.3,226.8,356.3,226.5,356.3z M230.4,354.8h-1.7v-7.6h1.7V354.8z"/>
</g>
</svg>
