<?xml version="1.0" encoding="utf-8"?>
<!-- Generator: Adobe Illustrator 23.0.1, SVG Export Plug-In . SVG Version: 6.00 Build 0)  -->
<svg version="1.1" id="레이어_1" xmlns="http://www.w3.org/2000/svg" xmlns:xlink="http://www.w3.org/1999/xlink" x="0px"
	 y="0px" viewBox="0 0 600 200" style="enable-background:new 0 0 600 200;" xml:space="preserve">
<style type="text/css">
	.st0{fill:none;}
	.st1{fill:url(#SVGID_1_);}
	.st2{fill:url(#SVGID_2_);}
	.st3{fill:url(#SVGID_3_);}
	.st4{fill:url(#SVGID_4_);}
	.st5{fill:url(#SVGID_5_);}
	.st6{fill:url(#SVGID_6_);}
	.st7{fill:url(#SVGID_7_);}
	.st8{fill:url(#SVGID_8_);}
	.st9{fill:url(#SVGID_9_);}
</style>
<polygon class="st0" points="283.2,76.5 241.8,52.6 241.7,52.6 200.3,76.5 200.3,76.6 200.3,124.4 200.4,124.4 241.7,148.3 
	241.8,148.2 241.8,148.3 241.8,148.3 241.8,148.2 283.2,124.4 283.2,76.6 283.2,76.6 283.2,76.6 283.2,76.6 "/>
<linearGradient id="SVGID_1_" gradientUnits="userSpaceOnUse" x1="298.4107" y1="22.1533" x2="205.2061" y2="70.3625">
	<stop  offset="0" style="stop-color:#24FF0A"/>
	<stop  offset="7.386023e-02" style="stop-color:#20FA17"/>
	<stop  offset="0.3781" style="stop-color:#12E849"/>
	<stop  offset="0.6448" style="stop-color:#08DB6D"/>
	<stop  offset="0.8612" style="stop-color:#02D383"/>
	<stop  offset="1" style="stop-color:#00D08B"/>
</linearGradient>
<polygon class="st1" points="241.8,52.6 283.2,76.5 283.2,76.6 283.2,76.6 283.2,28.8 283.2,28.8 283.2,28.8 241.8,4.9 200.4,28.8 
	200.4,28.8 241.7,52.6 "/>
<linearGradient id="SVGID_2_" gradientUnits="userSpaceOnUse" x1="142.1821" y1="84.3533" x2="281.1855" y2="11.2359">
	<stop  offset="0" style="stop-color:#004FB0"/>
	<stop  offset="0.1209" style="stop-color:#0659BD"/>
	<stop  offset="0.4968" style="stop-color:#1675E1"/>
	<stop  offset="0.8032" style="stop-color:#1F86F7"/>
	<stop  offset="1" style="stop-color:#238CFF"/>
</linearGradient>
<polygon class="st2" points="200.3,76.5 241.7,52.6 200.4,28.8 159,52.7 159,100.4 200.3,76.6 "/>
<linearGradient id="SVGID_3_" gradientUnits="userSpaceOnUse" x1="310.2079" y1="44.9613" x2="217.0034" y2="93.1706">
	<stop  offset="0" style="stop-color:#24FF0A"/>
	<stop  offset="7.386023e-02" style="stop-color:#20FA17"/>
	<stop  offset="0.3781" style="stop-color:#12E849"/>
	<stop  offset="0.6448" style="stop-color:#08DB6D"/>
	<stop  offset="0.8612" style="stop-color:#02D383"/>
	<stop  offset="1" style="stop-color:#00D08B"/>
</linearGradient>
<polygon class="st3" points="200.4,124.4 200.3,124.4 200.3,76.6 159,100.4 159,100.5 159,148.2 159.2,148.3 200.4,124.6 "/>
<linearGradient id="SVGID_4_" gradientUnits="userSpaceOnUse" x1="158.505" y1="170.3173" x2="297.5084" y2="97.2">
	<stop  offset="0" style="stop-color:#004FB0"/>
	<stop  offset="0.1209" style="stop-color:#0659BD"/>
	<stop  offset="0.4968" style="stop-color:#1675E1"/>
	<stop  offset="0.8032" style="stop-color:#1F86F7"/>
	<stop  offset="1" style="stop-color:#238CFF"/>
</linearGradient>
<polygon class="st4" points="200.4,124.4 200.3,124.4 200.3,124.4 200.3,172.1 200.4,172.2 241.8,148.3 200.4,124.4 "/>
<linearGradient id="SVGID_5_" gradientUnits="userSpaceOnUse" x1="169.5452" y1="136.3732" x2="308.5486" y2="63.2559">
	<stop  offset="0" style="stop-color:#004FB0"/>
	<stop  offset="0.1209" style="stop-color:#0659BD"/>
	<stop  offset="0.4968" style="stop-color:#1675E1"/>
	<stop  offset="0.8032" style="stop-color:#1F86F7"/>
	<stop  offset="1" style="stop-color:#238CFF"/>
</linearGradient>
<polygon class="st5" points="283.2,28.8 283.2,76.6 283.2,76.6 283.2,76.6 283.2,124.4 283.2,124.4 283.2,124.4 324.6,100.5 
	324.6,52.7 "/>
<linearGradient id="SVGID_6_" gradientUnits="userSpaceOnUse" x1="349.2491" y1="114.0634" x2="234.5446" y2="173.3933">
	<stop  offset="0" style="stop-color:#24FF0A"/>
	<stop  offset="7.386023e-02" style="stop-color:#20FA17"/>
	<stop  offset="0.3781" style="stop-color:#12E849"/>
	<stop  offset="0.6448" style="stop-color:#08DB6D"/>
	<stop  offset="0.8612" style="stop-color:#02D383"/>
	<stop  offset="1" style="stop-color:#00D08B"/>
</linearGradient>
<polygon class="st6" points="283.2,124.4 283.2,124.4 283.2,124.4 241.8,148.2 241.8,148.2 241.8,148.2 241.7,148.2 241.7,148.2 
	241.7,196 241.8,196 283.2,172.1 283.2,172.1 283.2,172.2 324.6,148.3 324.6,100.5 324.6,100.5 "/>
<linearGradient id="SVGID_7_" gradientUnits="userSpaceOnUse" x1="-11.6193" y1="110.6739" x2="676.7809" y2="46.4631">
	<stop  offset="0" style="stop-color:#004FB0"/>
	<stop  offset="0.1209" style="stop-color:#0659BD"/>
	<stop  offset="0.4968" style="stop-color:#1675E1"/>
	<stop  offset="0.8032" style="stop-color:#1F86F7"/>
	<stop  offset="1" style="stop-color:#238CFF"/>
</linearGradient>
<polygon class="st7" points="133.2,52.7 105.5,52.7 77.4,87 77.4,52.7 55,52.7 55,148.5 77.4,148.5 77.4,119.9 82.4,113.8 
	110.7,148.5 137.3,148.5 96.5,96.5 "/>
<linearGradient id="SVGID_8_" gradientUnits="userSpaceOnUse" x1="31.7116" y1="134.4235" x2="720.1118" y2="70.2127">
	<stop  offset="0" style="stop-color:#004FE6"/>
	<stop  offset="0.3953" style="stop-color:#126EF3"/>
	<stop  offset="0.7636" style="stop-color:#1E84FC"/>
	<stop  offset="1" style="stop-color:#238CFF"/>
</linearGradient>
<path class="st8" d="M421.6,101.4c3.2-5.1,4.9-10.8,4.9-17c0-4.1-0.8-8.1-2.3-12c-1.5-3.8-3.8-7.2-6.6-10.2c-2.8-2.9-6.3-5.3-10.1-7
	c-3.9-1.7-8.3-2.6-12.9-2.6h-39.9v95.8H377v-32.4h14l18.4,32.4h24.1l-21.5-37.7C416,108.4,419.2,105.2,421.6,101.4z M404.4,84.4
	c0,3.7-0.9,6.5-2.8,8.5c-1.7,1.9-4.3,2.9-7.8,2.9H377V73h16.8c3.5,0,6,0.9,7.8,2.9C403.5,77.9,404.4,80.7,404.4,84.4z"/>
<linearGradient id="SVGID_9_" gradientUnits="userSpaceOnUse" x1="41.4952" y1="141.3569" x2="729.8953" y2="77.146">
	<stop  offset="0" style="stop-color:#004FB0"/>
	<stop  offset="0.1209" style="stop-color:#0659BD"/>
	<stop  offset="0.4968" style="stop-color:#1675E1"/>
	<stop  offset="0.8032" style="stop-color:#1F86F7"/>
	<stop  offset="1" style="stop-color:#238CFF"/>
</linearGradient>
<polygon class="st9" points="529.2,52.7 514.2,101.9 498.5,63.8 486.9,63.8 471.2,102 456,52.7 433.3,52.7 462.3,148.5 475,148.5 
	492.7,104.1 510.4,148.5 523.2,148.5 552,52.7 "/>
</svg>
