<?xml version="1.0" encoding="utf-8"?>
<!-- Generator: Adobe Illustrator 23.0.1, SVG Export Plug-In . SVG Version: 6.00 Build 0)  -->
<svg version="1.1" id="레이어_1" xmlns="http://www.w3.org/2000/svg" xmlns:xlink="http://www.w3.org/1999/xlink" x="0px"
	 y="0px" viewBox="0 0 147 69" style="enable-background:new 0 0 147 69;" xml:space="preserve">
<style type="text/css">
	.st0{fill:url(#SVGID_1_);}
	.st1{fill:url(#SVGID_2_);}
	.st2{fill:url(#SVGID_3_);}
	.st3{fill:url(#SVGID_4_);}
	.st4{fill:url(#SVGID_5_);}
	.st5{fill:url(#SVGID_6_);}
	.st6{fill:url(#SVGID_7_);}
	.st7{fill:url(#SVGID_8_);}
	.st8{fill:url(#SVGID_9_);}
	.st9{fill:url(#SVGID_10_);}
</style>
<g>
	<linearGradient id="SVGID_1_" gradientUnits="userSpaceOnUse" x1="-19.1353" y1="168.7141" x2="98.1522" y2="1.6477">
		<stop  offset="0" style="stop-color:#0071BC"/>
		<stop  offset="1" style="stop-color:#0B31B3"/>
	</linearGradient>
	<path class="st0" d="M79.73,29.18c-0.53,0.36-1.09,0.54-1.68,0.54h-3.42l5.56-24.07h5.64l-2.42,10.48l8.87-10.48h6.34L88.58,16.93
		l5.03,12.79h-6.17l-4.43-11.87l-2.29,9.92C80.58,28.35,80.25,28.81,79.73,29.18z"/>
	<linearGradient id="SVGID_2_" gradientUnits="userSpaceOnUse" x1="-6.4978" y1="177.5861" x2="110.7896" y2="10.5197">
		<stop  offset="0" style="stop-color:#0071BC"/>
		<stop  offset="1" style="stop-color:#0B31B3"/>
	</linearGradient>
	<path class="st1" d="M115.19,13.54c-0.21,1.32-0.48,2.7-0.82,4.14c-0.33,1.45-0.71,2.85-1.12,4.23c-0.71,2.41-1.95,4.39-3.75,5.93
		c-1.79,1.55-4.01,2.32-6.64,2.32c-2.35,0-4.16-0.74-5.42-2.21c-1.26-1.47-1.66-3.5-1.2-6.07c0.23-1.32,0.52-2.73,0.87-4.24
		c0.35-1.51,0.7-2.89,1.06-4.13c0.69-2.43,2.01-4.42,3.96-5.96c1.95-1.55,4.11-2.32,6.48-2.32c2.48,0,4.3,0.79,5.44,2.38
		C115.22,9.19,115.59,11.17,115.19,13.54z M107.87,21.3c0.34-1.15,0.68-2.45,1.03-3.91c0.34-1.45,0.6-2.6,0.75-3.43
		c0.21-1.15,0.16-2.17-0.16-3.06c-0.31-0.89-0.93-1.33-1.86-1.33c-0.85,0-1.65,0.4-2.39,1.2c-0.74,0.8-1.3,1.86-1.68,3.2
		c-0.27,0.95-0.59,2.23-0.96,3.85c-0.37,1.62-0.62,2.82-0.76,3.6c-0.24,1.33-0.17,2.4,0.19,3.21s0.98,1.21,1.85,1.21
		c0.93,0,1.71-0.38,2.36-1.13C106.88,23.95,107.42,22.82,107.87,21.3z"/>
	<linearGradient id="SVGID_3_" gradientUnits="userSpaceOnUse" x1="7.3409" y1="187.3014" x2="124.6283" y2="20.2351">
		<stop  offset="0" style="stop-color:#0071BC"/>
		<stop  offset="1" style="stop-color:#0B31B3"/>
	</linearGradient>
	<path class="st2" d="M114.71,29.72l5.56-24.07h9.23c2.43,0,4.16,0.71,5.21,2.13c1.04,1.42,1.32,3.17,0.84,5.27
		c-0.39,1.71-1.25,3.17-2.57,4.39c-1.32,1.22-2.46,1.88-3.43,1.97c0.52,0.46,0.89,0.91,1.11,1.35s0.35,0.96,0.42,1.57
		c0.15,1.28,0.31,2.66,0.48,4.14c0.17,1.48,0.51,2.57,1.04,3.25h-6.11c-0.56-0.69-0.83-1.77-0.8-3.27s-0.02-2.82-0.14-3.99
		c-0.05-0.57-0.19-1.1-0.4-1.57c-0.21-0.47-0.45-0.71-0.71-0.71h-1.86l-1.75,7.59c-0.13,0.57-0.46,1.04-0.99,1.4
		c-0.53,0.36-1.09,0.54-1.68,0.54H114.71z M129.9,13.04c0.22-0.96,0.16-1.71-0.19-2.25c-0.35-0.54-0.85-0.81-1.49-0.81h-3.31
		l-1.41,6.11h3.31c0.65,0,1.27-0.27,1.87-0.81C129.26,14.75,129.68,14,129.9,13.04z"/>
	<linearGradient id="SVGID_4_" gradientUnits="userSpaceOnUse" x1="-7.1976" y1="177.0948" x2="110.0898" y2="10.0284">
		<stop  offset="0" style="stop-color:#0071BC"/>
		<stop  offset="1" style="stop-color:#0B31B3"/>
	</linearGradient>
	<path class="st3" d="M87.82,56.99c-1.9,1.51-4.11,2.27-6.61,2.27c-1.91,0-3.51-0.57-4.81-1.7c-1.3-1.13-1.91-2.9-1.83-5.31
		c0.07-1.76,0.32-3.58,0.75-5.46s1.01-3.67,1.76-5.38c1.08-2.48,2.58-4.27,4.52-5.35c1.94-1.08,3.72-1.63,5.35-1.63
		c2.37,0,4.17,0.68,5.4,2.03c1.23,1.35,1.74,3.25,1.55,5.7h-5.75c0.17-1.04,0.03-1.86-0.42-2.47c-0.44-0.61-0.99-0.92-1.64-0.92
		c-1.07,0-2.03,0.66-2.87,1.97c-0.84,1.32-1.58,3.35-2.22,6.12c-0.69,3-0.92,5.1-0.67,6.28c0.24,1.19,0.93,1.78,2.06,1.78
		c0.55,0,1.2-0.29,1.93-0.88c0.73-0.58,1.28-1.42,1.66-2.52h5.75C91.03,53.66,89.73,55.48,87.82,56.99z"/>
	<linearGradient id="SVGID_5_" gradientUnits="userSpaceOnUse" x1="5.4335" y1="185.9624" x2="122.721" y2="18.896">
		<stop  offset="0" style="stop-color:#0071BC"/>
		<stop  offset="1" style="stop-color:#0B31B3"/>
	</linearGradient>
	<path class="st4" d="M112.52,42.71c-0.21,1.32-0.48,2.7-0.82,4.14c-0.33,1.45-0.71,2.85-1.12,4.23c-0.71,2.41-1.95,4.39-3.75,5.93
		c-1.79,1.55-4.01,2.32-6.64,2.32c-2.35,0-4.16-0.74-5.42-2.21c-1.26-1.47-1.66-3.5-1.2-6.07c0.23-1.32,0.52-2.73,0.87-4.24
		c0.35-1.51,0.7-2.89,1.06-4.13c0.69-2.43,2.01-4.42,3.96-5.96c1.95-1.55,4.11-2.32,6.48-2.32c2.48,0,4.3,0.79,5.44,2.38
		C112.55,38.36,112.92,40.34,112.52,42.71z M105.2,50.47c0.34-1.15,0.68-2.45,1.03-3.91c0.34-1.45,0.6-2.6,0.75-3.43
		c0.21-1.15,0.16-2.17-0.16-3.06c-0.31-0.89-0.93-1.33-1.86-1.33c-0.85,0-1.65,0.4-2.39,1.2c-0.74,0.8-1.3,1.86-1.68,3.2
		c-0.27,0.95-0.59,2.23-0.96,3.85c-0.37,1.62-0.62,2.82-0.76,3.6c-0.24,1.33-0.17,2.4,0.19,3.21S100.33,55,101.2,55
		c0.93,0,1.71-0.38,2.36-1.13C104.21,53.12,104.75,51.99,105.2,50.47z"/>
	<linearGradient id="SVGID_6_" gradientUnits="userSpaceOnUse" x1="14.9181" y1="192.6209" x2="132.2055" y2="25.5545">
		<stop  offset="0" style="stop-color:#0071BC"/>
		<stop  offset="1" style="stop-color:#0B31B3"/>
	</linearGradient>
	<path class="st5" d="M117.57,34.82h5.64l-5.11,22.13c-0.13,0.57-0.46,1.04-0.99,1.4c-0.53,0.36-1.09,0.54-1.68,0.54h-3.42
		L117.57,34.82z"/>
	<linearGradient id="SVGID_7_" gradientUnits="userSpaceOnUse" x1="25.3545" y1="199.9477" x2="142.6419" y2="32.8813">
		<stop  offset="0" style="stop-color:#0071BC"/>
		<stop  offset="1" style="stop-color:#0B31B3"/>
	</linearGradient>
	<path class="st6" d="M134.36,58.89l-4.17-12.54c-0.02-0.09-0.03-0.31-0.04-0.65c-0.01-0.34-0.04-0.56-0.07-0.65
		c-0.01,0.13-0.04,0.38-0.09,0.76c-0.05,0.38-0.09,0.63-0.11,0.74l-2.4,10.4c-0.13,0.57-0.46,1.04-0.99,1.4
		c-0.53,0.36-1.09,0.54-1.68,0.54h-3.42l5.56-24.07h5.09l4.09,12.26c0.05,0.11,0.08,0.33,0.1,0.65c0.02,0.32,0.05,0.56,0.09,0.71
		c0.03-0.15,0.07-0.39,0.11-0.72c0.04-0.33,0.08-0.57,0.11-0.69l2.82-12.2H145l-5.11,22.13c-0.13,0.57-0.46,1.04-0.99,1.4
		c-0.53,0.36-1.09,0.54-1.68,0.54H134.36z"/>
</g>
<g>
	<linearGradient id="SVGID_8_" gradientUnits="userSpaceOnUse" x1="-53.0965" y1="144.8719" x2="64.1909" y2="-22.1945">
		<stop  offset="0" style="stop-color:#0071BC"/>
		<stop  offset="1" style="stop-color:#0B31B3"/>
	</linearGradient>
	<polygon class="st7" points="45.45,30.41 48.02,28.93 48.02,12.73 33.99,4.62 19.95,12.73 19.95,28.93 22.52,30.41 33.99,23.79 	
		"/>
	<linearGradient id="SVGID_9_" gradientUnits="userSpaceOnUse" x1="-50.9396" y1="146.3862" x2="66.3479" y2="-20.6802">
		<stop  offset="0" style="stop-color:#0071BC"/>
		<stop  offset="1" style="stop-color:#0B31B3"/>
	</linearGradient>
	<polygon class="st8" points="21.42,32.41 18.77,30.88 4.74,38.98 4.74,55.19 18.77,63.29 32.81,55.19 32.81,52.12 21.42,45.55 	"/>
	<linearGradient id="SVGID_10_" gradientUnits="userSpaceOnUse" x1="-28.3593" y1="162.2384" x2="88.9282" y2="-4.8279">
		<stop  offset="0" style="stop-color:#0071BC"/>
		<stop  offset="1" style="stop-color:#0B31B3"/>
	</linearGradient>
	<polygon class="st9" points="49.06,30.88 46.55,32.33 46.55,45.55 35.02,52.21 35.02,55.19 49.06,63.29 63.09,55.19 63.09,38.98 	
		"/>
</g>
</svg>
