<?xml version="1.0" encoding="utf-8"?>
<!-- Generator: Adobe Illustrator 16.0.0, SVG Export Plug-In . SVG Version: 6.00 Build 0)  -->
<!DOCTYPE svg PUBLIC "-//W3C//DTD SVG 1.1//EN" "http://www.w3.org/Graphics/SVG/1.1/DTD/svg11.dtd">
<svg version="1.1" id="Layer_1" xmlns="http://www.w3.org/2000/svg" xmlns:xlink="http://www.w3.org/1999/xlink" x="0px" y="0px"
	 width="30px" height="30px" viewBox="0 0 30 30" enable-background="new 0 0 30 30" xml:space="preserve">
<path fill="#195BBC" d="M17.538,15L29.497,3.042c0.684-0.684,0.669-1.806-0.032-2.506c-0.701-0.701-1.823-0.715-2.507-0.032
	L15,12.462L3.042,0.503C2.358-0.18,1.236-0.166,0.535,0.535C-0.167,1.236-0.18,2.358,0.502,3.042L12.461,15L0.503,26.958
	c-0.684,0.684-0.669,1.806,0.032,2.507c0.701,0.701,1.823,0.715,2.506,0.032L15,17.539l11.958,11.958
	c0.684,0.684,1.806,0.669,2.507-0.032s0.715-1.823,0.031-2.507L17.538,15z"/>
</svg>
