<?xml version="1.0" encoding="utf-8"?>
<!-- Generator: Adobe Illustrator 16.0.0, SVG Export Plug-In . SVG Version: 6.00 Build 0)  -->
<!DOCTYPE svg PUBLIC "-//W3C//DTD SVG 1.1//EN" "http://www.w3.org/Graphics/SVG/1.1/DTD/svg11.dtd">
<svg version="1.1" id="Layer_1" xmlns="http://www.w3.org/2000/svg" xmlns:xlink="http://www.w3.org/1999/xlink" x="0px" y="0px"
	 width="30px" height="30px" viewBox="0 0 30 30" enable-background="new 0 0 30 30" xml:space="preserve">
<path fill="#195BBC" d="M30,1.795c0,0.991-0.783,1.795-1.75,1.795H1.75C0.784,3.59,0,2.786,0,1.795l0,0C0,0.804,0.784,0,1.75,0h26.5
	C29.217,0,30,0.804,30,1.795L30,1.795z"/>
<path fill="#195BBC" d="M30,10.599c0,0.991-0.783,1.795-1.75,1.795H1.75c-0.966,0-1.75-0.804-1.75-1.795l0,0
	c0-0.991,0.784-1.795,1.75-1.795h26.5C29.217,8.804,30,9.607,30,10.599L30,10.599z"/>
<path fill="#195BBC" d="M30,19.402c0,0.99-0.783,1.795-1.75,1.795H1.75c-0.966,0-1.75-0.805-1.75-1.795l0,0
	c0-0.991,0.784-1.795,1.75-1.795h26.5C29.217,17.607,30,18.411,30,19.402L30,19.402z"/>
<path fill="#195BBC" d="M30,28.205C30,29.196,29.217,30,28.25,30H1.75C0.784,30,0,29.196,0,28.205l0,0
	c0-0.989,0.784-1.795,1.75-1.795h26.5C29.217,26.41,30,27.216,30,28.205L30,28.205z"/>
</svg>
